<svg xmlns="http://www.w3.org/2000/svg" width="556" height="485" viewBox="0 0 556 485" fill="none"><rect width="556" height="485" transform="matrix(-1 0 0 1 556 0)" fill="#2F0F2C"></rect><mask id="mask0_1360_3" style="mask-type:alpha" maskUnits="userSpaceOnUse" x="0" y="0" width="556" height="485"><rect width="556" height="485" transform="matrix(-1 0 0 1 556 0)" fill="#2F0F2C"></rect></mask><g mask="url(#mask0_1360_3)"><path opacity="0.6" d="M269.5 115L-1.5 245V491H562V257L269.5 115Z" fill="black" stroke="#A28EFC" stroke-width="0.5"></path><path opacity="0.9" d="M-2 246L269.5 115M269.5 115V-1M269.5 115L580 265.5" stroke="#FEA5A4" stroke-width="0.5"></path><path d="M386.098 298L313 257L390.115 214L461.5 252.5L386.098 298Z" fill="#271B26" stroke="#A28EFC"></path><path d="M156.902 268L255 327.401L155.294 386L58 326.599L156.902 268Z" stroke="#A28EFC"></path><path d="M156.902 268L255 327.401L155.294 386L58 326.599L156.902 268Z" fill="#271B26" stroke="#F44336"></path><path d="M255 340.716V327L155 385.898V399L255 340.716Z" stroke="#F44336"></path><path d="M58 339.753V326L155 385.865V399L58 339.753Z" stroke="#F44336"></path><path d="M152 346.4L172 356L163.2 340L152 346.4Z" stroke="#F44336"></path><path d="M143.2 336.474L151.343 347.772L139.943 351M143.2 336.474L139.943 351M143.2 336.474L123.657 343.737M143.2 336.474L129.357 328.854M143.2 336.474L166 330.018L148.9 320.333M139.943 351L123.657 343.737M123.657 343.737L129.357 328.854M129.357 328.854L117.957 338.088L109 334.053M129.357 328.854L113.071 314.684M129.357 328.854C122.197 330.827 110.206 334.053 109 334.053M129.357 328.854C129.934 328.695 128.851 328.994 129.357 328.854ZM129.357 328.854L148.9 320.333M109 334.053L113.071 314.684M113.071 314.684L130.986 305L148.9 320.333M113.071 314.684L148.9 320.333" stroke="#F44336"></path><path d="M148.823 319.911L169.886 307.857M169.886 307.857L135.861 308.661L131 304.643L157.734 295M169.886 307.857L157.734 295M169.886 307.857L182.848 298.214M169.886 307.857L195 308.661M169.886 307.857L180.418 318.304M169.886 307.857L166.646 329.554M157.734 295L182.848 298.214M182.848 298.214L195 308.661M195 308.661L180.418 318.304M180.418 318.304L166.646 329.554M180.418 318.304L183.658 325.536L163.405 340L166.646 329.554" stroke="#F44336"></path><path d="M344.086 268.857C344.618 266.348 344.263 231.404 344.006 213.46L419 170V225.532C394.5 239.319 346.395 266.626 344.086 268.857C344.061 268.974 344.035 269.02 344.006 268.992C343.987 268.972 344.014 268.927 344.086 268.857Z" fill="#130612"></path><path d="M344.006 213.46C344.275 232.239 344.651 269.636 344.006 268.992C343.361 268.348 393.733 239.75 419 225.532V170L344.006 213.46Z" stroke="#A28EFC"></path><path d="M313 265.694V257L386 298.097V306L313 265.694Z" stroke="#A28EFC"></path><path d="M461.5 260.5L386 306V298L461.5 252.5V260.5Z" stroke="#A28EFC"></path><path d="M344.031 269L340 266.581V211.742L413.357 169L419 170L344.031 214.161V269Z" fill="#271B26"></path><path d="M340 211.742V266.581L344.031 269V214.161M340 211.742L344.031 214.161M340 211.742L413.357 169L419 170L344.031 214.161" stroke="#A28EFC"></path><path d="M345 261L419 218" stroke="#A28EFC"></path><path d="M386 244V251.955L369.5 261.727V254" stroke="#A28EFC"></path><path d="M369.5 262L376 265.5L395 255.111L386.062 252" stroke="#A28EFC"></path><path d="M424.5 244.5C411.839 252.139 373.5 273.767 373.5 274.5L389.4 283.667L439.517 253.667L424.5 244.5Z" stroke="#A28EFC"></path><path d="M240.199 318L256.999 306H291.601L336 278.5" stroke="#A28EFC"></path><path d="M209.267 221L137 179L220 139L293 174.491L209.267 221Z" fill="#271B26" stroke="#A28EFC"></path><path d="M136.5 179L137 184L209.267 226L293 179.491V174.5" stroke="#A28EFC"></path><path d="M168 274.5L182.6 266.059V226.353L197 220" stroke="#A28EFC"></path><path d="M166 179V126.35L228 98V148.22L166 179Z" fill="#130612" stroke="#A28EFC"></path><path d="M166 178.875L203.748 200L268 169.125L227.843 148" stroke="#A28EFC"></path><line x1="186.324" y1="190.274" x2="248.989" y2="159.745" stroke="#A28EFC"></line><path d="M170 171V130.756L224.203 106V144.439L170 171Z" stroke="#A28EFC"></path><path d="M49.5027 167L138.506 128.132C175.189 109.41 160.981 70.3313 138.506 72.079C138.506 53.9287 125.049 46.7219 118.321 45.3873C87.431 41.23 81.9902 71.6342 79.299 84.0903C49.1577 83.0227 44.3135 110.337 45.6591 124.128C29.6737 130.959 27.4239 138.777 25.64 144.976L25.5861 145.163C23.5034 167 40.0001 171.5 49.5027 167Z" stroke="#A28EFC"></path><path d="M132.5 131L132.5 163" stroke="#A28EFC" stroke-dasharray="2 2"></path><path d="M132.5 163L165 147" stroke="#A28EFC" stroke-dasharray="2 2"></path><path d="M194 113V71.5L159 85" stroke="#A28EFC" stroke-dasharray="2 2"></path></g><path d="M218 304.5L242.5 286.5H278L313 266" stroke="#F44336"></path><path d="M187.5 286.5C188.3 285.7 203.167 276.333 210 272L207.5 245L259 219L242.5 208.5" stroke="#F44336"></path><path d="M191.5 377L235 404.5L232.5 436.5L309.5 484" stroke="#F44336"></path><path d="M225.5 358.5L292 396.5L331.5 389.5L521.5 484" stroke="#A28EFC"></path><circle cx="193" cy="377" r="3" fill="#F44336"></circle><circle cx="225" cy="358" r="3" fill="#A28EFC"></circle><circle cx="335" cy="278" r="3" fill="#A28EFC"></circle><circle cx="197" cy="220" r="3" fill="#A28EFC"></circle><circle cx="133" cy="131" r="3" fill="#A28EFC"></circle><circle cx="158" cy="85" r="3" fill="#A28EFC"></circle><circle cx="313" cy="266" r="3" fill="#F44336"></circle><circle cx="242" cy="208" r="3" fill="#F44336"></circle></svg>