<?xml version="1.0" encoding="UTF-8" standalone="no"?>
<!-- Created with Inkscape (http://www.inkscape.org/) -->

<svg
   version="1.1"
   id="svg1"
   width="880"
   height="880"
   viewBox="0 0 880 880"
   sodipodi:docname="storekeeper.svg"
   inkscape:version="1.3.2 (091e20e, 2023-11-25, custom)"
   xmlns:inkscape="http://www.inkscape.org/namespaces/inkscape"
   xmlns:sodipodi="http://sodipodi.sourceforge.net/DTD/sodipodi-0.dtd"
   xmlns="http://www.w3.org/2000/svg"
   xmlns:svg="http://www.w3.org/2000/svg">
  <defs
     id="defs1">
    <clipPath
       clipPathUnits="userSpaceOnUse"
       id="clipPath3">
      <path
         d="M 0,660 H 660 V 0 H 0 Z"
         transform="translate(-341.90821,-86.842802)"
         id="path3" />
    </clipPath>
    <clipPath
       clipPathUnits="userSpaceOnUse"
       id="clipPath5">
      <path
         d="M 0,660 H 660 V 0 H 0 Z"
         id="path5" />
    </clipPath>
    <clipPath
       clipPathUnits="userSpaceOnUse"
       id="clipPath7">
      <path
         d="M 0,660 H 660 V 0 H 0 Z"
         id="path7" />
    </clipPath>
    <clipPath
       clipPathUnits="userSpaceOnUse"
       id="clipPath9">
      <path
         d="M 0,660 H 660 V 0 H 0 Z"
         transform="translate(-196.2124,-113.8096)"
         id="path9" />
    </clipPath>
    <clipPath
       clipPathUnits="userSpaceOnUse"
       id="clipPath11">
      <path
         d="M 0,660 H 660 V 0 H 0 Z"
         id="path11" />
    </clipPath>
    <clipPath
       clipPathUnits="userSpaceOnUse"
       id="clipPath13">
      <path
         d="M 0,660 H 660 V 0 H 0 Z"
         id="path13" />
    </clipPath>
    <clipPath
       clipPathUnits="userSpaceOnUse"
       id="clipPath15">
      <path
         d="M 0,660 H 660 V 0 H 0 Z"
         transform="translate(-134.33691,-113.8096)"
         id="path15" />
    </clipPath>
    <clipPath
       clipPathUnits="userSpaceOnUse"
       id="clipPath17">
      <path
         d="M 0,660 H 660 V 0 H 0 Z"
         transform="translate(-217.89061,-443.83251)"
         id="path17" />
    </clipPath>
    <clipPath
       clipPathUnits="userSpaceOnUse"
       id="clipPath19">
      <path
         d="M 0,660 H 660 V 0 H 0 Z"
         id="path19" />
    </clipPath>
    <clipPath
       clipPathUnits="userSpaceOnUse"
       id="clipPath21">
      <path
         d="M 0,660 H 660 V 0 H 0 Z"
         id="path21" />
    </clipPath>
    <clipPath
       clipPathUnits="userSpaceOnUse"
       id="clipPath23">
      <path
         d="M 0,660 H 660 V 0 H 0 Z"
         transform="translate(-263.20801,-300.64361)"
         id="path23" />
    </clipPath>
    <clipPath
       clipPathUnits="userSpaceOnUse"
       id="clipPath25">
      <path
         d="M 0,660 H 660 V 0 H 0 Z"
         transform="translate(-215.95461,-498.12161)"
         id="path25" />
    </clipPath>
    <clipPath
       clipPathUnits="userSpaceOnUse"
       id="clipPath27">
      <path
         d="M 0,660 H 660 V 0 H 0 Z"
         id="path27" />
    </clipPath>
    <clipPath
       clipPathUnits="userSpaceOnUse"
       id="clipPath29">
      <path
         d="M 0,660 H 660 V 0 H 0 Z"
         id="path29" />
    </clipPath>
    <clipPath
       clipPathUnits="userSpaceOnUse"
       id="clipPath31">
      <path
         d="M 0,660 H 660 V 0 H 0 Z"
         transform="translate(-119.9746,-373.53221)"
         id="path31" />
    </clipPath>
    <clipPath
       clipPathUnits="userSpaceOnUse"
       id="clipPath33">
      <path
         d="M 0,660 H 660 V 0 H 0 Z"
         id="path33" />
    </clipPath>
    <clipPath
       clipPathUnits="userSpaceOnUse"
       id="clipPath35">
      <path
         d="M 0,660 H 660 V 0 H 0 Z"
         transform="translate(-115.8745,-498.12161)"
         id="path35" />
    </clipPath>
    <clipPath
       clipPathUnits="userSpaceOnUse"
       id="clipPath37">
      <path
         d="M 0,660 H 660 V 0 H 0 Z"
         transform="translate(-143.9077,-503.85791)"
         id="path37" />
    </clipPath>
    <clipPath
       clipPathUnits="userSpaceOnUse"
       id="clipPath39">
      <path
         d="M 0,660 H 660 V 0 H 0 Z"
         transform="translate(-101.1133,-443.83251)"
         id="path39" />
    </clipPath>
    <clipPath
       clipPathUnits="userSpaceOnUse"
       id="clipPath41">
      <path
         d="M 0,660 H 660 V 0 H 0 Z"
         transform="translate(-115.8745,-498.12161)"
         id="path41" />
    </clipPath>
    <clipPath
       clipPathUnits="userSpaceOnUse"
       id="clipPath43">
      <path
         d="M 0,660 H 660 V 0 H 0 Z"
         transform="translate(-146.4321,-300.64361)"
         id="path43" />
    </clipPath>
    <clipPath
       clipPathUnits="userSpaceOnUse"
       id="clipPath45">
      <path
         d="M 0,660 H 660 V 0 H 0 Z"
         id="path45" />
    </clipPath>
    <clipPath
       clipPathUnits="userSpaceOnUse"
       id="clipPath47">
      <path
         d="M 0,660 H 660 V 0 H 0 Z"
         transform="translate(-234.21291,-427.81981)"
         id="path47" />
    </clipPath>
    <clipPath
       clipPathUnits="userSpaceOnUse"
       id="clipPath49">
      <path
         d="M 0,660 H 660 V 0 H 0 Z"
         id="path49" />
    </clipPath>
    <clipPath
       clipPathUnits="userSpaceOnUse"
       id="clipPath51">
      <path
         d="M 0,660 H 660 V 0 H 0 Z"
         transform="translate(-149.8291,-584.22751)"
         id="path51" />
    </clipPath>
    <clipPath
       clipPathUnits="userSpaceOnUse"
       id="clipPath53">
      <path
         d="M 0,660 H 660 V 0 H 0 Z"
         id="path53" />
    </clipPath>
    <clipPath
       clipPathUnits="userSpaceOnUse"
       id="clipPath55">
      <path
         d="M 0,660 H 660 V 0 H 0 Z"
         id="path55" />
    </clipPath>
    <clipPath
       clipPathUnits="userSpaceOnUse"
       id="clipPath57">
      <path
         d="M 0,660 H 660 V 0 H 0 Z"
         id="path57" />
    </clipPath>
    <clipPath
       clipPathUnits="userSpaceOnUse"
       id="clipPath59">
      <path
         d="M 0,660 H 660 V 0 H 0 Z"
         id="path59" />
    </clipPath>
    <clipPath
       clipPathUnits="userSpaceOnUse"
       id="clipPath61">
      <path
         d="M 0,660 H 660 V 0 H 0 Z"
         id="path61" />
    </clipPath>
    <clipPath
       clipPathUnits="userSpaceOnUse"
       id="clipPath63">
      <path
         d="M 0,660 H 660 V 0 H 0 Z"
         transform="translate(-196.7358,-606.40142)"
         id="path63" />
    </clipPath>
    <clipPath
       clipPathUnits="userSpaceOnUse"
       id="clipPath65">
      <path
         d="M 0,660 H 660 V 0 H 0 Z"
         transform="translate(-154.8193,-596.24711)"
         id="path65" />
    </clipPath>
    <clipPath
       clipPathUnits="userSpaceOnUse"
       id="clipPath67">
      <path
         d="M 0,660 H 660 V 0 H 0 Z"
         transform="translate(-148.9272,-586.48341)"
         id="path67" />
    </clipPath>
    <clipPath
       clipPathUnits="userSpaceOnUse"
       id="clipPath69">
      <path
         d="M 0,660 H 660 V 0 H 0 Z"
         transform="translate(-165.8701,-546.06052)"
         id="path69" />
    </clipPath>
    <clipPath
       clipPathUnits="userSpaceOnUse"
       id="clipPath71">
      <path
         d="M 0,660 H 660 V 0 H 0 Z"
         transform="translate(-172.0039,-563.14651)"
         id="path71" />
    </clipPath>
    <clipPath
       clipPathUnits="userSpaceOnUse"
       id="clipPath73">
      <path
         d="M 0,660 H 660 V 0 H 0 Z"
         transform="translate(-195.5259,-550.55131)"
         id="path73" />
    </clipPath>
    <clipPath
       clipPathUnits="userSpaceOnUse"
       id="clipPath75">
      <path
         d="M 0,660 H 660 V 0 H 0 Z"
         transform="translate(-194.7705,-558.53521)"
         id="path75" />
    </clipPath>
    <clipPath
       clipPathUnits="userSpaceOnUse"
       id="clipPath77">
      <path
         d="M 0,660 H 660 V 0 H 0 Z"
         transform="translate(-210.73,-551.23631)"
         id="path77" />
    </clipPath>
    <clipPath
       clipPathUnits="userSpaceOnUse"
       id="clipPath79">
      <path
         d="M 0,660 H 660 V 0 H 0 Z"
         transform="translate(-211.28221,-559.22021)"
         id="path79" />
    </clipPath>
    <clipPath
       clipPathUnits="userSpaceOnUse"
       id="clipPath81">
      <path
         d="M 0,660 H 660 V 0 H 0 Z"
         transform="translate(-201.5605,-525.65431)"
         id="path81" />
    </clipPath>
    <clipPath
       clipPathUnits="userSpaceOnUse"
       id="clipPath83">
      <path
         d="M 0,660 H 660 V 0 H 0 Z"
         transform="translate(-192.7192,-517.75201)"
         id="path83" />
    </clipPath>
    <clipPath
       clipPathUnits="userSpaceOnUse"
       id="clipPath85">
      <path
         d="M 0,660 H 660 V 0 H 0 Z"
         id="path85" />
    </clipPath>
    <clipPath
       clipPathUnits="userSpaceOnUse"
       id="clipPath87">
      <path
         d="M 0,660 H 660 V 0 H 0 Z"
         id="path87" />
    </clipPath>
    <clipPath
       clipPathUnits="userSpaceOnUse"
       id="clipPath89">
      <path
         d="M 0,660 H 660 V 0 H 0 Z"
         id="path89" />
    </clipPath>
    <clipPath
       clipPathUnits="userSpaceOnUse"
       id="clipPath91">
      <path
         d="M 0,660 H 660 V 0 H 0 Z"
         id="path91" />
    </clipPath>
    <clipPath
       clipPathUnits="userSpaceOnUse"
       id="clipPath93">
      <path
         d="M 0,660 H 660 V 0 H 0 Z"
         id="path93" />
    </clipPath>
    <clipPath
       clipPathUnits="userSpaceOnUse"
       id="clipPath95">
      <path
         d="M 0,660 H 660 V 0 H 0 Z"
         id="path95" />
    </clipPath>
    <clipPath
       clipPathUnits="userSpaceOnUse"
       id="clipPath97">
      <path
         d="M 0,660 H 660 V 0 H 0 Z"
         id="path97" />
    </clipPath>
    <clipPath
       clipPathUnits="userSpaceOnUse"
       id="clipPath99">
      <path
         d="M 0,660 H 660 V 0 H 0 Z"
         id="path99" />
    </clipPath>
  </defs>
  <sodipodi:namedview
     id="namedview1"
     pagecolor="#ffffff"
     bordercolor="#000000"
     borderopacity="0.25"
     inkscape:showpageshadow="2"
     inkscape:pageopacity="0.0"
     inkscape:pagecheckerboard="0"
     inkscape:deskcolor="#d1d1d1"
     inkscape:zoom="0.67272727"
     inkscape:cx="439.25676"
     inkscape:cy="440"
     inkscape:window-width="1440"
     inkscape:window-height="830"
     inkscape:window-x="-6"
     inkscape:window-y="-6"
     inkscape:window-maximized="1"
     inkscape:current-layer="g1">
    <inkscape:page
       x="0"
       y="0"
       inkscape:label="1"
       id="page1"
       width="880"
       height="880"
       margin="115.7904 39.933334 71.465332 71.690132"
       bleed="0" />
  </sodipodi:namedview>
  <g
     id="g1"
     inkscape:groupmode="layer"
     inkscape:label="1">
    <g
       id="group-MC0">
      <path
         id="path2"
         d="M 0,0 C 158.703,0 288.142,2.224 288.142,4.95 288.142,7.677 158.703,9.902 0,9.902 -158.703,9.902 -288.141,7.677 -288.141,4.95 -288.141,2.224 -158.703,0 0,0"
         style="fill:#e1a04a;fill-opacity:1;fill-rule:evenodd;stroke:none"
         transform="matrix(1.3333333,0,0,-1.3333333,455.8776,764.2096)"
         clip-path="url(#clipPath3)" />
      <path
         id="path4"
         d="m 189.326,102.435 h 28.631 v 36.968 h -28.631 z"
         style="fill:#2f2825;fill-opacity:1;fill-rule:evenodd;stroke:none"
         transform="matrix(1.3333333,0,0,-1.3333333,0,880)"
         clip-path="url(#clipPath5)" />
      <path
         id="path6"
         d="m 189.326,91.379 h 19.209 v 15.405 h -19.209 z"
         style="fill:#2f2825;fill-opacity:1;fill-rule:evenodd;stroke:none"
         transform="matrix(1.3333333,0,0,-1.3333333,0,880)"
         clip-path="url(#clipPath7)" />
      <path
         id="path8"
         d="m 0,0 30.079,-6.248 c 8.618,-1.79 15.806,-8.759 17.167,-16.183 H 25.978 L 0,-17.036 Z"
         style="fill:#2f2825;fill-opacity:1;fill-rule:evenodd;stroke:none"
         transform="matrix(1.3333333,0,0,-1.3333333,261.61653,728.25387)"
         clip-path="url(#clipPath9)" />
      <path
         id="path10"
         d="m 127.452,102.435 h 28.631 v 36.968 h -28.631 z"
         style="fill:#2f2825;fill-opacity:1;fill-rule:evenodd;stroke:none"
         transform="matrix(1.3333333,0,0,-1.3333333,0,880)"
         clip-path="url(#clipPath11)" />
      <path
         id="path12"
         d="m 127.452,91.379 h 19.208 v 15.405 h -19.208 z"
         style="fill:#2f2825;fill-opacity:1;fill-rule:evenodd;stroke:none"
         transform="matrix(1.3333333,0,0,-1.3333333,0,880)"
         clip-path="url(#clipPath13)" />
      <path
         id="path14"
         d="m 0,0 30.081,-6.248 c 8.616,-1.79 15.804,-8.759 17.166,-16.183 H 25.979 L 0,-17.036 Z"
         style="fill:#2f2825;fill-opacity:1;fill-rule:evenodd;stroke:none"
         transform="matrix(1.3333333,0,0,-1.3333333,179.11587,728.25387)"
         clip-path="url(#clipPath15)" />
      <path
         id="path16"
         d="M 0,0 C 0,8.153 6.608,14.761 14.761,14.761 22.913,14.761 29.522,8.153 29.522,0 v -29.752 c 0,-15.537 1.447,-30.925 5.171,-45.754 3.671,-14.618 9.567,-28.83 18.498,-42.29 4.491,-6.783 2.634,-15.923 -4.151,-20.412 -6.782,-4.49 -15.921,-2.632 -20.412,4.151 -10.914,16.449 -18.093,33.713 -22.535,51.4 C 1.704,-65.182 0,-47.436 0,-29.752 Z"
         style="fill:#f28f62;fill-opacity:1;fill-rule:evenodd;stroke:none"
         transform="matrix(1.3333333,0,0,-1.3333333,290.5208,288.22333)"
         clip-path="url(#clipPath17)" />
      <path
         id="path18"
         d="m 193.498,319.976 h 103.107 v 67.567 H 193.498 Z"
         style="fill:#2f2825;fill-opacity:1;fill-rule:evenodd;stroke:none"
         transform="matrix(1.3333333,0,0,-1.3333333,0,880)"
         clip-path="url(#clipPath19)" />
      <path
         id="path20"
         d="m 197.403,323.881 h 92.369 v 59.756 h -92.369 z"
         style="fill:#d7c9c4;fill-opacity:1;fill-rule:evenodd;stroke:none"
         transform="matrix(1.3333333,0,0,-1.3333333,0,880)"
         clip-path="url(#clipPath21)" />
      <path
         id="path22"
         d="m 0,0 c 10.972,0 19.919,8.947 19.919,19.917 0,10.972 -8.947,19.919 -19.919,19.919 -10.969,0 -19.918,-8.947 -19.918,-19.919 C -19.918,8.947 -10.969,0 0,0"
         style="fill:#f28f62;fill-opacity:1;fill-rule:evenodd;stroke:none"
         transform="matrix(1.3333333,0,0,-1.3333333,350.944,479.14187)"
         clip-path="url(#clipPath23)" />
      <path
         id="path24"
         d="M 0,0 H 18.26 C 28.302,0 36.518,-8.217 36.518,-18.26 V -70.302 H 0 Z"
         style="fill:#c73e21;fill-opacity:1;fill-rule:evenodd;stroke:none"
         transform="matrix(1.3333333,0,0,-1.3333333,287.93947,215.83787)"
         clip-path="url(#clipPath25)" />
      <path
         id="path26"
         d="m 225.524,323.881 h 13.669 v 59.756 h -13.669 z"
         style="fill:#b2a29e;fill-opacity:1;fill-rule:evenodd;stroke:none"
         transform="matrix(1.3333333,0,0,-1.3333333,0,880)"
         clip-path="url(#clipPath27)" />
      <path
         id="path28"
         d="m 184.027,114.981 h 46.086 v 239.803 h -46.086 z"
         style="fill:#603616;fill-opacity:1;fill-rule:evenodd;stroke:none"
         transform="matrix(1.3333333,0,0,-1.3333333,0,880)"
         clip-path="url(#clipPath29)" />
      <path
         id="path30"
         d="m 0,0 h 87.877 v -37.494 c 0,-20.621 -16.872,-37.494 -37.494,-37.494 H 37.495 C 16.872,-74.988 0,-58.115 0,-37.494 Z"
         style="fill:#8e551f;fill-opacity:1;fill-rule:evenodd;stroke:none"
         transform="matrix(1.3333333,0,0,-1.3333333,159.96613,381.95707)"
         clip-path="url(#clipPath31)" />
      <path
         id="path32"
         d="m 119.975,114.981 h 46.087 v 239.803 h -46.087 z"
         style="fill:#8e551f;fill-opacity:1;fill-rule:evenodd;stroke:none"
         transform="matrix(1.3333333,0,0,-1.3333333,0,880)"
         clip-path="url(#clipPath33)" />
      <path
         id="path34"
         d="M 0,0 59.169,12.106 118.338,0 V -164.819 H 0 Z"
         style="fill:#f2551d;fill-opacity:1;fill-rule:evenodd;stroke:none"
         transform="matrix(1.3333333,0,0,-1.3333333,154.49933,215.83787)"
         clip-path="url(#clipPath35)" />
      <path
         id="path36"
         d="M 0,0 31.136,6.37 62.271,0 C 58.057,-8.425 45.712,-14.526 31.136,-14.526 16.561,-14.526 4.215,-8.425 0,0"
         style="fill:#f28f62;fill-opacity:1;fill-rule:evenodd;stroke:none"
         transform="matrix(1.3333333,0,0,-1.3333333,191.87693,208.18947)"
         clip-path="url(#clipPath37)" />
      <path
         id="path38"
         d="M 0,0 C 0,8.153 6.608,14.761 14.761,14.761 22.914,14.761 29.522,8.153 29.522,0 v -29.752 c 0,-15.537 1.447,-30.925 5.17,-45.754 3.67,-14.618 9.568,-28.83 18.501,-42.29 4.489,-6.783 2.631,-15.923 -4.152,-20.412 -6.783,-4.49 -15.922,-2.632 -20.413,4.151 -10.915,16.449 -18.093,33.713 -22.535,51.4 C 1.704,-65.182 0,-47.436 0,-29.752 Z"
         style="fill:#f28f62;fill-opacity:1;fill-rule:evenodd;stroke:none"
         transform="matrix(1.3333333,0,0,-1.3333333,134.81773,288.22333)"
         clip-path="url(#clipPath39)" />
      <path
         id="path40"
         d="M 0,0 V 0 C 10.043,0 18.26,-8.217 18.26,-18.26 V -70.302 H -18.26 V -18.26 C -18.26,-8.217 -10.043,0 0,0"
         style="fill:#c73e21;fill-opacity:1;fill-rule:evenodd;stroke:none"
         transform="matrix(1.3333333,0,0,-1.3333333,154.49933,215.83787)"
         clip-path="url(#clipPath41)" />
      <path
         id="path42"
         d="m 0,0 c 10.969,0 19.917,8.947 19.917,19.917 0,10.972 -8.948,19.919 -19.917,19.919 -10.972,0 -19.919,-8.947 -19.919,-19.919 C -19.919,8.947 -10.972,0 0,0"
         style="fill:#f28f62;fill-opacity:1;fill-rule:evenodd;stroke:none"
         transform="matrix(1.3333333,0,0,-1.3333333,195.2428,479.14187)"
         clip-path="url(#clipPath43)" />
      <path
         id="path44"
         d="m 286.06,340.285 h 14.842 v 26.949 H 286.06 Z"
         style="fill:#ede2df;fill-opacity:1;fill-rule:evenodd;stroke:none"
         transform="matrix(1.3333333,0,0,-1.3333333,0,880)"
         clip-path="url(#clipPath45)" />
      <path
         id="path46"
         d="M 0,0 4.59,-40.277 H 0 Z"
         style="fill:#e27548;fill-opacity:1;fill-rule:evenodd;stroke:none"
         transform="matrix(1.3333333,0,0,-1.3333333,312.28387,309.5736)"
         clip-path="url(#clipPath47)" />
      <path
         id="path48"
         d="m 157.368,497.925 h 35.351 v 37.885 h -35.351 z"
         style="fill:#f28f62;fill-opacity:1;fill-rule:evenodd;stroke:none"
         transform="matrix(1.3333333,0,0,-1.3333333,0,880)"
         clip-path="url(#clipPath49)" />
      <path
         id="path50"
         d="m 0,0 h 62.299 l 4.022,-35.615 c 1.935,-17.132 -10.499,-31.15 -27.632,-31.15 H 7.539 Z"
         style="fill:#f28f62;fill-opacity:1;fill-rule:evenodd;stroke:none"
         transform="matrix(1.3333333,0,0,-1.3333333,199.77213,101.03)"
         clip-path="url(#clipPath51)" />
      <path
         id="path52"
         d="m 185.297,437.875 h 44.524 v 30.368 h -44.524 z"
         style="fill:#ecd4ca;fill-opacity:1;fill-rule:evenodd;stroke:none"
         transform="matrix(1.3333333,0,0,-1.3333333,0,880)"
         clip-path="url(#clipPath53)" />
      <path
         id="path54"
         d="m 189.984,442.562 h 14.549 v 20.992 h -14.549 z"
         style="fill:#bda396;fill-opacity:1;fill-rule:evenodd;stroke:none"
         transform="matrix(1.3333333,0,0,-1.3333333,0,880)"
         clip-path="url(#clipPath55)" />
      <path
         id="path56"
         d="m 210.293,458.77 h 13.669 v 3.418 h -13.669 z"
         style="fill:#bda396;fill-opacity:1;fill-rule:evenodd;stroke:none"
         transform="matrix(1.3333333,0,0,-1.3333333,0,880)"
         clip-path="url(#clipPath57)" />
      <path
         id="path58"
         d="m 212.051,453.205 h 10.839 v 3.319 h -10.839 z"
         style="fill:#bda396;fill-opacity:1;fill-rule:evenodd;stroke:none"
         transform="matrix(1.3333333,0,0,-1.3333333,0,880)"
         clip-path="url(#clipPath59)" />
      <path
         id="path60"
         d="m 204.412,465.165 h 6.297 v 8.592 h -6.297 z"
         style="fill:#ffffff;fill-opacity:1;fill-rule:evenodd;stroke:none"
         transform="matrix(1.3333333,0,0,-1.3333333,0,880)"
         clip-path="url(#clipPath61)" />
      <path
         id="path62"
         d="m 0,0 c 9.977,0 19.634,-8.305 21.568,-18.552 1.935,-10.245 -4.583,-18.551 -14.56,-18.551 -9.978,0 -19.633,8.306 -21.569,18.551 C -16.497,-8.305 -9.977,0 0,0"
         style="fill:#2f2825;fill-opacity:1;fill-rule:evenodd;stroke:none"
         transform="matrix(1.3333333,0,0,-1.3333333,262.3144,71.4648)"
         clip-path="url(#clipPath63)" />
      <path
         id="path64"
         d="m 0,0 h 41.792 c 6.389,0 12.379,-5.228 13.311,-11.62 0.93,-6.39 -3.537,-11.618 -9.927,-11.618 H 3.386 c -6.391,0 -12.38,5.228 -13.312,11.618 C -10.857,-5.228 -6.391,0 0,0"
         style="fill:#2f2825;fill-opacity:1;fill-rule:evenodd;stroke:none"
         transform="matrix(1.3333333,0,0,-1.3333333,206.42573,85.003867)"
         clip-path="url(#clipPath65)" />
      <path
         id="path66"
         d="m 0,0 h 0.002 c 7.196,0 13.816,-5.888 14.712,-13.083 l 3.772,-30.27 C 19.382,-50.549 14.229,-56.436 7.032,-56.436 H 7.031 c -7.194,0 -13.816,5.887 -14.713,13.083 l -3.771,30.27 C -12.349,-5.888 -7.195,0 0,0"
         style="fill:#2f2825;fill-opacity:1;fill-rule:evenodd;stroke:none"
         transform="matrix(1.3333333,0,0,-1.3333333,198.5696,98.022133)"
         clip-path="url(#clipPath67)" />
      <path
         id="path68"
         d="m 0,0 c 9.707,0 17.624,7.917 17.624,17.624 0,9.707 -7.917,17.624 -17.624,17.624 -9.706,0 -17.624,-7.917 -17.624,-17.624 C -17.624,7.917 -9.706,0 0,0"
         style="fill:#2f2825;fill-opacity:1;fill-rule:evenodd;stroke:none"
         transform="matrix(1.3333333,0,0,-1.3333333,221.16013,151.91933)"
         clip-path="url(#clipPath69)" />
      <path
         id="path70"
         d="m 0,0 c 5.39,0 10.839,-5.354 12.171,-11.961 1.331,-6.605 -1.959,-11.96 -7.349,-11.96 -5.39,0 -10.84,5.355 -12.171,11.96 C -8.68,-5.354 -5.391,0 0,0"
         style="fill:#f28f62;fill-opacity:1;fill-rule:evenodd;stroke:none"
         transform="matrix(1.3333333,0,0,-1.3333333,229.33853,129.138)"
         clip-path="url(#clipPath71)" />
      <path
         id="path72"
         d="M 0,0 C 2.258,0 4.1,2.036 4.1,4.532 4.1,7.028 2.258,9.064 0,9.064 -2.258,9.064 -4.1,7.028 -4.1,4.532 -4.1,2.036 -2.258,0 0,0"
         style="fill:#2f2825;fill-opacity:1;fill-rule:evenodd;stroke:none"
         transform="matrix(1.3333333,0,0,-1.3333333,260.7012,145.9316)"
         clip-path="url(#clipPath73)" />
      <path
         id="path74"
         d="M 0,0 C 2.258,0 4.1,0.785 4.1,1.745 4.1,2.707 2.258,3.49 0,3.49 -2.258,3.49 -4.1,2.707 -4.1,1.745 -4.1,0.785 -2.258,0 0,0"
         style="fill:#2f2825;fill-opacity:1;fill-rule:evenodd;stroke:none"
         transform="matrix(1.3333333,0,0,-1.3333333,259.694,135.2864)"
         clip-path="url(#clipPath75)" />
      <path
         id="path76"
         d="M 0,0 C 1.65,0 2.996,2.035 2.996,4.53 2.996,7.027 1.65,9.063 0,9.063 -1.65,9.063 -2.997,7.027 -2.997,4.53 -2.997,2.035 -1.65,0 0,0"
         style="fill:#2f2825;fill-opacity:1;fill-rule:evenodd;stroke:none"
         transform="matrix(1.3333333,0,0,-1.3333333,280.97333,145.01827)"
         clip-path="url(#clipPath77)" />
      <path
         id="path78"
         d="M 0,0 C 1.65,0 2.996,0.783 2.996,1.743 2.996,2.704 1.65,3.488 0,3.488 -1.65,3.488 -2.998,2.704 -2.998,1.743 -2.998,0.783 -1.65,0 0,0"
         style="fill:#2f2825;fill-opacity:1;fill-rule:evenodd;stroke:none"
         transform="matrix(1.3333333,0,0,-1.3333333,281.7096,134.37307)"
         clip-path="url(#clipPath79)" />
      <path
         id="path80"
         d="M 0,0 C -5.853,-4.303 -11.528,-5.347 -16.6,4.686 -11.066,3.125 -5.533,1.561 0,0"
         style="fill:#ffffff;fill-opacity:1;fill-rule:evenodd;stroke:none"
         transform="matrix(1.3333333,0,0,-1.3333333,268.74733,179.1276)"
         clip-path="url(#clipPath81)" />
      <path
         id="path82"
         d="M 0,0 C -12.422,-1.172 -23.653,4.592 -26.601,12.685 -26.952,-1.042 -17.131,-10.768 0,-11.141 Z"
         style="fill:#e27548;fill-opacity:1;fill-rule:evenodd;stroke:none"
         transform="matrix(1.3333333,0,0,-1.3333333,256.95893,189.664)"
         clip-path="url(#clipPath83)" />
      <path
         id="path84"
         d="M 480.582,91.793 H 586.201 V 229.18 H 480.582 Z"
         style="fill:#e1a04a;fill-opacity:1;fill-rule:evenodd;stroke:none"
         transform="matrix(1.3333333,0,0,-1.3333333,0,880)"
         clip-path="url(#clipPath85)" />
      <path
         id="path86"
         d="M 342.289,91.793 H 480.582 V 229.18 H 342.289 Z"
         style="fill:#f7af59;fill-opacity:1;fill-rule:evenodd;stroke:none"
         transform="matrix(1.3333333,0,0,-1.3333333,0,880)"
         clip-path="url(#clipPath87)" />
      <path
         id="path88"
         d="m 396.583,188.58 h 29.706 v 40.599 h -29.706 z"
         style="fill:#9e652c;fill-opacity:1;fill-rule:evenodd;stroke:none"
         transform="matrix(1.3333333,0,0,-1.3333333,0,880)"
         clip-path="url(#clipPath89)" />
      <path
         id="path90"
         d="m 528.275,188.58 h 23.601 v 40.599 h -23.601 z"
         style="fill:#9e652c;fill-opacity:1;fill-rule:evenodd;stroke:none"
         transform="matrix(1.3333333,0,0,-1.3333333,0,880)"
         clip-path="url(#clipPath91)" />
      <path
         id="path92"
         d="m 489.205,229.18 h 83.972 v 109.229 h -83.972 z"
         style="fill:#e1a04a;fill-opacity:1;fill-rule:evenodd;stroke:none"
         transform="matrix(1.3333333,0,0,-1.3333333,0,880)"
         clip-path="url(#clipPath93)" />
      <path
         id="path94"
         d="M 379.253,229.18 H 489.205 V 338.409 H 379.253 Z"
         style="fill:#f7af59;fill-opacity:1;fill-rule:evenodd;stroke:none"
         transform="matrix(1.3333333,0,0,-1.3333333,0,880)"
         clip-path="url(#clipPath95)" />
      <path
         id="path96"
         d="m 422.42,306.129 h 23.618 v 32.277 H 422.42 Z"
         style="fill:#9e652c;fill-opacity:1;fill-rule:evenodd;stroke:none"
         transform="matrix(1.3333333,0,0,-1.3333333,0,880)"
         clip-path="url(#clipPath97)" />
      <path
         id="path98"
         d="m 527.123,306.129 h 18.764 v 32.277 h -18.764 z"
         style="fill:#9e652c;fill-opacity:1;fill-rule:evenodd;stroke:none"
         transform="matrix(1.3333333,0,0,-1.3333333,0,880)"
         clip-path="url(#clipPath99)" />
    </g>
  </g>
</svg>
