<?xml version="1.0" encoding="UTF-8" standalone="no"?>
<!-- Generator: Adobe Illustrator 27.5.0, SVG Export Plug-In . SVG Version: 6.00 Build 0)  -->

<svg
   version="1.1"
   x="0px"
   y="0px"
   viewBox="0 0 500 500"
   style="enable-background:new 0 0 500 500;"
   xml:space="preserve"
   id="svg64"
   sodipodi:docname="1959754_254520-P4LI4L-947_notext.svg"
   inkscape:version="1.4.2 (f4327f4, 2025-05-13)"
   xmlns:inkscape="http://www.inkscape.org/namespaces/inkscape"
   xmlns:sodipodi="http://sodipodi.sourceforge.net/DTD/sodipodi-0.dtd"
   xmlns="http://www.w3.org/2000/svg"
   xmlns:svg="http://www.w3.org/2000/svg"><defs
   id="defs64" /><sodipodi:namedview
   id="namedview64"
   pagecolor="#ffffff"
   bordercolor="#000000"
   borderopacity="0.25"
   inkscape:showpageshadow="2"
   inkscape:pageopacity="0.0"
   inkscape:pagecheckerboard="0"
   inkscape:deskcolor="#d1d1d1"
   showgrid="false"
   inkscape:zoom="1.546"
   inkscape:cx="132.92367"
   inkscape:cy="207.95602"
   inkscape:window-width="1920"
   inkscape:window-height="991"
   inkscape:window-x="1699"
   inkscape:window-y="-9"
   inkscape:window-maximized="1"
   inkscape:current-layer="OBJECTS" />
<g
   id="BACKGROUND">
	<rect
   y="0.006"
   style="fill-rule:evenodd;clip-rule:evenodd;fill:#FFFFFF;"
   width="500"
   height="499.991"
   id="rect1" />
</g>
<g
   id="OBJECTS">
	<text
   transform="translate(194.9878,70.0412)"
   id="text2"
   style="display:none"><tspan
     x="0"
     y="0"
     style="font-size:25px;font-family:Dosis-Bold;fill:#516092"
     id="tspan1">WEBPAGE </tspan><tspan
     x="-57.499001"
     y="33"
     style="font-size:25px;font-family:Dosis-Regular;fill:#516092"
     id="tspan2">UNDER CONSTRUCTION</tspan></text>
	<g
   id="g32">
		<g
   id="g13">
			
				<rect
   x="139.11"
   y="198.159"
   style="fill:none;stroke:#537CBC;stroke-width:1.1083;stroke-miterlimit:10;"
   width="202.134"
   height="158.859"
   id="rect2" />
			<g
   id="g2">
				<path
   style="fill:#D36775;"
   d="M341.799,357.573H138.556V215.6h203.243V357.573z M139.664,356.464H340.69V216.708H139.664      V356.464z"
   id="path2" />
			</g>
			<path
   style="fill:none;stroke:#5077B5;stroke-width:1.1083;stroke-miterlimit:10;"
   d="M149.301,206.812     c0,1.629-1.32,2.949-2.949,2.949s-2.949-1.32-2.949-2.949c0-1.629,1.32-2.949,2.949-2.949S149.301,205.183,149.301,206.812z"
   id="path3" />
			<path
   style="fill:none;stroke:#5077B5;stroke-width:1.1083;stroke-miterlimit:10;"
   d="M161.841,206.812     c0,1.629-1.32,2.949-2.949,2.949c-1.629,0-2.949-1.32-2.949-2.949c0-1.629,1.32-2.949,2.949-2.949     C160.521,203.862,161.841,205.183,161.841,206.812z"
   id="path4" />
			<path
   style="fill:none;stroke:#5077B5;stroke-width:1.1083;stroke-miterlimit:10;"
   d="M174.382,206.812     c0,1.629-1.32,2.949-2.949,2.949c-1.629,0-2.949-1.32-2.949-2.949c0-1.629,1.32-2.949,2.949-2.949     C173.061,203.862,174.382,205.183,174.382,206.812z"
   id="path5" />
			<path
   style="fill:none;stroke:#5077B5;stroke-width:1.1083;stroke-miterlimit:10;"
   d="M271.703,212.116H188.51     c-2.781,0-5.036-2.255-5.036-5.036l0,0c0-2.781,2.255-5.036,5.036-5.036h83.194c2.781,0,5.035,2.255,5.035,5.036l0,0     C276.739,209.862,274.484,212.116,271.703,212.116z"
   id="path6" />
			<path
   style="fill:none;stroke:#5077B5;stroke-width:1.1083;stroke-miterlimit:10;"
   d="M328.93,212.116h-39.388     c-2.781,0-5.036-2.255-5.036-5.036l0,0c0-2.781,2.254-5.036,5.036-5.036h39.388c2.781,0,5.036,2.255,5.036,5.036l0,0     C333.966,209.862,331.711,212.116,328.93,212.116z"
   id="path7" />
			
				<rect
   x="155.246"
   y="278.916"
   style="fill:none;stroke:#5077B5;stroke-width:1.1083;stroke-miterlimit:10;stroke-dasharray:5.5416;"
   width="71.905"
   height="40.586"
   id="rect7" />
			
				<rect
   x="155.246"
   y="229.104"
   style="fill:none;stroke:#5077B5;stroke-width:1.1083;stroke-miterlimit:10;stroke-dasharray:5.5416;"
   width="71.905"
   height="40.586"
   id="rect8" />
			<g
   id="g9">
				
					<rect
   x="155.871"
   y="329.755"
   style="fill:none;stroke:#5077B5;stroke-width:1.1083;stroke-miterlimit:10;"
   width="70.655"
   height="3.18"
   id="rect9" />
			</g>
			<g
   id="g10">
				
					<rect
   x="155.871"
   y="340.353"
   style="fill:none;stroke:#5077B5;stroke-width:1.1083;stroke-miterlimit:10;"
   width="70.655"
   height="3.18"
   id="rect10" />
			</g>
			<g
   id="g11">
				
					<rect
   x="252.01"
   y="329.755"
   style="fill:none;stroke:#5077B5;stroke-width:1.1083;stroke-miterlimit:10;"
   width="70.655"
   height="3.18"
   id="rect11" />
			</g>
			<g
   id="g12">
				
					<rect
   x="252.01"
   y="340.353"
   style="fill:none;stroke:#5077B5;stroke-width:1.1083;stroke-miterlimit:10;"
   width="70.655"
   height="3.18"
   id="rect12" />
			</g>
		</g>
		<path
   style="fill:none;stroke:#5077B5;stroke-width:1.1083;stroke-miterlimit:10;stroke-dasharray:5.5416;"
   d="M90.476,188.13    c0,26.397,21.36,47.757,47.758,47.757"
   id="path13" />
		
			<ellipse
   transform="matrix(0.9925 -0.1222 0.1222 0.9925 -40.8529 44.3511)"
   style="fill:none;stroke:#5077B5;stroke-width:1.1083;stroke-miterlimit:10;stroke-dasharray:5.5416;"
   cx="341.202"
   cy="355.281"
   rx="38.206"
   ry="38.206"
   id="ellipse13" />
		
			<ellipse
   transform="matrix(0.861 -0.5086 0.5086 0.861 -118.7525 64.2457)"
   style="fill:none;stroke:#5077B5;stroke-width:1.1083;stroke-miterlimit:10;stroke-dasharray:5.5416;"
   cx="58.17"
   cy="249.397"
   rx="16.785"
   ry="16.785"
   id="ellipse14" />
		
			<ellipse
   transform="matrix(0.1408 -0.99 0.99 0.1408 -26.7778 741.4147)"
   style="fill:none;stroke:#5077B5;stroke-width:1.1083;stroke-miterlimit:10;stroke-dasharray:5.5416;"
   cx="413.773"
   cy="386.135"
   rx="16.785"
   ry="16.785"
   id="ellipse15" />
		
			<ellipse
   transform="matrix(0.2298 -0.9732 0.9732 0.2298 -263.7879 300.8398)"
   style="fill:none;stroke:#5077B5;stroke-width:1.1083;stroke-miterlimit:10;stroke-dasharray:5.5416;"
   cx="58.17"
   cy="317.075"
   rx="16.785"
   ry="16.785"
   id="ellipse16" />
		
			<ellipse
   transform="matrix(0.2164 -0.9763 0.9763 0.2164 70.43 437.9125)"
   style="fill:none;stroke:#5077B5;stroke-width:1.1083;stroke-miterlimit:10;stroke-dasharray:5.5416;"
   cx="308.021"
   cy="175.081"
   rx="14.537"
   ry="14.537"
   id="ellipse17" />
		<g
   id="g17">
			<path
   style="fill:#D36775;"
   d="M326.401,278.142h-5.542v-1.108h5.542V278.142z M315.318,278.142h-5.542v-1.108h5.542V278.142z      M304.234,278.142h-5.542v-1.108h5.542V278.142z M293.151,278.142h-5.542v-1.108h5.542V278.142z M282.068,278.142h-5.542v-1.108     h5.542V278.142z M270.985,278.142h-5.542v-1.108h5.542V278.142z M259.902,278.142h-5.98v-0.67h0.554v-0.438h5.426V278.142z      M326.955,275.058h-1.108v-5.542h1.108V275.058z M255.03,271.931h-1.108v-5.542h1.108V271.931z M326.955,263.975h-1.108v-5.542     h1.108V263.975z M255.03,260.848h-1.108v-5.542h1.108V260.848z M326.955,252.891h-1.108v-5.542h1.108V252.891z M255.03,249.765     h-1.108v-5.542h1.108V249.765z M326.955,241.808h-1.108v-5.542h1.108V241.808z M255.03,238.681h-1.108v-5.542h1.108V238.681z      M326.955,230.725h-1.108v-1.067h-3.366v-1.108h4.474V230.725z M316.939,229.658h-5.542v-1.108h5.542V229.658z M305.856,229.658     h-5.542v-1.108h5.542V229.658z M294.773,229.658h-5.542v-1.108h5.542V229.658z M283.689,229.658h-5.542v-1.108h5.542V229.658z      M272.606,229.658h-5.542v-1.108h5.542V229.658z M261.523,229.658h-5.542v-1.108h5.542V229.658z"
   id="path17" />
		</g>
		<path
   style="fill:none;stroke:#5077B5;stroke-width:1.1083;stroke-miterlimit:10;stroke-dasharray:5.5416;"
   d="M320.86,165.923    c35.636,0,64.473,28.836,64.473,64.473v35.026c0,21.526-9.047,42.062-24.931,56.59l-0.163,0.149"
   id="path18" />
		
			<rect
   x="74.955"
   y="165.923"
   style="fill:none;stroke:#5077B5;stroke-width:1.1083;stroke-miterlimit:10;stroke-dasharray:5.5416;"
   width="56.115"
   height="22.207"
   id="rect18" />
		
			<rect
   x="74.955"
   y="382.383"
   style="fill:none;stroke:#5077B5;stroke-width:1.1083;stroke-miterlimit:10;stroke-dasharray:5.5416;"
   width="56.115"
   height="22.207"
   id="rect19" />
		
			<rect
   x="402.5"
   y="288.105"
   style="fill:none;stroke:#5077B5;stroke-width:1.1083;stroke-miterlimit:10;stroke-dasharray:5.5416;"
   width="56.115"
   height="22.207"
   id="rect20" />
		
			<line
   style="fill:none;stroke:#5077B5;stroke-width:1.1083;stroke-miterlimit:10;stroke-dasharray:5.5416;"
   x1="139.11"
   y1="357.018"
   x2="131.07"
   y2="382.383"
   id="line20" />
		
			<rect
   x="174.382"
   y="382.383"
   style="fill:none;stroke:#5077B5;stroke-width:1.1083;stroke-miterlimit:10;stroke-dasharray:5.5416;"
   width="125.45"
   height="22.207"
   id="rect21" />
		
		
		<polyline
   style="fill:none;stroke:#5077B5;stroke-width:1.1083;stroke-miterlimit:10;stroke-dasharray:5.5416;"
   points="    74.955,249.396 191.198,299.209 74.955,317.075   "
   id="polyline31" />
		
			<line
   style="fill:none;stroke:#5077B5;stroke-width:1.1083;stroke-miterlimit:10;stroke-dasharray:5.5416;"
   x1="402.5"
   y1="299.209"
   x2="293.484"
   y2="299.209"
   id="line31" />
	</g>
</g>
<g
   id="DESIGNED_BY_FREEPIK">
	
</g>
</svg>
