<?xml version="1.0" encoding="utf-8"?>
<!-- Generator: Adobe Illustrator 27.5.0, SVG Export Plug-In . SVG Version: 6.00 Build 0)  -->
<svg version="1.1" xmlns="http://www.w3.org/2000/svg" xmlns:xlink="http://www.w3.org/1999/xlink" x="0px" y="0px"
	 viewBox="0 0 500 500" style="enable-background:new 0 0 500 500;" xml:space="preserve">
<g id="BACKGROUND">
	<rect y="0.006" style="fill-rule:evenodd;clip-rule:evenodd;fill:#FFFFFF;" width="500" height="499.991"/>
</g>
<g id="OBJECTS">
	<text transform="matrix(1 0 0 1 194.9878 70.0412)"><tspan x="0" y="0" style="fill:#516092; font-family:'Dosis-Bold'; font-size:25px;">WEBPAGE </tspan><tspan x="-57.499" y="33" style="fill:#516092; font-family:'Dosis-Regular'; font-size:25px;">UNDER CONSTRUCTION</tspan></text>
	<g>
		<g>
			
				<rect x="139.11" y="198.159" style="fill:none;stroke:#537CBC;stroke-width:1.1083;stroke-miterlimit:10;" width="202.134" height="158.859"/>
			<g>
				<path style="fill:#D36775;" d="M341.799,357.573H138.556V215.6h203.243V357.573z M139.664,356.464H340.69V216.708H139.664
					V356.464z"/>
			</g>
			<path style="fill:none;stroke:#5077B5;stroke-width:1.1083;stroke-miterlimit:10;" d="M149.301,206.812
				c0,1.629-1.32,2.949-2.949,2.949s-2.949-1.32-2.949-2.949c0-1.629,1.32-2.949,2.949-2.949S149.301,205.183,149.301,206.812z"/>
			<path style="fill:none;stroke:#5077B5;stroke-width:1.1083;stroke-miterlimit:10;" d="M161.841,206.812
				c0,1.629-1.32,2.949-2.949,2.949c-1.629,0-2.949-1.32-2.949-2.949c0-1.629,1.32-2.949,2.949-2.949
				C160.521,203.862,161.841,205.183,161.841,206.812z"/>
			<path style="fill:none;stroke:#5077B5;stroke-width:1.1083;stroke-miterlimit:10;" d="M174.382,206.812
				c0,1.629-1.32,2.949-2.949,2.949c-1.629,0-2.949-1.32-2.949-2.949c0-1.629,1.32-2.949,2.949-2.949
				C173.061,203.862,174.382,205.183,174.382,206.812z"/>
			<path style="fill:none;stroke:#5077B5;stroke-width:1.1083;stroke-miterlimit:10;" d="M271.703,212.116H188.51
				c-2.781,0-5.036-2.255-5.036-5.036l0,0c0-2.781,2.255-5.036,5.036-5.036h83.194c2.781,0,5.035,2.255,5.035,5.036l0,0
				C276.739,209.862,274.484,212.116,271.703,212.116z"/>
			<path style="fill:none;stroke:#5077B5;stroke-width:1.1083;stroke-miterlimit:10;" d="M328.93,212.116h-39.388
				c-2.781,0-5.036-2.255-5.036-5.036l0,0c0-2.781,2.254-5.036,5.036-5.036h39.388c2.781,0,5.036,2.255,5.036,5.036l0,0
				C333.966,209.862,331.711,212.116,328.93,212.116z"/>
			
				<rect x="155.246" y="278.916" style="fill:none;stroke:#5077B5;stroke-width:1.1083;stroke-miterlimit:10;stroke-dasharray:5.5416;" width="71.905" height="40.586"/>
			
				<rect x="155.246" y="229.104" style="fill:none;stroke:#5077B5;stroke-width:1.1083;stroke-miterlimit:10;stroke-dasharray:5.5416;" width="71.905" height="40.586"/>
			<g>
				
					<rect x="155.871" y="329.755" style="fill:none;stroke:#5077B5;stroke-width:1.1083;stroke-miterlimit:10;" width="70.655" height="3.18"/>
			</g>
			<g>
				
					<rect x="155.871" y="340.353" style="fill:none;stroke:#5077B5;stroke-width:1.1083;stroke-miterlimit:10;" width="70.655" height="3.18"/>
			</g>
			<g>
				
					<rect x="252.01" y="329.755" style="fill:none;stroke:#5077B5;stroke-width:1.1083;stroke-miterlimit:10;" width="70.655" height="3.18"/>
			</g>
			<g>
				
					<rect x="252.01" y="340.353" style="fill:none;stroke:#5077B5;stroke-width:1.1083;stroke-miterlimit:10;" width="70.655" height="3.18"/>
			</g>
		</g>
		<path style="fill:none;stroke:#5077B5;stroke-width:1.1083;stroke-miterlimit:10;stroke-dasharray:5.5416;" d="M90.476,188.13
			c0,26.397,21.36,47.757,47.758,47.757"/>
		
			<ellipse transform="matrix(0.9925 -0.1222 0.1222 0.9925 -40.8529 44.3511)" style="fill:none;stroke:#5077B5;stroke-width:1.1083;stroke-miterlimit:10;stroke-dasharray:5.5416;" cx="341.202" cy="355.281" rx="38.206" ry="38.206"/>
		
			<ellipse transform="matrix(0.861 -0.5086 0.5086 0.861 -118.7525 64.2457)" style="fill:none;stroke:#5077B5;stroke-width:1.1083;stroke-miterlimit:10;stroke-dasharray:5.5416;" cx="58.17" cy="249.397" rx="16.785" ry="16.785"/>
		
			<ellipse transform="matrix(0.1408 -0.99 0.99 0.1408 -26.7778 741.4147)" style="fill:none;stroke:#5077B5;stroke-width:1.1083;stroke-miterlimit:10;stroke-dasharray:5.5416;" cx="413.773" cy="386.135" rx="16.785" ry="16.785"/>
		
			<ellipse transform="matrix(0.2298 -0.9732 0.9732 0.2298 -263.7879 300.8398)" style="fill:none;stroke:#5077B5;stroke-width:1.1083;stroke-miterlimit:10;stroke-dasharray:5.5416;" cx="58.17" cy="317.075" rx="16.785" ry="16.785"/>
		
			<ellipse transform="matrix(0.2164 -0.9763 0.9763 0.2164 70.43 437.9125)" style="fill:none;stroke:#5077B5;stroke-width:1.1083;stroke-miterlimit:10;stroke-dasharray:5.5416;" cx="308.021" cy="175.081" rx="14.537" ry="14.537"/>
		<g>
			<path style="fill:#D36775;" d="M326.401,278.142h-5.542v-1.108h5.542V278.142z M315.318,278.142h-5.542v-1.108h5.542V278.142z
				 M304.234,278.142h-5.542v-1.108h5.542V278.142z M293.151,278.142h-5.542v-1.108h5.542V278.142z M282.068,278.142h-5.542v-1.108
				h5.542V278.142z M270.985,278.142h-5.542v-1.108h5.542V278.142z M259.902,278.142h-5.98v-0.67h0.554v-0.438h5.426V278.142z
				 M326.955,275.058h-1.108v-5.542h1.108V275.058z M255.03,271.931h-1.108v-5.542h1.108V271.931z M326.955,263.975h-1.108v-5.542
				h1.108V263.975z M255.03,260.848h-1.108v-5.542h1.108V260.848z M326.955,252.891h-1.108v-5.542h1.108V252.891z M255.03,249.765
				h-1.108v-5.542h1.108V249.765z M326.955,241.808h-1.108v-5.542h1.108V241.808z M255.03,238.681h-1.108v-5.542h1.108V238.681z
				 M326.955,230.725h-1.108v-1.067h-3.366v-1.108h4.474V230.725z M316.939,229.658h-5.542v-1.108h5.542V229.658z M305.856,229.658
				h-5.542v-1.108h5.542V229.658z M294.773,229.658h-5.542v-1.108h5.542V229.658z M283.689,229.658h-5.542v-1.108h5.542V229.658z
				 M272.606,229.658h-5.542v-1.108h5.542V229.658z M261.523,229.658h-5.542v-1.108h5.542V229.658z"/>
		</g>
		<path style="fill:none;stroke:#5077B5;stroke-width:1.1083;stroke-miterlimit:10;stroke-dasharray:5.5416;" d="M320.86,165.923
			c35.636,0,64.473,28.836,64.473,64.473v35.026c0,21.526-9.047,42.062-24.931,56.59l-0.163,0.149"/>
		
			<rect x="74.955" y="165.923" style="fill:none;stroke:#5077B5;stroke-width:1.1083;stroke-miterlimit:10;stroke-dasharray:5.5416;" width="56.115" height="22.207"/>
		
			<rect x="74.955" y="382.383" style="fill:none;stroke:#5077B5;stroke-width:1.1083;stroke-miterlimit:10;stroke-dasharray:5.5416;" width="56.115" height="22.207"/>
		
			<rect x="402.5" y="288.105" style="fill:none;stroke:#5077B5;stroke-width:1.1083;stroke-miterlimit:10;stroke-dasharray:5.5416;" width="56.115" height="22.207"/>
		
			<line style="fill:none;stroke:#5077B5;stroke-width:1.1083;stroke-miterlimit:10;stroke-dasharray:5.5416;" x1="139.11" y1="357.018" x2="131.07" y2="382.383"/>
		
			<rect x="174.382" y="382.383" style="fill:none;stroke:#5077B5;stroke-width:1.1083;stroke-miterlimit:10;stroke-dasharray:5.5416;" width="125.45" height="22.207"/>
		<g>
			<path style="opacity:0.3;fill:#516092;" d="M250.122,417.168l-0.751-0.171l-3.129-0.71l-101.427-23.016l-3.686-0.836
				c-2.897-0.657-5.779,1.158-6.437,4.056l-0.317,1.397c-0.658,2.897,1.158,5.779,4.056,6.437l3.685,0.836l101.427,23.016
				l3.129,0.71l0.751,0.171l16.811-2.436L250.122,417.168z"/>
			<g>
				<path style="fill:#EF9875;" d="M135.657,393.727l-3.686-0.836c-2.897-0.657-5.779,1.158-6.437,4.056l-0.317,1.396
					c-0.658,2.898,1.158,5.779,4.056,6.437l3.686,0.836L135.657,393.727z"/>
				<polygon style="fill:#EAD971;" points="135.657,393.727 132.959,405.616 237.516,429.342 238.33,429.237 240.903,417.899 
					240.214,417.453 				"/>
				
					<rect x="133.179" y="409.754" transform="matrix(0.9752 0.2213 -0.2213 0.9752 95.5261 -31.2376)" style="fill:#0058A0;" width="107.985" height="1.889"/>
				
					<rect x="131.78" y="416.142" transform="matrix(0.9752 0.2213 -0.2213 0.9752 96.8555 -30.7753)" style="fill:#0058A0;" width="107.985" height="1.44"/>
				
					<rect x="134.214" y="405.663" transform="matrix(0.9752 0.2213 -0.2213 0.9752 94.5422 -31.5796)" style="fill:#0058A0;" width="107.985" height="0.95"/>
				<path style="fill:#FFF9E9;" d="M240.965,417.623l-3.881-0.881c-0.825-0.187-1.646,0.33-1.833,1.155
					c-0.187,0.825,0.33,1.646,1.155,1.833c-0.825-0.187-1.646,0.33-1.833,1.155c-0.187,0.825,0.33,1.646,1.155,1.833
					c-0.825-0.187-1.646,0.33-1.833,1.155c-0.164,0.721,0.211,1.438,0.858,1.733c-0.711-0.014-1.358,0.472-1.521,1.193
					c-0.187,0.825,0.33,1.646,1.155,1.833l3.881,0.881l16.811-2.436L240.965,417.623z"/>
				<path style="fill:#516092;" d="M249.192,423.134c-0.843,0.53-1.484,1.382-1.722,2.43c-0.205,0.904-0.061,1.797,0.319,2.569
					l7.289-1.056L249.192,423.134z"/>
			</g>
		</g>
		<g>
			<path style="opacity:0.3;fill:#516092;" d="M177.238,184.638l0.74-0.217l3.08-0.902l99.812-29.236l3.627-1.063
				c2.851-0.835,4.486-3.824,3.651-6.675l-0.403-1.374c-0.835-2.851-3.824-4.486-6.675-3.651l-3.627,1.062L177.63,171.82
				l-3.08,0.902l-0.739,0.217l-13.503,10.307L177.238,184.638z"/>
			<g>
				<path style="fill:#EF9875;" d="M288.648,149.431l3.627-1.062c2.851-0.835,4.486-3.824,3.651-6.675l-0.403-1.374
					c-0.835-2.851-3.824-4.486-6.675-3.651l-3.627,1.062L288.648,149.431z"/>
				<polygon style="fill:#EAD971;" points="288.648,149.431 285.22,137.731 182.329,167.869 181.669,168.357 184.937,179.515 
					185.756,179.569 				"/>
				
					<rect x="181.392" y="158.72" transform="matrix(-0.9597 0.2811 -0.2811 -0.9597 506.1592 246.7237)" style="fill:#0058A0;" width="107.985" height="1.889"/>
				
					<rect x="179.615" y="152.879" transform="matrix(-0.9597 0.2811 -0.2811 -0.9597 500.9726 235.3363)" style="fill:#0058A0;" width="107.985" height="1.44"/>
				
					<rect x="182.706" y="163.678" transform="matrix(-0.9597 0.2811 -0.2811 -0.9597 509.997 255.1486)" style="fill:#0058A0;" width="107.985" height="0.95"/>
				<path style="fill:#FFF9E9;" d="M185.017,179.786l3.819-1.119c0.812-0.238,1.278-1.089,1.04-1.901
					c-0.238-0.812-1.089-1.277-1.901-1.039c0.812-0.238,1.277-1.089,1.04-1.901c-0.238-0.812-1.089-1.277-1.901-1.04
					c0.812-0.238,1.277-1.089,1.039-1.901c-0.208-0.709-0.883-1.154-1.592-1.097c0.628-0.334,0.957-1.073,0.749-1.782
					c-0.238-0.812-1.089-1.277-1.901-1.04l-3.819,1.119l-13.503,10.307L185.017,179.786z"/>
				<path style="fill:#516092;" d="M175.148,178.974c0.479-0.874,0.624-1.93,0.322-2.961c-0.26-0.89-0.821-1.6-1.528-2.089
					l-5.855,4.469L175.148,178.974z"/>
			</g>
		</g>
		<polyline style="fill:none;stroke:#5077B5;stroke-width:1.1083;stroke-miterlimit:10;stroke-dasharray:5.5416;" points="
			74.955,249.396 191.198,299.209 74.955,317.075 		"/>
		
			<line style="fill:none;stroke:#5077B5;stroke-width:1.1083;stroke-miterlimit:10;stroke-dasharray:5.5416;" x1="402.5" y1="299.209" x2="293.484" y2="299.209"/>
	</g>
</g>
<g id="DESIGNED_BY_FREEPIK">
	<g>
		<g>
			<g>
				<path style="fill:#516092;" d="M182.659,483.928v-0.16c-0.218,0.249-0.432,0.452-0.644,0.608
					c-0.212,0.157-0.441,0.276-0.689,0.356c-0.247,0.082-0.517,0.122-0.81,0.122c-0.388,0-0.747-0.082-1.078-0.246
					c-0.33-0.164-0.616-0.399-0.857-0.704c-0.242-0.305-0.425-0.662-0.549-1.074c-0.124-0.412-0.187-0.857-0.187-1.336
					c0-1.013,0.247-1.803,0.742-2.369c0.495-0.565,1.146-0.848,1.953-0.848c0.467,0,0.861,0.081,1.181,0.24
					c0.321,0.16,0.633,0.408,0.938,0.739v-2.392c0-0.333,0.066-0.583,0.199-0.754c0.132-0.17,0.321-0.255,0.567-0.255
					c0.245,0,0.434,0.078,0.567,0.234c0.133,0.157,0.199,0.386,0.199,0.692v7.147c0,0.309-0.071,0.54-0.214,0.695
					c-0.143,0.154-0.326,0.231-0.552,0.231c-0.221,0-0.405-0.08-0.549-0.24C182.731,484.453,182.659,484.225,182.659,483.928z
					 M179.471,481.548c0,0.44,0.068,0.813,0.205,1.122c0.137,0.309,0.324,0.541,0.561,0.697c0.238,0.157,0.497,0.236,0.778,0.236
					c0.285,0,0.545-0.074,0.781-0.223c0.235-0.148,0.423-0.376,0.564-0.682c0.141-0.307,0.211-0.691,0.211-1.149
					c0-0.431-0.07-0.803-0.211-1.114c-0.14-0.31-0.33-0.547-0.57-0.712c-0.24-0.164-0.502-0.245-0.786-0.245
					c-0.297,0-0.562,0.084-0.796,0.252c-0.233,0.168-0.414,0.409-0.543,0.724C179.535,480.767,179.471,481.132,179.471,481.548z"/>
				<path style="fill:#516092;" d="M189.805,481.958h-3.17c0.004,0.367,0.078,0.692,0.223,0.973
					c0.144,0.281,0.336,0.493,0.576,0.635c0.239,0.143,0.504,0.213,0.792,0.213c0.194,0,0.371-0.022,0.531-0.067
					c0.16-0.047,0.315-0.117,0.466-0.214c0.15-0.096,0.289-0.201,0.415-0.312c0.126-0.111,0.29-0.262,0.493-0.452
					c0.083-0.071,0.202-0.107,0.357-0.107c0.166,0,0.3,0.046,0.403,0.137c0.103,0.092,0.155,0.219,0.155,0.386
					c0,0.146-0.058,0.317-0.172,0.513c-0.116,0.196-0.289,0.384-0.52,0.564c-0.232,0.18-0.522,0.329-0.873,0.448
					c-0.35,0.119-0.753,0.178-1.208,0.178c-1.04,0-1.85-0.297-2.428-0.891c-0.578-0.593-0.867-1.399-0.867-2.416
					c0-0.479,0.071-0.923,0.213-1.332c0.143-0.41,0.351-0.761,0.623-1.054c0.273-0.293,0.61-0.517,1.01-0.674
					c0.399-0.156,0.843-0.234,1.33-0.234c0.633,0,1.176,0.132,1.629,0.4c0.454,0.267,0.793,0.612,1.019,1.035
					c0.225,0.424,0.338,0.856,0.338,1.294c0,0.408-0.117,0.672-0.35,0.793C190.558,481.897,190.229,481.958,189.805,481.958z
					 M186.636,481.038h2.939c-0.039-0.554-0.189-0.969-0.448-1.244c-0.259-0.275-0.6-0.413-1.024-0.413
					c-0.404,0-0.736,0.139-0.994,0.418C186.848,480.078,186.691,480.491,186.636,481.038z"/>
				<path style="fill:#516092;" d="M197.189,482.734c0,0.447-0.108,0.831-0.326,1.149c-0.217,0.318-0.539,0.56-0.965,0.724
					c-0.425,0.164-0.943,0.246-1.552,0.246c-0.582,0-1.08-0.089-1.496-0.267c-0.415-0.178-0.722-0.401-0.92-0.667
					c-0.198-0.268-0.297-0.535-0.297-0.805c0-0.178,0.063-0.33,0.19-0.457c0.126-0.126,0.287-0.19,0.481-0.19
					c0.17,0,0.3,0.042,0.391,0.124c0.091,0.083,0.178,0.2,0.261,0.35c0.166,0.29,0.366,0.504,0.597,0.648
					c0.231,0.142,0.546,0.214,0.947,0.214c0.324,0,0.591-0.073,0.798-0.217c0.208-0.145,0.311-0.31,0.311-0.496
					c0-0.285-0.107-0.492-0.324-0.623c-0.216-0.131-0.571-0.256-1.066-0.375c-0.558-0.138-1.012-0.284-1.362-0.436
					c-0.35-0.151-0.63-0.353-0.84-0.602c-0.21-0.25-0.315-0.557-0.315-0.921c0-0.324,0.097-0.631,0.291-0.92
					c0.194-0.288,0.48-0.519,0.858-0.691c0.377-0.173,0.833-0.259,1.368-0.259c0.42,0,0.797,0.043,1.131,0.131
					c0.335,0.086,0.614,0.204,0.837,0.35c0.224,0.146,0.394,0.308,0.51,0.486c0.117,0.178,0.175,0.352,0.175,0.523
					c0,0.186-0.062,0.338-0.187,0.457c-0.124,0.118-0.301,0.178-0.532,0.178c-0.166,0-0.308-0.048-0.424-0.143
					c-0.117-0.095-0.25-0.237-0.401-0.427c-0.123-0.158-0.266-0.285-0.433-0.38c-0.166-0.095-0.392-0.142-0.677-0.142
					c-0.293,0-0.536,0.062-0.73,0.187c-0.194,0.124-0.291,0.279-0.291,0.465c0,0.171,0.071,0.31,0.213,0.419
					c0.143,0.109,0.334,0.2,0.576,0.27c0.242,0.071,0.573,0.158,0.997,0.261c0.502,0.123,0.913,0.27,1.231,0.44
					c0.318,0.17,0.56,0.371,0.725,0.603C197.108,482.174,197.189,482.438,197.189,482.734z"/>
				<path style="fill:#516092;" d="M198.845,477.512c-0.225,0-0.418-0.07-0.579-0.208c-0.16-0.138-0.24-0.334-0.24-0.588
					c0-0.23,0.082-0.418,0.246-0.567c0.164-0.149,0.356-0.223,0.573-0.223c0.21,0,0.396,0.067,0.558,0.202
					c0.162,0.135,0.244,0.33,0.244,0.588c0,0.25-0.08,0.444-0.238,0.585C199.251,477.441,199.063,477.512,198.845,477.512z
					 M199.647,479.185v4.683c0,0.325-0.077,0.571-0.232,0.737c-0.155,0.166-0.35,0.249-0.588,0.249
					c-0.238,0-0.431-0.085-0.579-0.255c-0.149-0.17-0.223-0.414-0.223-0.731v-4.636c0-0.32,0.074-0.561,0.223-0.724
					c0.148-0.162,0.341-0.244,0.579-0.244c0.238,0,0.433,0.081,0.588,0.244C199.57,478.671,199.647,478.896,199.647,479.185z"/>
				<path style="fill:#516092;" d="M206.746,479.452v4.707c0,0.538-0.058,1.002-0.173,1.39c-0.114,0.387-0.298,0.708-0.552,0.961
					c-0.253,0.253-0.585,0.441-0.994,0.563c-0.41,0.123-0.919,0.184-1.529,0.184c-0.558,0-1.057-0.078-1.496-0.234
					c-0.439-0.157-0.777-0.358-1.015-0.605c-0.237-0.247-0.356-0.502-0.356-0.763c0-0.198,0.067-0.359,0.202-0.483
					c0.134-0.125,0.297-0.187,0.486-0.187c0.237,0,0.445,0.105,0.623,0.314c0.087,0.107,0.177,0.216,0.27,0.324
					c0.093,0.109,0.197,0.202,0.309,0.279c0.113,0.076,0.248,0.134,0.406,0.172c0.158,0.037,0.341,0.056,0.546,0.056
					c0.42,0,0.745-0.058,0.977-0.175c0.232-0.117,0.394-0.28,0.487-0.49c0.093-0.209,0.147-0.433,0.163-0.673
					c0.016-0.24,0.027-0.624,0.035-1.155c-0.25,0.349-0.537,0.615-0.864,0.796c-0.326,0.182-0.715,0.273-1.166,0.273
					c-0.542,0-1.016-0.139-1.422-0.416c-0.405-0.277-0.717-0.665-0.934-1.163c-0.218-0.499-0.326-1.074-0.326-1.727
					c0-0.487,0.066-0.927,0.198-1.318c0.133-0.392,0.322-0.723,0.567-0.992c0.245-0.269,0.528-0.472,0.849-0.609
					c0.32-0.136,0.673-0.204,1.057-0.204c0.459,0,0.857,0.089,1.193,0.264c0.336,0.177,0.649,0.453,0.938,0.829v-0.22
					c0-0.281,0.069-0.498,0.208-0.653c0.139-0.154,0.317-0.231,0.535-0.231c0.313,0,0.52,0.103,0.623,0.306
					C206.694,478.774,206.746,479.069,206.746,479.452z M202.05,481.506c0,0.657,0.143,1.154,0.43,1.49
					c0.287,0.337,0.658,0.505,1.113,0.505c0.269,0,0.523-0.073,0.762-0.217c0.24-0.145,0.434-0.363,0.585-0.653
					c0.15-0.291,0.225-0.644,0.225-1.06c0-0.66-0.145-1.176-0.436-1.543c-0.291-0.368-0.674-0.552-1.149-0.552
					c-0.463,0-0.834,0.176-1.113,0.529C202.189,480.356,202.05,480.857,202.05,481.506z"/>
				<path style="fill:#516092;" d="M209.322,479.161v0.196c0.284-0.376,0.596-0.652,0.935-0.828
					c0.339-0.176,0.727-0.264,1.166-0.264c0.428,0,0.809,0.094,1.146,0.28c0.336,0.186,0.588,0.449,0.754,0.789
					c0.107,0.198,0.176,0.413,0.208,0.642c0.032,0.23,0.048,0.522,0.048,0.879v3.015c0,0.325-0.074,0.571-0.223,0.737
					c-0.148,0.166-0.341,0.249-0.579,0.249c-0.242,0-0.437-0.085-0.588-0.255c-0.151-0.17-0.225-0.414-0.225-0.731v-2.701
					c0-0.534-0.075-0.943-0.223-1.226c-0.149-0.283-0.444-0.425-0.888-0.425c-0.288,0-0.552,0.086-0.789,0.258
					c-0.237,0.173-0.412,0.41-0.522,0.71c-0.079,0.242-0.119,0.692-0.119,1.353v2.03c0,0.328-0.077,0.576-0.228,0.74
					c-0.152,0.164-0.349,0.246-0.59,0.246c-0.234,0-0.425-0.085-0.576-0.255c-0.15-0.17-0.226-0.414-0.226-0.731v-4.683
					c0-0.309,0.067-0.54,0.202-0.692c0.135-0.152,0.319-0.228,0.552-0.228c0.143,0,0.272,0.034,0.387,0.101
					c0.114,0.068,0.207,0.168,0.276,0.302C209.287,478.803,209.322,478.968,209.322,479.161z"/>
				<path style="fill:#516092;" d="M219.18,481.958h-3.17c0.004,0.367,0.078,0.692,0.223,0.973c0.144,0.281,0.336,0.493,0.576,0.635
					c0.239,0.143,0.503,0.213,0.792,0.213c0.194,0,0.371-0.022,0.532-0.067c0.16-0.047,0.315-0.117,0.466-0.214
					c0.15-0.096,0.288-0.201,0.416-0.312c0.126-0.111,0.29-0.262,0.492-0.452c0.083-0.071,0.202-0.107,0.356-0.107
					c0.166,0,0.301,0.046,0.404,0.137c0.103,0.092,0.154,0.219,0.154,0.386c0,0.146-0.057,0.317-0.172,0.513
					c-0.115,0.196-0.288,0.384-0.52,0.564c-0.232,0.18-0.522,0.329-0.872,0.448c-0.35,0.119-0.753,0.178-1.208,0.178
					c-1.041,0-1.85-0.297-2.428-0.891c-0.577-0.593-0.866-1.399-0.866-2.416c0-0.479,0.071-0.923,0.214-1.332
					c0.143-0.41,0.351-0.761,0.624-1.054c0.273-0.293,0.609-0.517,1.009-0.674c0.399-0.156,0.843-0.234,1.33-0.234
					c0.633,0,1.176,0.132,1.629,0.4c0.454,0.267,0.793,0.612,1.019,1.035c0.225,0.424,0.338,0.856,0.338,1.294
					c0,0.408-0.117,0.672-0.35,0.793C219.933,481.897,219.604,481.958,219.18,481.958z M216.011,481.038h2.938
					c-0.039-0.554-0.189-0.969-0.448-1.244c-0.259-0.275-0.6-0.413-1.024-0.413c-0.404,0-0.736,0.139-0.995,0.418
					C216.223,480.078,216.066,480.491,216.011,481.038z"/>
				<path style="fill:#516092;" d="M225.787,483.928v-0.16c-0.218,0.249-0.432,0.452-0.644,0.608
					c-0.212,0.157-0.441,0.276-0.689,0.356c-0.247,0.082-0.517,0.122-0.81,0.122c-0.389,0-0.747-0.082-1.078-0.246
					c-0.33-0.164-0.616-0.399-0.858-0.704c-0.242-0.305-0.424-0.662-0.549-1.074c-0.125-0.412-0.187-0.857-0.187-1.336
					c0-1.013,0.247-1.803,0.742-2.369c0.495-0.565,1.146-0.848,1.953-0.848c0.467,0,0.861,0.081,1.181,0.24
					c0.32,0.16,0.633,0.408,0.938,0.739v-2.392c0-0.333,0.066-0.583,0.199-0.754c0.132-0.17,0.322-0.255,0.567-0.255
					c0.245,0,0.434,0.078,0.567,0.234c0.133,0.157,0.199,0.386,0.199,0.692v7.147c0,0.309-0.071,0.54-0.214,0.695
					c-0.143,0.154-0.326,0.231-0.552,0.231c-0.222,0-0.405-0.08-0.549-0.24C225.859,484.453,225.787,484.225,225.787,483.928z
					 M222.599,481.548c0,0.44,0.068,0.813,0.204,1.122c0.137,0.309,0.324,0.541,0.561,0.697c0.237,0.157,0.496,0.236,0.777,0.236
					c0.285,0,0.546-0.074,0.781-0.223c0.236-0.148,0.424-0.376,0.564-0.682c0.141-0.307,0.211-0.691,0.211-1.149
					c0-0.431-0.07-0.803-0.211-1.114c-0.14-0.31-0.33-0.547-0.57-0.712c-0.24-0.164-0.502-0.245-0.787-0.245
					c-0.296,0-0.562,0.084-0.795,0.252c-0.233,0.168-0.414,0.409-0.543,0.724C222.663,480.767,222.599,481.132,222.599,481.548z"/>
				<path style="fill:#516092;" d="M232.41,476.781v2.475c0.305-0.316,0.615-0.559,0.932-0.727c0.316-0.168,0.709-0.252,1.176-0.252
					c0.538,0,1.01,0.128,1.416,0.382c0.405,0.256,0.72,0.626,0.944,1.111c0.223,0.484,0.336,1.06,0.336,1.725
					c0,0.491-0.063,0.94-0.187,1.35c-0.125,0.41-0.306,0.765-0.543,1.065c-0.238,0.301-0.525,0.534-0.864,0.698
					c-0.339,0.164-0.712,0.246-1.119,0.246c-0.25,0-0.484-0.029-0.703-0.089c-0.22-0.059-0.407-0.137-0.561-0.234
					c-0.154-0.096-0.286-0.197-0.395-0.3c-0.109-0.103-0.253-0.258-0.431-0.463v0.16c0,0.305-0.073,0.535-0.22,0.692
					c-0.146,0.156-0.332,0.234-0.558,0.234c-0.23,0-0.413-0.078-0.549-0.234c-0.137-0.157-0.205-0.388-0.205-0.692v-7.076
					c0-0.328,0.066-0.577,0.198-0.745c0.133-0.168,0.318-0.252,0.556-0.252c0.25,0,0.441,0.08,0.576,0.24
					C232.343,476.256,232.41,476.484,232.41,476.781z M232.488,481.595c0,0.645,0.148,1.14,0.442,1.486
					c0.295,0.347,0.682,0.521,1.16,0.521c0.407,0,0.759-0.177,1.054-0.532c0.295-0.355,0.442-0.862,0.442-1.523
					c0-0.427-0.061-0.796-0.184-1.104c-0.123-0.309-0.297-0.548-0.522-0.715c-0.226-0.168-0.489-0.252-0.79-0.252
					c-0.308,0-0.584,0.084-0.825,0.252c-0.242,0.168-0.431,0.411-0.57,0.73C232.557,480.776,232.488,481.156,232.488,481.595z"/>
				<path style="fill:#516092;" d="M239.314,485.056l0.148-0.363l-1.995-5.022c-0.122-0.288-0.184-0.499-0.184-0.629
					c0-0.139,0.036-0.267,0.107-0.385c0.071-0.119,0.169-0.214,0.294-0.285c0.125-0.072,0.255-0.108,0.389-0.108
					c0.233,0,0.409,0.075,0.529,0.223c0.119,0.148,0.223,0.361,0.314,0.638l1.371,3.989l1.3-3.71c0.103-0.3,0.196-0.536,0.279-0.706
					c0.083-0.17,0.171-0.285,0.264-0.344c0.093-0.06,0.225-0.09,0.395-0.09c0.123,0,0.24,0.032,0.353,0.098
					c0.113,0.065,0.199,0.153,0.261,0.264c0.061,0.111,0.092,0.227,0.092,0.35c-0.016,0.075-0.042,0.182-0.077,0.321
					c-0.036,0.138-0.079,0.279-0.13,0.421l-2.113,5.533c-0.182,0.487-0.36,0.868-0.535,1.145c-0.174,0.277-0.404,0.491-0.691,0.638
					c-0.287,0.149-0.674,0.223-1.161,0.223c-0.475,0-0.831-0.051-1.068-0.154c-0.238-0.104-0.356-0.292-0.356-0.565
					c0-0.186,0.056-0.33,0.169-0.43c0.112-0.101,0.28-0.152,0.501-0.152c0.087,0,0.173,0.012,0.256,0.037
					c0.103,0.023,0.192,0.035,0.267,0.035c0.186,0,0.333-0.027,0.44-0.084c0.106-0.055,0.202-0.151,0.288-0.288
					C239.105,485.522,239.203,485.321,239.314,485.056z"/>
			</g>
			<g>
				<path style="fill:#516092;" d="M262.791,478.405h0.386v-0.486c0-0.509,0.062-0.911,0.192-1.211
					c0.128-0.299,0.347-0.516,0.654-0.653c0.306-0.135,0.727-0.204,1.26-0.204c0.95,0,1.42,0.229,1.42,0.696
					c0,0.149-0.049,0.278-0.15,0.385c-0.096,0.106-0.214,0.16-0.349,0.16c-0.062,0-0.174-0.012-0.33-0.037
					c-0.148-0.021-0.283-0.035-0.389-0.035c-0.292,0-0.479,0.088-0.566,0.259c-0.079,0.172-0.122,0.418-0.122,0.74v0.386h0.396
					c0.619,0,0.926,0.186,0.926,0.56c0,0.262-0.079,0.432-0.245,0.503c-0.164,0.072-0.39,0.107-0.68,0.107h-0.396v4.294
					c0,0.319-0.075,0.563-0.231,0.73c-0.151,0.17-0.346,0.254-0.589,0.254c-0.229,0-0.419-0.084-0.574-0.254
					c-0.153-0.167-0.228-0.411-0.228-0.73v-4.294h-0.446c-0.243,0-0.427-0.052-0.559-0.164c-0.131-0.107-0.197-0.25-0.197-0.424
					C261.976,478.597,262.248,478.405,262.791,478.405"/>
				<path style="fill:#516092;" d="M268.097,482.514v1.355c0,0.327-0.083,0.574-0.234,0.737c-0.154,0.166-0.349,0.247-0.586,0.247
					c-0.239,0-0.43-0.082-0.579-0.25c-0.148-0.165-0.225-0.41-0.225-0.734v-4.514c0-0.729,0.262-1.093,0.788-1.093
					c0.271,0,0.465,0.084,0.583,0.255c0.118,0.171,0.184,0.421,0.198,0.755c0.192-0.334,0.39-0.584,0.593-0.755
					c0.208-0.171,0.477-0.255,0.818-0.255c0.343,0,0.67,0.084,0.991,0.255c0.322,0.171,0.482,0.398,0.482,0.678
					c0,0.197-0.069,0.363-0.204,0.488c-0.137,0.131-0.284,0.195-0.441,0.195c-0.062,0-0.207-0.039-0.433-0.112
					c-0.228-0.071-0.43-0.108-0.602-0.108c-0.237,0-0.433,0.064-0.582,0.186c-0.151,0.128-0.269,0.311-0.353,0.554
					c-0.081,0.247-0.137,0.541-0.17,0.878C268.111,481.614,268.097,482.028,268.097,482.514"/>
				<path style="fill:#516092;" d="M275.547,481.956h-3.171c0.006,0.367,0.078,0.694,0.222,0.974
					c0.147,0.279,0.337,0.491,0.578,0.635c0.24,0.142,0.502,0.212,0.793,0.212c0.194,0,0.371-0.021,0.531-0.069
					c0.159-0.043,0.316-0.116,0.466-0.213c0.151-0.095,0.287-0.199,0.415-0.313c0.126-0.109,0.292-0.26,0.494-0.449
					c0.084-0.071,0.203-0.109,0.355-0.109c0.168,0,0.301,0.046,0.406,0.139c0.104,0.092,0.152,0.219,0.152,0.386
					c0,0.147-0.056,0.317-0.167,0.512c-0.117,0.198-0.289,0.385-0.522,0.566c-0.234,0.178-0.524,0.33-0.874,0.446
					c-0.35,0.119-0.754,0.179-1.207,0.179c-1.044,0-1.853-0.295-2.429-0.889c-0.577-0.595-0.87-1.401-0.87-2.418
					c0-0.479,0.073-0.924,0.217-1.334c0.14-0.411,0.348-0.76,0.624-1.055c0.272-0.294,0.606-0.518,1.008-0.674
					c0.398-0.156,0.842-0.234,1.33-0.234c0.632,0,1.175,0.134,1.629,0.403c0.452,0.264,0.796,0.61,1.018,1.034
					c0.226,0.425,0.339,0.855,0.339,1.296c0,0.405-0.118,0.669-0.351,0.791C276.298,481.896,275.971,481.956,275.547,481.956
					 M272.376,481.034h2.938c-0.039-0.553-0.186-0.969-0.446-1.241c-0.261-0.276-0.599-0.413-1.025-0.413
					c-0.403,0-0.736,0.137-0.995,0.418C272.589,480.077,272.43,480.489,272.376,481.034"/>
				<path style="fill:#516092;" d="M282.289,481.956h-3.171c0.004,0.367,0.078,0.694,0.222,0.974
					c0.145,0.279,0.337,0.491,0.576,0.635c0.239,0.142,0.504,0.212,0.795,0.212c0.192,0,0.37-0.021,0.528-0.069
					c0.162-0.043,0.316-0.116,0.469-0.213c0.151-0.095,0.287-0.199,0.415-0.313c0.125-0.109,0.29-0.26,0.493-0.449
					c0.084-0.071,0.204-0.109,0.355-0.109c0.168,0,0.302,0.046,0.406,0.139c0.103,0.092,0.15,0.219,0.15,0.386
					c0,0.147-0.054,0.317-0.171,0.512c-0.111,0.198-0.284,0.385-0.519,0.566c-0.231,0.178-0.525,0.33-0.872,0.446
					c-0.349,0.119-0.755,0.179-1.209,0.179c-1.042,0-1.849-0.295-2.429-0.889c-0.577-0.595-0.868-1.401-0.868-2.418
					c0-0.479,0.073-0.924,0.217-1.334c0.142-0.411,0.349-0.76,0.623-1.055c0.272-0.294,0.608-0.518,1.009-0.674
					c0.398-0.156,0.844-0.234,1.331-0.234c0.63,0,1.174,0.134,1.633,0.403c0.45,0.264,0.791,0.61,1.013,1.034
					c0.225,0.425,0.341,0.855,0.341,1.296c0,0.405-0.12,0.669-0.351,0.791C283.039,481.896,282.711,481.956,282.289,481.956
					 M279.118,481.034h2.938c-0.04-0.553-0.19-0.969-0.447-1.241c-0.263-0.276-0.601-0.413-1.027-0.413
					c-0.403,0-0.735,0.137-0.995,0.418C279.33,480.077,279.171,480.489,279.118,481.034"/>
				<path style="fill:#516092;" d="M285.839,479.173v0.194c0.304-0.375,0.621-0.651,0.953-0.828
					c0.324-0.178,0.699-0.267,1.114-0.267c0.497,0,0.96,0.13,1.379,0.386c0.419,0.259,0.749,0.635,0.993,1.129
					c0.244,0.497,0.366,1.081,0.366,1.758c0,0.497-0.07,0.957-0.21,1.376c-0.14,0.417-0.336,0.767-0.58,1.05
					c-0.246,0.281-0.535,0.501-0.868,0.654c-0.339,0.151-0.695,0.227-1.08,0.227c-0.461,0-0.853-0.093-1.166-0.28
					c-0.314-0.183-0.614-0.458-0.901-0.816v2.433c0,0.71-0.26,1.069-0.778,1.069c-0.306,0-0.505-0.092-0.607-0.275
					c-0.095-0.187-0.146-0.452-0.146-0.807v-6.996c0-0.31,0.066-0.537,0.2-0.692c0.134-0.15,0.32-0.228,0.553-0.228
					c0.231,0,0.416,0.078,0.56,0.234C285.768,478.654,285.839,478.877,285.839,479.173 M289.017,481.528
					c0-0.428-0.067-0.796-0.197-1.102c-0.131-0.308-0.312-0.542-0.541-0.705c-0.229-0.164-0.489-0.248-0.77-0.248
					c-0.446,0-0.824,0.178-1.13,0.527c-0.308,0.354-0.462,0.872-0.462,1.558c0,0.642,0.153,1.146,0.46,1.504
					c0.305,0.358,0.679,0.536,1.133,0.536c0.268,0,0.519-0.079,0.748-0.233c0.232-0.158,0.416-0.392,0.552-0.704
					C288.947,482.349,289.017,481.971,289.017,481.528"/>
				<path style="fill:#516092;" d="M292.276,477.507c-0.227,0-0.418-0.071-0.577-0.209c-0.162-0.139-0.242-0.333-0.242-0.585
					c0-0.23,0.082-0.419,0.248-0.569c0.164-0.147,0.354-0.222,0.571-0.222c0.212,0,0.397,0.067,0.558,0.2
					c0.162,0.137,0.244,0.334,0.244,0.591c0,0.25-0.079,0.444-0.236,0.585C292.684,477.436,292.496,477.507,292.276,477.507
					 M293.079,479.181v4.689c0,0.322-0.078,0.568-0.231,0.733c-0.156,0.168-0.35,0.25-0.588,0.25c-0.238,0-0.428-0.084-0.58-0.254
					c-0.146-0.173-0.222-0.416-0.222-0.729v-4.642c0-0.319,0.076-0.559,0.222-0.721c0.152-0.165,0.342-0.245,0.58-0.245
					c0.238,0,0.432,0.079,0.588,0.245C293.001,478.669,293.079,478.895,293.079,479.181"/>
				<path style="fill:#516092;" d="M298.304,484.113l-1.428-2.354l-0.88,0.83v1.291c0,0.312-0.083,0.551-0.248,0.718
					c-0.16,0.17-0.354,0.254-0.566,0.254c-0.249,0-0.447-0.082-0.588-0.25c-0.142-0.165-0.215-0.41-0.215-0.734v-6.915
					c0-0.358,0.071-0.632,0.207-0.821c0.139-0.19,0.341-0.283,0.596-0.283c0.25,0,0.446,0.085,0.593,0.257
					c0.146,0.169,0.221,0.421,0.221,0.751v3.933l1.823-1.914c0.227-0.235,0.396-0.4,0.517-0.487c0.118-0.087,0.262-0.13,0.431-0.13
					c0.204,0,0.371,0.065,0.51,0.193c0.132,0.129,0.2,0.291,0.2,0.483c0,0.237-0.221,0.555-0.659,0.951l-0.861,0.789l1.662,2.614
					c0.121,0.196,0.212,0.34,0.265,0.441c0.052,0.099,0.081,0.2,0.081,0.289c0,0.258-0.071,0.459-0.213,0.61
					c-0.14,0.148-0.327,0.221-0.554,0.221c-0.198,0-0.352-0.051-0.458-0.16C298.633,484.585,298.485,484.391,298.304,484.113"/>
				<path style="fill:#516092;" d="M301.826,484.853c-0.245,0-0.455-0.079-0.634-0.238c-0.178-0.156-0.268-0.378-0.268-0.665
					c0-0.241,0.086-0.449,0.256-0.622c0.172-0.175,0.38-0.262,0.63-0.262c0.248,0,0.46,0.087,0.639,0.258
					c0.174,0.172,0.264,0.383,0.264,0.626c0,0.283-0.089,0.505-0.264,0.662C302.27,484.774,302.063,484.853,301.826,484.853"/>
				<path style="fill:#516092;" d="M309.887,482.847c0,0.2-0.06,0.418-0.182,0.646c-0.12,0.231-0.305,0.449-0.553,0.656
					c-0.247,0.207-0.557,0.376-0.935,0.502c-0.375,0.126-0.8,0.192-1.269,0.192c-1.004,0-1.786-0.294-2.349-0.876
					c-0.56-0.585-0.841-1.368-0.841-2.35c0-0.667,0.128-1.254,0.387-1.765c0.254-0.509,0.627-0.905,1.113-1.184
					c0.487-0.28,1.072-0.419,1.746-0.419c0.421,0,0.805,0.061,1.158,0.184c0.35,0.122,0.645,0.282,0.891,0.474
					c0.242,0.197,0.428,0.402,0.556,0.62c0.129,0.22,0.192,0.425,0.192,0.617c0,0.192-0.071,0.357-0.214,0.492
					c-0.147,0.134-0.322,0.203-0.524,0.203c-0.137,0-0.249-0.035-0.338-0.104c-0.09-0.07-0.19-0.181-0.299-0.339
					c-0.198-0.299-0.404-0.526-0.622-0.674c-0.214-0.152-0.488-0.227-0.821-0.227c-0.476,0-0.865,0.186-1.158,0.561
					c-0.292,0.372-0.44,0.887-0.44,1.534c0,0.305,0.039,0.587,0.114,0.842c0.073,0.255,0.182,0.473,0.325,0.652
					c0.144,0.18,0.315,0.316,0.516,0.409c0.203,0.096,0.425,0.141,0.665,0.141c0.326,0,0.604-0.075,0.836-0.225
					c0.235-0.151,0.439-0.38,0.616-0.689c0.099-0.182,0.204-0.324,0.318-0.427c0.114-0.102,0.256-0.156,0.422-0.156
					c0.198,0,0.363,0.077,0.491,0.226C309.821,482.516,309.887,482.678,309.887,482.847"/>
				<path style="fill:#516092;" d="M316.882,481.559c0,0.481-0.076,0.928-0.222,1.337c-0.155,0.408-0.37,0.758-0.656,1.049
					c-0.284,0.293-0.626,0.518-1.02,0.675c-0.4,0.155-0.844,0.234-1.337,0.234c-0.491,0-0.933-0.08-1.326-0.239
					c-0.389-0.156-0.732-0.384-1.016-0.676c-0.288-0.298-0.505-0.646-0.657-1.048c-0.143-0.402-0.219-0.847-0.219-1.332
					c0-0.491,0.078-0.941,0.224-1.349c0.151-0.409,0.368-0.757,0.649-1.046c0.282-0.289,0.621-0.511,1.019-0.669
					c0.402-0.156,0.844-0.234,1.326-0.234c0.49,0,0.936,0.078,1.337,0.239c0.398,0.157,0.739,0.384,1.027,0.674
					c0.286,0.297,0.502,0.643,0.65,1.045C316.806,480.627,316.882,481.07,316.882,481.559 M315.254,481.559
					c0-0.662-0.146-1.175-0.436-1.543c-0.289-0.372-0.681-0.555-1.171-0.555c-0.317,0-0.597,0.082-0.839,0.246
					c-0.242,0.164-0.425,0.406-0.556,0.727c-0.131,0.321-0.197,0.696-0.197,1.124c0,0.424,0.064,0.792,0.193,1.108
					c0.13,0.319,0.314,0.561,0.554,0.729c0.241,0.167,0.522,0.253,0.845,0.253c0.49,0,0.882-0.185,1.171-0.557
					C315.108,482.722,315.254,482.21,315.254,481.559"/>
				<path style="fill:#516092;" d="M323.064,481.678v2.154c0,0.342-0.075,0.594-0.231,0.767c-0.156,0.17-0.357,0.255-0.611,0.255
					c-0.245,0-0.446-0.085-0.594-0.255c-0.154-0.173-0.233-0.426-0.233-0.767v-2.582c0-0.408-0.013-0.726-0.04-0.953
					c-0.029-0.221-0.105-0.409-0.226-0.552c-0.123-0.147-0.318-0.22-0.582-0.22c-0.532,0-0.88,0.181-1.048,0.551
					c-0.167,0.36-0.254,0.883-0.254,1.567v2.189c0,0.336-0.076,0.591-0.226,0.765c-0.156,0.171-0.355,0.258-0.603,0.258
					c-0.247,0-0.448-0.087-0.604-0.258c-0.157-0.173-0.235-0.428-0.235-0.765v-4.637c0-0.306,0.07-0.538,0.209-0.695
					c0.143-0.161,0.329-0.239,0.556-0.239c0.223,0,0.407,0.077,0.557,0.222c0.148,0.149,0.221,0.354,0.221,0.615v0.153
					c0.283-0.335,0.584-0.582,0.903-0.738c0.323-0.162,0.676-0.241,1.071-0.241c0.407,0,0.757,0.082,1.049,0.243
					c0.293,0.163,0.533,0.41,0.725,0.736c0.275-0.33,0.568-0.577,0.881-0.738c0.313-0.161,0.658-0.241,1.039-0.241
					c0.441,0,0.826,0.089,1.146,0.262c0.319,0.174,0.558,0.425,0.717,0.747c0.138,0.295,0.206,0.756,0.206,1.385v3.164
					c0,0.342-0.076,0.594-0.229,0.767c-0.154,0.17-0.36,0.255-0.612,0.255c-0.247,0-0.446-0.087-0.603-0.258
					c-0.156-0.173-0.235-0.428-0.235-0.765v-2.726c0-0.349-0.015-0.627-0.043-0.836c-0.029-0.211-0.11-0.388-0.239-0.529
					c-0.133-0.142-0.331-0.215-0.596-0.215c-0.214,0-0.416,0.067-0.609,0.192c-0.192,0.124-0.342,0.298-0.45,0.508
					C323.125,480.5,323.064,480.984,323.064,481.678"/>
			</g>
			<g>
				<path style="fill:#516092;" d="M247.623,481.166c-0.001-0.003-0.001-0.006-0.001-0.011
					C247.622,481.16,247.622,481.163,247.623,481.166z"/>
				<path style="fill:#516092;" d="M247.705,481.684c0.001,0,0.001,0,0.002,0c-0.031-0.148-0.055-0.294-0.074-0.439
					C247.652,481.392,247.676,481.539,247.705,481.684z"/>
				<path style="fill:#516092;" d="M248.242,483.188c-0.004-0.006-0.007-0.013-0.011-0.021
					C248.235,483.175,248.238,483.182,248.242,483.188z"/>
				<path style="fill:#516092;" d="M248.19,483.088c-0.014-0.027-0.027-0.056-0.041-0.084
					C248.163,483.034,248.176,483.061,248.19,483.088z"/>
				<path style="fill:#516092;" d="M247.856,482.264c0.079,0.25,0.175,0.492,0.286,0.724c-0.113-0.236-0.206-0.479-0.284-0.724
					C247.857,482.264,247.857,482.264,247.856,482.264z"/>
				<path style="fill:#516092;" d="M253.897,474.956c0.313,0,0.544,0.025,0.809,0.07l0.075-0.477c0,0-0.732-0.225-1.694-0.146
					l-0.076-0.259c0.299-0.063,0.524-0.329,0.524-0.646c0-0.364-0.296-0.659-0.661-0.659c-0.364,0-0.66,0.295-0.66,0.659
					c0,0.317,0.224,0.583,0.522,0.646l0.084,0.289c-1.021,0.14-1.834,0.539-1.834,0.539l0.144,0.441
					c0.618-0.206,1.154-0.331,1.64-0.383C253.247,474.978,253.605,474.956,253.897,474.956z"/>
				<path style="fill:#516092;" d="M248.229,477.367l0.004-0.005c0.024-0.031,0.047-0.061,0.071-0.089l-0.196-0.141l-0.305-0.223
					c-0.017,0.024-0.497,0.465-0.876,1.28c-0.016-0.026-0.035-0.051-0.056-0.074c-0.113-0.124-0.272-0.187-0.474-0.184
					c-0.003,0-0.006,0-0.009,0c-0.125,0-0.211-0.042-0.267-0.092c0.056-0.071,0.089-0.16,0.089-0.258
					c0-0.23-0.187-0.418-0.418-0.418c-0.23,0-0.418,0.188-0.418,0.418c0,0.231,0.187,0.418,0.418,0.418
					c0.036,0,0.071-0.006,0.104-0.013c0.103,0.114,0.266,0.214,0.505,0.209c0.123-0.001,0.213,0.03,0.273,0.097
					c0.069,0.076,0.093,0.185,0.1,0.267c-0.001,0.001-0.001,0.003-0.002,0.003c-0.272,0.743-0.194,1.669-0.194,1.669l0.661,0.026
					c0.014-0.337,0.062-0.926,0.232-1.394C247.801,477.958,248.213,477.391,248.229,477.367z"/>
				<path style="fill:#516092;" d="M259.646,475.508c-0.23,0-0.418,0.187-0.418,0.418c0,0.036,0.005,0.07,0.015,0.103
					c-0.115,0.104-0.214,0.267-0.21,0.507c0.002,0.123-0.03,0.212-0.096,0.273c-0.053,0.047-0.12,0.072-0.185,0.088
					c-0.492-0.689-1.097-1.11-1.097-1.11l-0.474,0.508c0.358,0.326,0.725,0.734,1.08,1.244c0.246,0.352,0.499,0.806,0.71,1.259
					l0.64-0.304c0,0-0.292-0.722-0.704-1.37c0.071-0.025,0.143-0.064,0.207-0.12c0.125-0.113,0.187-0.273,0.183-0.474
					c-0.001-0.13,0.042-0.218,0.093-0.276c0.071,0.054,0.16,0.089,0.258,0.089c0.232,0,0.419-0.187,0.419-0.418
					C260.065,475.695,259.878,475.508,259.646,475.508z"/>
				<path style="fill:#516092;" d="M257.986,481.26c-0.881,0.429-2.33,0.996-4.238,1.262c-0.749,0.104-1.475,0.142-2.143,0.142
					c-0.869,0-1.637-0.065-2.227-0.139c-0.673-0.085-1.198-0.189-1.52-0.261c0.077,0.245,0.171,0.488,0.284,0.724
					c0.002,0.006,0.005,0.013,0.008,0.017c0.013,0.027,0.027,0.056,0.041,0.084c0.013,0.027,0.027,0.054,0.04,0.079
					c0.004,0.007,0.007,0.015,0.011,0.021c0.189,0.356,0.417,0.684,0.675,0.968c0.9,0.984,1.817,1.14,1.826,1.141l0.014,0.002
					l0.013,0.005c0.008,0.003,0.821,0.265,2.057,0.265c1.216,0,2.409-0.245,3.546-0.729c0.842-0.431,1.639-1.085,2.034-1.669
					c0.305-0.452,0.525-0.933,0.656-1.434c0.07-0.266,0.124-0.692,0.092-1.141C258.908,480.764,258.516,481.001,257.986,481.26z"/>
				<path style="fill:#516092;" d="M248.512,477.576c-0.026,0.037-0.408,0.578-0.71,1.408c-0.226,0.622-0.216,1.527-0.216,1.538
					v0.002c0,0.212,0.012,0.423,0.035,0.632c0,0.005,0,0.008,0.001,0.011c0.002,0.027,0.007,0.052,0.009,0.079
					c0.019,0.145,0.043,0.291,0.074,0.439c0.438,0.111,3.049,0.72,5.968,0.314c1.829-0.255,3.218-0.795,4.062-1.204
					c0.701-0.34,1.151-0.647,1.325-0.774c-0.173-0.643-0.651-1.65-1.089-2.279c-1.253-1.791-2.604-2.25-3.298-2.365
					c-0.265-0.043-0.477-0.068-0.777-0.068c-0.28,0-0.626,0.023-1.089,0.071c-0.465,0.048-0.982,0.17-1.583,0.372
					c-0.842,0.282-1.605,0.724-2.204,1.28l-0.02,0.019C248.911,477.132,248.726,477.305,248.512,477.576z M256.181,477.159
					c0.601,0,1.089,0.488,1.089,1.09s-0.489,1.09-1.089,1.09c-0.601,0-1.089-0.489-1.089-1.09S255.58,477.159,256.181,477.159z
					 M251.03,477.116c0.973,0,1.761,0.789,1.761,1.761c0,0.972-0.788,1.759-1.761,1.759c-0.972,0-1.76-0.787-1.76-1.759
					C249.27,477.905,250.058,477.116,251.03,477.116z"/>
			</g>
		</g>
	</g>
</g>
</svg>
