<svg xmlns="http://www.w3.org/2000/svg" xml:space="preserve" style="enable-background:new 0 0 1250 750" viewBox="0 0 1250 750"><path d="M0 0h1250v750H0z" style="fill:#fff"/><path d="M72.256 625.007h131.553v16.809H72.256z" style="enable-background:new 0 0 1250 750;fill:#8ddbb6;fill-opacity:1" transform="matrix(.26858 0 0 1.43878 1011.83 -411.588)"/><path d="M70.979 625.007h131.553v16.809H70.979z" style="enable-background:new 0 0 1250 750;fill:#8ddbb6;fill-opacity:1" transform="matrix(.26858 0 0 1.43878 962.771 -411.617)"/><path d="M71.617 625.007H203.17v16.809H71.617z" style="enable-background:new 0 0 1250 750;fill:#8ddbb6;fill-opacity:1" transform="matrix(.26858 0 0 1.43878 910.344 -411.498)"/><path d="M71.617 625.007H203.17v16.809H71.617z" style="enable-background:new 0 0 1250 750;fill:#8ddbb6;fill-opacity:1" transform="matrix(.26858 0 0 1.43878 861.208 -411.54)"/><path d="M72.895 625.007h131.553v16.809H72.895z" style="enable-background:new 0 0 1250 750;fill:#8ddbb6;fill-opacity:1" transform="translate(397.54 -233.25)"/><path d="M72.895 625.007h131.553v16.809H72.895z" style="enable-background:new 0 0 1250 750;fill:#8ddbb6;fill-opacity:1" transform="translate(164.93 -2.095)"/><path d="M72.895 625.007h131.553v16.809H72.895z" style="enable-background:new 0 0 1250 750;fill:#8ddbb6;fill-opacity:1" transform="translate(0 -.515)"/><path d="M1223.891 695.989H37.948c-.372 0-1.304.556-.503.556h1185.943c.372 0 1.304-.556.503-.556zM42.45 192.461c20.108-.049 40.215-.106 60.323-.164a390988.474 390988.474 0 0 0 511.761-1.828c50.936-.219 101.872-.45 152.808-.702 48.172-.238 96.345-.492 144.517-.775 42.925-.252 85.85-.526 128.774-.845 34.406-.256 68.813-.536 103.218-.897 23.282-.244 46.566-.497 69.845-.947 3.613-.07 7.225-.146 10.837-.235.249-.006 1.356-.495.784-.481-20.101.495-40.21.721-60.316.957-31.946.375-63.892.654-95.839.909-41.16.328-82.32.605-123.48.86-47.118.291-94.237.55-141.355.792-50.358.258-100.716.495-151.074.718-50.936.226-101.873.437-152.809.637a386781.092 386781.092 0 0 1-273.297.977c-34.408.111-68.816.218-103.223.32-23.284.069-46.568.135-69.852.196l-10.839.027c-.25 0-1.359.482-.783.481zM1.031 143.798c20.627-.05 41.254-.022 61.881-.001 33.581.035 67.163.092 100.745.152 43.393.077 86.786.162 130.179.246 50.061.097 100.123.193 150.184.283 53.587.096 107.174.186 160.76.262 53.969.077 107.938.141 161.907.184 51.208.04 102.417.061 153.625.047 45.305-.012 90.61-.051 135.915-.147 36.258-.077 72.517-.184 108.775-.398 24.069-.142 48.14-.289 72.205-.708 3.659-.064 7.318-.136 10.977-.226.249-.006 1.356-.496.784-.481-20.619.507-41.25.638-61.874.792-33.579.252-67.159.375-100.739.469-43.391.121-86.783.175-130.175.203-50.06.031-100.121.023-150.182-.005-53.586-.031-107.173-.086-160.759-.156-53.969-.07-107.939-.155-161.908-.249-51.209-.089-102.418-.185-153.628-.283-45.306-.087-90.612-.176-135.918-.261-36.26-.067-72.52-.133-108.78-.18-24.071-.031-48.141-.064-72.212-.042-3.66.003-7.319.008-10.979.017-.25.001-1.359.483-.783.482z" style="fill:#b9babc"/><path d="M59.98 162.95c.05 71.689-1.176 143.372-3.018 215.035-1.842 71.685-4.287 143.353-6.641 215.023-1.329 40.469-2.627 80.94-3.775 121.414-.016.578 1.2.37 1.214-.115 2.033-71.669 4.541-143.323 6.843-214.983 2.302-71.667 4.393-143.343 5.578-215.038.669-40.481 1.042-80.966 1.014-121.452-.001-.581-1.216-.367-1.215.116zM795.571 162.95a18891.013 18891.013 0 0 1-7.564 551.407c-.016.578 1.201.37 1.214-.116a18915.418 18915.418 0 0 0 7.564-551.407c0-.581-1.214-.367-1.214.116zM389.164 159.528c-3.715 70.439-3.909 141.06-3.943 211.579-.037 76.938.644 153.877.231 230.815-.201 37.503-.641 75.012-1.957 112.494-.021.6 1.199.408 1.217-.105 2.477-70.513 2.189-141.119 2.013-211.665-.193-76.929-.731-153.866.31-230.791.507-37.49 1.371-74.988 3.346-112.433.032-.597-1.19-.408-1.217.106zM1192.613 167.832c-.431 72.267-.31 144.536-.402 216.804-.091 71.951-.395 143.905-1.682 215.846-.729 40.758-1.78 81.51-3.273 122.247-.022.6 1.198.408 1.217-.105 2.645-72.214 3.886-144.47 4.462-216.727.574-71.954.502-143.911.552-215.867.028-40.768.099-81.536.342-122.303.005-.603-1.213-.405-1.216.105zM856.131 159.528c-3.715 70.439-3.909 141.06-3.943 211.579-.037 76.938.644 153.877.231 230.815-.201 37.503-.641 75.012-1.958 112.494-.021.6 1.199.408 1.217-.105 2.477-70.513 2.189-141.119 2.013-211.665-.192-76.929-.73-153.866.311-230.791.507-37.49 1.371-74.988 3.346-112.433.032-.597-1.19-.408-1.217.106zM445.97 166.307c-3.712 71.025-4.646 142.156-4.543 213.267.103 71.423 1.222 142.84 1.496 214.263.154 40.213.031 80.428-.671 120.636-.003.177 1.199.021 1.205-.323 1.241-71.104.646-142.219-.008-213.326-.656-71.412-1.353-142.835-.23-214.246.633-40.217 1.857-80.425 3.957-120.594.008-.165-1.187-.027-1.206.323zM903.803.843l3.362 142.875c.005.23 1.213.039 1.205-.323L905.008.52c-.006-.229-1.214-.038-1.205.323zM1106.127 65.869l1.894 80.5c.004.158 1.212-.012 1.205-.323l-1.894-80.5c-.004-.158-1.212.013-1.205.323z" style="fill:#b9babc"/><path d="M1242.618 74.059c-44.281-1.081-88.648-.35-132.936-.195-58.695.204-117.391.54-176.086.556-20.034.006-40.087.128-60.117-.361-.467-.011-1.276.68-.464.7 44.281 1.081 88.648.35 132.936.195 58.695-.204 117.391-.54 176.086-.556 20.034-.006 40.087-.128 60.117.361.467.011 1.276-.68.464-.7z" style="fill:#b9babc"/><path d="M903.2 1.005c1.102 47.632.013 95.24 0 142.875 0 .379 2.409.042 2.409-.646.013-47.635 1.102-95.243 0-142.875-.008-.395-2.424-.032-2.409.646zM56.575 177.896c.531 23.077.047 46.199-.202 69.276-.426 39.472-1.031 78.942-1.66 118.411-.719 45.136-1.495 90.271-2.274 135.406-.703 40.685-1.417 81.369-2.077 122.055-.414 25.522-.898 51.047-1.037 76.572a847.314 847.314 0 0 0-.015 4.783c0 1.253 2.44.889 2.44-.187.006-22.899.488-45.804.85-68.699.623-39.372 1.312-78.743 1.993-118.114.78-45.129 1.561-90.259 2.294-135.389.662-40.771 1.3-81.543 1.783-122.317.305-25.697.74-51.414.429-77.114-.02-1.624-.045-3.247-.083-4.87-.03-1.255-2.466-.884-2.441.187zM386.458 178.126c.539 23.231.417 46.486.448 69.721.054 39.839-.011 79.679-.096 119.518-.098 45.778-.238 91.556-.393 137.334-.139 41.057-.292 82.113-.441 123.17-.093 25.675-.207 51.35-.24 77.026-.002 1.574-.004 3.148-.004 4.723 0 .621 2.409.208 2.41-.646.001-23.048.116-46.097.198-69.145.142-39.74.292-79.481.429-119.221.158-45.772.304-91.544.412-137.317.097-41.144.173-82.288.146-123.433-.017-25.854.051-51.717-.368-77.568a701.198 701.198 0 0 0-.093-4.809c-.013-.634-2.428-.202-2.408.647zM443.222 178.126c.544 23.442.415 46.91.446 70.356.052 39.748-.013 79.497-.099 119.245-.098 45.78-.239 91.561-.393 137.341-.138 40.872-.291 81.743-.439 122.615-.093 25.675-.207 51.351-.24 77.026-.002 1.574-.004 3.148-.004 4.723 0 1.066 2.417.587 2.417-.273.001-23.048.116-46.097.198-69.145.142-39.923.293-79.846.431-119.769.158-45.775.304-91.55.411-137.325.097-41.247.173-82.495.144-123.743-.018-25.684.053-51.378-.373-77.06a717.142 717.142 0 0 0-.091-4.637c-.018-.835-2.431-.344-2.408.646zM855.656 177.922c.539 23.231.417 46.486.449 69.721.054 39.839-.011 79.679-.096 119.518-.098 45.778-.238 91.556-.393 137.334-.139 41.057-.292 82.113-.441 123.17-.093 25.675-.207 51.351-.24 77.026a3716.61 3716.61 0 0 0-.003 4.723c0 1.145 2.426.707 2.426-.238.001-23.048.116-46.097.198-69.145.142-39.74.292-79.481.429-119.221.158-45.772.304-91.544.412-137.317.097-41.144.173-82.288.146-123.433-.017-25.854.051-51.717-.368-77.568a701.198 701.198 0 0 0-.093-4.809c-.027-1.148-2.448-.701-2.426.239zM1191.66 722.392c-.556-68.848.653-137.685 2.24-206.512 1.573-68.269 3.348-136.536 3.785-204.824.267-41.751.047-83.504-.749-125.249-.015-.777-2.428-.306-2.41.646 1.395 73.088.892 146.185-.543 219.269-1.317 67.054-3.3 134.095-4.273 201.156-.562 38.718-.772 77.44-.46 116.161.007.77 2.418.306 2.41-.647zM791.455 174.805c.539 23.231.417 46.486.449 69.721.054 39.839-.011 79.679-.096 119.518-.098 45.778-.238 91.556-.393 137.334-.139 41.057-.292 82.113-.441 123.17-.093 25.675-.207 51.35-.24 77.026a3716.61 3716.61 0 0 0-.003 4.723c0 .492 2.409.12 2.409-.646.001-23.048.116-46.097.198-69.145.142-39.74.292-79.481.429-119.221.158-45.772.304-91.544.412-137.317.097-41.144.173-82.288.146-123.433-.017-25.854.05-51.717-.368-77.568a699.676 699.676 0 0 0-.093-4.808c-.011-.507-2.427-.111-2.409.646zM1107.413 72.25c.536 22.818.006 45.428 0 68.241 0 1.093 2.42.627 2.42-.262.006-22.813.536-45.424 0-68.241-.025-1.097-2.44-.619-2.42.262z"/><path d="M1247.426 73.943c-42.458.985-84.967.64-127.432.597-53.693-.055-107.386-.257-161.079-.442-19.824-.068-39.649-.154-59.473-.156-.551 0-2.74 1.044-1.546 1.044 42.273.003 84.547.251 126.819.384 53.861.169 107.724.333 161.585.167 20.033-.062 40.074-.087 60.103-.551.696-.016 2.616-1.079 1.023-1.043zM1248.692 142.4c-15.258.354-30.533.273-45.794.327-31.735.112-63.47.157-95.206.193-44.205.051-88.411.072-132.617.082-52.676.012-105.352.008-158.027-.006-57.146-.014-114.291-.039-171.437-.071-57.615-.032-115.23-.07-172.845-.113a1253476.328 1253476.328 0 0 1-301.913-.26l-104.751-.101c-19.557-.019-39.113-.04-58.67-.051l-5.895-.002c-1.353 0-1.869 1.704-.23 1.704 15.157 0 30.314.021 45.47.036 31.651.029 63.301.061 94.952.091 44.145.042 88.289.084 132.433.124 52.638.047 105.276.092 157.914.133 57.131.045 114.262.085 171.393.12 57.624.035 115.248.064 172.872.083 54.117.018 108.233.028 162.35.023 46.609-.004 93.218-.019 139.827-.059 34.995-.03 69.991-.07 104.986-.164 19.658-.052 39.319-.064 58.976-.292 1.993-.023 3.987-.048 5.98-.094 1.351-.03 1.876-1.741.232-1.703zM46.4 188.867c94.456 2.856 189.104-.202 283.571-1.104 23.232-.222 46.467-.39 69.7-.249.487.003 2.715-.928 1.576-.935-94.533-.573-189.058 2.342-283.592 2.246-23.228-.024-46.461-.19-69.679-.892-.49-.016-2.722.899-1.576.934zM33.48 700.879c43.88 1.578 87.915.639 131.81.361 56.396-.357 112.793-.945 169.191-.984 21.035-.014 42.105-.134 63.13.623 1.214.044 2.436-1.769.814-1.828-43.88-1.578-87.915-.639-131.81-.361-56.396.357-112.793.945-169.191.984-21.036.014-42.105.134-63.131-.623-1.214-.044-2.435 1.769-.813 1.828zM426.924 703.289c15.566-.857 31.214-.803 46.797-1.009 28.632-.38 57.267-.615 85.901-.807 62.468-.418 124.944-.688 187.413-.335 18.431.104 37.043-.305 55.444.958 1.026.07 2.523-1.41.896-1.521-15.634-1.073-31.43-.792-47.09-.904-28.454-.204-56.91-.211-85.364-.172-62.786.086-125.576.391-188.358 1.159-18.43.225-36.946.112-55.355 1.125-1.264.069-1.943 1.598-.284 1.506zM837.726 703.409c15.297-1.175 30.776-.94 46.104-1.097 27.388-.281 54.777-.346 82.166-.352 60.512-.013 121.034.218 181.539 1.153 17.958.278 36.118.044 54.03 1.543 1.044.087 2.517-1.408.89-1.544-15.132-1.266-30.454-1.144-45.625-1.406-27.644-.478-55.292-.731-82.94-.925-60.648-.426-121.307-.61-181.956-.081-17.923.156-36.047-.197-53.934 1.177-1.264.097-1.933 1.659-.274 1.532zM424.2 189.159c44.333 1.384 88.885-.149 133.224-.608 62.197-.644 124.393-1.449 186.591-1.875 19.481-.133 39.023-.562 58.5.046 1.188.037 2.447-1.738.824-1.789-44.333-1.384-88.885.149-133.223.608-62.197.644-124.393 1.449-186.592 1.875-19.481.133-39.023.562-58.5-.046-1.188-.037-2.447 1.738-.824 1.789zM843.256 188.838c15.962-.708 32.037-.313 48.01-.39 24.776-.12 49.552-.209 74.328-.348 38.688-.217 77.368-1.062 116.059-1.316 41.077-.27 82.156-.431 123.234-.434.976 0 2.532-1.474.909-1.473-65.18.004-130.392.017-195.565 1.147-36.992.641-73.985.746-110.983.918-18.531.086-37.177-.377-55.695.444-1.244.053-1.958 1.525-.297 1.452z"/><path d="M46.762 226.51c15.897.748 31.854.66 47.764.76 30.013.19 60.028.196 90.042.175 40.713-.029 81.425-.144 122.138-.29 47.988-.172 95.976-.394 143.964-.64 51.839-.265 103.678-.561 155.517-.872 52.47-.316 104.94-.65 157.409-.993 49.252-.323 98.504-.655 147.756-.99 42.819-.291 85.637-.586 128.456-.874 32.961-.222 65.923-.443 98.884-.642 19.68-.119 39.361-.25 59.042-.294 2.406-.005 4.812-.009 7.218-.006.257 0 1.363-.491.781-.492-15.997-.023-31.994.102-47.99.193-30.073.17-60.145.369-90.218.569-40.755.271-81.51.551-122.265.829-48.014.327-96.028.654-144.043.973-51.849.344-103.698.68-155.548 1-52.464.324-104.927.633-157.391.915-49.229.265-98.459.507-147.689.706-42.78.173-85.56.316-128.34.385-32.906.053-65.813.075-98.719-.052-19.607-.075-39.227-.093-58.829-.605a341.725 341.725 0 0 1-7.158-.246c-.26-.013-1.37.464-.781.491zM52.972 474.809c89.837-1.387 179.683.18 269.524-.261 23.618-.116 47.236-.284 70.854-.416.453-.003 1.278-.689.468-.685-88.176.496-176.339-.028-264.514.088-25.289.033-50.577.199-75.863.589-.453.007-1.279.697-.469.685zM53.143 607.43c89.837-1.387 179.682.182 269.524-.261 23.618-.116 47.236-.284 70.854-.416.66-.004.949-.815.126-.81-88.79.5-177.567-.05-266.357.09-24.675.039-49.349.206-74.021.587-.659.01-.95.823-.126.81zM53.152 490.687c89.837-1.387 179.683.18 269.524-.261 23.618-.116 47.236-.284 70.854-.416.686-.004.927-.882.108-.877-88.176.496-176.339-.028-264.514.088-25.289.033-50.577.199-75.863.589-.686.01-.929.889-.109.877zM79.292 457.031c77.408.033 154.817.065 232.223-.567 21.722-.177 43.444-.41 65.165-.711.702-.01.913-.936.095-.925-77.401 1.073-154.811 1.269-232.219 1.291-21.723.006-43.446-.003-65.169-.012-.703-.001-.911.924-.095.924zM82.588 273.114a3101.842 3101.842 0 0 0-6.093 184.125c-.002.661 1.223.509 1.225-.075a3101.87 3101.87 0 0 1 6.093-184.125c.041-.656-1.188-.511-1.225.075z" style="fill:#b9babc"/><path d="M368.275 278.8c-2.108 62.575-2.436 125.135-2.435 187.739 0 .24 1.205.056 1.205-.323-.001-62.604.327-125.164 2.435-187.739.008-.229-1.192-.061-1.205.323zM72.599 278.413c77.288-2.146 154.59-3.791 231.901-4.795 22.298-.289 44.596-.526 66.895-.716.696-.006.918-.914.1-.907-77.314.659-154.622 1.928-231.917 3.778-22.294.534-44.588 1.114-66.88 1.733-.693.02-.918.93-.099.907z" style="fill:#b9babc"/><path d="M81.58 278.437c44.845 24.726 87.689 52.479 130.716 80.188 34.843 22.438 70.829 42.975 106.121 64.687 16.142 9.931 32.71 19.797 47.463 31.757.29.236 1.388-.23 1.127-.442-13.031-10.565-27.541-19.399-41.764-28.235-18.162-11.283-36.556-22.189-54.916-33.145-38.59-23.026-75.993-47.81-113.989-71.784a1452.341 1452.341 0 0 0-73.783-43.553c-.292-.161-1.407.288-.975.527z" style="fill:#b9babc"/><path d="M79.376 455.901c78.937-40.181 150.009-94.085 224.37-141.819 21.583-13.854 43.374-27.38 65.4-40.518.699-.417.06-1.079-.537-.723-37.569 22.407-74.399 46.005-110.822 70.224-37.321 24.816-74.118 50.454-112.184 74.131-21.75 13.528-43.933 26.36-66.765 37.982-.731.373-.077 1.036.538.723zM469.149 353.571c44.621.022 89.244.045 133.86-.685.385-.006 1.299-.593.496-.58-44.616.73-89.24.707-133.86.685-.386 0-1.299.58-.496.58z" style="fill:#b9babc"/><path d="M470.268 255.142a2112.497 2112.497 0 0 0-2.59 98.639c-.001.172 1.204.01 1.205-.323.096-32.896.958-65.783 2.59-98.639.007-.154-1.188-.019-1.205.323zM599.114 255.095c-.944 33.524-1.097 67.041-1.096 100.575 0 .63 1.221.451 1.221-.092-.001-33.535.152-67.052 1.096-100.575.017-.628-1.206-.453-1.221.092z" style="fill:#b9babc"/><path d="M466.331 258.034c44.82-1.478 89.652-2.493 134.494-2.952.684-.007.929-.882.109-.874-44.842.459-89.674 1.475-134.494 2.953-.681.021-.93.9-.109.873z" style="fill:#b9babc"/><path d="M470.149 258.013c24.455 16.072 46.972 34.568 70.577 51.798 10.248 7.481 20.679 14.708 30.967 22.134 9.009 6.503 18.333 12.95 26.378 20.655.32.307 1.459-.154 1.116-.482-16.878-16.162-37.719-28.522-56.557-42.218-23.957-17.418-46.742-36.202-71.528-52.491-.348-.228-1.454.275-.953.604z" style="fill:#b9babc"/><path d="M469.675 352.94c22.719-13.814 43.524-30.412 64.226-47.026 21.679-17.398 43.542-34.55 66.206-50.656.665-.472-.35-.713-.764-.419-21.702 15.422-42.689 31.79-63.454 48.444-21.623 17.343-43.249 34.809-66.978 49.237-.695.423.339.678.764.42zM760.703 254.576c-45.762-.023-91.527-.047-137.285.695-.664.011-.945.837-.123.824 45.655-.74 91.317-.717 136.976-.695.545 0 1.244-.823.432-.824z" style="fill:#b9babc"/><path d="M759.315 354.644a2004.137 2004.137 0 0 0 2.81-100.056c.002-.586-1.213-.376-1.215.113a2001.737 2001.737 0 0 1-2.81 100.056c-.031.58 1.189.381 1.215-.113zM627.58 354.574c.967-32.633 1.123-65.259 1.123-97.904 0-.506-1.206-.254-1.206.148.001 32.645-.156 65.271-1.123 97.904-.015.502 1.194.259 1.206-.148z" style="fill:#b9babc"/><path d="M763.819 351.75c-45.915 1.499-91.843 2.53-137.78 2.995-.394.004-1.297.602-.493.593 45.937-.465 91.865-1.496 137.78-2.995.391-.012 1.296-.619.493-.593z" style="fill:#b9babc"/><path d="M759.794 351.712c-25.296-16.46-48.585-35.455-73.037-53.074-10.606-7.642-21.386-15.041-32.013-22.655-8.906-6.381-18.112-12.72-26.08-20.279-.261-.248-1.379.199-1.128.438 7.969 7.559 17.172 13.897 26.08 20.279 10.627 7.613 21.407 15.013 32.013 22.655 24.453 17.619 47.742 36.614 73.037 53.074.314.204 1.37-.28 1.128-.438z" style="fill:#b9babc"/><path d="M760.321 255.167c-23.551 14.177-45.12 31.252-66.605 48.324-21.987 17.471-44.173 34.679-67.145 50.843-.666.469.302.952.811.595 22.458-15.802 44.172-32.594 65.669-49.67 21.895-17.393 43.816-34.884 67.817-49.332.696-.419.061-1.126-.547-.76zM469.006 563.134c44.621.022 89.244.045 133.86-.685.251-.004 1.358-.494.783-.484-44.616.73-89.24.707-133.86.685-.253 0-1.361.484-.783.484z" style="fill:#b9babc"/><path d="M470.271 464.68a2114.258 2114.258 0 0 0-2.593 98.713c-.001.3 1.203.098 1.205-.323.096-32.872.956-65.734 2.586-98.565.022-.426-1.18-.173-1.198.175zM599.112 464.698c-.944 33.524-1.097 67.041-1.096 100.575 0 .66 1.225.506 1.225-.076-.001-33.535.152-67.052 1.096-100.575.018-.659-1.209-.508-1.225.076z" style="fill:#b9babc"/><path d="M466.128 467.46c44.776-1.476 89.565-2.492 134.364-2.951.265-.003 1.364-.513.777-.507-44.885.46-89.761 1.475-134.625 2.954-.336.011-1.31.53-.516.504z" style="fill:#b9babc"/><path d="M470.058 467.53c24.62 16.18 47.273 34.819 71.052 52.145 18.958 13.812 39.956 26.229 56.951 42.503.232.222 1.331-.226 1.134-.415-16.995-16.274-37.993-28.691-56.951-42.504-23.78-17.325-46.432-35.964-71.052-52.145-.288-.189-1.314.297-1.134.416z" style="fill:#b9babc"/><path d="M469.682 562.579c23.22-14.119 44.435-31.145 65.592-48.123 21.223-17.031 42.654-33.792 64.84-49.558.666-.473-.334-.793-.779-.476-22.186 15.767-43.617 32.527-64.84 49.558-21.157 16.978-42.372 34.005-65.592 48.123-.695.422.322.754.779.476zM760.732 464.293c-45.711-.023-91.424-.046-137.13.695-.405.007-1.293.624-.488.611 45.706-.741 91.42-.717 137.13-.695.407.001 1.294-.61.488-.611z" style="fill:#b9babc"/><path d="M759.313 564.25a2004.137 2004.137 0 0 0 2.81-100.056c.002-.565-1.211-.342-1.212.123a2001.737 2001.737 0 0 1-2.81 100.056c-.03.559 1.188.348 1.212-.123zM627.579 564.098c.967-32.633 1.124-65.259 1.123-97.904 0-.275-1.205-.079-1.205.323.001 32.645-.156 65.271-1.123 97.905-.007.263 1.193.082 1.205-.324z" style="fill:#b9babc"/><path d="M763.644 561.283c-45.864 1.497-91.741 2.526-137.627 2.991-.499.005-1.26.766-.449.758 45.988-.466 91.967-1.498 137.933-2.999.634-.021.971-.777.143-.75z" style="fill:#b9babc"/><path d="M759.694 561.193c-25.296-16.46-48.585-35.455-73.037-53.074-10.607-7.642-21.386-15.041-32.013-22.655-8.906-6.381-18.112-12.72-26.08-20.279-.389-.369-1.435.217-.928.698 7.969 7.559 17.172 13.898 26.08 20.279 10.627 7.613 21.407 15.013 32.013 22.655 24.453 17.619 47.742 36.614 73.037 53.074.448.291 1.501-.325.928-.698z" style="fill:#b9babc"/><path d="M760.136 465.15c-23.264 14.005-44.596 30.85-65.819 47.715-22.206 17.646-44.597 35.044-67.799 51.37-.478.337.71.161.917.015 22.221-15.636 43.723-32.233 64.996-49.128 22.163-17.602 44.328-35.332 68.622-49.957.493-.296-.703-.143-.917-.015zM470.268 664.307a2206.836 2206.836 0 0 0-1.412 33.631c-.005.14 1.194.003 1.205-.323.385-11.214.855-22.425 1.412-33.631.006-.134-1.189-.006-1.205.323zM599.123 664.292c-.621 11.071-.782 22.153-.82 33.239-.001.35 1.203.132 1.205-.323.038-11.032.2-22.058.818-33.074.026-.471-1.181-.229-1.203.158z" style="fill:#b9babc"/><path d="M466.323 667.167c44.82-1.478 89.652-2.493 134.494-2.953.66-.007.949-.819.126-.811-44.842.459-89.674 1.475-134.494 2.953-.657.022-.951.838-.126.811z" style="fill:#b9babc"/><path d="M470.058 667.083c14.764 9.547 28.894 19.998 42.89 30.627.267.203 1.32-.273 1.134-.414-13.996-10.629-28.126-21.08-42.89-30.626-.288-.188-1.309.3-1.134.413zM556.777 697.084c14.209-11.195 28.549-22.22 43.333-32.648.667-.47-.342-.748-.771-.446-14.784 10.428-29.125 21.453-43.333 32.648-.641.506.353.775.771.446zM760.724 663.819c-45.711-.023-91.424-.046-137.13.695-.44.007-1.282.679-.473.666 45.706-.741 91.42-.717 137.13-.695.442.001 1.283-.665.473-.666z" style="fill:#b9babc"/><path d="M761.913 699.189c.337-11.807.49-23.613.216-35.423-.015-.644-1.235-.473-1.222.085.274 11.81.122 23.616-.216 35.423-.019.641 1.206.477 1.222-.085zM628.826 699.097c.037-11.117-.016-22.234-.124-33.35-.003-.289-1.209-.086-1.205.323.108 11.117.161 22.233.124 33.35-.001.285 1.203.088 1.205-.323z" style="fill:#b9babc"/><path d="M674.492 699.098c-15.622-10.944-31.921-21.053-45.826-34.22-.237-.225-1.338.225-1.133.418 13.906 13.167 30.205 23.276 45.826 34.22.284.199 1.327-.282 1.133-.418zM760.239 664.599c-17.382 10.463-33.703 22.49-49.69 34.953-.499.389.696.278.937.09 15.916-12.408 32.16-24.401 49.466-34.818.686-.413-.396-.416-.713-.225zM213.835 467.684c.8-1.017 2.018.503 1.604 1.436-.228.514-.707.691-1.202.425-.731-.391-.736-1.335-.328-1.961.164-.251-.143-.422-.351-.445-.291-.033-.628.105-.789.353-.676 1.035-.35 2.418.855 2.851 1.03.37 2.343-.038 2.89-1.009.518-.918.142-1.998-.75-2.514-.969-.561-2.233-.302-2.92.572-.46.586.687.678.991.292zM206.871 467.86c.075-.153.22-.472.412-.512.049-.01.304.109.37.141.275.131.515.362.65.636.203.411.16.879-.07 1.268a1.51 1.51 0 0 1-.433.46c-.082.041-.056.037.079-.012.036-.016.015-.022-.062-.017-.069-.051-.203-.061-.284-.104-.669-.361-.913-1.167-.662-1.86.075-.206-1.076-.091-1.188.215-.376 1.037.287 2.195 1.426 2.242.861.035 1.863-.376 2.312-1.14.46-.782.135-1.749-.689-2.125-1.012-.462-2.554.017-3.048 1.023-.095.193.418.12.48.109.196-.033.605-.117.707-.324zM220.999 467.563c1.073-.686 2.141 1.351 1.079 1.903-1.084.564-1.987-1.203-1.079-1.903.646-.499-.326-.908-.797-.544-.948.732-1.103 2.232-.092 3 .762.579 1.897.524 2.691.043.903-.547 1.181-1.639.647-2.56-.671-1.157-2.235-1.129-3.245-.483-.227.145-.285.445-.066.618.243.193.633.072.862-.074zM227.734 467.954c.109-.232.329-.622.597-.705.159-.049.505.153.669.292.413.349.577.886.364 1.392-.089.21-.225.399-.401.544-.204.168-.131.148-.379.084a1.207 1.207 0 0 1-.85-1.607c.075-.205-1.076-.091-1.188.215-.409 1.12.577 1.957 1.651 1.906.894-.042 1.982-.477 2.354-1.358.389-.92-.338-1.836-1.276-1.945-1.039-.12-2.274.428-2.729 1.397-.08.172 1.044.092 1.188-.215zM234.516 468.014c.264-.573.869-1.074 1.506-.705.505.293.708.904.553 1.454-.423 1.499-2.544.618-2.059-.749.228-.643-.975-.613-1.148-.125-.436 1.229.36 2.319 1.617 2.524 1.132.184 2.348-.413 2.74-1.521.378-1.067-.208-2.185-1.3-2.495-1.209-.343-2.547.382-3.058 1.491-.282.614.932.597 1.149.126zM70.37 481.774l-2.249 131.599c-.006.328 1.197.121 1.205-.323l2.249-131.599c.006-.327-1.197-.12-1.205.323zM206.471 486.565a2308.413 2308.413 0 0 0-.482 126.386c.015.651 1.237.485 1.223-.081-.993-42.148-.832-84.247.482-126.386.02-.648-1.206-.49-1.223.081zM225.634 482.975c-.963 43.999 1.506 88.038-.78 132.011-.033.639 1.193.477 1.222-.085 2.286-43.973-.183-88.012.781-132.011.014-.641-1.211-.476-1.223.085zM372.793 485.639l.065 123.133c0 .544 1.21.309 1.21-.132l-.065-123.133c0-.544-1.21-.309-1.21.132zM53.145 659.841c89.84-.917 179.682.119 269.524-.173 23.618-.077 47.236-.187 70.854-.275.668-.003.942-.832.121-.829-88.173.328-176.341-.019-264.514.058-25.288.022-50.576.131-75.863.39-.668.007-.943.837-.122.829z" style="fill:#b9babc"/><path d="M70.37 653.878c-.422 15.838-1.827 31.602-2.249 47.44-.005.167 1.196.017 1.205-.323.422-15.837 1.827-31.602 2.249-47.44.005-.166-1.195-.017-1.205.323zM206.48 657.126c-.353 7.323-1.059 14.665-1.225 21.994-.165 7.313.477 14.696.743 21.999.007.18 1.216-.003 1.205-.323-.266-7.304-.908-14.685-.743-21.999.166-7.329.871-14.672 1.225-21.994.007-.15-1.189-.016-1.205.323zM225.635 654.636c-.531 15.98.492 31.751-.781 47.712-.049.62 1.177.452 1.22-.092 1.273-15.96.25-31.732.781-47.712.021-.626-1.202-.451-1.22.092zM372.796 656.497c.012 13.947.054 27.895.065 41.842 0 .289 1.205.089 1.205-.323-.012-13.947-.053-27.895-.065-41.842-.001-.289-1.206-.089-1.205.323zM371.369 233.261l-1.068 28.677c-.024.64 1.201.476 1.222-.085l1.068-28.677c.024-.641-1.201-.477-1.222.085zM194.485 237.839a371.59 371.59 0 0 1 .264 24.119c-.013.598 1.206.4 1.217-.106a371.59 371.59 0 0 0-.264-24.119c-.026-.603-1.238-.394-1.217.106z" style="fill:#b9babc"/><path d="M189.531 240.952c6.549.357 13.201-.001 19.754-.057 14.406-.124 28.812-.292 43.218-.47 32.594-.404 65.189-.837 97.779-1.504 8.098-.166 16.771.45 24.809-.757.647-.097.936-.971.116-.847-6.458.97-13.405.512-19.91.654-14.454.316-28.909.553-43.365.78-32.309.506-64.619.941-96.931 1.247-8.304.079-16.746.563-25.046.11-.565-.032-1.238.799-.424.844zM190.194 260.505c52.084-2.076 104.427-1.86 156.544-1.806 9.186.01 18.486-.26 27.656.423.498.037 1.267-.677.454-.738-21.614-1.609-43.694-.433-65.34-.278-30.724.221-61.449.577-92.17 1.088-8.997.15-18.005.224-26.997.582-.622.026-.977.762-.147.729zM600.345 386.538l-.797 24.787c-.021.637 1.204.469 1.222-.087l.797-24.787c.02-.636-1.204-.468-1.222.087zM471.36 390.39c.25 6.948.308 13.896.177 20.847-.012.641 1.212.474 1.222-.085.131-6.952.072-13.899-.177-20.847-.023-.643-1.242-.469-1.222.085z" style="fill:#b9babc"/><path d="M467.83 393.042c15.459.964 31.323-.219 46.794-.437 23.747-.333 47.495-.688 71.237-1.255 5.627-.135 11.743.323 17.316-.63.557-.095 1.008-.775.174-.632-4.803.821-10.07.438-14.92.558-10.565.263-21.132.46-31.699.648-23.506.418-47.014.775-70.523 1.019-5.927.061-11.979.445-17.902.076-.44-.026-1.286.603-.477.653zM468.392 410.135c37.732-1.738 75.716-1.538 113.48-1.482 6.897.01 13.912-.226 20.792.376.619.054 1.216-.852.405-.923-15.393-1.347-31.225-.406-46.649-.29-22.466.169-44.932.461-67.395.882-6.844.128-13.7.188-20.539.503-.702.032-.913.972-.094.934zM368.143 617.425l-.797 24.787c-.019.586 1.199.383 1.215-.112l.797-24.787c.019-.585-1.199-.383-1.215.112zM239.164 621.383c.248 6.916.304 13.83.174 20.749-.01.557 1.203.335 1.212-.125a381.92 381.92 0 0 0-.181-20.946c-.017-.451-1.224-.194-1.205.322z" style="fill:#b9babc"/><path d="M235.467 623.816c15.459.964 31.323-.219 46.795-.437 23.865-.335 47.731-.689 71.592-1.264 5.561-.134 11.577.3 17.086-.642.459-.078 1.091-.536.239-.391-4.976.851-10.455.432-15.481.555-10.666.262-21.333.46-32.001.648-23.177.409-46.356.761-69.535 1.002-5.928.062-11.979.445-17.902.076-.238-.013-1.361.418-.793.453zM236.156 640.893c37.957-1.748 76.171-1.551 114.16-1.474 6.675.013 13.457-.203 20.115.38.483.042 1.272-.643.461-.714-15.688-1.373-31.834-.398-47.555-.276-22.388.174-44.776.465-67.16.889-6.619.125-13.25.189-19.864.494-.613.028-.99.739-.157.701zM202.683 619.376l-.797 24.787c-.019.595 1.2.398 1.216-.107l.797-24.787c.02-.595-1.199-.398-1.216.107zM73.696 623.217c.249 6.948.308 13.896.177 20.847-.012.646 1.212.483 1.223-.083.131-6.952.072-13.899-.177-20.847-.024-.648-1.244-.478-1.223.083z" style="fill:#b9babc"/><path d="M70.2 625.999c15.188.947 30.767-.206 45.967-.418 23.954-.334 47.91-.691 71.86-1.26 5.756-.137 11.988.319 17.689-.655.768-.131.52-.995-.232-.866-4.79.819-10.068.421-14.908.541-10.565.263-21.132.46-31.699.648a9664.83 9664.83 0 0 1-69.791 1.012c-6.117.064-12.367.47-18.479.088-.609-.039-1.219.859-.407.91zM70.722 642.941c37.732-1.738 75.716-1.538 113.48-1.482 6.899.01 13.911-.224 20.793.378.595.052 1.228-.812.415-.883-15.393-1.347-31.225-.404-46.649-.288-22.466.169-44.932.461-67.395.882-6.844.128-13.7.188-20.539.503-.686.031-.926.928-.105.89zM348.098 200.221a585.247 585.247 0 0 1 26.73-.002c.523.012 1.255-.767.441-.786a591.5 591.5 0 0 0-27.037.006c-.648.015-.96.801-.134.782zM346.924 204.263l27.98.845c.256.008 1.367-.469.783-.487l-27.98-.846c-.257-.007-1.367.47-.783.488zM347.522 210.367l28.006-1.171c.664-.028.945-.865.121-.831l-28.006 1.171c-.665.028-.946.866-.121.831zM348.554 214.122a514.337 514.337 0 0 1 26.826-1.276c.657-.014.952-.823.128-.805-8.954.192-17.894.617-26.826 1.276-.649.048-.955.867-.128.805zM347.893 218.036c9.212.574 18.413.675 27.634.291.403-.017 1.29-.648.487-.615-9.131.381-18.247.294-27.369-.274-.332-.021-1.395.558-.752.598zM346.525 222.092c9.481-.125 18.949.067 28.417.577.454.025 1.282-.63.471-.674a423.437 423.437 0 0 0-28.417-.577c-.445.006-1.28.685-.471.674z" style="fill:#b9babc"/><path d="M346.7 217.585a28.03 28.03 0 0 1-.296 5.329c-.059.386 1.143.17 1.197-.18.276-1.817.377-3.635.304-5.472-.012-.298-1.221-.082-1.205.323zM374.201 217.59a85.511 85.511 0 0 1-.444 5.808c-.05.451 1.159.224 1.202-.162.214-1.931.362-3.866.444-5.808.02-.465-1.186-.216-1.202.162zM347.009 208.571a64.424 64.424 0 0 1-.205 6.576c-.038.465 1.171.231 1.203-.159.185-2.244.253-4.489.207-6.741-.008-.354-1.214-.128-1.205.324zM374.598 208.426a96.658 96.658 0 0 0-.039 5.824c.006.253 1.214.055 1.205-.323a95.84 95.84 0 0 1 .039-5.824c.008-.232-1.191-.064-1.205.323zM346.951 198.849c-.197 2.169-.329 4.34-.397 6.517-.019.599 1.201.405 1.217-.105.068-2.177.2-4.348.397-6.517.053-.591-1.171-.408-1.217.105zM374.091 198.583l-.137 7.902c-.01.551 1.203.326 1.211-.128l.137-7.902c.01-.551-1.203-.326-1.211.128zM740.399 196.202a585.247 585.247 0 0 1 26.73-.001c.512.012 1.259-.75.446-.768a591.5 591.5 0 0 0-27.037.007c-.639.015-.966.781-.139.762zM739.384 200.348l27.981.845c.452.014 1.282-.651.471-.675l-27.981-.845c-.452-.014-1.282.65-.471.675zM739.652 206.285l28.006-1.171c.447-.019 1.275-.718.468-.684l-28.006 1.171c-.446.018-1.274.717-.468.684zM740.656 209.935a512.74 512.74 0 0 1 26.697-1.27c.239-.005 1.352-.475.789-.463-8.998.193-17.98.621-26.955 1.283-.3.023-1.314.508-.531.45zM740.192 214.006c9.211.574 18.412.671 27.633.286.371-.015 1.3-.597.501-.563-9.131.381-18.248.289-27.37-.279-.303-.02-1.388.517-.764.556zM738.84 218.125c9.481-.125 18.949.067 28.417.577.51.027 1.262-.715.448-.759a423.437 423.437 0 0 0-28.417-.577c-.499.007-1.258.77-.448.759z" style="fill:#b9babc"/><path d="M739.005 213.576a28.364 28.364 0 0 1-.3 5.4c-.013.087 1.153.019 1.205-.323.272-1.793.372-3.588.3-5.4-.007-.159-1.217.02-1.205.323zM766.504 213.661a84.69 84.69 0 0 1-.439 5.738c-.043.389 1.158.157 1.196-.183.216-1.954.365-3.913.448-5.877.011-.265-1.187-.088-1.205.322zM739.313 204.562a64.197 64.197 0 0 1-.205 6.579c-.037.451 1.17.215 1.201-.164.185-2.244.253-4.487.208-6.738-.006-.341-1.213-.119-1.204.323zM766.898 204.315a96.658 96.658 0 0 0-.039 5.824c.014.575 1.224.352 1.213-.119a95.84 95.84 0 0 1 .039-5.824c.022-.569-1.195-.359-1.213.119zM739.256 194.843c-.197 2.169-.329 4.34-.397 6.517-.018.586 1.2.384 1.215-.111.068-2.177.2-4.348.397-6.517.053-.578-1.17-.388-1.215.111zM766.399 194.671l-.137 7.902c-.005.303 1.197.105 1.205-.323l.137-7.902c.005-.303-1.198-.104-1.205.323zM74.789 237.333c.861 9.25 1.041 18.502.536 27.779-.027.506 1.184.273 1.206-.145.508-9.339.329-18.644-.538-27.957-.037-.411-1.247-.149-1.204.323z" style="fill:#b9babc"/><path d="M73.056 242.352c31.172-.055 62.354 1.013 93.511-.374.338-.015 1.309-.543.516-.508-31.07 1.383-62.165.316-93.25.371-.269.001-1.368.512-.777.511z" style="fill:#b9babc"/><path d="m164.035 238.9-.27 24.555c-.006.515 1.202.271 1.207-.144l.27-24.555c.005-.514-1.202-.27-1.207.144z" style="fill:#b9babc"/><path d="M72.467 261.597c31.295-.74 62.698-2.287 94.001-1.666.384.008 1.301-.556.499-.571-31.304-.621-62.707.926-94.001 1.666-.379.008-1.301.59-.499.571zM469.329 363.413v17.879c0 .591 1.215.384 1.215-.111v-17.879c.001-.591-1.215-.384-1.215.111zM580.302 364.654c.181 5.139.049 10.26-.395 15.383-.053.613 1.173.443 1.22-.095.444-5.123.575-10.244.395-15.383-.023-.625-1.239-.435-1.22.095z" style="fill:#b9babc"/><path d="M465.33 367.917a2205.378 2205.378 0 0 1 120.552-.548c.71.016.904-.921.091-.94-40.182-.916-80.38-.733-120.552.548-.705.022-.909.966-.091.94zM466.368 378.877l61.655.841c20.331.277 40.688.793 60.992-.583.367-.025 1.297-.617.501-.563-20.303 1.375-40.661.86-60.992.583l-61.655-.841c-.378-.005-1.303.552-.501.563zM627.311 363.411v17.879c0 .598 1.216.396 1.216-.107v-17.879c0-.598-1.216-.396-1.216.107zM738.291 364.768c.181 5.139.049 10.26-.395 15.383-.017.201 1.171.062 1.205-.323.444-5.123.575-10.244.395-15.383-.009-.244-1.218-.044-1.205.323z" style="fill:#b9babc"/><path d="M623.304 367.889a2202.715 2202.715 0 0 1 120.397-.551c.583.013 1.228-.86.416-.879a2208.038 2208.038 0 0 0-120.707.545c-.685.022-.926.911-.106.885zM624.381 378.991l62.634.854c20.057.273 40.137.759 60.167-.598.643-.044.96-.844.132-.788-20.577 1.394-41.212.849-61.817.568l-60.676-.827c-.527-.007-1.253.78-.44.791zM883.904 533.076v15.238c0 .338 1.205.122 1.205-.323v-15.238c0-.337-1.205-.122-1.205.323zM1054.291 534.14a59.546 59.546 0 0 1-.608 13.015c-.08.515 1.139.321 1.21-.132.686-4.39.884-8.773.603-13.206-.028-.439-1.237-.178-1.205.323z" style="fill:#b9babc"/><path d="M877.277 536.775a6064.992 6064.992 0 0 1 185.092-.467c.499.006 1.263-.741.45-.751a6064.992 6064.992 0 0 0-185.092.467c-.493.009-1.26.765-.45.751zM879.185 546.273l95.307.721c31.05.235 62.117.679 93.154-.506.626-.024.976-.766.147-.734-31.596 1.207-63.225.721-94.834.482l-93.322-.706c-.493-.004-1.265.737-.452.743zM883.896 613.869v15.238c0 .627 1.22.445 1.22-.093v-15.238c.001-.627-1.22-.445-1.22.093zM1054.291 615.048a59.634 59.634 0 0 1-.604 13.031c-.068.433 1.141.222 1.201-.164.685-4.387.888-8.76.608-13.19-.023-.353-1.233-.114-1.205.323z" style="fill:#b9babc"/><path d="M877.256 617.604a6064.992 6064.992 0 0 1 185.092-.467c.397.005 1.297-.584.492-.594a6064.992 6064.992 0 0 0-185.092.467c-.393.007-1.295.609-.492.594zM879.016 627.039l94.315.714c31.33.237 62.677.702 93.994-.494.236-.009 1.348-.48.79-.459-31.316 1.196-62.664.731-93.994.494l-94.315-.714c-.239-.002-1.355.454-.79.459zM883.904 647.014v15.238c0 .225 1.205.046 1.205-.323v-15.238c0-.225-1.205-.045-1.205.323zM1054.291 648.078c.277 4.375.07 8.695-.606 13.024-.074.471 1.14.265 1.205-.149.685-4.387.886-8.767.606-13.197-.025-.393-1.235-.144-1.205.322z" style="fill:#b9babc"/><path d="M877.448 650.776a6064.992 6064.992 0 0 1 185.092-.467c.687.009.925-.867.108-.877a6064.992 6064.992 0 0 0-185.092.467c-.684.012-.928.892-.108.877zM879.02 660.085l95.307.721c31.042.235 62.101.68 93.131-.505.325-.012 1.313-.515.522-.484-31.604 1.207-63.24.722-94.857.483l-93.322-.706c-.257-.002-1.363.487-.781.491zM883.899 672.806v15.238c0 .591 1.216.384 1.216-.111v-15.238c-.001-.591-1.216-.384-1.216.111zM1054.281 673.852a59.932 59.932 0 0 1-.606 13.111c-.1.639 1.134.505 1.225-.075.68-4.357.885-8.71.606-13.111-.042-.661-1.262-.501-1.225.075z" style="fill:#b9babc"/><path d="M877.448 676.671a6064.992 6064.992 0 0 1 185.092-.467c.685.009.926-.862.109-.873a6064.992 6064.992 0 0 0-185.092.467c-.682.013-.93.888-.109.873zM879.181 686.095l94.315.714c31.33.237 62.677.702 93.994-.494.467-.018 1.267-.746.46-.715-31.316 1.196-62.664.731-93.994.494l-94.315-.714c-.475-.004-1.272.709-.46.715zM469.33 578.894v17.879c0 .577 1.214.361 1.214-.117v-17.879c0-.577-1.214-.361-1.214.117zM580.309 580.245c.18 5.106.043 10.195-.398 15.285-.047.543 1.171.336 1.211-.127a127.17 127.17 0 0 0 .391-15.481c-.015-.447-1.222-.191-1.204.323z" style="fill:#b9babc"/><path d="M465.123 583.197a2202.59 2202.59 0 0 1 120.421-.55c.29.007 1.378-.528.768-.542a2207.16 2207.16 0 0 0-120.683.546c-.362.012-1.305.571-.506.546zM466.4 594.474l62.634.854c20.057.273 40.137.76 60.167-.597.648-.044.956-.856.129-.8-20.577 1.394-41.212.849-61.816.568l-60.676-.827c-.534-.007-1.251.791-.438.802zM627.316 578.909v17.879c0 .511 1.206.262 1.206-.146v-17.879c0-.511-1.206-.262-1.206.146zM738.286 580.14c.181 5.139.049 10.26-.395 15.383-.05.575 1.172.383 1.215-.113.444-5.123.576-10.244.395-15.383-.021-.588-1.232-.371-1.215.113z" style="fill:#b9babc"/><path d="M623.128 583.286a2205.378 2205.378 0 0 1 120.552-.548c.483.011 1.271-.705.458-.723-40.182-.916-80.38-.733-120.552.548-.473.015-1.266.749-.458.723zM624.348 594.346l61.655.841c20.331.277 40.688.793 60.992-.583.356-.024 1.3-.599.506-.545-20.304 1.375-40.661.86-60.992.583l-61.655-.841c-.367-.005-1.306.534-.506.545zM468.229 417.239c40.604-.766 81.219-.521 121.811.734.702.022.91-.892.098-.917a2445.296 2445.296 0 0 0-121.811-.734c-.698.013-.916.932-.098.917zM466.814 427.761a1110.185 1110.185 0 0 0 128.033.669c.429-.023 1.279-.702.475-.66a1110.41 1110.41 0 0 1-128.033-.669c-.446-.029-1.285.609-.475.66zM468.472 438.585a1736.035 1736.035 0 0 0 127.611 1.336c.445-.012 1.278-.698.471-.676a1735.48 1735.48 0 0 1-127.611-1.336c-.455-.022-1.282.637-.471.676zM468.436 451.836c29.651-.896 59.318-.731 88.957.496.433.018 1.288-.611.479-.644a1242.896 1242.896 0 0 0-88.957-.496c-.423.013-1.285.669-.479.644zM626.303 394.359c40.553-.765 81.116-.521 121.657.733.566.017 1.237-.825.424-.85a2450.304 2450.304 0 0 0-121.966-.736c-.675.013-.936.869-.115.853zM624.754 404.87a1111.573 1111.573 0 0 0 128.165.675c.384-.02 1.295-.628.495-.586a1109.249 1109.249 0 0 1-127.901-.664c-.316-.02-1.392.535-.759.575zM626.404 415.659a1737.385 1737.385 0 0 0 127.742 1.335c.347-.009 1.308-.541.513-.52a1734.163 1734.163 0 0 1-127.481-1.336c-.279-.013-1.379.492-.774.521zM1169.316 256.905c-77.049-.038-154.101-.076-231.147.665-21.622.208-43.243.481-64.863.834-.67.011-.941.851-.119.838 77.041-1.259 154.094-1.489 231.143-1.514 21.622-.007 43.245.003 64.867.014.672.001.939-.837.119-.837zM1166.016 472.491c3.84-71.93 5.861-143.95 6.065-215.982.001-.511-1.205-.263-1.206.146a4278.886 4278.886 0 0 1-6.065 215.982c-.027.504 1.184.27 1.206-.146zM881.662 472.29c2.099-70.442 2.424-140.87 2.423-211.337 0-.163-1.205-.003-1.205.323.001 70.467-.324 140.895-2.423 211.337-.004.152 1.195.009 1.205-.323z" style="fill:#b9babc"/><path d="M1176.177 466.593c-77.063 2.522-154.145 4.454-231.241 5.63-22.013.336-44.027.611-66.042.832-.258.003-1.361.5-.781.494 76.858-.772 153.706-2.259 230.538-4.423 22.336-.629 44.671-1.315 67.005-2.045.326-.012 1.312-.514.521-.488z" style="fill:#b9babc"/><path d="M1167.106 466.368c-44.178-28.704-85.949-60.507-127.872-92.354-34.915-26.524-71.222-51.062-106.736-76.762-16.566-11.988-33.633-23.966-48.451-38.128-.255-.244-1.372.202-1.129.435 12.872 12.301 27.525 22.843 41.865 33.336 18.164 13.291 36.617 26.181 55.027 39.128 38.152 26.831 74.846 55.496 112.255 83.334a1416.72 1416.72 0 0 0 73.912 51.446c.31.201 1.362-.283 1.129-.435z" style="fill:#b9babc"/><path d="M1169.102 258.305c-80.072 48.026-150.125 111.052-224.421 167.185-21.074 15.923-42.398 31.511-64.008 46.699-.668.469.34.755.772.451 37.971-26.688 74.987-54.683 111.504-83.32 37.066-29.068 73.495-58.983 111.531-86.79 21.184-15.487 42.883-30.273 65.393-43.774.699-.418-.327-.717-.771-.451zM915.359 485.993c-12.222-.006-24.445-.004-36.666.186-.709.011-.907.957-.09.944 12.221-.19 24.443-.192 36.666-.186.71.001.905-.943.09-.944z" style="fill:#b9babc"/><path d="M915.44 512.965c.462-8.913.712-17.828.751-26.753.001-.17-1.203-.01-1.205.323-.039 8.924-.29 17.84-.751 26.753-.008.153 1.187.019 1.205-.323zM880.219 512.951c.251-8.726.301-17.448.3-26.177 0-.299-1.205-.096-1.205.323 0 8.729-.049 17.452-.3 26.177-.009.29 1.192.099 1.205-.323z" style="fill:#b9babc"/><path d="M916.187 511.957c-12.277.396-24.556.671-36.839.801-.701.007-.914.93-.097.921 12.283-.13 24.562-.405 36.839-.801.699-.023.916-.948.097-.921z" style="fill:#b9babc"/><path d="M915.449 512.064c-6.539-4.286-12.616-9.139-18.92-13.749-5.342-3.906-11.169-7.368-16.058-11.852-.358-.328-1.496.15-1.11.504 4.667 4.281 10.184 7.637 15.308 11.329 6.641 4.785 12.983 9.919 19.837 14.411.39.256 1.477-.293.943-.643z" style="fill:#b9babc"/><path d="M914.943 486.341c-12.639 7.749-23.636 17.939-35.727 26.493-.666.471.315.891.799.548 12.09-8.554 23.087-18.744 35.726-26.493.693-.424-.302-.852-.798-.548zM965.961 486.049c-12.222-.006-24.445-.004-36.666.186-.668.01-.942.846-.12.833 12.221-.19 24.443-.192 36.666-.186.67.001.941-.832.12-.833z" style="fill:#b9babc"/><path d="M966.031 513.065c.462-8.913.712-17.828.751-26.753.003-.561-1.21-.336-1.212.124-.039 8.924-.29 17.84-.751 26.753-.028.555 1.188.341 1.212-.124zM930.81 513.052c.251-8.726.301-17.448.3-26.177 0-.57-1.213-.35-1.213.12 0 8.729-.049 17.452-.3 26.177-.016.568 1.199.354 1.213-.12z" style="fill:#b9babc"/><path d="M966.79 512.014c-12.277.396-24.556.671-36.839.801-.658.007-.95.815-.127.806 12.283-.13 24.562-.405 36.839-.801.655-.021.952-.833.127-.806z" style="fill:#b9babc"/><path d="M966.13 512.171c-6.691-4.385-12.892-9.377-19.36-14.069-5.241-3.802-10.918-7.214-15.701-11.601-.256-.235-1.363.216-1.13.43 4.783 4.387 10.46 7.799 15.701 11.601 6.468 4.692 12.669 9.684 19.36 14.07.304.198 1.351-.286 1.13-.431z" style="fill:#b9babc"/><path d="M965.533 486.35c-12.639 7.749-23.636 17.939-35.727 26.493-.666.471.319.867.794.531 12.09-8.554 23.087-18.744 35.726-26.493.693-.425-.306-.829-.793-.531zM1018.648 486.207c-12.266-.006-24.531-.004-36.796.187-.345.005-1.31.527-.514.515 12.178-.189 24.356-.191 36.535-.185.272 0 1.369-.516.775-.517z" style="fill:#b9babc"/><path d="M1018.387 512.965c.462-8.913.712-17.828.751-26.753.001-.165-1.203-.006-1.205.323-.039 8.924-.29 17.84-.751 26.753-.008.147 1.187.016 1.205-.323zM983.165 512.951c.251-8.726.301-17.448.3-26.177 0-.208-1.205-.034-1.205.323 0 8.729-.049 17.452-.3 26.177-.006.198 1.194.039 1.205-.323z" style="fill:#b9babc"/><path d="M1019.32 512.078c-12.277.396-24.556.671-36.839.801-.448.005-1.28.686-.47.677 12.283-.13 24.562-.405 36.839-.801.444-.013 1.278-.703.47-.677z" style="fill:#b9babc"/><path d="M1018.402 512.089c-6.677-4.376-12.866-9.359-19.32-14.04-5.231-3.794-10.888-7.194-15.661-11.572-.32-.293-1.453.169-1.117.477 4.781 4.385 10.467 7.812 15.705 11.609 6.495 4.708 12.72 9.718 19.437 14.12.338.222 1.447-.272.956-.594z" style="fill:#b9babc"/><path d="M1017.906 486.402c-12.639 7.749-23.636 17.939-35.727 26.493-.666.471.348.721.766.425 12.09-8.554 23.087-18.744 35.726-26.493.694-.424-.337-.687-.765-.425zM1067.141 486.169c-12.222-.006-24.444-.004-36.666.186-.393.006-1.296.606-.493.594 12.221-.19 24.443-.192 36.666-.186.396 0 1.298-.594.493-.594z" style="fill:#b9babc"/><path d="M1067.026 513.071c.462-8.913.712-17.828.751-26.753.003-.589-1.213-.382-1.215.111-.039 8.924-.29 17.84-.751 26.753-.03.584 1.189.386 1.215-.111zM1031.802 513.049c.251-8.726.301-17.449.3-26.178 0-.552-1.211-.322-1.211.128 0 8.729-.049 17.452-.3 26.178-.015.549 1.198.326 1.211-.128z" style="fill:#b9babc"/><path d="M1067.784 512.016c-12.277.396-24.556.671-36.839.801-.657.007-.952.811-.128.802 12.283-.13 24.562-.405 36.839-.801.653-.021.953-.828.128-.802z" style="fill:#b9babc"/><path d="M1067.022 512.036c-6.691-4.385-12.892-9.377-19.36-14.069-5.24-3.802-10.918-7.214-15.701-11.601-.397-.364-1.443.227-.927.699 4.783 4.387 10.46 7.799 15.701 11.601 6.468 4.692 12.669 9.684 19.36 14.069.448.295 1.501-.323.927-.699z" style="fill:#b9babc"/><path d="M1066.525 486.343c-12.639 7.749-23.637 17.939-35.727 26.493-.666.471.316.886.798.545 12.09-8.554 23.087-18.744 35.726-26.493.692-.425-.303-.848-.797-.545zM626.52 428.995c29.651-.896 59.318-.731 88.957.496.441.018 1.286-.622.476-.656a1242.896 1242.896 0 0 0-88.957-.496c-.431.012-1.282.68-.476.656zM882.238 566.478a11799.88 11799.88 0 0 1 209.257.038c19.924.181 39.848.415 59.771.696.266.004 1.368-.496.778-.505a11788.962 11788.962 0 0 0-209.243-1.104c-19.929.073-39.857.197-59.786.37-.264.003-1.364.51-.777.505zM879.702 577.293a5355.032 5355.032 0 0 0 220.213 1.816c20.906-.259 41.81-.645 62.711-1.146.668-.016.943-.855.12-.835a5349.06 5349.06 0 0 1-220.93.757 5398.934 5398.934 0 0 1-61.685-1.426c-.556-.016-1.242.81-.429.834zM883.325 587.976a8363.967 8363.967 0 0 0 219.311 1.862c20.843-.097 41.685-.275 62.527-.527.378-.005 1.301-.577.5-.568-73.114.882-146.238.818-219.35-.217-20.831-.295-41.661-.67-62.489-1.119-.381-.007-1.301.551-.499.569zM883.458 601.424a5987.595 5987.595 0 0 1 196.467.496c.706.013.908-.914.094-.929a5987.588 5987.588 0 0 0-196.467-.496c-.704.01-.912.941-.094.929zM468.223 615.382c40.552-.765 81.116-.522 121.657.732.573.018 1.234-.836.421-.861a2450.311 2450.311 0 0 0-121.966-.737c-.681.013-.933.882-.112.866zM466.66 625.845a1111.538 1111.538 0 0 0 128.163.666c.322-.017 1.312-.525.522-.483a1109.283 1109.283 0 0 1-127.903-.673c-.26-.017-1.372.452-.782.49zM468.503 636.866a1737.506 1737.506 0 0 0 127.767 1.34c.695-.018.918-.932.099-.91-42.488 1.118-85 .676-127.456-1.331-.601-.029-1.223.862-.41.901zM468.603 650.053c29.6-.894 59.216-.724 88.804.5.502.021 1.265-.715.451-.748a1245.41 1245.41 0 0 0-89.11-.492c-.629.02-.974.765-.145.74zM626.107 615.22c40.56-.765 81.132-.521 121.68.733.289.009 1.379-.519.769-.538a2449.354 2449.354 0 0 0-121.942-.736c-.361.006-1.305.556-.507.541zM624.737 625.825a1110.185 1110.185 0 0 0 128.033.669c.23-.012 1.343-.479.792-.45a1110.41 1110.41 0 0 1-128.033-.669c-.235-.016-1.358.414-.792.45zM626.555 636.753a1736.035 1736.035 0 0 0 127.611 1.336c.444-.012 1.278-.698.471-.676a1735.48 1735.48 0 0 1-127.611-1.336c-.455-.021-1.282.638-.471.676zM626.516 649.994c29.651-.896 59.318-.731 88.957.496.419.017 1.292-.589.485-.622a1242.896 1242.896 0 0 0-88.957-.496c-.41.013-1.29.647-.485.622zM1164.967 196.755a66.332 66.332 0 0 1 11.347 12.854c.226.335 1.395-.063 1.119-.472a66.332 66.332 0 0 0-11.347-12.854c-.321-.28-1.448.185-1.119.472z" style="fill:#b9babc"/><path d="M1167.172 207.585a177.229 177.229 0 0 0 11.307-11.149c.506-.546-.655-.678-.996-.309a176.947 176.947 0 0 1-11.306 11.149c-.544.489.631.637.995.309z" style="fill:#b9babc"/><path d="M53.732 226.014c13.949-.596 27.967-.324 41.924-.31 25.281.025 50.563.163 75.844.311 55.95.328 111.9.796 167.85 1.081 16.631.085 33.29.38 49.919.024.733-.016 2.607-1.137 1.008-1.103-39.238.84-78.58-.18-117.82-.447-55.944-.38-111.89-.843-167.835-.957-16.603-.034-33.287-.411-49.881.298-.729.031-2.606 1.171-1.009 1.103zM437.703 226.331c42.093-1.812 84.42-1.022 126.54-1.264 60.546-.348 121.093-.589 181.639-.935 17.589-.101 35.191-.057 52.777-.438 1.362-.03 1.863-1.773.221-1.738-42.177.916-84.408.611-126.592.818-60.542.296-121.084.541-181.625 1.06-17.565.151-35.186.004-52.739.76-1.356.058-1.865 1.808-.221 1.737zM846.614 226.563c42.093-1.812 84.42-1.022 126.54-1.264 60.546-.348 121.093-.589 181.639-.935 17.589-.1 35.191-.057 52.777-.438 1.342-.029 1.879-1.721.235-1.686-42.177.916-84.408.611-126.592.818-60.542.296-121.084.541-181.625 1.06-17.564.151-35.186.004-52.739.76-1.336.057-1.883 1.756-.235 1.685zM345.89 198.883c.154 2.012.099 4.02-.125 6.024-.137 1.232 2.319.908 2.441-.183.241-2.165.259-4.315.093-6.486-.083-1.094-2.498-.519-2.409.645z"/><path d="M345.977 200.452c10.207.068 20.413.183 30.619.347.791.013 2.596-1.154.987-1.18-10.206-.164-20.412-.28-30.619-.347-.788-.005-2.596 1.17-.987 1.18z"/><path d="M374.323 197.606c-1.126.545-.79 1.538-.79 2.685l.001 5.528c0 .341 2.41.015 2.41-.646l-.001-3.685c0-.235-.068-3.696-.243-3.611 1.421-.689-.826-.537-1.377-.271z"/><path d="M345.051 204.383c10.421.288 20.745-.387 31.196.282 1.194.076 2.452-1.679.826-1.783-10.461-.669-20.766.006-31.196-.282-1.183-.033-2.449 1.738-.826 1.783zM348.062 207.961c-1.056-.033-1.918.43-1.968 1.493-.093 1.966.001 3.96.002 5.929 0 .587 2.41.185 2.409-.646l-.001-3.093-.001-1.547c0-.385-.169-1.28.042-1.571l-1.6.621.132.004c.801.026 2.595-1.14.985-1.19z"/><path d="M345.418 210.269a379.853 379.853 0 0 1 31.041.432c.616.034 2.777-1.059 1.524-1.128a386.01 386.01 0 0 0-31.568-.45c-.759.02-2.6 1.189-.997 1.146z"/><path d="M373.835 208.864a24.89 24.89 0 0 1 .379 5.825c-.015.284 2.375.024 2.41-.646a24.883 24.883 0 0 0-.379-5.825c-.081-.44-2.51.1-2.41.646z"/><path d="m344.785 214.687 17.35-.058c4.446-.015 8.949.253 13.296-.803 1.485-.361 1.079-1.861-.402-1.501-5.095 1.238-10.658.678-15.881.695l-13.495.045c-1.069.003-2.49 1.628-.868 1.622zM345.45 219.041a61.585 61.585 0 0 0-.047 4.993c.038 1.21 2.466.801 2.434-.21a61.128 61.128 0 0 1 .046-4.993c.061-1.196-2.381-.816-2.433.21z"/><path d="M346.05 220.6a508.971 508.971 0 0 1 31.142-1.44c.962-.015 2.533-1.486.912-1.461-10.6.164-21.184.649-31.754 1.462-1.228.094-1.966 1.567-.3 1.439z"/><path d="M375.108 217.43a45.222 45.222 0 0 0 .119 6.126c.066.749 2.488.243 2.409-.646a42.8 42.8 0 0 1-.123-5.796c.046-.946-2.368-.456-2.405.316z"/><path d="M346.587 223.533c10.145.477 20.263.205 30.366-.825 1.271-.13 1.922-1.739.266-1.57a200.252 200.252 0 0 1-29.752.817c-1.058-.05-2.509 1.502-.88 1.578zM738.52 194.663l.309 8.42c.012.321 2.432-.035 2.41-.646l-.309-8.42c-.013-.321-2.433.035-2.41.646z"/><path d="M738.703 197.731c10.666-1.623 21.411.774 32.115-.443 1.039-.118 2.107-1.215.413-1.023-10.707 1.218-21.42-1.185-32.115.443-1.025.156-2.104 1.281-.413 1.023z"/><path d="M766.114 194.036c-.1 2.812-.04 5.616.179 8.422.029.378 2.457-.036 2.41-.646a74.188 74.188 0 0 1-.179-8.422c.01-.297-2.386-.018-2.41.646z"/><path d="M737.908 200.297c10.359.462 20.716.494 31.078.097.484-.019 2.701-.985 1.574-.942a374.521 374.521 0 0 1-31.078-.097c-.495-.022-2.728.89-1.574.942zM738.321 206.116v3.638c0 1.075 2.418.599 2.418-.27v-3.638c0-1.074-2.418-.599-2.418.27z"/><path d="M739.062 206.505c4.98-.459 9.969-1.032 14.964-1.296 4.692-.248 9.333.324 14.016.249.822-.013 2.582-1.268.971-1.242-5.355.087-10.575-.509-15.947-.124-4.552.326-9.094.8-13.638 1.219-1.121.103-2.048 1.349-.366 1.194z"/><path d="M766.408 204.641c.005 1.698.04 3.395.103 5.092.022.597 2.44.165 2.409-.646a149.065 149.065 0 0 1-.103-5.092c-.001-.576-2.411-.174-2.409.646z"/><path d="M738.275 210.3a1570.397 1570.397 0 0 1 30.344-2.228c.613-.039 2.63-1.014 1.059-.914a1561.888 1561.888 0 0 0-30.344 2.228c-.609.051-2.626 1.044-1.059.914zM738.222 214.1v3.95c0 .363 2.41.031 2.41-.646v-3.95c-.001-.362-2.41-.03-2.41.646zM765.649 214.205a66.97 66.97 0 0 1-.036 4.504c-.042 1.006 2.378.529 2.412-.294.067-1.618.077-3.237.034-4.856-.021-.78-2.435-.303-2.41.646z"/><path d="M738.967 214.613c8.905.109 18.079.876 26.966.364.697-.04 2.609-1.151 1.02-1.059-8.661.499-17.745-.256-26.443-.362-.562-.007-2.747 1.042-1.543 1.057zM740.378 219.213c8.302.049 17.016.833 25.251-.353 1.368-.197 1.806-2.124.18-1.89-8.237 1.187-16.95.403-25.251.353-1.421-.008-1.809 1.881-.18 1.89zM1166.733 200.442a168.284 168.284 0 0 0 8.351 7.348c.736.606 2.896-.469 1.88-1.305a161.673 161.673 0 0 1-8.013-7.059c-.722-.679-3.001.28-2.218 1.016z"/><path d="m1168.739 207.41 8.525-7.811-2.284.284-.031.173c-.107.594 2.269.201 2.38-.411l.031-.173c.136-.754-2.044.064-2.284.284l-8.525 7.811c-.422.387.376.418.578.427.507.024 1.231-.237 1.61-.584zM367.441 322.738c1.419 0 1.812-1.885.181-1.885-1.419 0-1.811 1.885-.181 1.885zM74.263 240.93l-.322 21.898c-.019 1.263 2.426.913 2.442-.181l.322-21.898c.018-1.263-2.426-.913-2.442.181zM163.422 241.162l.326 16.631c.009.452 2.424.076 2.41-.646l-.326-16.631c-.009-.451-2.424-.075-2.41.646z"/><path d="M73.541 242.441c30.497.476 60.998.054 91.47-1.264.768-.033 2.592-1.238.99-1.169a1555.943 1555.943 0 0 1-91.47 1.264c-.783-.012-2.598 1.144-.99 1.169zM73.245 263.567a2293.03 2293.03 0 0 0 92.278-3.746c.656-.04 2.619-1.086 1.038-.99a2293.055 2293.055 0 0 1-92.277 3.746c-.666.013-2.625 1.022-1.039.99zM469.694 365.339l-.454 13.668c-.042 1.26 2.405.915 2.442-.181l.454-13.668c.042-1.26-2.406-.915-2.442.181zM577.801 365.93l.361 10.383c.016.462 2.435.069 2.41-.646l-.361-10.383c-.016-.461-2.435-.069-2.41.646z"/><path d="M468.564 366.462c37.005.422 74.014.282 111.016-.42.775-.015 2.596-1.2.99-1.169-37.001.702-74.01.842-111.016.42-.783-.009-2.598 1.151-.99 1.169zM467.906 379.619a5386.76 5386.76 0 0 0 112.261-1.972c.664-.019 2.624-1.034 1.038-.99a5364.35 5364.35 0 0 1-111.741 1.961c-.523.005-2.727 1.01-1.558 1.001zM628.545 365.315l-.436 13.668c-.04 1.26 2.407.915 2.442-.181l.436-13.668c.04-1.26-2.407-.915-2.442.181zM736.75 365.906l.361 10.383c.016.462 2.434.069 2.41-.646l-.361-10.383c-.017-.461-2.435-.069-2.41.646z"/><path d="M627.512 366.438c37.005.422 74.014.282 111.016-.42.775-.015 2.596-1.2.99-1.169-37.001.702-74.01.842-111.016.42-.782-.009-2.598 1.151-.99 1.169zM626.854 379.596a5386.76 5386.76 0 0 0 112.261-1.972c.664-.019 2.624-1.035 1.038-.99a5364.35 5364.35 0 0 1-111.741 1.961c-.523.004-2.727 1.009-1.558 1.001zM885.594 536.01l-.66 13.667c-.061 1.257 2.389.917 2.442-.181l.66-13.667c.06-1.256-2.389-.916-2.442.181zM1055.949 536.808l.589 10.383c.027.476 2.45.06 2.41-.646l-.589-10.383c-.028-.475-2.45-.059-2.41.646z"/><path d="M883.552 537.131c58.262.496 116.528.427 174.788-.208.777-.008 2.597-1.186.99-1.169-58.261.636-116.526.705-174.788.208-.782-.007-2.598 1.155-.99 1.169zM882.704 550.287a13238.05 13238.05 0 0 0 176.336-1.753c.521-.009 2.723-1.02 1.558-1a13238.05 13238.05 0 0 1-176.336 1.753c-.524.002-2.728 1.004-1.558 1zM885.594 615.711l-.66 13.667c-.061 1.257 2.389.917 2.442-.181l.66-13.667c.06-1.256-2.389-.916-2.442.181zM1055.949 616.509l.589 10.383c.027.476 2.45.06 2.41-.646l-.589-10.383c-.028-.475-2.45-.06-2.41.646z"/><path d="M883.552 616.831c58.262.496 116.528.427 174.788-.208.777-.009 2.597-1.187.99-1.169-58.261.636-116.526.705-174.788.208-.782-.007-2.598 1.155-.99 1.169zM882.704 629.988a13238.05 13238.05 0 0 0 176.336-1.753c.521-.009 2.723-1.02 1.558-1.001a13238.05 13238.05 0 0 1-176.336 1.753c-.524.002-2.728 1.005-1.558 1.001zM469.694 583.035l-.454 13.668c-.042 1.26 2.405.915 2.442-.18l.454-13.668c.042-1.26-2.406-.915-2.442.18zM577.801 583.627l.361 10.383c.016.462 2.435.069 2.41-.646l-.361-10.383c-.016-.462-2.435-.069-2.41.646z"/><path d="M468.564 584.159c37.005.422 74.014.282 111.016-.42.775-.015 2.596-1.199.99-1.169-37.001.702-74.01.842-111.016.42-.783-.009-2.598 1.15-.99 1.169zM467.906 597.316c37.426-.268 74.848-.925 112.261-1.972.664-.018 2.624-1.034 1.038-.99a5364.35 5364.35 0 0 1-111.741 1.961c-.523.004-2.727 1.01-1.558 1.001zM628.545 583.012l-.436 13.668c-.04 1.26 2.407.915 2.442-.181l.436-13.668c.04-1.26-2.407-.915-2.442.181zM736.75 583.603l.361 10.383c.016.462 2.434.069 2.41-.646l-.361-10.383c-.017-.461-2.435-.069-2.41.646z"/><path d="M627.512 584.135c37.005.422 74.014.282 111.016-.42.775-.015 2.596-1.199.99-1.169-37.001.702-74.01.842-111.016.42-.782-.009-2.598 1.151-.99 1.169zM626.854 597.293c37.426-.268 74.848-.925 112.261-1.972.664-.019 2.624-1.034 1.038-.99a5364.35 5364.35 0 0 1-111.741 1.961c-.523.004-2.727 1.009-1.558 1.001zM192.015 240.33l.387 19.13c.014.679 2.427.235 2.41-.646l-.388-19.13c-.013-.679-2.427-.235-2.409.646z"/><path d="M191.37 241.621c54.374-.75 108.719-2.281 163.1-2.854 6.835-.072 13.702.021 20.532-.295 1.248-.058 1.955-1.541.294-1.464-16.738.775-33.596.415-50.348.575-21.779.208-43.553.394-65.326.947-22.447.571-44.892 1.298-67.345 1.608-.978.014-2.528 1.506-.907 1.483z"/><path d="m371.91 236.523-1.104 21.607c-.058 1.141 2.378.73 2.427-.235l1.104-21.607c.059-1.14-2.377-.729-2.427.235z"/><path d="M192.169 261.036c50.43-.719 100.868-.844 151.297-1.706 9.35-.16 18.724-.214 28.063-.717.784-.042 2.583-1.288.982-1.201-21.373 1.151-42.872.969-64.268 1.23-29.004.355-58.009.625-87.014.901-9.359.089-18.719.158-28.078.291-.797.012-2.591 1.225-.982 1.202zM469.399 392.589l.27 16.535c.011.677 2.424.236 2.41-.646l-.27-16.535c-.011-.676-2.424-.235-2.41.646z"/><path d="M469.132 393.762c27.811-.441 55.598-1.684 83.413-1.993 16.82-.187 33.771.243 50.573-.632 1.247-.065 1.956-1.551.294-1.464-16.943.882-34.041.434-51.002.624-27.467.308-54.907 1.547-82.371 1.982-.978.015-2.528 1.509-.907 1.483z"/><path d="m600.575 389.368-.819 18.676c-.05 1.143 2.385.728 2.427-.235l.819-18.676c.05-1.142-2.385-.728-2.427.235z"/><path d="M469.692 410.525c36.759-.591 73.525-.675 110.282-1.392 6.83-.133 13.685-.179 20.505-.605.781-.049 2.581-1.301.982-1.201-15.339.958-30.8.806-46.161 1.019-21.37.296-42.74.516-64.111.741-6.839.072-13.678.127-20.516.237-.796.012-2.59 1.227-.981 1.201zM237.194 623.464l.27 16.535c.011.677 2.424.236 2.41-.646l-.27-16.535c-.012-.677-2.424-.236-2.41.646z"/><path d="M236.926 624.636c27.811-.441 55.598-1.684 83.413-1.994 16.82-.187 33.771.243 50.573-.631 1.247-.065 1.956-1.55.294-1.464-16.943.882-34.041.434-51.002.624-27.467.308-54.907 1.547-82.371 1.982-.977.016-2.527 1.509-.907 1.483z"/><path d="m368.369 620.243-.819 18.676c-.05 1.143 2.385.728 2.427-.235l.819-18.676c.051-1.143-2.384-.729-2.427.235z"/><path d="M237.486 641.399c36.759-.59 73.524-.674 110.282-1.392 6.83-.133 13.685-.179 20.505-.605.781-.049 2.581-1.301.982-1.201-15.339.958-30.8.806-46.161 1.019-21.37.296-42.74.516-64.111.741-6.839.072-13.678.127-20.516.237-.795.013-2.589 1.227-.981 1.201zM71.735 625.417l.27 16.535c.011.677 2.424.236 2.41-.646l-.27-16.535c-.012-.677-2.425-.236-2.41.646z"/><path d="M71.467 626.589c27.811-.44 55.598-1.684 83.413-1.993 16.82-.187 33.771.243 50.572-.632 1.247-.065 1.956-1.55.294-1.464-16.943.882-34.041.434-51.002.624-27.467.308-54.907 1.547-82.371 1.982-.976.016-2.527 1.509-.906 1.483z"/><path d="m202.91 622.196-.819 18.676c-.05 1.143 2.385.728 2.427-.235l.819-18.676c.051-1.143-2.385-.728-2.427.235z"/><path d="M72.027 643.352c36.759-.59 73.525-.674 110.282-1.392 6.83-.133 13.684-.179 20.505-.605.781-.049 2.581-1.301.982-1.201-15.339.958-30.8.806-46.161 1.019-21.37.296-42.74.516-64.111.741-6.839.072-13.678.127-20.516.237-.795.013-2.589 1.227-.981 1.201zM76.617 277.857l-2.114 177.856c-.012 1.021 2.403.53 2.412-.291l2.114-177.856c.012-1.022-2.402-.53-2.412.291zM368.525 267.857a4468.03 4468.03 0 0 0-4.529 194.073c0 .306 2.409-.007 2.41-.646a4468.03 4468.03 0 0 1 4.529-194.073c.012-.273-2.381-.011-2.41.646z"/><path d="M74.928 456.352c36.923.76 73.834-.538 110.752-.99 38.452-.471 76.979-.211 115.426.552 10.03.199 20.062.407 30.094.381 11.063-.028 22.253-1.087 33.265.254.592.072 2.782-.931 1.536-1.082-8.612-1.049-17.201-.478-25.847-.335-9.852.163-19.705.037-29.556-.145-18.259-.338-36.513-.55-54.775-.655-37.862-.217-75.677.023-113.532.718-21.94.402-43.885.672-65.827.22-.579-.012-2.755 1.057-1.536 1.082zM76.906 276.135c33.47.133 66.958-.447 100.426-.712 52.126-.413 104.254-.817 156.377-1.486 8.822-.113 17.645-.229 26.467-.405 3.618-.072 7.533.223 11.12-.363 1.191-.194 1.956-1.715.299-1.445-3.002.49-6.264.254-9.291.317-7.291.152-14.583.254-21.875.353-23.29.316-46.581.545-69.873.767-51.688.491-103.378.901-155.067 1.267-12.555.089-25.117.29-37.673.24-.971-.002-2.534 1.461-.91 1.467z"/><path d="M80.099 280.526c35.14 24.614 72.646 45.51 108.923 68.348 37.896 23.858 75.777 47.743 113.862 71.298 10.394 6.429 20.838 12.775 31.253 19.17 9.903 6.08 19.456 12.751 30.12 17.473.834.369 2.995-.796 1.885-1.287-9.306-4.121-17.766-9.723-26.353-15.129-9.349-5.886-18.849-11.538-28.253-17.335-18.91-11.658-37.752-23.427-56.583-35.212-37.251-23.313-74.386-46.769-111.981-69.526-20.661-12.507-41.2-25.226-60.988-39.087-.763-.535-2.937.55-1.885 1.287z"/><path d="M77.949 454.113c37.319-21.259 73.39-44.755 109.563-67.882 41.766-26.702 83.391-53.645 125.646-79.572 18.83-11.554 37.77-22.987 57.227-33.46.99-.533-1.404-.239-1.829-.011-37.879 20.389-74.201 43.766-110.5 66.802-41.84 26.553-83.397 53.553-125.386 79.871-18.669 11.702-37.403 23.334-56.55 34.241-.984.561 1.408.251 1.829.011zM1173.9 322.547c1.419 0 1.812-1.885.181-1.885-1.418 0-1.811 1.885-.181 1.885zM877.46 262.195l-2.155 206.72c-.011 1.021 2.404.529 2.412-.291l2.155-206.72c.011-1.021-2.403-.529-2.412.291z"/><path d="M1175.026 250.545a5909.221 5909.221 0 0 0-4.616 225.568c-.001.306 2.409-.007 2.409-.646a5911.321 5911.321 0 0 1 4.616-225.568c.012-.278-2.383-.01-2.409.646z"/><path d="M875.731 469.594c38.093.895 76.172-.663 114.258-1.169 38.864-.517 77.823-.21 116.68.669 9.933.225 19.868.457 29.804.436 11.432-.024 23.046-1.284 34.406.293.593.082 2.784-.909 1.536-1.082-8.692-1.207-17.346-.563-26.082-.393-10.083.196-20.168.051-30.249-.161-18.744-.394-37.48-.643-56.228-.765-38.507-.251-76.954.03-115.453.835-22.376.468-44.758.781-67.136.255-.58-.014-2.757 1.053-1.536 1.082zM877.741 260.1c34.274.156 68.571-.522 102.843-.832 52.97-.479 105.942-.948 158.909-1.722 9-.132 18-.266 26.998-.47 3.664-.083 7.717.256 11.34-.42 1.178-.22 1.949-1.753.299-1.445-2.983.556-6.302.294-9.317.366-7.534.18-15.07.3-22.605.416-23.519.363-47.04.628-70.56.883-52.857.574-105.714 1.051-158.572 1.478-12.805.104-25.619.338-38.424.279-.973-.004-2.535 1.459-.911 1.467z"/><path d="M881.005 265.218c35.366 28.252 73.571 52.583 110.326 78.931 38.528 27.619 77 55.316 115.736 82.643 10.682 7.536 21.417 14.996 32.135 22.481 10.32 7.207 20.185 15.153 31.471 20.844.822.414 2.989-.731 1.885-1.287-9.686-4.884-18.298-11.444-27.084-17.742-9.421-6.753-19.017-13.268-28.5-19.934-19.314-13.575-38.544-27.27-57.761-40.982-37.852-27.01-75.56-54.178-113.833-80.59-21.237-14.655-42.322-29.54-62.489-45.65-.728-.583-2.9.476-1.886 1.286z"/><path d="M878.777 467.078c37.866-24.592 74.211-51.577 110.686-78.162 42.767-31.17 85.352-62.61 128.709-92.959 19.265-13.485 38.661-26.85 58.709-39.153.974-.597-1.412-.266-1.829-.011-38.491 23.62-75.071 50.462-111.638 76.91-42.879 31.014-85.402 62.52-128.452 93.298-19.115 13.666-38.305 27.265-58.015 40.066-.963.627 1.418.279 1.83.011zM915.782 494.812c1.419 0 1.812-1.885.181-1.885-1.419-.001-1.811 1.885-.181 1.885zM879.502 487.914l-.256 24.614c-.011 1.021 2.404.529 2.412-.291l.257-24.614c.01-1.022-2.404-.53-2.413.291z"/><path d="M914.935 486.682a756.377 756.377 0 0 0-.55 26.858c-.001.305 2.408-.007 2.409-.646a753.96 753.96 0 0 1 .55-26.858c.011-.278-2.384-.008-2.409.646z"/><path d="M879.682 512.957c11.643.189 23.533-.99 35.143.027.589.052 2.776-.974 1.536-1.082-11.605-1.017-23.507.161-35.143-.027-.578-.01-2.754 1.062-1.536 1.082zM880.197 488.181c11.834-.012 24.235.844 36.001-.419 1.219-.131 1.964-1.624.299-1.445-11.56 1.241-23.759.387-35.389.398-.971.001-2.534 1.468-.911 1.466z"/><path d="M880.157 488.712c5.783 4.525 11.953 8.559 17.922 12.835 5.422 3.883 10.791 8.223 16.568 11.562.803.464 2.975-.657 1.885-1.287-5.782-3.342-11.142-7.676-16.568-11.563-5.968-4.274-12.14-8.31-17.922-12.835-.734-.573-2.906.49-1.885 1.288z"/><path d="M881.527 512.185c12.106-7.941 23.195-17.388 35.495-25.037.971-.604-1.414-.269-1.829-.011-12.301 7.65-23.389 17.096-35.495 25.037-.962.632 1.418.281 1.829.011zM964.785 494.812c1.419 0 1.812-1.885.181-1.885-1.418-.001-1.811 1.885-.181 1.885zM928.506 487.914l-.257 24.614c-.011 1.021 2.404.529 2.412-.291l.257-24.614c.011-1.022-2.404-.53-2.412.291z"/><path d="M963.938 486.682a756.377 756.377 0 0 0-.55 26.858c-.001.305 2.408-.007 2.409-.646a753.96 753.96 0 0 1 .55-26.858c.011-.278-2.384-.008-2.409.646z"/><path d="M928.686 512.957c11.643.189 23.533-.99 35.143.027.589.052 2.776-.974 1.536-1.082-11.604-1.017-23.507.161-35.143-.027-.579-.01-2.754 1.062-1.536 1.082zM929.201 488.181c11.834-.012 24.235.844 36.001-.419 1.219-.131 1.964-1.624.299-1.445-11.56 1.241-23.76.387-35.39.398-.97.001-2.534 1.468-.91 1.466z"/><path d="M929.16 488.712c5.783 4.525 11.954 8.559 17.922 12.835 5.422 3.883 10.791 8.223 16.568 11.562.803.464 2.975-.657 1.885-1.287-5.782-3.342-11.141-7.676-16.568-11.563-5.968-4.274-12.14-8.31-17.922-12.835-.733-.573-2.906.49-1.885 1.288z"/><path d="M930.531 512.185c12.106-7.941 23.195-17.388 35.495-25.037.971-.604-1.413-.269-1.829-.011-12.302 7.65-23.389 17.096-35.495 25.037-.962.632 1.418.281 1.829.011zM1017.115 494.812c1.419 0 1.812-1.885.181-1.885-1.419-.001-1.812 1.885-.181 1.885zM980.835 487.914l-.257 24.614c-.011 1.021 2.404.529 2.412-.291l.257-24.614c.011-1.022-2.404-.53-2.412.291z"/><path d="M1016.267 486.682a756.377 756.377 0 0 0-.55 26.858c-.001.305 2.408-.007 2.409-.646a753.96 753.96 0 0 1 .55-26.858c.011-.278-2.384-.008-2.409.646z"/><path d="M981.015 512.957c11.643.189 23.534-.99 35.143.027.589.052 2.776-.974 1.536-1.082-11.604-1.017-23.507.161-35.143-.027-.578-.01-2.754 1.062-1.536 1.082zM981.53 488.181c11.834-.012 24.235.844 36.001-.419 1.219-.131 1.964-1.624.299-1.445-11.56 1.241-23.76.387-35.39.398-.97.001-2.534 1.468-.91 1.466z"/><path d="M981.489 488.712c5.783 4.525 11.954 8.559 17.922 12.835 5.422 3.883 10.791 8.223 16.568 11.562.803.464 2.975-.657 1.885-1.287-5.782-3.342-11.141-7.676-16.568-11.563-5.968-4.274-12.14-8.31-17.922-12.835-.733-.573-2.905.49-1.885 1.288z"/><path d="M982.86 512.185c12.106-7.941 23.195-17.388 35.495-25.037.971-.604-1.413-.269-1.829-.011-12.302 7.65-23.389 17.096-35.495 25.037-.962.632 1.418.281 1.829.011zM1066.443 494.812c1.419 0 1.812-1.885.181-1.885-1.419-.001-1.811 1.885-.181 1.885zM1030.163 487.914l-.257 24.614c-.011 1.021 2.404.529 2.412-.291l.257-24.614c.011-1.022-2.403-.53-2.412.291z"/><path d="M1065.596 486.682a756.377 756.377 0 0 0-.55 26.858c-.001.305 2.408-.007 2.409-.646a753.96 753.96 0 0 1 .55-26.858c.011-.278-2.384-.008-2.409.646z"/><path d="M1030.343 512.957c11.643.189 23.533-.99 35.143.027.589.052 2.776-.974 1.536-1.082-11.605-1.017-23.507.161-35.143-.027-.578-.01-2.754 1.062-1.536 1.082zM1030.858 488.181c11.834-.012 24.235.844 36.001-.419 1.219-.131 1.964-1.624.299-1.445-11.56 1.241-23.76.387-35.39.398-.97.001-2.533 1.468-.91 1.466z"/><path d="M1030.818 488.712c5.783 4.525 11.953 8.559 17.922 12.835 5.422 3.883 10.791 8.223 16.568 11.562.803.464 2.975-.657 1.885-1.287-5.782-3.342-11.141-7.676-16.568-11.563-5.968-4.274-12.14-8.31-17.922-12.835-.734-.573-2.906.49-1.885 1.288z"/><path d="M1032.188 512.185c12.106-7.941 23.195-17.388 35.495-25.037.972-.604-1.413-.269-1.829-.011-12.302 7.65-23.389 17.096-35.495 25.037-.962.632 1.418.281 1.829.011zM206.524 468.236c.922-1.604 3.026.204 2.406 1.576-.433.958-1.684.514-2.092-.206-.256-.452-.285-1.364.301-1.61.783-.328.051-.543-.434-.34-1.236.518-1.773 2.025-.507 2.899 1.013.699 2.742.357 3.588-.472 1.062-1.04.04-2.715-1.186-3.026-1.207-.307-2.654.304-3.269 1.373-.117.204 1.008.128 1.193-.194zM213.502 468.617c.058-.807.999-1.074 1.585-.54.472.43.23 1.351-.332 1.595-1.191.517-1.926-1.864-.46-2.157.763-.153.52-1.019-.233-.869-1.256.252-2.284 1.616-1.653 2.869.619 1.231 2.267 1.46 3.314.644 1.045-.814 1.186-2.475-.156-3.059-1.291-.562-3.174.019-3.287 1.598-.047.644 1.181.492 1.222-.081z"/><path d="M205.831 469.6a9.368 9.368 0 0 1 2.645-1.851c.178-.082.467-.251.323-.477-.132-.206-.638-.082-.797-.008a11.017 11.017 0 0 0-3.136 2.146c-.495.487.684.466.965.19zM207.167 470.244a28.685 28.685 0 0 1 2.408-1.859c.201-.139.314-.397.081-.562-.235-.167-.646-.059-.86.089a31.112 31.112 0 0 0-2.621 2.039c-.214.185-.089.441.14.521.293.103.632-.039.852-.228z"/><path d="M208.252 470.152a5.188 5.188 0 0 1 1.586-1.105c.156-.069.356-.19.15-.303-.198-.109-.661.077-.841.157a6.48 6.48 0 0 0-1.983 1.349c-.189.189.169.194.282.187.246-.016.621-.101.806-.285zM221.135 467.752c.23-.658.768-.604 1.17-.121.36.431.44 1.083.213 1.592-.285.638-1.209 1.158-1.596.304-.294-.648-.211-1.416.151-2.017.26-.432-.929-.28-1.11.02-.537.892-.748 2.759.616 3.035 1.102.223 2.513-.363 3.056-1.358.528-.968.037-2.293-1.075-2.54-.982-.218-2.277.265-2.625 1.26-.116.338 1.073.19 1.2-.175zM228.046 468.315c-.185-.411-.05-.884.561-.864.257.009.561.238.744.406.418.383.772 1.144.298 1.599-.629.603-1.671.402-2.015-.387-.289-.662-.035-1.355.4-1.88.277-.334-.894-.202-1.102.049-.813.981-.922 2.702.583 3.077.626.156 1.297.014 1.897-.184.537-.177 1.324-.418 1.579-.989.527-1.182-.856-2.2-1.881-2.278-.871-.066-2.815.561-2.269 1.775.152.336 1.326-.056 1.205-.324zM234.521 468.598c.403-.473 1.187-1.14 1.854-.845.609.269.607 1.148.299 1.652-.391.638-1.188.487-1.632-.022-.468-.537-.477-1.32-.146-1.924.302-.551-.914-.493-1.137-.084-.585 1.069-.309 2.453.838 3.012 1.039.507 2.452.207 3.122-.756.607-.873.492-2.292-.648-2.653-1.256-.397-2.74.404-3.538 1.341-.479.56.677.643.988.279zM69.168 486.798c.282 42.17-.126 84.342-1.225 126.499-.023.888 1.804.588 1.824-.164a3862.807 3862.807 0 0 0 1.225-126.498c-.006-.893-1.829-.583-1.824.163zM209.421 487.167c.114 40.768.484 81.535.976 122.3.012.978 1.846.733 1.835-.121-.492-40.765-.862-81.532-.976-122.301-.003-.976-1.838-.733-1.835.122zM231.469 486.797c-.512 22.641-.226 45.285-.252 67.93-.022 18.878-.863 37.671-1.65 56.523-.037.885 1.792.59 1.824-.163.787-18.852 1.628-37.645 1.65-56.523.026-22.645-.26-45.289.252-67.93.02-.889-1.807-.588-1.824.163zM371.505 487.167c.114 40.768.484 81.535.976 122.3.012.978 1.846.733 1.835-.121-.492-40.765-.862-81.532-.976-122.301-.003-.976-1.838-.733-1.835.122zM68.252 654.672c-.845 15.541.112 31.034-1.396 46.56-.085.872 1.75.593 1.824-.163 1.508-15.525.551-31.019 1.396-46.56.048-.884-1.783-.592-1.824.163zM208.288 654.803c.121 15.857.487 31.71.976 47.559.03.978 1.862.731 1.835-.121-.488-15.85-.855-31.702-.976-47.559-.007-.978-1.842-.734-1.835.121zM230.336 654.672c-.845 15.541.112 31.034-1.396 46.56-.085.872 1.75.593 1.824-.163 1.508-15.525.551-31.019 1.396-46.56.048-.884-1.783-.592-1.824.163zM370.372 654.803c.121 15.857.487 31.71.976 47.559.03.978 1.862.731 1.835-.121-.488-15.85-.855-31.702-.976-47.559-.007-.978-1.842-.734-1.835.121z"/><path d="M229.735 490.377c48.226.028 96.447-.535 144.673-.077.774.007 1.884-1.156.665-1.167-48.226-.458-96.447.105-144.673.077-.772-.001-1.883 1.166-.665 1.167zM229.735 610.144c48.226.028 96.447-.535 144.673-.077.774.007 1.884-1.156.665-1.167-48.226-.458-96.447.105-144.673.077-.772-.001-1.883 1.166-.665 1.167zM228.36 657.02c48.225.018 96.448-.354 144.673-.051.774.005 1.883-1.16.665-1.167-48.225-.303-96.448.069-144.673.051-.773 0-1.883 1.167-.665 1.167zM67.436 490.985c48.226.028 96.448-.535 144.673-.077.774.007 1.884-1.156.665-1.167-48.226-.458-96.447.105-144.673.077-.772-.001-1.883 1.166-.665 1.167zM65.333 609.443c48.226.028 96.448-.535 144.673-.077.774.007 1.884-1.156.665-1.167-48.226-.458-96.447.105-144.673.077-.773-.001-1.883 1.166-.665 1.167zM65.333 657.649c48.225.018 96.448-.353 144.673-.051.773.005 1.883-1.16.665-1.167-48.225-.303-96.448.069-144.673.051-.772 0-1.883 1.167-.665 1.167z"/><path d="M232.676 493.07c23.656 19.249 46.979 38.9 70.251 58.609 23.043 19.516 45.775 39.514 69.623 58.05.42.326 2.034-.38 1.696-.642-23.848-18.536-46.58-38.534-69.623-58.05-23.272-19.709-46.595-39.36-70.251-58.609-.41-.334-2.036.365-1.696.642z"/><path d="M230.574 609.556c39.273-32.792 77.518-66.798 117.085-99.245 8.479-6.953 16.973-13.942 25.861-20.374.99-.716-.456-1.455-1.219-.902-18.454 13.354-35.747 28.445-53.149 43.116-21.666 18.266-43.161 36.732-64.689 55.159-8.345 7.143-16.676 14.304-25.107 21.344-.94.783.485 1.514 1.218.902zM465.619 254.726c-.893 33.385-.144 66.686-1.826 100.056-.045.884 1.786.591 1.824-.164 1.683-33.37.933-66.671 1.826-100.056.024-.887-1.804-.588-1.824.164zM600.113 255.02c.11 32.777.466 65.552.937 98.326.014.978 1.848.733 1.835-.121-.472-32.773-.827-65.549-.937-98.326-.003-.977-1.838-.734-1.835.121z"/><path d="M463.977 257.703c46.317.022 92.631-.43 138.948-.062.774.006 1.884-1.158.665-1.167-46.317-.368-92.631.084-138.948.062-.772-.001-1.883 1.166-.665 1.167zM463.977 353.992c46.317.022 92.631-.43 138.948-.062.774.006 1.884-1.158.665-1.167-46.317-.368-92.631.084-138.948.062-.772-.001-1.883 1.166-.665 1.167z"/><path d="M466.781 259.816c45.112 30.731 88.594 64.017 134.339 93.79.454.296 2.02-.431 1.696-.642-45.745-29.773-89.228-63.059-134.339-93.79-.447-.304-2.025.418-1.696.642z"/><path d="M464.82 353.493c37.389-26.135 74.004-53.361 111.6-79.205 8.386-5.765 16.784-11.564 25.491-16.84 1.041-.631.09-1.705-.824-1.152-17.296 10.482-33.752 22.452-50.268 34.1-20.983 14.799-41.829 29.789-62.7 44.744-8.154 5.843-16.297 11.703-24.519 17.45-1 .7.451 1.44 1.22.903zM628.237 254.726c-.893 33.385-.143 66.686-1.826 100.056-.044.884 1.786.591 1.824-.164 1.683-33.37.933-66.671 1.826-100.056.023-.887-1.804-.588-1.824.164zM762.731 255.02c.11 32.777.465 65.552.937 98.326.014.978 1.848.733 1.835-.121-.472-32.773-.827-65.549-.937-98.326-.003-.977-1.838-.734-1.835.121z"/><path d="M626.595 257.703c46.317.022 92.631-.43 138.948-.062.774.006 1.884-1.158.665-1.167-46.317-.368-92.631.084-138.948.062-.773-.001-1.883 1.166-.665 1.167zM626.595 353.992c46.317.022 92.631-.43 138.948-.062.774.006 1.884-1.158.665-1.167-46.317-.368-92.631.084-138.948.062-.773-.001-1.883 1.166-.665 1.167z"/><path d="M629.398 259.816c45.112 30.731 88.594 64.017 134.339 93.79.454.296 2.02-.431 1.696-.642-45.745-29.773-89.227-63.059-134.339-93.79-.446-.304-2.024.418-1.696.642z"/><path d="M627.438 353.493c37.389-26.135 74.004-53.361 111.6-79.205 8.386-5.765 16.784-11.564 25.491-16.84 1.041-.631.09-1.705-.824-1.152-17.296 10.482-33.752 22.452-50.268 34.1-20.983 14.799-41.829 29.789-62.7 44.744-8.154 5.843-16.297 11.703-24.519 17.45-1 .7.45 1.44 1.22.903zM465.619 463.965c-.893 33.385-.144 66.686-1.826 100.056-.045.884 1.786.591 1.824-.163 1.683-33.37.933-66.671 1.826-100.056.024-.888-1.804-.589-1.824.163zM600.113 464.259c.11 32.777.466 65.552.937 98.326.014.978 1.848.733 1.835-.121-.472-32.773-.827-65.549-.937-98.326-.003-.978-1.838-.735-1.835.121z"/><path d="M463.977 466.942c46.317.022 92.631-.43 138.948-.062.774.006 1.884-1.158.665-1.167-46.317-.368-92.631.084-138.948.062-.772-.001-1.883 1.166-.665 1.167zM463.977 563.23c46.317.022 92.631-.43 138.948-.062.774.006 1.884-1.157.665-1.167-46.317-.368-92.631.084-138.948.062-.772 0-1.883 1.167-.665 1.167z"/><path d="M466.781 469.055c45.112 30.731 88.594 64.017 134.339 93.79.454.296 2.02-.431 1.696-.642-45.745-29.773-89.228-63.059-134.339-93.79-.447-.304-2.025.418-1.696.642z"/><path d="M464.82 562.731c37.389-26.135 74.004-53.361 111.6-79.205 8.386-5.765 16.784-11.564 25.491-16.84 1.041-.631.09-1.705-.824-1.152-17.296 10.482-33.752 22.452-50.268 34.1-20.983 14.799-41.829 29.789-62.7 44.744-8.154 5.843-16.297 11.703-24.519 17.45-1 .701.451 1.441 1.22.903zM628.237 463.965c-.893 33.385-.143 66.686-1.826 100.056-.044.884 1.786.591 1.824-.163 1.683-33.37.933-66.671 1.826-100.056.023-.888-1.804-.589-1.824.163zM762.731 464.259c.11 32.777.465 65.552.937 98.326.014.978 1.848.733 1.835-.121-.472-32.773-.827-65.549-.937-98.326-.003-.978-1.838-.735-1.835.121z"/><path d="M626.595 466.942c46.317.022 92.631-.43 138.948-.062.774.006 1.884-1.158.665-1.167-46.317-.368-92.631.084-138.948.062-.773-.001-1.883 1.166-.665 1.167zM626.595 563.23c46.317.022 92.631-.43 138.948-.062.774.006 1.884-1.157.665-1.167-46.317-.368-92.631.084-138.948.062-.773 0-1.883 1.167-.665 1.167z"/><path d="M629.398 469.055c45.112 30.731 88.594 64.017 134.339 93.79.454.296 2.02-.431 1.696-.642-45.745-29.773-89.227-63.059-134.339-93.79-.446-.304-2.024.418-1.696.642z"/><path d="M627.438 562.731c37.389-26.135 74.004-53.361 111.6-79.205 8.386-5.765 16.784-11.564 25.491-16.84 1.041-.631.09-1.705-.824-1.152-17.296 10.482-33.752 22.452-50.268 34.1-20.983 14.799-41.829 29.789-62.7 44.744-8.154 5.843-16.297 11.703-24.519 17.45-1 .701.45 1.441 1.22.903zM465.63 664.394c-.312 11.658-.333 23.319-.297 34.98.002.499 1.809.177 1.807-.484-.035-11.582-.018-23.164.291-34.743.019-.688-1.786-.304-1.801.247zM600.127 664.828c.042 12.411.117 24.822.221 37.233.003.323 1.812.053 1.807-.484a7575.801 7575.801 0 0 1-.221-37.233c-.001-.321-1.809-.055-1.807.484z"/><path d="M463.977 667.329c46.317.022 92.631-.43 138.948-.062.774.006 1.884-1.157.665-1.167-46.317-.368-92.631.084-138.948.062-.772-.001-1.883 1.166-.665 1.167zM466.91 669.562c14.84 10.109 29.573 20.373 44.256 30.708.487.343 2.155-.376 1.436-.882-14.683-10.335-29.416-20.598-44.256-30.708-.492-.335-2.159.389-1.436.882z"/><path d="M548.946 702.873c17.473-12.378 34.923-24.803 53.11-36.121 1.033-.643-.546-.859-1.113-.506-18.187 11.319-35.638 23.743-53.11 36.121-.994.703.559.898 1.113.506zM628.245 664.381c-.3 11.231-.329 22.465-.298 33.7.002.762 1.81.385 1.808-.221-.031-11.235-.002-22.468.298-33.7.02-.756-1.792-.391-1.808.221zM762.732 664.65c.039 11.442.106 22.883.197 34.324.008.961 1.84.703 1.833-.129a7552.543 7552.543 0 0 1-.197-34.324c-.003-.961-1.836-.704-1.833.129z"/><path d="M626.595 667.329c46.317.022 92.631-.43 138.948-.062.774.006 1.884-1.157.665-1.167-46.317-.368-92.631.084-138.948.062-.773-.001-1.883 1.166-.665 1.167zM629.53 669.569c14.84 10.109 29.573 20.373 44.256 30.708.5.352 2.163-.381 1.433-.895-14.683-10.335-29.417-20.598-44.256-30.707-.506-.345-2.169.393-1.433.894z"/><path d="M714.095 700.994c16.68-11.814 33.453-23.494 50.723-34.436.775-.491-1.032-.354-1.402-.12-17.27 10.942-34.043 22.622-50.723 34.436-.76.538 1.039.377 1.402.12zM69.744 492.273c17.63 12.923 34.114 27.609 50.836 41.66 22.538 18.939 44.972 38.001 67.45 57.011 7.503 6.346 14.978 12.731 22.581 18.957.562.46 2.177-.357 1.408-.987-39.729-32.534-78.278-66.505-117.875-99.203-7.562-6.245-15.077-12.625-22.991-18.426-.587-.429-2.205.404-1.409.988z"/><path d="M69.559 609.231c25.069-16.855 47.915-36.636 70.389-56.752 23.368-20.915 46.767-41.756 71-61.672.946-.777-.507-1.356-1.191-.795-24.233 19.916-47.632 40.758-71 61.672-22.474 20.115-45.32 39.897-70.389 56.752-1.014.682.473 1.278 1.191.795zM67.33 657.32c17.664 15.072 36.655 28.487 54.439 43.411.374.314 1.978-.386 1.702-.617-17.784-14.925-36.775-28.34-54.439-43.411-.37-.316-1.979.381-1.702.617zM209.967 656.594c-19.19 15.69-40.546 28.503-59.765 44.13-.95.773.492 1.43 1.205.85 19.219-15.628 40.576-28.44 59.765-44.13.948-.775-.493-1.433-1.205-.85zM230.359 657.32c17.664 15.072 36.655 28.487 54.439 43.411.374.314 1.978-.386 1.702-.617-17.784-14.925-36.775-28.34-54.439-43.411-.369-.316-1.978.381-1.702.617zM370.687 656.594c-19.189 15.69-40.546 28.503-59.765 44.13-.95.773.492 1.43 1.205.85 19.219-15.628 40.576-28.44 59.765-44.13.948-.775-.493-1.433-1.205-.85zM466.53 416.75c14.98 1.021 30.231.242 45.23.141 21.297-.143 42.594-.381 63.892-.397 6.61-.005 13.288-.194 19.888.256.535.036 2.751-.922 1.557-1.003-14.98-1.021-30.231-.242-45.231-.141-21.297.143-42.594.381-63.892.397-6.61.005-13.288.194-19.889-.256-.533-.036-2.749.922-1.555 1.003zM466.53 429.045c14.98 1.021 30.231.242 45.23.141 21.297-.143 42.594-.381 63.892-.397 6.61-.005 13.288-.194 19.888.256.535.036 2.751-.922 1.557-1.003-14.98-1.021-30.231-.242-45.231-.141-21.297.143-42.594.381-63.892.397-6.61.005-13.288.194-19.889-.256-.533-.037-2.749.921-1.555 1.003zM466.53 440.794c14.98 1.021 30.231.242 45.23.141 21.297-.143 42.594-.381 63.892-.397 6.61-.005 13.288-.194 19.888.256.535.036 2.751-.922 1.557-1.003-14.98-1.021-30.231-.242-45.231-.141-21.297.143-42.594.381-63.892.397-6.61.005-13.288.194-19.889-.256-.533-.037-2.749.922-1.555 1.003zM466.53 452.512c25.021 1.683 50.229-1.683 75.25 0 .535.036 2.751-.923 1.557-1.003-25.021-1.683-50.229 1.683-75.25 0-.535-.036-2.751.923-1.557 1.003zM625.312 393.903c14.98 1.021 30.231.242 45.23.141 21.297-.143 42.594-.381 63.892-.397 6.61-.005 13.288-.194 19.889.256.535.036 2.751-.922 1.557-1.003-14.98-1.021-30.231-.242-45.23-.141-21.297.143-42.594.381-63.892.397-6.61.005-13.288.194-19.889-.256-.535-.037-2.751.921-1.557 1.003zM625.312 406.197c14.98 1.021 30.231.242 45.23.141 21.297-.143 42.594-.381 63.892-.397 6.61-.005 13.288-.194 19.889.256.535.036 2.751-.922 1.557-1.004-14.98-1.021-30.231-.242-45.23-.141-21.297.143-42.594.381-63.892.397-6.61.005-13.288.194-19.889-.256-.535-.036-2.751.923-1.557 1.004zM625.312 417.946c14.98 1.021 30.231.242 45.23.141 21.297-.143 42.594-.381 63.892-.397 6.61-.005 13.288-.194 19.889.256.535.036 2.751-.922 1.557-1.003-14.98-1.021-30.231-.242-45.23-.141-21.297.143-42.594.381-63.892.397-6.61.005-13.288.194-19.889-.256-.535-.037-2.751.922-1.557 1.003zM625.312 429.664c25.021 1.683 50.229-1.683 75.25 0 .535.036 2.751-.923 1.557-1.003-25.021-1.683-50.229 1.683-75.25 0-.535-.036-2.751.923-1.557 1.003zM881.741 566.239c33.984 1.072 68.103.241 102.096.139 47.711-.144 95.422-.382 143.133-.395 14.567-.004 29.167-.203 43.73.256.531.017 2.741-.966 1.557-1.003-33.984-1.072-68.103-.242-102.096-.139-47.711.144-95.422.382-143.133.395-14.567.004-29.167.203-43.73-.256-.53-.018-2.741.965-1.557 1.003zM881.741 578.533c33.984 1.072 68.103.241 102.096.139 47.711-.144 95.422-.382 143.133-.395 14.567-.004 29.167-.203 43.73.256.531.017 2.741-.966 1.557-1.003-33.984-1.072-68.103-.241-102.096-.139-47.711.144-95.422.382-143.133.395-14.567.004-29.167.203-43.73-.256-.53-.017-2.741.965-1.557 1.003zM881.741 590.282c33.984 1.072 68.103.241 102.096.139 47.711-.144 95.422-.382 143.133-.395 14.567-.004 29.167-.203 43.73.256.531.017 2.741-.966 1.557-1.003-33.984-1.072-68.103-.241-102.096-.139-47.711.144-95.422.382-143.133.395-14.567.004-29.167.203-43.73-.256-.53-.017-2.741.966-1.557 1.003zM881.741 602c46.409 1.456 92.979-.23 139.404-.256 9.711-.005 19.432-.049 29.14.256.531.017 2.741-.966 1.557-1.003-46.409-1.456-92.979.23-139.404.256-9.711.005-19.433.049-29.14-.256-.53-.017-2.741.966-1.557 1.003zM466.53 615.839c14.98 1.021 30.231.242 45.23.141 21.297-.143 42.594-.381 63.892-.397 6.61-.005 13.288-.194 19.888.256.535.036 2.751-.922 1.557-1.003-14.98-1.021-30.231-.242-45.231-.141-21.297.143-42.594.381-63.892.397-6.61.005-13.288.194-19.889-.256-.533-.037-2.749.922-1.555 1.003zM466.53 628.133c14.98 1.021 30.231.242 45.23.141 21.297-.143 42.594-.381 63.892-.397 6.61-.005 13.288-.194 19.888.256.535.036 2.751-.922 1.557-1.003-14.98-1.021-30.231-.242-45.231-.141-21.297.143-42.594.381-63.892.397-6.61.005-13.288.194-19.889-.256-.533-.036-2.749.922-1.555 1.003zM466.53 639.883c14.98 1.021 30.231.242 45.23.141 21.297-.143 42.594-.381 63.892-.397 6.61-.005 13.288-.194 19.888.256.535.036 2.751-.922 1.557-1.003-14.98-1.021-30.231-.242-45.231-.141-21.297.143-42.594.381-63.892.397-6.61.005-13.288.194-19.889-.256-.533-.037-2.749.922-1.555 1.003zM466.53 651.601c25.021 1.683 50.229-1.683 75.25 0 .535.036 2.751-.923 1.557-1.003-25.021-1.683-50.229 1.683-75.25 0-.535-.037-2.751.923-1.557 1.003zM625.312 615.839c14.98 1.021 30.231.242 45.23.141 21.297-.143 42.594-.381 63.892-.397 6.61-.005 13.288-.194 19.889.256.535.036 2.751-.922 1.557-1.003-14.98-1.021-30.231-.242-45.23-.141-21.297.143-42.594.381-63.892.397-6.61.005-13.288.194-19.889-.256-.535-.037-2.751.922-1.557 1.003zM625.312 628.133c14.98 1.021 30.231.242 45.23.141 21.297-.143 42.594-.381 63.892-.397 6.61-.005 13.288-.194 19.889.256.535.036 2.751-.922 1.557-1.003-14.98-1.021-30.231-.242-45.23-.141-21.297.143-42.594.381-63.892.397-6.61.005-13.288.194-19.889-.256-.535-.036-2.751.922-1.557 1.003zM625.312 639.883c14.98 1.021 30.231.242 45.23.141 21.297-.143 42.594-.381 63.892-.397 6.61-.005 13.288-.194 19.889.256.535.036 2.751-.922 1.557-1.003-14.98-1.021-30.231-.242-45.23-.141-21.297.143-42.594.381-63.892.397-6.61.005-13.288.194-19.889-.256-.535-.037-2.751.922-1.557 1.003zM625.312 651.601c25.021 1.683 50.229-1.683 75.25 0 .535.036 2.751-.923 1.557-1.003-25.021-1.683-50.229 1.683-75.25 0-.535-.037-2.751.923-1.557 1.003zM885.594 648.741l-.66 13.667c-.061 1.257 2.389.917 2.442-.181l.66-13.667c.06-1.256-2.389-.916-2.442.181zM1055.949 649.539l.589 10.383c.027.476 2.45.06 2.41-.646l-.589-10.383c-.028-.475-2.45-.06-2.41.646z"/><path d="M883.552 649.861c58.262.496 116.528.427 174.788-.208.777-.008 2.597-1.186.99-1.169-58.261.636-116.526.705-174.788.208-.782-.007-2.598 1.155-.99 1.169zM882.704 663.018a13238.05 13238.05 0 0 0 176.336-1.753c.521-.009 2.723-1.02 1.558-1a13238.05 13238.05 0 0 1-176.336 1.753c-.524.001-2.728 1.004-1.558 1zM885.594 674.639l-.66 13.667c-.061 1.257 2.389.917 2.442-.181l.66-13.667c.06-1.257-2.389-.916-2.442.181zM1055.949 675.437l.589 10.383c.027.476 2.45.06 2.41-.646l-.589-10.383c-.028-.476-2.45-.06-2.41.646z"/><path d="M883.552 675.759c58.262.496 116.528.427 174.788-.208.777-.008 2.597-1.186.99-1.169-58.261.636-116.526.705-174.788.208-.782-.007-2.598 1.155-.99 1.169zM882.704 688.916a13238.05 13238.05 0 0 0 176.336-1.753c.521-.009 2.723-1.02 1.558-1a13238.05 13238.05 0 0 1-176.336 1.753c-.524.001-2.728 1.003-1.558 1zM1164.341 536.019a132.296 132.296 0 0 0 4.217 7.655c.549.923 2.849.021 2.207-1.059a132.962 132.962 0 0 1-4.217-7.655c-.481-.946-2.779-.066-2.207 1.059z"/><path d="M1171.376 543.159a47.031 47.031 0 0 1 4.673-8.074c.559-.777-.95-.765-1.3-.689-2.837.619-5.829-.916-8.743-.625-1.208.121-1.976 1.578-.308 1.412 3.207-.32 6.15 1.208 9.396.5l-1.299-.689a46.966 46.966 0 0 0-4.673 8.074c-.497 1.093 1.907.855 2.254.091z"/><path d="M1167.769 538.274a15.698 15.698 0 0 1 3.241-3.914c.43-.378.169-.917-.291-1.084-.594-.216-1.262.069-1.704.457a17.298 17.298 0 0 0-3.535 4.325c-.302.518.267.878.713.933.574.071 1.278-.206 1.576-.717zM1168.577 541.204a70.91 70.91 0 0 0 5.213-5.176c.362-.398-.321-.437-.577-.426-.49.021-1.26.198-1.61.584a70.91 70.91 0 0 1-5.213 5.176c-.417.373.367.435.577.426.538-.023 1.2-.217 1.61-.584zM1160.231 618.733c.146 3.025.216 6.051.21 9.08-.002 1.123 1.747 1.025 2.241.31 2.252-3.261 5.394-5.572 9.222-6.631.714-.198 1.561-1.38.453-1.718l-9.963-3.044c-1.093-.334-2.835 1.244-1.373 1.691l9.963 3.044.453-1.718c-4.404 1.218-8.187 3.831-10.789 7.599l2.241.31c.006-3.029-.064-6.054-.21-9.08-.064-1.31-2.503-.98-2.448.157z"/><path d="M1163.58 618.959a19.374 19.374 0 0 1-1.779 4.361c-.291.527.26.901.721.962.573.076 1.285-.204 1.573-.724a21.306 21.306 0 0 0 1.921-4.802c.297-1.102-2.163-.811-2.436.203zM1159.433 647.041l-.205 8.94c-.015.633 2.39.23 2.409-.646l.205-8.94c.016-.633-2.388-.23-2.409.646z"/><path d="m1159.378 647.468 10.344 4.33.533-.891a55.548 55.548 0 0 0-10.176 5.315c-1.048.693 1.362.56 1.884.215a50.04 50.04 0 0 1 9.178-4.786c.263-.104 1.191-.615.533-.89l-10.344-4.33c-.603-.252-2.801.681-1.952 1.037z"/><path d="M1160.898 654.336a18.2 18.2 0 0 1 4.934-5.525c.447-.332-.399-.362-.557-.35-.553.04-1.167.231-1.616.564a19.028 19.028 0 0 0-5.134 5.753c-.209.361.855.211.954.194.409-.073 1.184-.231 1.419-.636zM1163.948 654.61a12.62 12.62 0 0 1 3.933-3.681c.411-.248.625-.77.174-1.081-.485-.333-1.272-.079-1.716.189a15.081 15.081 0 0 0-4.662 4.418c-.338.492.292.81.691.849.579.058 1.247-.21 1.58-.694zM1157.785 675.939v9.147c0 .727 2.41.281 2.41-.646v-9.147c0-.727-2.41-.281-2.41.646z"/><path d="M1158.087 675.595c3.361 2.577 7.994 2.502 11.191 5.3.604.529 2.846-.392 2.244-.919-3.229-2.826-7.835-2.727-11.191-5.3-.641-.492-2.848.455-2.244.919z"/><path d="M1159.995 686.235c3.521-2.863 8.076-3.969 11.53-6.957.566-.49-1.721-.296-2.198.118-3.324 2.876-7.788 3.905-11.2 6.679-.978.795 1.403.539 1.868.16z"/><path d="M1160.733 684.479c1.424-2.411 3.169-4.586 5.176-6.536.43-.417.145-1.005-.324-1.21-.593-.259-1.28.044-1.704.456-2.14 2.08-3.943 4.416-5.46 6.984-.692 1.174 1.756 1.249 2.312.306zM1163.28 684.129l4.208-5.322c.505-.639-1.81-.341-2.192.141l-4.208 5.322c-.505.639 1.81.341 2.192-.141z"/><path d="M1248.658 748.55H15.583c-3.973 0-8.051-.267-12.016 0-.433.029-1.596.203-2.003 0 1.434.714.47.367.775-.973 1.096-4.819 0-11.198 0-16.111V9.327c0-2.135.244-4.435 0-6.557-.215-1.856.706-1.946-.986-1.32 1.547-.572 4.395 0 6.009 0H1235.14c3.721 0 7.88.524 11.572 0 .338-.048 1.431-.169 1.758 0-1.481-.768-.585-.102-.808 1.313-.837 5.314 0 11.456 0 16.821v729.694c0 .943 1.831.673 1.831-.138V12.01c0-3.107.603-6.914 0-9.975-.08-.404 0-.9 0-1.317 0-.469-.438-.591-.835-.591H52.13c-16.159 0-32.348-.29-48.505 0-.706.013-1.414 0-2.121 0-.353 0-.996.306-.996.73v737.13c0 3.107-.603 6.914 0 9.974.08.404 0 .9 0 1.317 0 .469.438.591.835.591h1196.529c16.159 0 32.348.291 48.505 0 .706-.013 1.414 0 2.121 0 1.03.002 1.387-1.319.16-1.319z" style="fill:#2b2a2a"/></svg>