<?xml version="1.0" encoding="utf-8"?>
<!-- Generator: Adobe Illustrator 27.5.0, SVG Export Plug-In . SVG Version: 6.00 Build 0)  -->
<svg version="1.1" xmlns="http://www.w3.org/2000/svg" xmlns:xlink="http://www.w3.org/1999/xlink" x="0px" y="0px"
	 viewBox="0 0 1870 1122" style="enable-background:new 0 0 1870 1122;" xml:space="preserve">
<g id="BG">
	<rect style="fill:#FFFFFF;" width="1870" height="1122"/>
</g>
<g id="Objects">
	<g>
		<g>
			<g>
				<path style="fill:#A5A7A9;" d="M286.516,574.601l-0.698,3.137h-1.149l2.391-10.464h1.32l2.329,10.464h-1.18l-0.7-3.137H286.516z
					 M288.674,573.638l-0.542-2.655c-0.155-0.745-0.296-1.614-0.419-2.389h-0.063c-0.123,0.791-0.279,1.691-0.419,2.389
					l-0.544,2.655H288.674z"/>
			</g>
			<g>
				<path style="fill:#A5A7A9;" d="M294.827,574.601l-0.698,3.137h-1.149l2.391-10.464h1.32l2.329,10.464h-1.18l-0.7-3.137H294.827z
					 M296.987,573.638l-0.544-2.655c-0.156-0.745-0.296-1.614-0.419-2.389h-0.063c-0.123,0.791-0.279,1.691-0.419,2.389L295,573.638
					H296.987z"/>
			</g>
			<g>
				<path style="fill:#A5A7A9;" d="M303.137,574.601l-0.698,3.137h-1.149l2.391-10.464h1.32l2.329,10.464h-1.18l-0.7-3.137H303.137z
					 M305.297,573.638l-0.544-2.655c-0.155-0.745-0.296-1.614-0.419-2.389h-0.063c-0.123,0.791-0.279,1.691-0.419,2.389
					l-0.542,2.655H305.297z"/>
			</g>
			<g>
				<path style="fill:#A5A7A9;" d="M314.321,569.477v3.696h3.571v0.838h-3.571v3.726h-0.868v-3.726h-3.571v-0.838h3.571v-3.696
					H314.321z"/>
			</g>
			<g>
				<path style="fill:#A5A7A9;" d="M325.134,569.477v3.696h3.571v0.838h-3.571v3.726h-0.868v-3.726h-3.571v-0.838h3.571v-3.696
					H325.134z"/>
			</g>
		</g>
		<g>
			<g>
				<path style="fill:#272525;" d="M285.376,548.157c0.535,0.349,1.466,0.63,2.259,0.63c1.631,0,2.607-1.072,2.607-2.657
					c0-1.443-0.838-2.329-2.073-3.26c-1.233-0.861-2.956-2.329-2.956-4.354c0-2.376,1.654-4.123,4.145-4.123
					c0.979,0,1.84,0.302,2.211,0.582l-0.442,1.536c-0.396-0.279-1.049-0.535-1.862-0.535c-1.538,0-2.26,1.164-2.26,2.236
					c0,1.561,0.815,2.166,2.306,3.237c1.887,1.327,2.725,2.771,2.725,4.519c0,2.7-1.91,4.401-4.401,4.401
					c-1.071,0-2.213-0.351-2.655-0.675L285.376,548.157z"/>
			</g>
			<g>
				<path style="fill:#272525;" d="M298.424,535.977v2.981h2.166v1.373h-2.166v6.685c0,1.468,0.535,1.864,1.187,1.864
					c0.279,0,0.512-0.025,0.723-0.07l0.07,1.373c-0.326,0.118-0.745,0.188-1.327,0.188c-0.7,0-1.329-0.188-1.771-0.675
					c-0.442-0.514-0.675-1.282-0.675-2.843v-6.521h-1.375v-1.373h1.375v-2.469L298.424,535.977z"/>
			</g>
			<g>
				<path style="fill:#272525;" d="M311.261,547.156c0,1.257,0.07,2.236,0.093,3.074h-1.561l-0.116-1.187h-0.047
					c-0.349,0.557-1.212,1.373-2.422,1.373c-1.98,0-2.748-1.536-2.748-4.331v-7.126h1.792v6.87c0,1.769,0.281,3.074,1.515,3.074
					c1.047,0,1.513-0.979,1.606-1.49c0.07-0.303,0.093-0.652,0.093-1.024v-7.43h1.794V547.156z"/>
			</g>
			<g>
				<path style="fill:#272525;" d="M322.887,534.113v13.415c0,0.77,0.07,2.05,0.093,2.702h-1.536l-0.118-1.42h-0.07
					c-0.372,0.815-1.164,1.606-2.351,1.606c-1.91,0-3.284-2.073-3.284-5.776c0-4.005,1.654-5.867,3.4-5.867
					c0.815,0,1.608,0.394,2.05,1.35h0.047v-6.01H322.887z M321.118,543.244c0-0.233,0-0.489-0.025-0.745
					c-0.116-1.164-0.813-2.19-1.676-2.19c-1.49,0-2.002,2.073-2.002,4.331c0,2.376,0.605,4.286,1.91,4.286
					c0.559,0,1.327-0.301,1.724-1.932c0.046-0.211,0.07-0.466,0.07-0.745V543.244z"/>
			</g>
			<g>
				<path style="fill:#272525;" d="M329.672,536.047c0.023,0.698-0.421,1.164-1.096,1.164c-0.582,0-1.024-0.466-1.024-1.164
					c0-0.7,0.466-1.164,1.049-1.164C329.251,534.883,329.672,535.347,329.672,536.047z M327.738,550.23v-11.272h1.794v11.272
					H327.738z"/>
			</g>
			<g>
				<path style="fill:#272525;" d="M341.272,544.594c0,4.356-2.027,5.822-3.751,5.822c-2.025,0-3.656-1.839-3.656-5.799
					c0-4.123,1.841-5.844,3.774-5.844C339.641,538.772,341.272,540.657,341.272,544.594z M335.659,544.594
					c0,1.862,0.326,4.401,1.957,4.401c1.536,0,1.839-2.655,1.839-4.401c0-1.724-0.303-4.379-1.887-4.379
					C335.962,540.215,335.659,542.87,335.659,544.594z"/>
			</g>
			<g>
				<path style="fill:#272525;" d="M354.719,536.908h-0.047l-2.514,1.445l-0.349-1.398l3.19-1.864h1.49v15.138h-1.769V536.908z"/>
			</g>
			<g>
				<path style="fill:#272525;" d="M367.441,543.452v1.398h-5.101v-1.398H367.441z"/>
			</g>
			<g>
				<path style="fill:#272525;" d="M376.272,543.452v1.398h-5.101v-1.398H376.272z"/>
			</g>
		</g>
	</g>
	<g>
		<g>
			<rect x="252.537" y="326.227" style="fill:#C4C4C4;" width="422.549" height="167.842"/>
		</g>
		<g>
			<rect x="252.537" y="326.227" style="fill:#D9EBEA;" width="422.549" height="69.25"/>
		</g>
	</g>
	<g>
		<g>
			<path style="fill:#272525;" d="M419.647,304.84c-0.444,0.233-1.142,0.381-2.028,0.381c-2.789,0-4.775-2.24-4.775-7.077
				c0-5.621,2.789-7.417,5.028-7.417c0.866,0,1.479,0.169,1.775,0.36l-0.359,1.373c-0.339-0.148-0.697-0.296-1.436-0.296
				c-1.522,0-3.296,1.479-3.296,5.831c0,4.352,1.605,5.787,3.337,5.787c0.612,0,1.162-0.148,1.5-0.317L419.647,304.84z"/>
		</g>
		<g>
			<path style="fill:#272525;" d="M423.196,297.511c0-0.867-0.063-1.881-0.084-2.642h1.457l0.084,1.606h0.043
				c0.338-0.973,1.204-1.775,2.155-1.775c0.126,0,0.232,0.021,0.337,0.021v1.669c-0.105-0.021-0.211-0.021-0.337-0.021
				c-1.035,0-1.796,0.95-1.965,2.133c-0.042,0.275-0.063,0.592-0.063,0.929v5.662h-1.627V297.511z"/>
		</g>
		<g>
			<path style="fill:#272525;" d="M431.413,300.13c0.022,3.127,1.247,3.802,2.43,3.802c0.697,0,1.288-0.169,1.69-0.4l0.254,1.204
				c-0.571,0.317-1.437,0.485-2.24,0.485c-2.451,0-3.719-2.008-3.719-5.133c0-3.317,1.395-5.387,3.444-5.387
				c2.092,0,2.916,2.196,2.916,4.521c0,0.379,0,0.654-0.021,0.908H431.413z M434.625,298.926c0.043-2.05-0.74-2.958-1.521-2.958
				c-1.056,0-1.605,1.565-1.669,2.958H434.625z"/>
		</g>
		<g>
			<path style="fill:#272525;" d="M444.09,305.095l-0.106-1.077h-0.063c-0.444,0.781-1.163,1.246-2.028,1.246
				c-1.374,0-2.43-1.163-2.43-2.915c0-2.556,2.05-3.698,4.352-3.719v-0.317c0-1.373-0.338-2.325-1.626-2.325
				c-0.634,0-1.204,0.212-1.691,0.529l-0.359-1.142c0.423-0.317,1.374-0.675,2.388-0.675c2.049,0,2.936,1.352,2.936,3.654v4.417
				c0,0.781,0,1.669,0.106,2.323H444.09z M443.858,299.813c-0.845,0-2.81,0.148-2.81,2.367c0,1.329,0.676,1.817,1.247,1.817
				c0.719,0,1.331-0.529,1.521-1.544c0.043-0.19,0.043-0.4,0.043-0.569V299.813z"/>
		</g>
		<g>
			<path style="fill:#272525;" d="M451.655,292.165v2.704h1.965v1.246h-1.965v6.065c0,1.329,0.486,1.69,1.077,1.69
				c0.253,0,0.465-0.021,0.655-0.065l0.064,1.248c-0.296,0.104-0.676,0.169-1.204,0.169c-0.634,0-1.205-0.169-1.606-0.613
				c-0.401-0.465-0.613-1.162-0.613-2.577v-5.917h-1.247v-1.246h1.247v-2.24L451.655,292.165z"/>
		</g>
		<g>
			<path style="fill:#272525;" d="M458.922,292.228c0.021,0.635-0.381,1.056-0.994,1.056c-0.528,0-0.929-0.421-0.929-1.056
				c0-0.633,0.423-1.056,0.951-1.056C458.541,291.172,458.922,291.595,458.922,292.228z M457.168,305.095V294.87h1.627v10.225
				H457.168z"/>
		</g>
		<g>
			<path style="fill:#272525;" d="M463.992,294.87l1.289,5.746c0.148,0.698,0.318,1.606,0.444,2.494h0.064
				c0.105-0.846,0.275-1.712,0.423-2.494l1.268-5.746h1.605l-2.662,10.225h-1.457l-2.661-10.225H463.992z"/>
		</g>
		<g>
			<path style="fill:#272525;" d="M473.478,300.13c0.022,3.127,1.247,3.802,2.43,3.802c0.697,0,1.289-0.169,1.69-0.4l0.254,1.204
				c-0.571,0.317-1.437,0.485-2.24,0.485c-2.451,0-3.719-2.008-3.719-5.133c0-3.317,1.395-5.387,3.444-5.387
				c2.092,0,2.916,2.196,2.916,4.521c0,0.379,0,0.654-0.021,0.908H473.478z M476.69,298.926c0.043-2.05-0.74-2.958-1.521-2.958
				c-1.056,0-1.606,1.565-1.669,2.958H476.69z"/>
		</g>
		<g>
			<path style="fill:#272525;" d="M591.705,298.207c0,5.006-1.584,7.056-3.571,7.056c-2.133,0-3.422-2.535-3.422-7.014
				c0-4.625,1.373-7.056,3.612-7.056C590.543,291.193,591.705,293.834,591.705,298.207z M586.339,298.228
				c0,3.317,0.571,5.642,1.923,5.642c1.289,0,1.817-2.346,1.817-5.642c0-3.21-0.528-5.64-1.838-5.64
				C586.93,292.588,586.339,294.932,586.339,298.228z"/>
		</g>
		<g>
			<path style="fill:#272525;" d="M601.952,298.207c0,5.006-1.584,7.056-3.571,7.056c-2.133,0-3.422-2.535-3.422-7.014
				c0-4.625,1.373-7.056,3.613-7.056C600.79,291.193,601.952,293.834,601.952,298.207z M596.586,298.228
				c0,3.317,0.571,5.642,1.923,5.642c1.289,0,1.817-2.346,1.817-5.642c0-3.21-0.528-5.64-1.838-5.64
				C597.177,292.588,596.586,294.932,596.586,298.228z"/>
		</g>
		<g>
			<path style="fill:#272525;" d="M605.671,304.038c0-0.719,0.485-1.225,1.077-1.225c0.655,0,1.077,0.486,1.077,1.225
				c0,0.74-0.401,1.225-1.077,1.225C606.135,305.263,605.671,304.778,605.671,304.038z"/>
		</g>
		<g>
			<path style="fill:#272525;" d="M618.41,298.207c0,5.006-1.584,7.056-3.571,7.056c-2.133,0-3.422-2.535-3.422-7.014
				c0-4.625,1.373-7.056,3.612-7.056C617.248,291.193,618.41,293.834,618.41,298.207z M613.044,298.228
				c0,3.317,0.571,5.642,1.923,5.642c1.289,0,1.817-2.346,1.817-5.642c0-3.21-0.528-5.64-1.838-5.64
				C613.635,292.588,613.044,294.932,613.044,298.228z"/>
		</g>
		<g>
			<path style="fill:#272525;" d="M628.657,298.207c0,5.006-1.584,7.056-3.571,7.056c-2.133,0-3.422-2.535-3.422-7.014
				c0-4.625,1.373-7.056,3.612-7.056C627.495,291.193,628.657,293.834,628.657,298.207z M623.291,298.228
				c0,3.317,0.571,5.642,1.923,5.642c1.289,0,1.817-2.346,1.817-5.642c0-3.21-0.528-5.64-1.837-5.64
				C623.882,292.588,623.291,294.932,623.291,298.228z"/>
		</g>
	</g>
	<g>
		<g>
			<path style="fill:#FFFFFF;" d="M314.183,357.788v5.088h3.326v-5.088h1.356v11.863h-1.356v-5.545h-3.326v5.545h-1.355v-11.863
				H314.183z"/>
		</g>
		<g>
			<path style="fill:#FFFFFF;" d="M328.97,363.632c0,4.453-1.531,6.159-3.432,6.159c-1.971,0-3.291-2.094-3.291-6.089
				c0-3.925,1.408-6.055,3.485-6.055C327.756,357.647,328.97,359.847,328.97,363.632z M323.655,363.719
				c0,2.446,0.475,4.875,1.971,4.875c1.531,0,1.936-2.587,1.936-4.91c0-2.219-0.405-4.841-1.954-4.841
				C324.13,358.844,323.655,361.309,323.655,363.719z"/>
		</g>
		<g>
			<path style="fill:#FFFFFF;" d="M339.534,364.546c-0.088-1.566-0.175-3.307-0.123-4.646h-0.07c-0.264,1.32-0.581,2.729-0.95,4.119
				l-1.461,5.562h-0.863l-1.39-5.332c-0.387-1.515-0.74-2.975-0.968-4.348h-0.053c0,1.39-0.07,3.046-0.14,4.735l-0.228,5.016h-1.215
				l0.703-11.863h1.461l1.39,5.422c0.405,1.566,0.704,2.729,0.951,4.083h0.052c0.229-1.354,0.493-2.48,0.881-4.083l1.337-5.422
				h1.514l0.686,11.863h-1.268L339.534,364.546z"/>
		</g>
		<g>
			<path style="fill:#FFFFFF;" d="M348.989,364.019h-2.974v4.453h3.379v1.18h-4.734v-11.863h4.523v1.18h-3.168v3.908h2.974V364.019z
				"/>
		</g>
		<g>
			<path style="fill:#FFFFFF;" d="M429.573,357.964c0.563-0.14,1.232-0.228,1.988-0.228c1.074,0,1.989,0.228,2.623,0.827
				c0.51,0.474,0.775,1.18,0.775,2.023c0,1.216-0.668,2.183-1.831,2.64v0.036c1.373,0.37,2.201,1.479,2.201,3.026
				c0,0.986-0.317,1.779-0.845,2.359c-0.669,0.757-1.778,1.073-3.133,1.073c-0.881,0-1.408-0.053-1.778-0.123V357.964z
				 M430.928,362.822h0.616c1.108,0,2.059-0.846,2.059-2.095c0-1.09-0.511-1.936-1.954-1.936c-0.317,0-0.563,0.036-0.722,0.089
				V362.822z M430.928,368.578c0.158,0.034,0.387,0.07,0.686,0.07c1.408,0,2.323-0.827,2.323-2.359c0-1.637-1.143-2.41-2.411-2.429
				h-0.598V368.578z"/>
		</g>
		<g>
			<path style="fill:#FFFFFF;" d="M438.658,357.788h1.355v10.72h3.344v1.144h-4.699V357.788z"/>
		</g>
		<g>
			<path style="fill:#FFFFFF;" d="M451.966,363.632c0,4.453-1.531,6.159-3.432,6.159c-1.971,0-3.291-2.094-3.291-6.089
				c0-3.925,1.408-6.055,3.485-6.055C450.751,357.647,451.966,359.847,451.966,363.632z M446.65,363.719
				c0,2.446,0.475,4.875,1.971,4.875c1.531,0,1.936-2.587,1.936-4.91c0-2.219-0.405-4.841-1.954-4.841
				C447.125,358.844,446.65,361.309,446.65,363.719z"/>
		</g>
		<g>
			<path style="fill:#FFFFFF;" d="M461.191,369.351c-0.51,0.212-1.355,0.406-2.111,0.406c-1.038,0-2.006-0.283-2.798-1.162
				c-0.863-0.916-1.444-2.552-1.426-4.716c0.018-4.612,2.376-6.195,4.471-6.195c0.739,0,1.32,0.14,1.69,0.334l-0.3,1.162
				c-0.317-0.159-0.739-0.283-1.373-0.283c-1.478,0-3.08,1.179-3.08,4.858c0,3.66,1.39,4.839,2.816,4.839
				c0.458,0,0.721-0.087,0.827-0.14v-3.872h-1.531v-1.126h2.816V369.351z"/>
		</g>
		<g>
			<path style="fill:#FFFFFF;" d="M541.442,368.085c0.405,0.264,1.109,0.476,1.708,0.476c1.232,0,1.971-0.81,1.971-2.008
				c0-1.09-0.633-1.76-1.566-2.463c-0.933-0.65-2.236-1.76-2.236-3.29c0-1.796,1.25-3.116,3.133-3.116
				c0.74,0,1.391,0.228,1.672,0.44l-0.335,1.16c-0.299-0.21-0.792-0.404-1.408-0.404c-1.161,0-1.707,0.88-1.707,1.69
				c0,1.18,0.615,1.637,1.742,2.446c1.426,1.003,2.059,2.094,2.059,3.415c0,2.04-1.443,3.326-3.326,3.326
				c-0.81,0-1.672-0.266-2.006-0.51L541.442,368.085z"/>
		</g>
		<g>
			<path style="fill:#FFFFFF;" d="M554.152,364.019h-2.974v4.453h3.379v1.18h-4.734v-11.863h4.523v1.18h-3.168v3.908h2.974V364.019z
				"/>
		</g>
		<g>
			<path style="fill:#FFFFFF;" d="M557.815,357.964c0.58-0.157,1.285-0.228,1.953-0.228c1.18,0,2.059,0.247,2.676,0.844
				c0.58,0.599,0.827,1.39,0.827,2.323c0,1.513-0.704,2.499-1.901,3.046v0.034c0.88,0.266,1.338,1.109,1.602,2.659
				c0.264,1.637,0.51,2.64,0.669,3.009h-1.373c-0.176-0.353-0.405-1.479-0.633-2.939c-0.265-1.619-0.775-2.236-1.936-2.236h-0.528
				v5.175h-1.355V357.964z M559.17,363.439h0.563c1.303,0,2.165-0.95,2.165-2.376c0-1.373-0.563-2.219-2.023-2.236
				c-0.265,0-0.528,0.017-0.705,0.07V363.439z"/>
		</g>
		<g>
			<path style="fill:#FFFFFF;" d="M568.713,369.651l-2.711-11.863h1.443l1.161,5.562c0.282,1.339,0.633,3.046,0.845,4.559h0.053
				c0.176-1.53,0.51-3.186,0.792-4.593l1.126-5.528h1.443l-2.763,11.863H568.713z"/>
		</g>
		<g>
			<path style="fill:#FFFFFF;" d="M577.304,357.788v11.863h-1.355v-11.863H577.304z"/>
		</g>
		<g>
			<path style="fill:#FFFFFF;" d="M586.387,369.44c-0.37,0.193-0.95,0.317-1.69,0.317c-2.323,0-3.977-1.866-3.977-5.898
				c0-4.68,2.323-6.176,4.189-6.176c0.722,0,1.232,0.14,1.478,0.3l-0.299,1.143c-0.282-0.123-0.581-0.247-1.198-0.247
				c-1.267,0-2.745,1.233-2.745,4.858c0,3.624,1.337,4.822,2.78,4.822c0.511,0,0.968-0.123,1.25-0.265L586.387,369.44z"/>
		</g>
		<g>
			<path style="fill:#FFFFFF;" d="M593.87,364.019h-2.974v4.453h3.379v1.18h-4.734v-11.863h4.523v1.18h-3.168v3.908h2.974V364.019z"
				/>
		</g>
	</g>
	<g>
		<path style="fill:#6D6E70;" d="M676.057,1031H251.566V270.088h424.491V1031z M253.508,1029.058h420.608V272.03H253.508V1029.058z"
			/>
	</g>
	<g>
		<rect x="260.676" y="593.109" style="fill:#6D6E70;" width="405.867" height="1.456"/>
	</g>
	<g>
		<rect x="260.676" y="769.171" style="fill:#6D6E70;" width="405.867" height="1.456"/>
	</g>
	<g>
		<rect x="260.676" y="858.964" style="fill:#6D6E70;" width="405.867" height="1.456"/>
	</g>
	<g>
		<rect x="260.676" y="946.995" style="fill:#6D6E70;" width="405.867" height="1.456"/>
	</g>
	<g>
		<rect x="260.676" y="681.14" style="fill:#6D6E70;" width="405.867" height="1.456"/>
	</g>
	<g>
		<g>
			<rect x="278.665" y="297.67" style="fill:#231F20;" width="33.107" height="1.942"/>
		</g>
		<g>
			<g>
				<polygon style="fill:#231F20;" points="285.099,306.583 286.424,305.161 279.41,298.643 286.424,292.124 285.099,290.701 
					276.559,298.643 				"/>
			</g>
		</g>
	</g>
	<g>
		<g>
			<path style="fill:#FFFFFF;" d="M804.316,357.788v5.088h3.326v-5.088h1.356v11.863h-1.356v-5.545h-3.326v5.545h-1.355v-11.863
				H804.316z"/>
		</g>
		<g>
			<path style="fill:#FFFFFF;" d="M819.104,363.632c0,4.453-1.531,6.159-3.432,6.159c-1.971,0-3.291-2.094-3.291-6.089
				c0-3.925,1.408-6.055,3.484-6.055C817.889,357.647,819.104,359.847,819.104,363.632z M813.788,363.719
				c0,2.446,0.475,4.875,1.971,4.875c1.531,0,1.936-2.587,1.936-4.91c0-2.219-0.405-4.841-1.954-4.841
				C814.263,358.844,813.788,361.309,813.788,363.719z"/>
		</g>
		<g>
			<path style="fill:#FFFFFF;" d="M829.667,364.546c-0.087-1.566-0.176-3.307-0.123-4.646h-0.07c-0.264,1.32-0.58,2.729-0.95,4.119
				l-1.462,5.562h-0.861l-1.392-5.332c-0.387-1.515-0.738-2.975-0.967-4.348h-0.053c0,1.39-0.07,3.046-0.14,4.735l-0.229,5.016
				h-1.214l0.703-11.863h1.46l1.392,5.422c0.404,1.566,0.703,2.729,0.95,4.083h0.053c0.227-1.354,0.493-2.48,0.88-4.083l1.337-5.422
				h1.513l0.687,11.863h-1.267L829.667,364.546z"/>
		</g>
		<g>
			<path style="fill:#FFFFFF;" d="M839.122,364.019h-2.973v4.453h3.379v1.18h-4.735v-11.863h4.523v1.18h-3.167v3.908h2.973V364.019z
				"/>
		</g>
		<g>
			<path style="fill:#FFFFFF;" d="M919.706,357.964c0.563-0.14,1.233-0.228,1.989-0.228c1.073,0,1.987,0.228,2.623,0.827
				c0.51,0.474,0.774,1.18,0.774,2.023c0,1.216-0.669,2.183-1.83,2.64v0.036c1.373,0.37,2.2,1.479,2.2,3.026
				c0,0.986-0.317,1.779-0.846,2.359c-0.668,0.757-1.777,1.073-3.133,1.073c-0.88,0-1.407-0.053-1.777-0.123V357.964z
				 M921.062,362.822h0.614c1.109,0,2.059-0.846,2.059-2.095c0-1.09-0.51-1.936-1.953-1.936c-0.317,0-0.563,0.036-0.721,0.089
				V362.822z M921.062,368.578c0.157,0.034,0.387,0.07,0.686,0.07c1.407,0,2.323-0.827,2.323-2.359c0-1.637-1.145-2.41-2.412-2.429
				h-0.597V368.578z"/>
		</g>
		<g>
			<path style="fill:#FFFFFF;" d="M928.791,357.788h1.356v10.72h3.343v1.144h-4.699V357.788z"/>
		</g>
		<g>
			<path style="fill:#FFFFFF;" d="M942.098,363.632c0,4.453-1.53,6.159-3.43,6.159c-1.972,0-3.292-2.094-3.292-6.089
				c0-3.925,1.407-6.055,3.485-6.055C940.884,357.647,942.098,359.847,942.098,363.632z M936.782,363.719
				c0,2.446,0.476,4.875,1.972,4.875c1.53,0,1.936-2.587,1.936-4.91c0-2.219-0.406-4.841-1.953-4.841
				C937.258,358.844,936.782,361.309,936.782,363.719z"/>
		</g>
		<g>
			<path style="fill:#FFFFFF;" d="M951.323,369.351c-0.51,0.212-1.354,0.406-2.112,0.406c-1.037,0-2.006-0.283-2.797-1.162
				c-0.863-0.916-1.443-2.552-1.426-4.716c0.017-4.612,2.376-6.195,4.47-6.195c0.74,0,1.322,0.14,1.69,0.334l-0.298,1.162
				c-0.317-0.159-0.74-0.283-1.373-0.283c-1.479,0-3.08,1.179-3.08,4.858c0,3.66,1.39,4.839,2.814,4.839
				c0.459,0,0.722-0.087,0.829-0.14v-3.872h-1.532v-1.126h2.816V369.351z"/>
		</g>
		<g>
			<path style="fill:#FFFFFF;" d="M1031.576,368.085c0.404,0.264,1.107,0.476,1.707,0.476c1.233,0,1.97-0.81,1.97-2.008
				c0-1.09-0.633-1.76-1.566-2.463c-0.931-0.65-2.234-1.76-2.234-3.29c0-1.796,1.25-3.116,3.133-3.116c0.74,0,1.39,0.228,1.671,0.44
				l-0.334,1.16c-0.3-0.21-0.793-0.404-1.407-0.404c-1.163,0-1.709,0.88-1.709,1.69c0,1.18,0.616,1.637,1.743,2.446
				c1.426,1.003,2.059,2.094,2.059,3.415c0,2.04-1.443,3.326-3.326,3.326c-0.81,0-1.673-0.266-2.006-0.51L1031.576,368.085z"/>
		</g>
		<g>
			<path style="fill:#FFFFFF;" d="M1044.285,364.019h-2.973v4.453h3.379v1.18h-4.735v-11.863h4.523v1.18h-3.167v3.908h2.973V364.019
				z"/>
		</g>
		<g>
			<path style="fill:#FFFFFF;" d="M1047.949,357.964c0.58-0.157,1.284-0.228,1.953-0.228c1.179,0,2.059,0.247,2.676,0.844
				c0.58,0.599,0.827,1.39,0.827,2.323c0,1.513-0.703,2.499-1.9,3.046v0.034c0.88,0.266,1.337,1.109,1.601,2.659
				c0.264,1.637,0.51,2.64,0.669,3.009h-1.373c-0.176-0.353-0.404-1.479-0.633-2.939c-0.264-1.619-0.774-2.236-1.936-2.236h-0.527
				v5.175h-1.356V357.964z M1049.304,363.439h0.563c1.301,0,2.164-0.95,2.164-2.376c0-1.373-0.563-2.219-2.023-2.236
				c-0.264,0-0.529,0.017-0.704,0.07V363.439z"/>
		</g>
		<g>
			<path style="fill:#FFFFFF;" d="M1058.847,369.651l-2.71-11.863h1.443l1.161,5.562c0.282,1.339,0.633,3.046,0.846,4.559h0.051
				c0.176-1.53,0.512-3.186,0.793-4.593l1.126-5.528H1063l-2.763,11.863H1058.847z"/>
		</g>
		<g>
			<path style="fill:#FFFFFF;" d="M1067.439,357.788v11.863h-1.356v-11.863H1067.439z"/>
		</g>
		<g>
			<path style="fill:#FFFFFF;" d="M1076.522,369.44c-0.37,0.193-0.952,0.317-1.69,0.317c-2.325,0-3.978-1.866-3.978-5.898
				c0-4.68,2.323-6.176,4.189-6.176c0.721,0,1.233,0.14,1.479,0.3l-0.3,1.143c-0.282-0.123-0.58-0.247-1.197-0.247
				c-1.269,0-2.746,1.233-2.746,4.858c0,3.624,1.337,4.822,2.78,4.822c0.51,0,0.969-0.123,1.25-0.265L1076.522,369.44z"/>
		</g>
		<g>
			<path style="fill:#FFFFFF;" d="M1084.003,364.019h-2.973v4.453h3.379v1.18h-4.735v-11.863h4.523v1.18h-3.167v3.908h2.973V364.019
				z"/>
		</g>
	</g>
	<g>
		<path style="fill:#6D6E70;" d="M1166.188,1031H741.7V270.088h424.488V1031z M743.641,1029.058h420.605V272.03H743.641V1029.058z"
			/>
	</g>
	<g>
		<g>
			<g>
				<rect x="742.671" y="271.059" style="fill:#FFFFFF;" width="422.546" height="758.97"/>
			</g>
			<g>
				<g>
					<rect x="742.671" y="326.227" style="fill:#C4C4C4;" width="422.546" height="167.842"/>
				</g>
				<g>
					<rect x="742.671" y="326.227" style="fill:#D9EBEA;" width="422.546" height="69.25"/>
				</g>
			</g>
			<g>
				<g>
					<path style="fill:#FFFFFF;" d="M1004.424,457.864H783.98v-26.66h220.444V457.864z M784.951,456.893h218.502v-24.719H784.951
						V456.893z"/>
				</g>
				<g>
					<path style="fill:#FFFFFF;" d="M1137.861,457.864h-120.784v-26.66h120.784V457.864z M1018.047,456.893h118.842v-24.719
						h-118.842V456.893z"/>
				</g>
			</g>
		</g>
		<g>
			<g>
				<g>
					<path style="fill:#272525;" d="M912.881,301.613c-0.444,0.233-1.142,0.381-2.028,0.381c-2.789,0-4.775-2.24-4.775-7.077
						c0-5.621,2.789-7.417,5.028-7.417c0.866,0,1.479,0.169,1.775,0.36l-0.359,1.373c-0.339-0.148-0.697-0.296-1.436-0.296
						c-1.522,0-3.296,1.479-3.296,5.831c0,4.352,1.605,5.788,3.338,5.788c0.612,0,1.162-0.148,1.5-0.317L912.881,301.613z"/>
				</g>
				<g>
					<path style="fill:#272525;" d="M916.43,294.284c0-0.867-0.063-1.881-0.084-2.642h1.457l0.084,1.606h0.043
						c0.338-0.973,1.204-1.775,2.155-1.775c0.126,0,0.232,0.021,0.338,0.021v1.669c-0.105-0.021-0.211-0.021-0.338-0.021
						c-1.035,0-1.796,0.95-1.966,2.133c-0.042,0.275-0.063,0.592-0.063,0.929v5.662h-1.627V294.284z"/>
				</g>
				<g>
					<path style="fill:#272525;" d="M924.648,296.902c0.022,3.127,1.247,3.802,2.43,3.802c0.697,0,1.289-0.169,1.69-0.4l0.254,1.204
						c-0.571,0.317-1.438,0.485-2.24,0.485c-2.451,0-3.719-2.008-3.719-5.133c0-3.317,1.395-5.387,3.444-5.387
						c2.092,0,2.916,2.196,2.916,4.521c0,0.379,0,0.654-0.021,0.908H924.648z M927.859,295.698c0.043-2.05-0.74-2.958-1.521-2.958
						c-1.056,0-1.605,1.564-1.669,2.958H927.859z"/>
				</g>
				<g>
					<path style="fill:#272525;" d="M937.325,301.867l-0.106-1.077h-0.063c-0.444,0.781-1.162,1.246-2.028,1.246
						c-1.374,0-2.43-1.162-2.43-2.915c0-2.556,2.05-3.698,4.352-3.719v-0.317c0-1.373-0.338-2.325-1.626-2.325
						c-0.634,0-1.204,0.212-1.691,0.529l-0.359-1.142c0.423-0.317,1.374-0.675,2.388-0.675c2.049,0,2.936,1.352,2.936,3.654v4.417
						c0,0.781,0,1.669,0.106,2.323H937.325z M937.093,296.586c-0.845,0-2.81,0.148-2.81,2.367c0,1.329,0.676,1.817,1.247,1.817
						c0.719,0,1.331-0.529,1.521-1.544c0.043-0.19,0.043-0.4,0.043-0.569V296.586z"/>
				</g>
				<g>
					<path style="fill:#272525;" d="M944.889,288.938v2.704h1.965v1.246h-1.965v6.064c0,1.329,0.486,1.69,1.077,1.69
						c0.253,0,0.465-0.021,0.655-0.064l0.064,1.248c-0.296,0.104-0.676,0.169-1.204,0.169c-0.634,0-1.205-0.169-1.606-0.612
						c-0.401-0.465-0.612-1.162-0.612-2.577v-5.917h-1.247v-1.246h1.247v-2.24L944.889,288.938z"/>
				</g>
				<g>
					<path style="fill:#272525;" d="M952.157,289c0.021,0.635-0.381,1.056-0.994,1.056c-0.528,0-0.929-0.421-0.929-1.056
						c0-0.633,0.423-1.056,0.951-1.056C951.776,287.944,952.157,288.367,952.157,289z M950.403,301.867v-10.225h1.627v10.225
						H950.403z"/>
				</g>
				<g>
					<path style="fill:#272525;" d="M957.227,291.642l1.289,5.746c0.148,0.698,0.318,1.606,0.444,2.494h0.063
						c0.105-0.846,0.275-1.712,0.423-2.494l1.268-5.746h1.605l-2.663,10.225h-1.457l-2.661-10.225H957.227z"/>
				</g>
				<g>
					<path style="fill:#272525;" d="M966.713,296.902c0.022,3.127,1.247,3.802,2.43,3.802c0.697,0,1.289-0.169,1.69-0.4l0.254,1.204
						c-0.571,0.317-1.437,0.485-2.24,0.485c-2.451,0-3.719-2.008-3.719-5.133c0-3.317,1.395-5.387,3.444-5.387
						c2.092,0,2.916,2.196,2.916,4.521c0,0.379,0,0.654-0.021,0.908H966.713z M969.924,295.698c0.043-2.05-0.74-2.958-1.521-2.958
						c-1.056,0-1.606,1.564-1.669,2.958H969.924z"/>
				</g>
				<g>
					<path style="fill:#272525;" d="M1084.94,294.979c0,5.006-1.584,7.056-3.571,7.056c-2.133,0-3.422-2.535-3.422-7.014
						c0-4.625,1.373-7.056,3.613-7.056C1083.778,287.965,1084.94,290.607,1084.94,294.979z M1079.573,295
						c0,3.317,0.571,5.642,1.923,5.642c1.288,0,1.817-2.346,1.817-5.642c0-3.211-0.528-5.64-1.838-5.64
						C1080.165,289.361,1079.573,291.705,1079.573,295z"/>
				</g>
				<g>
					<path style="fill:#272525;" d="M1095.187,294.979c0,5.006-1.584,7.056-3.571,7.056c-2.133,0-3.422-2.535-3.422-7.014
						c0-4.625,1.373-7.056,3.612-7.056C1094.024,287.965,1095.187,290.607,1095.187,294.979z M1089.82,295
						c0,3.317,0.571,5.642,1.923,5.642c1.289,0,1.817-2.346,1.817-5.642c0-3.211-0.528-5.64-1.838-5.64
						C1090.412,289.361,1089.82,291.705,1089.82,295z"/>
				</g>
				<g>
					<path style="fill:#272525;" d="M1098.906,300.811c0-0.719,0.485-1.225,1.077-1.225c0.655,0,1.077,0.485,1.077,1.225
						s-0.401,1.225-1.077,1.225C1099.37,302.036,1098.906,301.55,1098.906,300.811z"/>
				</g>
				<g>
					<path style="fill:#272525;" d="M1111.645,294.979c0,5.006-1.584,7.056-3.571,7.056c-2.133,0-3.422-2.535-3.422-7.014
						c0-4.625,1.373-7.056,3.612-7.056C1110.483,287.965,1111.645,290.607,1111.645,294.979z M1106.278,295
						c0,3.317,0.571,5.642,1.923,5.642c1.289,0,1.817-2.346,1.817-5.642c0-3.211-0.528-5.64-1.837-5.64
						C1106.87,289.361,1106.278,291.705,1106.278,295z"/>
				</g>
				<g>
					<path style="fill:#272525;" d="M1121.892,294.979c0,5.006-1.584,7.056-3.571,7.056c-2.133,0-3.422-2.535-3.422-7.014
						c0-4.625,1.373-7.056,3.613-7.056C1120.729,287.965,1121.892,290.607,1121.892,294.979z M1116.525,295
						c0,3.317,0.571,5.642,1.923,5.642c1.288,0,1.817-2.346,1.817-5.642c0-3.211-0.528-5.64-1.837-5.64
						C1117.117,289.361,1116.525,291.705,1116.525,295z"/>
				</g>
			</g>
			<g>
				<g>
					<rect x="768.799" y="297.67" style="fill:#231F20;" width="33.105" height="1.942"/>
				</g>
				<g>
					<g>
						<polygon style="fill:#231F20;" points="775.233,306.583 776.558,305.161 769.544,298.643 776.558,292.124 775.233,290.701 
							766.693,298.643 						"/>
					</g>
				</g>
			</g>
		</g>
	</g>
	<g>
		<g>
			<path style="fill:#272525;" d="M251.566,92.234V91h11.395v1.234H251.566z"/>
		</g>
		<g>
			<path style="fill:#272525;" d="M265.664,92.234V91h11.395v1.234H265.664z"/>
		</g>
		<g>
			<path style="fill:#272525;" d="M279.761,92.234V91h11.395v1.234H279.761z"/>
		</g>
		<g>
			<path style="fill:#272525;" d="M253.43,130.333H259c2.657,0,4.71,0.719,6.163,2.156c1.453,1.436,2.179,3.476,2.179,6.116
				c0,2.657-0.726,4.707-2.179,6.152c-1.453,1.445-3.506,2.167-6.163,2.167h-5.569V130.333z M258.884,145.294
				c2.143,0,3.755-0.559,4.834-1.678c1.081-1.119,1.621-2.788,1.621-5.01c0-4.428-2.152-6.641-6.455-6.641h-3.542v13.329H258.884z"
				/>
		</g>
		<g>
			<path style="fill:#272525;" d="M282.721,141.006h-8.6c0.017,1.491,0.362,2.617,1.037,3.379c0.677,0.76,1.659,1.142,2.949,1.142
				c1.365,0,2.625-0.459,3.774-1.375l0.63,1.375c-0.512,0.482-1.168,0.861-1.968,1.142c-0.8,0.279-1.619,0.419-2.46,0.419
				c-1.832,0-3.269-0.54-4.31-1.619c-1.041-1.079-1.561-2.56-1.561-4.439c0-1.197,0.233-2.257,0.698-3.18
				c0.466-0.924,1.119-1.642,1.959-2.156c0.838-0.512,1.794-0.768,2.865-0.768c1.553,0,2.772,0.508,3.658,1.527
				c0.886,1.016,1.329,2.42,1.329,4.206V141.006z M275.369,137.278c-0.614,0.59-1.007,1.42-1.178,2.494h6.829
				c-0.093-1.104-0.417-1.942-0.967-2.518c-0.552-0.573-1.318-0.861-2.296-0.861C276.778,136.392,275.982,136.688,275.369,137.278z"
				/>
		</g>
		<g>
			<path style="fill:#272525;" d="M287.196,145.572l0.628-1.398c0.637,0.497,1.282,0.855,1.934,1.071
				c0.652,0.218,1.382,0.326,2.19,0.326c0.886,0,1.557-0.152,2.016-0.453c0.459-0.303,0.688-0.742,0.688-1.318
				c0-0.465-0.156-0.838-0.467-1.117c-0.311-0.281-0.823-0.497-1.538-0.652l-1.982-0.467c-0.978-0.218-1.735-0.607-2.272-1.166
				c-0.535-0.559-0.804-1.227-0.804-2.002c0-1.026,0.411-1.86,1.236-2.505c0.823-0.645,1.91-0.967,3.262-0.967
				c0.823,0,1.6,0.131,2.331,0.396c0.73,0.264,1.343,0.645,1.841,1.142l-0.63,1.375c-1.104-0.918-2.283-1.375-3.542-1.375
				c-0.838,0-1.487,0.159-1.946,0.478c-0.459,0.319-0.688,0.764-0.688,1.339c0,0.482,0.144,0.863,0.432,1.142
				c0.286,0.281,0.749,0.499,1.386,0.652l1.98,0.489c1.089,0.25,1.896,0.633,2.423,1.155c0.529,0.52,0.793,1.198,0.793,2.038
				c0,1.009-0.411,1.817-1.234,2.423c-0.823,0.605-1.942,0.908-3.357,0.908C289.906,147.087,288.345,146.583,287.196,145.572z"/>
		</g>
		<g>
			<path style="fill:#272525;" d="M301.618,130.24h2.308v2.143h-2.308V130.24z M301.804,146.924v-11.721h1.889v11.721H301.804z"/>
		</g>
		<g>
			<path style="fill:#272525;" d="M320.12,135.203v11.628c0,1.739-0.446,3.055-1.339,3.95c-0.893,0.893-2.211,1.339-3.95,1.339
				c-1.786,0-3.324-0.404-4.614-1.212l0.326-1.538c0.745,0.419,1.449,0.722,2.109,0.908c0.66,0.188,1.386,0.281,2.179,0.281
				c1.134,0,1.989-0.3,2.564-0.897c0.575-0.599,0.861-1.489,0.861-2.668v-2.772c-0.357,0.745-0.882,1.324-1.572,1.735
				c-0.692,0.411-1.511,0.618-2.458,0.618c-1.026,0-1.938-0.241-2.738-0.722c-0.8-0.482-1.418-1.166-1.853-2.052
				c-0.436-0.886-0.652-1.902-0.652-3.051c0-1.149,0.216-2.167,0.652-3.053c0.434-0.886,1.052-1.568,1.853-2.05
				c0.8-0.482,1.712-0.723,2.738-0.723c0.931,0,1.743,0.201,2.435,0.605c0.69,0.404,1.216,0.971,1.572,1.701v-2.027H320.12z
				 M317.266,143.86c0.645-0.753,0.967-1.79,0.967-3.11c0-1.322-0.322-2.357-0.967-3.112c-0.645-0.753-1.534-1.13-2.668-1.13
				c-1.149,0-2.054,0.377-2.714,1.13c-0.662,0.755-0.992,1.79-0.992,3.112c0,1.32,0.33,2.357,0.992,3.11
				c0.66,0.755,1.565,1.13,2.714,1.13C315.732,144.99,316.621,144.615,317.266,143.86z"/>
		</g>
		<g>
			<path style="fill:#272525;" d="M336.152,139.561v7.363h-1.887v-7.27c0-1.087-0.218-1.883-0.654-2.387
				c-0.434-0.504-1.117-0.758-2.05-0.758c-1.087,0-1.957,0.336-2.609,1.003c-0.652,0.667-0.978,1.568-0.978,2.702v6.711h-1.889
				v-8.435c0-1.212-0.061-2.308-0.186-3.286h1.794l0.188,2.097c0.357-0.76,0.893-1.348,1.608-1.76
				c0.713-0.411,1.529-0.616,2.446-0.616C334.745,134.924,336.152,136.47,336.152,139.561z"/>
		</g>
		<g>
			<path style="fill:#272525;" d="M357.216,145.316h3.658v1.608h-9.25v-1.608h3.658V132.71l-3.402,2.167v-1.841l4.24-2.702h1.096
				V145.316z"/>
		</g>
		<g>
			<path style="fill:#272525;" d="M366.142,148.206h-1.726l5.988-18.736h1.748L366.142,148.206z"/>
		</g>
		<g>
			<path style="fill:#272525;" d="M382.498,145.316h3.658v1.608h-9.25v-1.608h3.658V132.71l-3.402,2.167v-1.841l4.24-2.702h1.096
				V145.316z"/>
		</g>
		<g>
			<path style="fill:#272525;" d="M402.271,139.921c0.597,0.723,0.897,1.589,0.897,2.6c0,1.413-0.537,2.528-1.608,3.343
				s-2.516,1.223-4.335,1.223c-1.817,0-3.262-0.408-4.333-1.223c-1.071-0.815-1.608-1.93-1.608-3.343
				c0-1.011,0.307-1.881,0.92-2.611c0.614-0.73,1.456-1.234,2.53-1.513c-0.995-0.296-1.756-0.781-2.285-1.456
				c-0.527-0.677-0.791-1.471-0.791-2.389c0-0.886,0.231-1.657,0.698-2.319c0.466-0.66,1.123-1.172,1.97-1.538
				c0.846-0.364,1.813-0.546,2.9-0.546c1.089,0,2.056,0.182,2.901,0.546c0.848,0.366,1.504,0.878,1.97,1.538
				c0.465,0.662,0.698,1.434,0.698,2.319c0,0.918-0.267,1.712-0.804,2.389c-0.535,0.675-1.286,1.161-2.247,1.456
				C400.829,138.691,401.672,139.201,402.271,139.921z M400.232,144.711c0.698-0.529,1.049-1.297,1.049-2.308
				c0-0.916-0.37-1.65-1.107-2.202c-0.738-0.552-1.722-0.889-2.949-1.015c-1.227,0.125-2.209,0.463-2.947,1.015
				c-0.738,0.552-1.107,1.286-1.107,2.202c0,1.011,0.351,1.779,1.049,2.308c0.7,0.527,1.701,0.791,3.006,0.791
				C398.531,145.502,399.532,145.238,400.232,144.711z M394.556,136.845c0.662,0.552,1.551,0.889,2.668,1.015
				c1.119-0.125,2.008-0.463,2.668-1.015c0.66-0.55,0.992-1.269,0.992-2.154c0-0.916-0.322-1.638-0.967-2.167
				c-0.645-0.527-1.542-0.793-2.693-0.793c-1.149,0-2.046,0.265-2.691,0.793c-0.645,0.529-0.967,1.252-0.967,2.167
				C393.567,135.577,393.897,136.296,394.556,136.845z"/>
		</g>
	</g>
	<g>
		<g>
			<path style="fill:#FFFFFF;" d="M507.315,457.864H286.872v-26.66h220.443V457.864z M287.843,456.893h218.502v-24.719H287.843
				V456.893z"/>
		</g>
		<g>
			<path style="fill:#FFFFFF;" d="M640.753,457.864H519.969v-26.66h120.784V457.864z M520.94,456.893h118.842v-24.719H520.94
				V456.893z"/>
		</g>
	</g>
	<g>
		<g>
			<g>
				<rect x="1230.071" y="271.059" style="fill:#FFFFFF;" width="422.546" height="758.97"/>
				<path style="fill:#6D6E70;" d="M1653.345,1030.757h-424.002V270.331h424.002V1030.757z M1230.799,1029.301h421.089V271.788
					h-421.089V1029.301z"/>
			</g>
			<g>
				<g>
					<rect x="1230.071" y="326.227" style="fill:#C4C4C4;" width="422.546" height="167.842"/>
					<path style="fill:#6D6E70;" d="M1653.345,494.797h-424.002V325.499h424.002V494.797z M1230.799,493.34h421.089V326.955
						h-421.089V493.34z"/>
				</g>
				<g>
					<rect x="1230.071" y="326.227" style="fill:#D9EBEA;" width="422.546" height="69.25"/>
					<path style="fill:#6D6E70;" d="M1653.345,396.205h-424.002v-70.706h424.002V396.205z M1230.799,394.749h421.089v-67.793
						h-421.089V394.749z"/>
				</g>
			</g>
			<g>
				<g>
					<path style="fill:#6D6E70;" d="M1492.067,458.107h-220.929v-27.146h220.929V458.107z M1272.594,456.65h218.016v-24.233
						h-218.016V456.65z"/>
				</g>
				<g>
					<path style="fill:#6D6E70;" d="M1625.503,458.107h-121.27v-27.146h121.27V458.107z M1505.69,456.65h118.357v-24.233H1505.69
						V456.65z"/>
				</g>
			</g>
		</g>
		<g>
			<g>
				<g>
					<path style="fill:#272525;" d="M1400.281,301.613c-0.444,0.233-1.142,0.381-2.028,0.381c-2.79,0-4.775-2.24-4.775-7.077
						c0-5.621,2.788-7.417,5.028-7.417c0.866,0,1.479,0.169,1.775,0.36l-0.359,1.373c-0.339-0.148-0.697-0.296-1.437-0.296
						c-1.522,0-3.296,1.479-3.296,5.831c0,4.352,1.605,5.788,3.337,5.788c0.613,0,1.163-0.148,1.5-0.317L1400.281,301.613z"/>
					<path style="fill:#6D6E70;" d="M1398.253,302.722c-3.446,0-5.503-2.918-5.503-7.805c0-6.011,3.101-8.145,5.756-8.145
						c0.911,0,1.702,0.174,2.17,0.478l0.443,0.286l-0.708,2.706l-0.781-0.341c-0.276-0.121-0.537-0.235-1.144-0.235
						c-1.184,0-2.568,1.337-2.568,5.103c0,1.889,0.339,5.059,2.609,5.059c0.513,0,0.953-0.129,1.175-0.239l0.865-0.434l0.528,2.852
						l-0.475,0.25C1400.041,302.561,1399.223,302.722,1398.253,302.722z M1397.545,288.359c-1.748,0.485-3.339,2.385-3.339,6.557
						c0,4.039,1.399,6.286,3.941,6.347c-1.347-0.142-3.686-1.16-3.686-6.495C1394.461,290.734,1395.968,288.868,1397.545,288.359z"
						/>
				</g>
				<g>
					<path style="fill:#272525;" d="M1403.83,294.284c0-0.867-0.064-1.881-0.084-2.642h1.457l0.084,1.606h0.043
						c0.338-0.973,1.204-1.775,2.155-1.775c0.126,0,0.232,0.021,0.338,0.021v1.669c-0.105-0.021-0.212-0.021-0.338-0.021
						c-1.035,0-1.796,0.95-1.965,2.133c-0.042,0.275-0.063,0.592-0.063,0.929v5.662h-1.627V294.284z"/>
					<path style="fill:#6D6E70;" d="M1406.185,302.595h-3.083v-8.311c0-0.546-0.026-1.153-0.05-1.716l-0.054-1.654h2.896
						l0.019,0.364c0.551-0.392,1.265-0.563,1.824-0.518l0.66,0.061l0.154,0.673v2.556l-0.87-0.172
						c-0.062-0.015-0.125-0.008-0.196-0.008c-0.706,0-1.141,0.781-1.245,1.509c-0.038,0.248-0.055,0.527-0.055,0.825V302.595z
						 M1404.558,301.139h0.171v-4.934c0-0.377,0.025-0.732,0.071-1.039c0.063-0.434,0.188-0.836,0.365-1.189h-0.526l-0.137-1.606
						l0.005,0.137c0.025,0.582,0.051,1.21,0.051,1.777V301.139z M1407.094,292.302c-0.16,0.063-0.311,0.154-0.449,0.267
						c0.145-0.057,0.295-0.097,0.449-0.123V292.302z"/>
				</g>
				<g>
					<path style="fill:#272525;" d="M1412.048,296.902c0.022,3.127,1.247,3.802,2.43,3.802c0.697,0,1.289-0.169,1.69-0.4
						l0.254,1.204c-0.571,0.317-1.437,0.485-2.24,0.485c-2.451,0-3.719-2.008-3.719-5.133c0-3.317,1.395-5.387,3.444-5.387
						c2.092,0,2.916,2.196,2.916,4.521c0,0.379,0,0.654-0.021,0.908H1412.048z M1415.259,295.698c0.043-2.05-0.74-2.958-1.521-2.958
						c-1.056,0-1.605,1.564-1.669,2.958H1415.259z"/>
					<path style="fill:#6D6E70;" d="M1414.182,302.722c-2.785,0-4.447-2.192-4.447-5.862c0-3.715,1.637-6.116,4.172-6.116
						c2.247,0,3.644,2.012,3.644,5.249c0,0.404-0.001,0.698-0.024,0.967l-0.054,0.669h-4.666c0.196,2.346,1.251,2.346,1.671,2.346
						c0.723,0,1.168-0.212,1.326-0.303l0.87-0.501l0.573,2.712l-0.47,0.262C1416.124,302.506,1415.155,302.722,1414.182,302.722z
						 M1411.485,294.538c-0.191,0.662-0.294,1.443-0.294,2.323c0,1.238,0.221,3.112,1.441,3.96c-0.74-0.614-1.298-1.786-1.313-3.912
						l-0.012-0.482l0.035-0.76C1411.359,295.285,1411.407,294.904,1411.485,294.538z M1415.978,296.174h0.117
						c0-0.057,0-0.118,0-0.18c0-0.59-0.069-2.067-0.709-2.994c0.336,0.525,0.63,1.369,0.602,2.714L1415.978,296.174z
						 M1412.885,294.97h1.621c-0.084-0.851-0.35-1.221-0.479-1.352C1413.613,293.186,1413.106,293.804,1412.885,294.97z"/>
				</g>
				<g>
					<path style="fill:#272525;" d="M1424.725,301.867l-0.106-1.077h-0.063c-0.444,0.781-1.162,1.246-2.028,1.246
						c-1.374,0-2.43-1.162-2.43-2.915c0-2.556,2.05-3.698,4.352-3.719v-0.317c0-1.373-0.338-2.325-1.626-2.325
						c-0.634,0-1.204,0.212-1.691,0.529l-0.359-1.142c0.423-0.317,1.374-0.675,2.388-0.675c2.049,0,2.936,1.352,2.936,3.654v4.417
						c0,0.781,0,1.669,0.106,2.323H1424.725z M1424.492,296.586c-0.845,0-2.81,0.148-2.81,2.367c0,1.329,0.676,1.817,1.247,1.817
						c0.719,0,1.331-0.529,1.521-1.544c0.043-0.19,0.043-0.4,0.043-0.569V296.586z"/>
					<path style="fill:#6D6E70;" d="M1422.528,302.764c-1.83,0-3.158-1.532-3.158-3.643c0-2.456,1.68-4.128,4.343-4.407
						c-0.07-1.225-0.503-1.225-0.888-1.225c-0.439,0-0.874,0.138-1.293,0.411l-0.804,0.523l-0.802-2.549l0.413-0.309
						c0.527-0.396,1.637-0.821,2.824-0.821c1.368,0,3.665,0.569,3.665,4.382v4.417c0,0.755,0,1.61,0.097,2.205l0.138,0.846h-2.995
						l-0.024-0.245C1423.591,302.62,1423.076,302.764,1422.528,302.764z M1421.203,297.608c-0.233,0.393-0.377,0.888-0.377,1.513
						c0,1.022,0.441,1.798,1.124,2.077c-0.563-0.375-0.996-1.109-0.996-2.245C1420.954,298.448,1421.039,297.997,1421.203,297.608z
						 M1425.385,301.139h0.014c-0.029-0.521-0.029-1.081-0.029-1.595v-4.417c0-1.841-0.595-2.543-1.308-2.795
						c0.742,0.44,1.117,1.36,1.117,2.753l0.043,3.571c0,0.193,0,0.461-0.061,0.728c-0.045,0.243-0.113,0.468-0.202,0.677h0.258
						L1425.385,301.139z M1423.764,297.371c-1.183,0.205-1.354,0.933-1.354,1.582c0,0.753,0.261,1.089,0.519,1.089
						c0.566,0,0.752-0.664,0.805-0.95c0.031-0.137,0.031-0.301,0.031-0.434V297.371z"/>
				</g>
				<g>
					<path style="fill:#272525;" d="M1432.289,288.938v2.704h1.965v1.246h-1.965v6.064c0,1.329,0.485,1.69,1.077,1.69
						c0.253,0,0.465-0.021,0.655-0.064l0.064,1.248c-0.296,0.104-0.676,0.169-1.204,0.169c-0.634,0-1.205-0.169-1.606-0.612
						c-0.401-0.465-0.613-1.162-0.613-2.577v-5.917h-1.247v-1.246h1.247v-2.24L1432.289,288.938z"/>
					<path style="fill:#6D6E70;" d="M1432.881,302.722c-0.913,0-1.635-0.286-2.147-0.853c-0.572-0.662-0.8-1.546-0.8-3.064v-5.188
						h-1.247v-2.702h1.247v-2.061l3.083-0.88v2.941h1.965v2.702h-1.965v5.336c0,0.961,0.253,0.961,0.349,0.961
						c0.196,0,0.358-0.015,0.493-0.046l0.845-0.193l0.135,2.657l-0.513,0.18C1433.926,302.654,1433.452,302.722,1432.881,302.722z
						 M1431.39,292.16v6.645c0,1.407,0.22,1.853,0.435,2.101c0.192,0.212,0.487,0.332,0.894,0.357
						c-0.578-0.212-1.159-0.802-1.159-2.31v-9.049l-0.171,0.049V292.16z"/>
				</g>
				<g>
					<path style="fill:#272525;" d="M1439.557,289c0.021,0.635-0.381,1.056-0.994,1.056c-0.528,0-0.929-0.421-0.929-1.056
						c0-0.633,0.423-1.056,0.951-1.056C1439.176,287.944,1439.557,288.367,1439.557,289z M1437.802,301.867v-10.225h1.627v10.225
						H1437.802z"/>
					<path style="fill:#6D6E70;" d="M1440.158,302.595h-3.083v-11.681h3.083V302.595z M1438.531,301.139h0.171v-8.769h-0.171
						V301.139z M1438.563,290.785c-0.945,0-1.657-0.768-1.657-1.785c0-1.016,0.721-1.784,1.679-1.784c0.981,0,1.695,0.745,1.7,1.773
						c0.013,0.504-0.154,0.963-0.471,1.291C1439.499,290.607,1439.055,290.785,1438.563,290.785z M1438.585,288.672
						c-0.212,0-0.223,0.273-0.223,0.328c0,0.099,0.02,0.328,0.201,0.328c0.054,0,0.153-0.008,0.204-0.061
						c0.043-0.044,0.065-0.133,0.062-0.243V289C1438.828,288.672,1438.676,288.672,1438.585,288.672z"/>
				</g>
				<g>
					<path style="fill:#272525;" d="M1444.626,291.642l1.289,5.746c0.148,0.698,0.318,1.606,0.444,2.494h0.064
						c0.105-0.846,0.275-1.712,0.423-2.494l1.268-5.746h1.605l-2.663,10.225h-1.457l-2.661-10.225H1444.626z"/>
					<path style="fill:#6D6E70;" d="M1447.619,302.595h-2.584l-3.04-11.681h3.214l1.169,5.211l1.149-5.211h3.133L1447.619,302.595z
						 M1446.161,301.139h0.331l0.138-0.529h-0.608L1446.161,301.139z M1443.878,292.37l1.19,4.57l-1.025-4.57H1443.878z
						 M1448.698,292.37l-0.433,1.965l0.511-1.965H1448.698z"/>
				</g>
				<g>
					<path style="fill:#272525;" d="M1454.113,296.902c0.022,3.127,1.247,3.802,2.43,3.802c0.697,0,1.289-0.169,1.69-0.4
						l0.254,1.204c-0.571,0.317-1.437,0.485-2.24,0.485c-2.451,0-3.719-2.008-3.719-5.133c0-3.317,1.395-5.387,3.444-5.387
						c2.092,0,2.916,2.196,2.916,4.521c0,0.379,0,0.654-0.021,0.908H1454.113z M1457.324,295.698c0.043-2.05-0.74-2.958-1.521-2.958
						c-1.056,0-1.606,1.564-1.669,2.958H1457.324z"/>
					<path style="fill:#6D6E70;" d="M1456.247,302.722c-2.785,0-4.447-2.192-4.447-5.862c0-3.715,1.638-6.116,4.172-6.116
						c2.247,0,3.644,2.012,3.644,5.249c0,0.404-0.001,0.698-0.024,0.967l-0.054,0.669h-4.666c0.196,2.346,1.251,2.346,1.671,2.346
						c0.723,0,1.168-0.212,1.326-0.303l0.87-0.501l0.573,2.712l-0.47,0.262C1458.189,302.506,1457.22,302.722,1456.247,302.722z
						 M1453.549,294.545c-0.19,0.66-0.292,1.439-0.292,2.315c0,1.238,0.221,3.112,1.441,3.96c-0.74-0.614-1.298-1.786-1.313-3.912
						l-0.011-0.482l0.034-0.76C1453.424,295.287,1453.471,294.909,1453.549,294.545z M1458.043,296.174h0.117
						c0-0.057,0-0.118,0-0.18c0-0.59-0.069-2.067-0.709-2.994c0.336,0.525,0.63,1.369,0.602,2.714L1458.043,296.174z
						 M1454.949,294.97h1.622c-0.084-0.851-0.35-1.221-0.479-1.352C1455.677,293.186,1455.17,293.806,1454.949,294.97z"/>
				</g>
				<g>
					<path style="fill:#272525;" d="M1572.34,294.979c0,5.006-1.584,7.056-3.571,7.056c-2.133,0-3.422-2.535-3.422-7.014
						c0-4.625,1.373-7.056,3.613-7.056C1571.177,287.965,1572.34,290.607,1572.34,294.979z M1566.973,295
						c0,3.317,0.571,5.642,1.923,5.642c1.288,0,1.817-2.346,1.817-5.642c0-3.211-0.528-5.64-1.837-5.64
						C1567.565,289.361,1566.973,291.705,1566.973,295z"/>
					<path style="fill:#6D6E70;" d="M1568.769,302.764c-1.248,0-4.15-0.755-4.15-7.743c0-7.026,3.036-7.784,4.341-7.784
						c1.534,0,4.108,1.005,4.108,7.743C1573.068,302.005,1570.061,302.764,1568.769,302.764z M1567.172,289.732
						c-0.711,1.047-1.097,2.854-1.097,5.289c0,2.935,0.56,4.989,1.546,5.844c-0.914-0.863-1.376-2.826-1.376-5.865
						C1566.245,292.262,1566.632,290.65,1567.172,289.732z M1568.875,290.089c-0.454,0-1.174,1.333-1.174,4.911
						c0,3.885,0.781,4.913,1.195,4.913c0.302,0,1.089-0.882,1.089-4.913C1569.985,291.422,1569.304,290.089,1568.875,290.089z
						 M1569.99,289.029c0.963,0.798,1.451,2.797,1.451,5.971c0,1.927-0.168,3.41-0.509,4.456c0.441-1.079,0.68-2.598,0.68-4.477
						C1571.612,293.406,1571.432,290.093,1569.99,289.029z"/>
				</g>
				<g>
					<path style="fill:#272525;" d="M1582.587,294.979c0,5.006-1.584,7.056-3.571,7.056c-2.133,0-3.422-2.535-3.422-7.014
						c0-4.625,1.373-7.056,3.613-7.056C1581.424,287.965,1582.587,290.607,1582.587,294.979z M1577.22,295
						c0,3.317,0.571,5.642,1.923,5.642c1.289,0,1.817-2.346,1.817-5.642c0-3.211-0.528-5.64-1.838-5.64
						C1577.812,289.361,1577.22,291.705,1577.22,295z"/>
					<path style="fill:#6D6E70;" d="M1579.016,302.764c-1.248,0-4.15-0.755-4.15-7.743c0-7.026,3.036-7.784,4.341-7.784
						c1.534,0,4.108,1.005,4.108,7.743C1583.315,302.005,1580.308,302.764,1579.016,302.764z M1577.419,289.732
						c-0.711,1.047-1.097,2.854-1.097,5.289c0,2.935,0.56,4.989,1.545,5.844c-0.914-0.863-1.376-2.826-1.376-5.865
						C1576.492,292.262,1576.879,290.65,1577.419,289.732z M1579.122,290.089c-0.454,0-1.174,1.333-1.174,4.911
						c0,3.885,0.781,4.913,1.195,4.913c0.302,0,1.089-0.882,1.089-4.913C1580.231,291.422,1579.551,290.089,1579.122,290.089z
						 M1580.237,289.029c0.963,0.798,1.451,2.797,1.451,5.971c0,1.927-0.168,3.41-0.509,4.456c0.441-1.079,0.68-2.598,0.68-4.477
						C1581.858,293.406,1581.679,290.093,1580.237,289.029z"/>
				</g>
				<g>
					<path style="fill:#272525;" d="M1586.305,300.811c0-0.719,0.485-1.225,1.077-1.225c0.655,0,1.077,0.485,1.077,1.225
						s-0.401,1.225-1.077,1.225C1586.77,302.036,1586.305,301.55,1586.305,300.811z"/>
					<path style="fill:#6D6E70;" d="M1587.382,302.764c-1.029,0-1.805-0.84-1.805-1.953c0-1.096,0.793-1.953,1.805-1.953
						c1.063,0,1.805,0.804,1.805,1.953S1588.445,302.764,1587.382,302.764z M1587.382,300.314c-0.202,0-0.349,0.209-0.349,0.497
						c0,0.116,0.026,0.497,0.349,0.497c0.113,0,0.349,0,0.349-0.497S1587.478,300.314,1587.382,300.314z"/>
				</g>
				<g>
					<path style="fill:#272525;" d="M1599.045,294.979c0,5.006-1.584,7.056-3.571,7.056c-2.133,0-3.422-2.535-3.422-7.014
						c0-4.625,1.373-7.056,3.613-7.056C1597.882,287.965,1599.045,290.607,1599.045,294.979z M1593.678,295
						c0,3.317,0.571,5.642,1.923,5.642c1.289,0,1.817-2.346,1.817-5.642c0-3.211-0.528-5.64-1.838-5.64
						C1594.27,289.361,1593.678,291.705,1593.678,295z"/>
					<path style="fill:#6D6E70;" d="M1595.474,302.764c-1.248,0-4.15-0.755-4.15-7.743c0-7.026,3.036-7.784,4.341-7.784
						c1.534,0,4.108,1.005,4.108,7.743C1599.773,302.005,1596.766,302.764,1595.474,302.764z M1593.877,289.732
						c-0.711,1.047-1.097,2.854-1.097,5.289c0,2.935,0.56,4.989,1.546,5.844c-0.914-0.863-1.376-2.826-1.376-5.865
						C1592.95,292.262,1593.337,290.65,1593.877,289.732z M1595.58,290.089c-0.454,0-1.174,1.333-1.174,4.911
						c0,3.885,0.781,4.913,1.195,4.913c0.302,0,1.089-0.882,1.089-4.913C1596.689,291.422,1596.009,290.089,1595.58,290.089z
						 M1596.695,289.029c0.963,0.798,1.451,2.797,1.451,5.971c0,1.927-0.168,3.41-0.509,4.456c0.441-1.079,0.68-2.598,0.68-4.477
						C1598.317,293.406,1598.137,290.093,1596.695,289.029z"/>
				</g>
				<g>
					<path style="fill:#272525;" d="M1609.292,294.979c0,5.006-1.584,7.056-3.571,7.056c-2.133,0-3.422-2.535-3.422-7.014
						c0-4.625,1.373-7.056,3.612-7.056C1608.129,287.965,1609.292,290.607,1609.292,294.979z M1603.925,295
						c0,3.317,0.571,5.642,1.923,5.642c1.289,0,1.817-2.346,1.817-5.642c0-3.211-0.528-5.64-1.838-5.64
						C1604.516,289.361,1603.925,291.705,1603.925,295z"/>
					<path style="fill:#6D6E70;" d="M1605.721,302.764c-1.248,0-4.15-0.755-4.15-7.743c0-7.026,3.036-7.784,4.341-7.784
						c1.534,0,4.108,1.005,4.108,7.743C1610.02,302.005,1607.013,302.764,1605.721,302.764z M1604.124,289.732
						c-0.711,1.047-1.097,2.854-1.097,5.289c0,2.935,0.56,4.989,1.546,5.844c-0.914-0.863-1.376-2.826-1.376-5.865
						C1603.197,292.262,1603.584,290.65,1604.124,289.732z M1605.827,290.089c-0.454,0-1.174,1.333-1.174,4.911
						c0,3.885,0.781,4.913,1.195,4.913c0.302,0,1.088-0.882,1.088-4.913C1606.936,291.422,1606.255,290.089,1605.827,290.089z
						 M1606.942,289.029c0.963,0.798,1.451,2.797,1.451,5.971c0,1.927-0.168,3.41-0.509,4.456c0.441-1.079,0.68-2.598,0.68-4.477
						C1608.563,293.406,1608.384,290.093,1606.942,289.029z"/>
				</g>
			</g>
			<g>
				<g>
					<rect x="1255.673" y="297.913" style="fill:#6D6E70;" width="33.631" height="1.456"/>
				</g>
				<g>
					<g>
						<polygon style="fill:#6D6E70;" points="1260.499,304.598 1261.492,303.531 1256.232,298.643 1261.492,293.753 
							1260.499,292.686 1254.094,298.643 						"/>
					</g>
				</g>
			</g>
		</g>
	</g>
	<g>
		<g>
			<path style="fill:#272525;" d="M897.696,531.166l-3.028-15.698h1.864l1.327,7.57c0.326,1.98,0.582,3.726,0.768,5.659h0.093
				c0.188-1.98,0.559-3.679,0.933-5.681l1.443-7.547h1.538l1.443,7.384c0.349,1.862,0.698,3.656,0.908,5.844h0.07
				c0.256-2.258,0.535-3.959,0.838-5.751l1.305-7.477h1.746l-3.051,15.698h-1.746l-1.513-7.638
				c-0.303-1.654-0.607-3.425-0.793-5.147h-0.047c-0.231,1.769-0.487,3.47-0.861,5.217l-1.561,7.568H897.696z"/>
		</g>
		<g>
			<path style="fill:#272525;" d="M914.962,515.468v6.732h4.401v-6.732h1.794v15.698h-1.794v-7.337h-4.401v7.337h-1.792v-15.698
				H914.962z"/>
		</g>
		<g>
			<path style="fill:#272525;" d="M928.173,526.461l-1.047,4.705h-1.724l3.586-15.698h1.98l3.493,15.698h-1.769l-1.049-4.705
				H928.173z M931.41,525.018l-0.814-3.982c-0.233-1.119-0.444-2.424-0.629-3.588h-0.093c-0.186,1.189-0.419,2.539-0.63,3.588
				l-0.815,3.982H931.41z"/>
		</g>
		<g>
			<path style="fill:#272525;" d="M939.197,517.076h-2.865v-1.608h7.523v1.608h-2.865v14.09h-1.792V517.076z"/>
		</g>
		<g>
			<path style="fill:#272525;" d="M950.451,515.283c-0.489,1.887-1.49,4.308-2.097,5.357l-1.071,0.163
				c0.489-1.35,1.119-3.726,1.352-5.334L950.451,515.283z"/>
		</g>
		<g>
			<path style="fill:#272525;" d="M954.157,529.094c0.535,0.349,1.468,0.63,2.258,0.63c1.631,0,2.609-1.071,2.609-2.657
				c0-1.443-0.838-2.329-2.073-3.26c-1.234-0.861-2.958-2.329-2.958-4.354c0-2.376,1.654-4.123,4.145-4.123
				c0.978,0,1.839,0.301,2.213,0.582l-0.444,1.536c-0.395-0.279-1.047-0.535-1.862-0.535c-1.538,0-2.259,1.164-2.259,2.236
				c0,1.561,0.814,2.166,2.304,3.237c1.887,1.327,2.725,2.77,2.725,4.519c0,2.7-1.91,4.401-4.401,4.401
				c-1.071,0-2.213-0.351-2.655-0.675L954.157,529.094z"/>
		</g>
		<g>
			<path style="fill:#272525;" d="M971.237,531.166v-15.698h1.701l2.888,7.36c0.65,1.678,1.466,3.774,2.003,5.473h0.045
				c-0.138-2.467-0.209-4.494-0.209-7.219v-5.613h1.606v15.698h-1.699l-2.981-7.545c-0.63-1.583-1.305-3.377-1.864-5.334h-0.045
				c0.138,2.097,0.186,4.1,0.186,7.453v5.427H971.237z"/>
		</g>
		<g>
			<path style="fill:#272525;" d="M990.132,523.714h-3.937v5.892h4.472v1.561h-6.264v-15.698h5.985v1.561h-4.193v5.171h3.937
				V523.714z"/>
		</g>
		<g>
			<path style="fill:#272525;" d="M997.286,531.166l-3.028-15.698h1.864l1.327,7.57c0.326,1.98,0.582,3.726,0.768,5.659h0.093
				c0.188-1.98,0.559-3.679,0.933-5.681l1.443-7.547h1.538l1.443,7.384c0.349,1.862,0.698,3.656,0.908,5.844h0.07
				c0.256-2.258,0.535-3.959,0.838-5.751l1.305-7.477h1.747l-3.051,15.698h-1.747l-1.513-7.638
				c-0.303-1.654-0.607-3.425-0.793-5.147h-0.047c-0.231,1.769-0.487,3.47-0.861,5.217l-1.561,7.568H997.286z"/>
		</g>
	</g>
	<g>
		<path style="fill:#C4C4C4;" d="M946.177,772.49H766.883V593.193h179.294V772.49z M768.825,770.548h175.411V595.135H768.825
			V770.548z"/>
	</g>
	<g>
		<path style="fill:#464543;" d="M946.177,973.794H766.883V794.497h179.294V973.794z M768.825,971.852h175.411V796.438H768.825
			V971.852z"/>
	</g>
	<g>
		<path style="fill:#E3A6A3;" d="M1142.95,973.794H963.653V794.497h179.297V973.794z M965.595,971.852h175.413V796.438H965.595
			V971.852z"/>
	</g>
	<g>
		<path style="fill:#E3A6A3;" d="M1142.95,772.49H963.653V593.193h179.297V772.49z M965.595,770.548h175.413V595.135H965.595
			V770.548z"/>
	</g>
	<g>
		<rect x="1246.068" y="519.513" style="fill:#E9EBEB;" width="386.732" height="349.53"/>
	</g>
	<g>
		<g>
			<rect x="1247.646" y="901.161" style="fill:#E9EBEB;" width="84.216" height="81.106"/>
		</g>
		<g>
			<g>
				<path style="fill:#59595B;" d="M1248.553,993.208l0.573,1.236c0.154,0.334,0.267,0.666,0.408,1.011h0.025
					c0.14-0.37,0.281-0.702,0.41-1.011l0.559-1.236h1.007l-1.466,2.841l1.453,2.911h-1.069l-0.586-1.295
					c-0.14-0.309-0.256-0.607-0.408-0.986h-0.026c-0.127,0.345-0.267,0.654-0.408,0.986l-0.573,1.295h-0.994l1.466-2.888
					l-1.428-2.864H1248.553z"/>
			</g>
			<g>
				<path style="fill:#59595B;" d="M1254.156,993.208l0.573,1.236c0.154,0.334,0.267,0.666,0.408,1.011h0.026
					c0.139-0.37,0.279-0.702,0.406-1.011l0.561-1.236h1.007l-1.466,2.841l1.453,2.911h-1.07l-0.586-1.295
					c-0.14-0.309-0.256-0.607-0.408-0.986h-0.026c-0.127,0.345-0.267,0.654-0.408,0.986l-0.573,1.295h-0.994l1.466-2.888
					l-1.428-2.864H1254.156z"/>
			</g>
			<g>
				<path style="fill:#59595B;" d="M1259.758,993.208l0.573,1.236c0.154,0.334,0.267,0.666,0.408,1.011h0.027
					c0.138-0.37,0.279-0.702,0.406-1.011l0.561-1.236h1.007l-1.466,2.841l1.453,2.911h-1.07l-0.586-1.295
					c-0.14-0.309-0.256-0.607-0.408-0.986h-0.027c-0.127,0.345-0.267,0.654-0.408,0.986l-0.573,1.295h-0.994l1.466-2.888
					l-1.428-2.864H1259.758z"/>
			</g>
			<g>
				<path style="fill:#59595B;" d="M1267.245,995.503v0.713h-2.79v-0.713H1267.245z"/>
			</g>
			<g>
				<path style="fill:#59595B;" d="M1273.459,995.086c0,2.816-0.956,3.969-2.152,3.969c-1.288,0-2.065-1.426-2.065-3.944
					c0-2.602,0.829-3.969,2.179-3.969C1272.759,991.141,1273.459,992.626,1273.459,995.086z M1270.224,995.099
					c0,1.864,0.343,3.173,1.159,3.173c0.778,0,1.096-1.32,1.096-3.173c0-1.807-0.318-3.173-1.109-3.173
					C1270.58,991.926,1270.224,993.244,1270.224,995.099z"/>
			</g>
			<g>
				<path style="fill:#59595B;" d="M1277.47,992.163h-0.025l-1.377,0.738l-0.192-0.713l1.747-0.952h0.815v7.724h-0.969V992.163z"/>
			</g>
		</g>
	</g>
	<g>
		<g>
			<rect x="1347.028" y="901.161" style="fill:#E9EBEB;" width="84.212" height="81.106"/>
		</g>
		<g>
			<g>
				<path style="fill:#59595B;" d="M1347.933,993.208l0.573,1.236c0.154,0.334,0.267,0.666,0.408,1.011h0.026
					c0.139-0.37,0.279-0.702,0.406-1.011l0.561-1.236h1.007l-1.466,2.841l1.453,2.911h-1.069l-0.586-1.295
					c-0.14-0.309-0.256-0.607-0.408-0.986h-0.026c-0.127,0.345-0.267,0.654-0.408,0.986l-0.573,1.295h-0.994l1.466-2.888
					l-1.428-2.864H1347.933z"/>
			</g>
			<g>
				<path style="fill:#59595B;" d="M1353.537,993.208l0.573,1.236c0.154,0.334,0.267,0.666,0.408,1.011h0.025
					c0.14-0.37,0.281-0.702,0.41-1.011l0.559-1.236h1.007l-1.466,2.841l1.453,2.911h-1.07l-0.586-1.295
					c-0.14-0.309-0.256-0.607-0.408-0.986h-0.027c-0.127,0.345-0.267,0.654-0.408,0.986l-0.573,1.295h-0.994l1.466-2.888
					l-1.428-2.864H1353.537z"/>
			</g>
			<g>
				<path style="fill:#59595B;" d="M1359.139,993.208l0.573,1.236c0.154,0.334,0.267,0.666,0.408,1.011h0.025
					c0.14-0.37,0.281-0.702,0.41-1.011l0.559-1.236h1.007l-1.466,2.841l1.453,2.911h-1.069l-0.586-1.295
					c-0.14-0.309-0.256-0.607-0.408-0.986h-0.026c-0.127,0.345-0.267,0.654-0.408,0.986l-0.573,1.295h-0.994l1.466-2.888
					l-1.428-2.864H1359.139z"/>
			</g>
			<g>
				<path style="fill:#59595B;" d="M1366.625,995.503v0.713h-2.79v-0.713H1366.625z"/>
			</g>
			<g>
				<path style="fill:#59595B;" d="M1372.839,995.086c0,2.816-0.956,3.969-2.152,3.969c-1.288,0-2.065-1.426-2.065-3.944
					c0-2.602,0.829-3.969,2.179-3.969C1372.14,991.141,1372.839,992.626,1372.839,995.086z M1369.604,995.099
					c0,1.864,0.343,3.173,1.159,3.173c0.777,0,1.096-1.32,1.096-3.173c0-1.807-0.319-3.173-1.109-3.173
					C1369.961,991.926,1369.604,993.244,1369.604,995.099z"/>
			</g>
			<g>
				<path style="fill:#59595B;" d="M1376.85,992.163h-0.025l-1.377,0.738l-0.192-0.713l1.746-0.952h0.815v7.724h-0.969V992.163z"/>
			</g>
		</g>
	</g>
	<g>
		<g>
			<rect x="1447.044" y="901.161" style="fill:#E9EBEB;" width="84.212" height="81.106"/>
		</g>
		<g>
			<g>
				<path style="fill:#59595B;" d="M1447.947,993.208l0.573,1.236c0.154,0.334,0.267,0.666,0.408,1.011h0.025
					c0.14-0.37,0.281-0.702,0.41-1.011l0.559-1.236h1.007l-1.466,2.841l1.452,2.911h-1.069l-0.586-1.295
					c-0.14-0.309-0.256-0.607-0.408-0.986h-0.026c-0.127,0.345-0.267,0.654-0.408,0.986l-0.573,1.295h-0.994l1.466-2.888
					l-1.428-2.864H1447.947z"/>
			</g>
			<g>
				<path style="fill:#59595B;" d="M1453.551,993.208l0.573,1.236c0.154,0.334,0.267,0.666,0.408,1.011h0.027
					c0.138-0.37,0.279-0.702,0.406-1.011l0.561-1.236h1.007l-1.466,2.841l1.453,2.911h-1.07l-0.586-1.295
					c-0.14-0.309-0.256-0.607-0.408-0.986h-0.027c-0.127,0.345-0.267,0.654-0.408,0.986l-0.573,1.295h-0.994l1.466-2.888
					l-1.428-2.864H1453.551z"/>
			</g>
			<g>
				<path style="fill:#59595B;" d="M1459.152,993.208l0.573,1.236c0.154,0.334,0.267,0.666,0.408,1.011h0.026
					c0.138-0.37,0.279-0.702,0.406-1.011l0.561-1.236h1.007l-1.466,2.841l1.453,2.911h-1.069l-0.586-1.295
					c-0.14-0.309-0.256-0.607-0.408-0.986h-0.026c-0.127,0.345-0.267,0.654-0.408,0.986l-0.573,1.295h-0.994l1.466-2.888
					l-1.428-2.864H1459.152z"/>
			</g>
			<g>
				<path style="fill:#59595B;" d="M1466.639,995.503v0.713h-2.79v-0.713H1466.639z"/>
			</g>
			<g>
				<path style="fill:#59595B;" d="M1472.853,995.086c0,2.816-0.956,3.969-2.152,3.969c-1.288,0-2.065-1.426-2.065-3.944
					c0-2.602,0.829-3.969,2.179-3.969C1472.153,991.141,1472.853,992.626,1472.853,995.086z M1469.618,995.099
					c0,1.864,0.343,3.173,1.159,3.173c0.777,0,1.096-1.32,1.096-3.173c0-1.807-0.319-3.173-1.109-3.173
					C1469.975,991.926,1469.618,993.244,1469.618,995.099z"/>
			</g>
			<g>
				<path style="fill:#59595B;" d="M1476.864,992.163h-0.025l-1.377,0.738l-0.192-0.713l1.746-0.952h0.815v7.724h-0.969V992.163z"/>
			</g>
		</g>
	</g>
	<g>
		<g>
			<rect x="1547.64" y="900.437" style="fill:#E9EBEB;" width="84.215" height="81.106"/>
		</g>
		<g>
			<g>
				<path style="fill:#59595B;" d="M1548.547,992.486l0.573,1.236c0.154,0.332,0.267,0.666,0.408,1.011h0.025
					c0.14-0.37,0.281-0.702,0.41-1.011l0.559-1.236h1.007l-1.466,2.841l1.453,2.911h-1.069l-0.586-1.295
					c-0.14-0.309-0.256-0.605-0.408-0.986h-0.026c-0.127,0.345-0.267,0.654-0.408,0.986l-0.573,1.295h-0.994l1.466-2.888
					l-1.428-2.863H1548.547z"/>
			</g>
			<g>
				<path style="fill:#59595B;" d="M1554.15,992.486l0.573,1.236c0.154,0.332,0.267,0.666,0.408,1.011h0.026
					c0.138-0.37,0.279-0.702,0.406-1.011l0.561-1.236h1.007l-1.466,2.841l1.453,2.911h-1.07l-0.586-1.295
					c-0.14-0.309-0.256-0.605-0.408-0.986h-0.026c-0.127,0.345-0.267,0.654-0.408,0.986l-0.573,1.295h-0.994l1.466-2.888
					l-1.428-2.863H1554.15z"/>
			</g>
			<g>
				<path style="fill:#59595B;" d="M1559.752,992.486l0.573,1.236c0.154,0.332,0.267,0.666,0.408,1.011h0.027
					c0.138-0.37,0.279-0.702,0.406-1.011l0.561-1.236h1.007l-1.466,2.841l1.453,2.911h-1.07l-0.586-1.295
					c-0.14-0.309-0.256-0.605-0.408-0.986h-0.027c-0.127,0.345-0.267,0.654-0.408,0.986l-0.573,1.295h-0.994l1.466-2.888
					l-1.428-2.863H1559.752z"/>
			</g>
			<g>
				<path style="fill:#59595B;" d="M1567.239,994.78v0.713h-2.789v-0.713H1567.239z"/>
			</g>
			<g>
				<path style="fill:#59595B;" d="M1573.453,994.363c0,2.816-0.956,3.969-2.152,3.969c-1.288,0-2.065-1.426-2.065-3.944
					c0-2.602,0.829-3.969,2.179-3.969C1572.753,990.419,1573.453,991.904,1573.453,994.363z M1570.218,994.376
					c0,1.864,0.343,3.172,1.159,3.172c0.777,0,1.096-1.32,1.096-3.172c0-1.807-0.319-3.173-1.109-3.173
					C1570.574,991.204,1570.218,992.522,1570.218,994.376z"/>
			</g>
			<g>
				<path style="fill:#59595B;" d="M1577.464,991.441h-0.025l-1.377,0.738l-0.192-0.713l1.746-0.952h0.816v7.724h-0.969V991.441z"/>
			</g>
		</g>
	</g>
	<g>
		<g>
			<path style="fill:#FFFFFF;" d="M814.064,353.904v5.088h3.326v-5.088h1.356v11.863h-1.356v-5.545h-3.326v5.545h-1.355v-11.863
				H814.064z"/>
		</g>
		<g>
			<path style="fill:#FFFFFF;" d="M828.852,359.748c0,4.453-1.531,6.159-3.432,6.159c-1.971,0-3.291-2.094-3.291-6.089
				c0-3.925,1.408-6.055,3.484-6.055C827.637,353.763,828.852,355.963,828.852,359.748z M823.536,359.836
				c0,2.446,0.475,4.875,1.971,4.875c1.531,0,1.936-2.587,1.936-4.91c0-2.219-0.405-4.841-1.954-4.841
				C824.011,354.96,823.536,357.425,823.536,359.836z"/>
		</g>
		<g>
			<path style="fill:#FFFFFF;" d="M839.415,360.662c-0.088-1.566-0.175-3.307-0.123-4.646h-0.07c-0.264,1.32-0.581,2.729-0.95,4.119
				l-1.461,5.562h-0.863l-1.39-5.333c-0.387-1.515-0.74-2.975-0.968-4.348h-0.053c0,1.39-0.07,3.046-0.14,4.735l-0.229,5.016h-1.215
				l0.704-11.863h1.461l1.39,5.422c0.405,1.566,0.705,2.729,0.951,4.083h0.052c0.229-1.354,0.493-2.48,0.881-4.083l1.337-5.422
				h1.514l0.687,11.863h-1.268L839.415,360.662z"/>
		</g>
		<g>
			<path style="fill:#FFFFFF;" d="M848.87,360.135h-2.974v4.453h3.379v1.18h-4.734v-11.863h4.523v1.18h-3.168v3.908h2.974V360.135z"
				/>
		</g>
		<g>
			<path style="fill:#FFFFFF;" d="M929.454,354.08c0.563-0.14,1.232-0.228,1.988-0.228c1.074,0,1.989,0.228,2.623,0.827
				c0.51,0.474,0.775,1.18,0.775,2.023c0,1.216-0.668,2.183-1.831,2.64v0.036c1.373,0.37,2.201,1.479,2.201,3.027
				c0,0.986-0.317,1.779-0.845,2.359c-0.669,0.757-1.778,1.073-3.133,1.073c-0.881,0-1.408-0.053-1.778-0.123V354.08z
				 M930.809,358.939h0.616c1.108,0,2.059-0.846,2.059-2.095c0-1.09-0.511-1.936-1.954-1.936c-0.317,0-0.563,0.036-0.722,0.089
				V358.939z M930.809,364.694c0.158,0.034,0.387,0.07,0.687,0.07c1.408,0,2.323-0.827,2.323-2.359c0-1.637-1.143-2.41-2.411-2.429
				h-0.598V364.694z"/>
		</g>
		<g>
			<path style="fill:#FFFFFF;" d="M938.539,353.904h1.355v10.72h3.344v1.143h-4.699V353.904z"/>
		</g>
		<g>
			<path style="fill:#FFFFFF;" d="M951.847,359.748c0,4.453-1.531,6.159-3.432,6.159c-1.971,0-3.291-2.094-3.291-6.089
				c0-3.925,1.408-6.055,3.484-6.055C950.632,353.763,951.847,355.963,951.847,359.748z M946.531,359.836
				c0,2.446,0.475,4.875,1.971,4.875c1.531,0,1.936-2.587,1.936-4.91c0-2.219-0.405-4.841-1.954-4.841
				C947.006,354.96,946.531,357.425,946.531,359.836z"/>
		</g>
		<g>
			<path style="fill:#FFFFFF;" d="M961.073,365.468c-0.51,0.212-1.355,0.406-2.112,0.406c-1.038,0-2.006-0.283-2.798-1.162
				c-0.863-0.916-1.444-2.552-1.426-4.716c0.018-4.612,2.376-6.195,4.471-6.195c0.739,0,1.32,0.14,1.69,0.334l-0.3,1.163
				c-0.317-0.159-0.739-0.283-1.373-0.283c-1.478,0-3.08,1.179-3.08,4.858c0,3.66,1.39,4.839,2.816,4.839
				c0.458,0,0.722-0.087,0.827-0.14v-3.872h-1.531v-1.126h2.816V365.468z"/>
		</g>
		<g>
			<path style="fill:#FFFFFF;" d="M1041.323,364.201c0.405,0.264,1.109,0.476,1.708,0.476c1.232,0,1.971-0.81,1.971-2.008
				c0-1.09-0.633-1.76-1.566-2.463c-0.933-0.65-2.236-1.76-2.236-3.29c0-1.796,1.25-3.116,3.133-3.116
				c0.74,0,1.391,0.228,1.673,0.44l-0.335,1.161c-0.299-0.21-0.792-0.404-1.408-0.404c-1.161,0-1.707,0.88-1.707,1.69
				c0,1.18,0.615,1.637,1.742,2.446c1.426,1.003,2.059,2.094,2.059,3.415c0,2.04-1.443,3.326-3.326,3.326
				c-0.81,0-1.673-0.265-2.006-0.51L1041.323,364.201z"/>
		</g>
		<g>
			<path style="fill:#FFFFFF;" d="M1054.033,360.135h-2.974v4.453h3.379v1.18h-4.734v-11.863h4.523v1.18h-3.168v3.908h2.974V360.135
				z"/>
		</g>
		<g>
			<path style="fill:#FFFFFF;" d="M1057.697,354.08c0.58-0.157,1.285-0.228,1.953-0.228c1.18,0,2.059,0.247,2.676,0.844
				c0.58,0.599,0.827,1.39,0.827,2.323c0,1.513-0.703,2.499-1.901,3.046v0.034c0.88,0.266,1.338,1.109,1.602,2.659
				c0.264,1.636,0.51,2.64,0.668,3.009h-1.373c-0.176-0.353-0.405-1.479-0.633-2.939c-0.264-1.62-0.775-2.236-1.936-2.236h-0.528
				v5.175h-1.355V354.08z M1059.052,359.555h0.563c1.303,0,2.165-0.95,2.165-2.376c0-1.373-0.563-2.219-2.023-2.236
				c-0.265,0-0.528,0.017-0.704,0.07V359.555z"/>
		</g>
		<g>
			<path style="fill:#FFFFFF;" d="M1068.594,365.767l-2.711-11.863h1.443l1.161,5.562c0.282,1.339,0.633,3.046,0.845,4.559h0.053
				c0.176-1.53,0.51-3.186,0.792-4.593l1.126-5.528h1.443l-2.763,11.863H1068.594z"/>
		</g>
		<g>
			<path style="fill:#FFFFFF;" d="M1077.185,353.904v11.863h-1.355v-11.863H1077.185z"/>
		</g>
		<g>
			<path style="fill:#FFFFFF;" d="M1086.269,365.557c-0.37,0.193-0.95,0.317-1.69,0.317c-2.323,0-3.978-1.866-3.978-5.898
				c0-4.68,2.323-6.176,4.189-6.176c0.722,0,1.232,0.14,1.478,0.3l-0.299,1.143c-0.282-0.123-0.581-0.247-1.198-0.247
				c-1.267,0-2.745,1.233-2.745,4.858c0,3.624,1.337,4.822,2.78,4.822c0.511,0,0.968-0.123,1.25-0.266L1086.269,365.557z"/>
		</g>
		<g>
			<path style="fill:#FFFFFF;" d="M1093.751,360.135h-2.974v4.453h3.379v1.18h-4.734v-11.863h4.523v1.18h-3.168v3.908h2.974V360.135
				z"/>
		</g>
	</g>
	<g>
		<g>
			<path style="fill:#FFFFFF;" d="M1303.406,353.904v5.088h3.326v-5.088h1.356v11.863h-1.356v-5.545h-3.326v5.545h-1.355v-11.863
				H1303.406z"/>
		</g>
		<g>
			<path style="fill:#FFFFFF;" d="M1318.193,359.748c0,4.453-1.531,6.159-3.432,6.159c-1.971,0-3.291-2.094-3.291-6.089
				c0-3.925,1.408-6.055,3.484-6.055C1316.979,353.763,1318.193,355.963,1318.193,359.748z M1312.878,359.836
				c0,2.446,0.475,4.875,1.971,4.875c1.531,0,1.936-2.587,1.936-4.91c0-2.219-0.405-4.841-1.954-4.841
				C1313.353,354.96,1312.878,357.425,1312.878,359.836z"/>
		</g>
		<g>
			<path style="fill:#FFFFFF;" d="M1328.757,360.662c-0.088-1.566-0.175-3.307-0.123-4.646h-0.07
				c-0.264,1.32-0.581,2.729-0.95,4.119l-1.461,5.562h-0.863l-1.39-5.333c-0.387-1.515-0.74-2.975-0.968-4.348h-0.053
				c0,1.39-0.07,3.046-0.14,4.735l-0.229,5.016h-1.215l0.703-11.863h1.461l1.39,5.422c0.405,1.566,0.704,2.729,0.951,4.083h0.052
				c0.229-1.354,0.493-2.48,0.881-4.083l1.337-5.422h1.514l0.686,11.863h-1.268L1328.757,360.662z"/>
		</g>
		<g>
			<path style="fill:#FFFFFF;" d="M1338.212,360.135h-2.974v4.453h3.379v1.18h-4.734v-11.863h4.523v1.18h-3.168v3.908h2.974V360.135
				z"/>
		</g>
		<g>
			<path style="fill:#FFFFFF;" d="M1418.796,354.08c0.563-0.14,1.232-0.228,1.988-0.228c1.074,0,1.989,0.228,2.623,0.827
				c0.51,0.474,0.775,1.18,0.775,2.023c0,1.216-0.668,2.183-1.831,2.64v0.036c1.373,0.37,2.201,1.479,2.201,3.027
				c0,0.986-0.317,1.779-0.845,2.359c-0.669,0.757-1.778,1.073-3.133,1.073c-0.881,0-1.408-0.053-1.778-0.123V354.08z
				 M1420.151,358.939h0.616c1.108,0,2.059-0.846,2.059-2.095c0-1.09-0.511-1.936-1.954-1.936c-0.317,0-0.563,0.036-0.722,0.089
				V358.939z M1420.151,364.694c0.158,0.034,0.387,0.07,0.687,0.07c1.408,0,2.323-0.827,2.323-2.359c0-1.637-1.144-2.41-2.411-2.429
				h-0.598V364.694z"/>
		</g>
		<g>
			<path style="fill:#FFFFFF;" d="M1427.881,353.904h1.355v10.72h3.344v1.143h-4.699V353.904z"/>
		</g>
		<g>
			<path style="fill:#FFFFFF;" d="M1441.188,359.748c0,4.453-1.531,6.159-3.432,6.159c-1.971,0-3.291-2.094-3.291-6.089
				c0-3.925,1.408-6.055,3.484-6.055C1439.974,353.763,1441.188,355.963,1441.188,359.748z M1435.873,359.836
				c0,2.446,0.475,4.875,1.971,4.875c1.531,0,1.936-2.587,1.936-4.91c0-2.219-0.405-4.841-1.954-4.841
				C1436.348,354.96,1435.873,357.425,1435.873,359.836z"/>
		</g>
		<g>
			<path style="fill:#FFFFFF;" d="M1450.414,365.468c-0.51,0.212-1.355,0.406-2.111,0.406c-1.038,0-2.006-0.283-2.798-1.162
				c-0.863-0.916-1.444-2.552-1.426-4.716c0.018-4.612,2.376-6.195,4.471-6.195c0.739,0,1.32,0.14,1.69,0.334l-0.3,1.163
				c-0.317-0.159-0.739-0.283-1.373-0.283c-1.478,0-3.08,1.179-3.08,4.858c0,3.66,1.39,4.839,2.816,4.839
				c0.458,0,0.722-0.087,0.827-0.14v-3.872h-1.531v-1.126h2.816V365.468z"/>
		</g>
		<g>
			<path style="fill:#FFFFFF;" d="M1530.664,364.201c0.405,0.264,1.109,0.476,1.708,0.476c1.232,0,1.971-0.81,1.971-2.008
				c0-1.09-0.633-1.76-1.566-2.463c-0.933-0.65-2.236-1.76-2.236-3.29c0-1.796,1.25-3.116,3.133-3.116
				c0.74,0,1.391,0.228,1.673,0.44l-0.335,1.161c-0.299-0.21-0.792-0.404-1.408-0.404c-1.161,0-1.707,0.88-1.707,1.69
				c0,1.18,0.615,1.637,1.742,2.446c1.426,1.003,2.059,2.094,2.059,3.415c0,2.04-1.443,3.326-3.326,3.326
				c-0.81,0-1.673-0.265-2.006-0.51L1530.664,364.201z"/>
		</g>
		<g>
			<path style="fill:#FFFFFF;" d="M1543.375,360.135h-2.974v4.453h3.379v1.18h-4.734v-11.863h4.523v1.18h-3.168v3.908h2.974V360.135
				z"/>
		</g>
		<g>
			<path style="fill:#FFFFFF;" d="M1547.038,354.08c0.58-0.157,1.285-0.228,1.953-0.228c1.18,0,2.059,0.247,2.676,0.844
				c0.58,0.599,0.827,1.39,0.827,2.323c0,1.513-0.704,2.499-1.901,3.046v0.034c0.88,0.266,1.338,1.109,1.602,2.659
				c0.264,1.636,0.51,2.64,0.668,3.009h-1.373c-0.176-0.353-0.405-1.479-0.633-2.939c-0.265-1.62-0.775-2.236-1.936-2.236h-0.528
				v5.175h-1.355V354.08z M1548.393,359.555h0.563c1.303,0,2.165-0.95,2.165-2.376c0-1.373-0.563-2.219-2.023-2.236
				c-0.265,0-0.528,0.017-0.704,0.07V359.555z"/>
		</g>
		<g>
			<path style="fill:#FFFFFF;" d="M1557.935,365.767l-2.711-11.863h1.443l1.161,5.562c0.282,1.339,0.633,3.046,0.845,4.559h0.053
				c0.176-1.53,0.51-3.186,0.792-4.593l1.126-5.528h1.443l-2.763,11.863H1557.935z"/>
		</g>
		<g>
			<path style="fill:#FFFFFF;" d="M1566.527,353.904v11.863h-1.355v-11.863H1566.527z"/>
		</g>
		<g>
			<path style="fill:#FFFFFF;" d="M1575.61,365.557c-0.37,0.193-0.95,0.317-1.69,0.317c-2.323,0-3.978-1.866-3.978-5.898
				c0-4.68,2.323-6.176,4.189-6.176c0.722,0,1.232,0.14,1.478,0.3l-0.299,1.143c-0.282-0.123-0.581-0.247-1.198-0.247
				c-1.267,0-2.745,1.233-2.745,4.858c0,3.624,1.337,4.822,2.78,4.822c0.511,0,0.968-0.123,1.25-0.266L1575.61,365.557z"/>
		</g>
		<g>
			<path style="fill:#FFFFFF;" d="M1583.093,360.135h-2.974v4.453h3.379v1.18h-4.734v-11.863h4.523v1.18h-3.168v3.908h2.974V360.135
				z"/>
		</g>
	</g>
	<g>
		<g>
			<g>
				<path style="fill:#A5A7A9;" d="M286.516,660.042l-0.698,3.137h-1.149l2.391-10.464h1.32l2.329,10.464h-1.18l-0.7-3.137H286.516z
					 M288.674,659.079l-0.542-2.655c-0.155-0.745-0.296-1.614-0.419-2.389h-0.063c-0.123,0.791-0.279,1.691-0.419,2.389
					l-0.544,2.655H288.674z"/>
			</g>
			<g>
				<path style="fill:#A5A7A9;" d="M294.827,660.042l-0.698,3.137h-1.149l2.391-10.464h1.32l2.329,10.464h-1.18l-0.7-3.137H294.827z
					 M296.987,659.079l-0.544-2.655c-0.156-0.745-0.296-1.614-0.419-2.389h-0.063c-0.123,0.791-0.279,1.691-0.419,2.389L295,659.079
					H296.987z"/>
			</g>
			<g>
				<path style="fill:#A5A7A9;" d="M303.137,660.042l-0.698,3.137h-1.149l2.391-10.464h1.32l2.329,10.464h-1.18l-0.7-3.137H303.137z
					 M305.297,659.079l-0.544-2.655c-0.155-0.745-0.296-1.614-0.419-2.389h-0.063c-0.123,0.791-0.279,1.691-0.419,2.389
					l-0.542,2.655H305.297z"/>
			</g>
			<g>
				<path style="fill:#A5A7A9;" d="M314.321,654.918v3.696h3.571v0.838h-3.571v3.726h-0.868v-3.726h-3.571v-0.838h3.571v-3.696
					H314.321z"/>
			</g>
			<g>
				<path style="fill:#A5A7A9;" d="M325.134,654.918v3.696h3.571v0.838h-3.571v3.726h-0.868v-3.726h-3.571v-0.838h3.571v-3.696
					H325.134z"/>
			</g>
		</g>
		<g>
			<g>
				<path style="fill:#272525;" d="M285.376,633.598c0.535,0.349,1.466,0.63,2.259,0.63c1.631,0,2.607-1.071,2.607-2.657
					c0-1.443-0.838-2.329-2.073-3.26c-1.233-0.861-2.956-2.329-2.956-4.354c0-2.376,1.654-4.123,4.145-4.123
					c0.979,0,1.84,0.302,2.211,0.582l-0.442,1.536c-0.396-0.279-1.049-0.535-1.862-0.535c-1.538,0-2.26,1.164-2.26,2.236
					c0,1.561,0.815,2.166,2.306,3.237c1.887,1.327,2.725,2.771,2.725,4.519c0,2.7-1.91,4.401-4.401,4.401
					c-1.071,0-2.213-0.351-2.655-0.675L285.376,633.598z"/>
			</g>
			<g>
				<path style="fill:#272525;" d="M298.424,621.418v2.981h2.166v1.373h-2.166v6.685c0,1.468,0.535,1.864,1.187,1.864
					c0.279,0,0.512-0.025,0.723-0.07l0.07,1.373c-0.326,0.118-0.745,0.188-1.327,0.188c-0.7,0-1.329-0.188-1.771-0.675
					c-0.442-0.514-0.675-1.282-0.675-2.843v-6.521h-1.375v-1.373h1.375v-2.469L298.424,621.418z"/>
			</g>
			<g>
				<path style="fill:#272525;" d="M311.261,632.596c0,1.257,0.07,2.236,0.093,3.074h-1.561l-0.116-1.187h-0.047
					c-0.349,0.558-1.212,1.373-2.422,1.373c-1.98,0-2.748-1.536-2.748-4.331v-7.126h1.792v6.87c0,1.769,0.281,3.074,1.515,3.074
					c1.047,0,1.513-0.979,1.606-1.491c0.07-0.303,0.093-0.652,0.093-1.024v-7.43h1.794V632.596z"/>
			</g>
			<g>
				<path style="fill:#272525;" d="M322.887,619.554v13.415c0,0.77,0.07,2.05,0.093,2.702h-1.536l-0.118-1.42h-0.07
					c-0.372,0.815-1.164,1.606-2.351,1.606c-1.91,0-3.284-2.073-3.284-5.776c0-4.005,1.654-5.867,3.4-5.867
					c0.815,0,1.608,0.394,2.05,1.35h0.047v-6.009H322.887z M321.118,628.684c0-0.233,0-0.489-0.025-0.745
					c-0.116-1.164-0.813-2.19-1.676-2.19c-1.49,0-2.002,2.073-2.002,4.331c0,2.376,0.605,4.286,1.91,4.286
					c0.559,0,1.327-0.302,1.724-1.932c0.046-0.211,0.07-0.466,0.07-0.745V628.684z"/>
			</g>
			<g>
				<path style="fill:#272525;" d="M329.672,621.488c0.023,0.698-0.421,1.164-1.096,1.164c-0.582,0-1.024-0.466-1.024-1.164
					c0-0.7,0.466-1.164,1.049-1.164C329.251,620.323,329.672,620.788,329.672,621.488z M327.738,635.67v-11.272h1.794v11.272
					H327.738z"/>
			</g>
			<g>
				<path style="fill:#272525;" d="M341.272,630.035c0,4.356-2.027,5.822-3.751,5.822c-2.025,0-3.656-1.84-3.656-5.799
					c0-4.123,1.841-5.844,3.774-5.844C339.641,624.213,341.272,626.098,341.272,630.035z M335.659,630.035
					c0,1.862,0.326,4.401,1.957,4.401c1.536,0,1.839-2.655,1.839-4.401c0-1.724-0.303-4.379-1.887-4.379
					C335.962,625.656,335.659,628.311,335.659,630.035z"/>
			</g>
			<g>
				<path style="fill:#272525;" d="M351.085,635.67v-1.164l1.28-1.747c1.794-2.492,3.937-5.334,3.937-8.175
					c0-1.676-0.745-2.7-2.166-2.7c-1.094,0-1.794,0.582-2.19,0.838l-0.442-1.352c0.537-0.442,1.583-1.024,2.958-1.024
					c2.515,0,3.609,1.862,3.609,4.145c0,2.841-1.862,5.589-3.726,8.15l-1.024,1.398v0.047h5.054v1.583H351.085z"/>
			</g>
			<g>
				<path style="fill:#272525;" d="M367.441,628.893v1.398h-5.101v-1.398H367.441z"/>
			</g>
			<g>
				<path style="fill:#272525;" d="M376.272,628.893v1.398h-5.101v-1.398H376.272z"/>
			</g>
		</g>
	</g>
	<g>
		<g>
			<g>
				<path style="fill:#A5A7A9;" d="M286.516,749.366l-0.698,3.136h-1.149l2.391-10.464h1.32l2.329,10.464h-1.18l-0.7-3.136H286.516z
					 M288.674,748.403l-0.542-2.655c-0.155-0.745-0.296-1.614-0.419-2.389h-0.063c-0.123,0.791-0.279,1.692-0.419,2.389
					l-0.544,2.655H288.674z"/>
			</g>
			<g>
				<path style="fill:#A5A7A9;" d="M294.827,749.366l-0.698,3.136h-1.149l2.391-10.464h1.32l2.329,10.464h-1.18l-0.7-3.136H294.827z
					 M296.987,748.403l-0.544-2.655c-0.156-0.745-0.296-1.614-0.419-2.389h-0.063c-0.123,0.791-0.279,1.692-0.419,2.389L295,748.403
					H296.987z"/>
			</g>
			<g>
				<path style="fill:#A5A7A9;" d="M303.137,749.366l-0.698,3.136h-1.149l2.391-10.464h1.32l2.329,10.464h-1.18l-0.7-3.136H303.137z
					 M305.297,748.403l-0.544-2.655c-0.155-0.745-0.296-1.614-0.419-2.389h-0.063c-0.123,0.791-0.279,1.692-0.419,2.389
					l-0.542,2.655H305.297z"/>
			</g>
			<g>
				<path style="fill:#A5A7A9;" d="M314.321,744.242v3.696h3.571v0.838h-3.571v3.726h-0.868v-3.726h-3.571v-0.838h3.571v-3.696
					H314.321z"/>
			</g>
			<g>
				<path style="fill:#A5A7A9;" d="M325.134,744.242v3.696h3.571v0.838h-3.571v3.726h-0.868v-3.726h-3.571v-0.838h3.571v-3.696
					H325.134z"/>
			</g>
		</g>
		<g>
			<g>
				<path style="fill:#272525;" d="M285.376,722.922c0.535,0.349,1.466,0.63,2.259,0.63c1.631,0,2.607-1.071,2.607-2.657
					c0-1.443-0.838-2.329-2.073-3.26c-1.233-0.861-2.956-2.329-2.956-4.354c0-2.376,1.654-4.123,4.145-4.123
					c0.979,0,1.84,0.302,2.211,0.582l-0.442,1.536c-0.396-0.279-1.049-0.535-1.862-0.535c-1.538,0-2.26,1.164-2.26,2.236
					c0,1.561,0.815,2.166,2.306,3.237c1.887,1.327,2.725,2.771,2.725,4.519c0,2.7-1.91,4.401-4.401,4.401
					c-1.071,0-2.213-0.351-2.655-0.675L285.376,722.922z"/>
			</g>
			<g>
				<path style="fill:#272525;" d="M298.424,710.742v2.981h2.166v1.373h-2.166v6.685c0,1.468,0.535,1.864,1.187,1.864
					c0.279,0,0.512-0.025,0.723-0.07l0.07,1.373c-0.326,0.117-0.745,0.188-1.327,0.188c-0.7,0-1.329-0.188-1.771-0.675
					c-0.442-0.514-0.675-1.282-0.675-2.843v-6.521h-1.375v-1.373h1.375v-2.469L298.424,710.742z"/>
			</g>
			<g>
				<path style="fill:#272525;" d="M311.261,721.921c0,1.257,0.07,2.236,0.093,3.074h-1.561l-0.116-1.187h-0.047
					c-0.349,0.557-1.212,1.373-2.422,1.373c-1.98,0-2.748-1.536-2.748-4.331v-7.126h1.792v6.87c0,1.769,0.281,3.074,1.515,3.074
					c1.047,0,1.513-0.979,1.606-1.491c0.07-0.303,0.093-0.652,0.093-1.024v-7.43h1.794V721.921z"/>
			</g>
			<g>
				<path style="fill:#272525;" d="M322.887,708.878v13.414c0,0.77,0.07,2.05,0.093,2.702h-1.536l-0.118-1.42h-0.07
					c-0.372,0.815-1.164,1.606-2.351,1.606c-1.91,0-3.284-2.073-3.284-5.776c0-4.005,1.654-5.867,3.4-5.867
					c0.815,0,1.608,0.394,2.05,1.35h0.047v-6.009H322.887z M321.118,718.009c0-0.233,0-0.489-0.025-0.745
					c-0.116-1.164-0.813-2.19-1.676-2.19c-1.49,0-2.002,2.073-2.002,4.331c0,2.376,0.605,4.286,1.91,4.286
					c0.559,0,1.327-0.302,1.724-1.932c0.046-0.211,0.07-0.466,0.07-0.745V718.009z"/>
			</g>
			<g>
				<path style="fill:#272525;" d="M329.672,710.812c0.023,0.698-0.421,1.164-1.096,1.164c-0.582,0-1.024-0.466-1.024-1.164
					c0-0.7,0.466-1.164,1.049-1.164C329.251,709.648,329.672,710.112,329.672,710.812z M327.738,724.995v-11.272h1.794v11.272
					H327.738z"/>
			</g>
			<g>
				<path style="fill:#272525;" d="M341.272,719.359c0,4.356-2.027,5.822-3.751,5.822c-2.025,0-3.656-1.839-3.656-5.799
					c0-4.123,1.841-5.844,3.774-5.844C339.641,713.537,341.272,715.422,341.272,719.359z M335.659,719.359
					c0,1.862,0.326,4.401,1.957,4.401c1.536,0,1.839-2.655,1.839-4.401c0-1.724-0.303-4.379-1.887-4.379
					C335.962,714.98,335.659,717.635,335.659,719.359z"/>
			</g>
			<g>
				<path style="fill:#272525;" d="M351.389,723.062c0.465,0.279,1.28,0.628,2.188,0.628c1.561,0,2.609-1.142,2.609-3.026
					c0-1.98-1.234-3.121-3.051-3.121h-0.419v-1.35h0.349c1.071-0.025,2.725-0.838,2.725-2.702c0-1.513-0.815-2.329-2.003-2.329
					c-0.745,0-1.398,0.372-1.887,0.722l-0.396-1.352c0.559-0.442,1.583-0.861,2.725-0.861c2.143,0,3.353,1.538,3.353,3.493
					c0,1.513-0.791,2.841-2.259,3.54v0.046c1.352,0.374,2.655,1.585,2.655,3.959c0,2.469-1.583,4.471-4.331,4.471
					c-0.978,0-2.05-0.279-2.655-0.698L351.389,723.062z"/>
			</g>
			<g>
				<path style="fill:#272525;" d="M367.441,718.217v1.398h-5.101v-1.398H367.441z"/>
			</g>
			<g>
				<path style="fill:#272525;" d="M376.272,718.217v1.398h-5.101v-1.398H376.272z"/>
			</g>
		</g>
	</g>
	<g>
		<g>
			<g>
				<path style="fill:#A5A7A9;" d="M286.516,840.632l-0.698,3.136h-1.149l2.391-10.464h1.32l2.329,10.464h-1.18l-0.7-3.136H286.516z
					 M288.674,839.669l-0.542-2.655c-0.155-0.745-0.296-1.614-0.419-2.389h-0.063c-0.123,0.791-0.279,1.692-0.419,2.389
					l-0.544,2.655H288.674z"/>
			</g>
			<g>
				<path style="fill:#A5A7A9;" d="M294.827,840.632l-0.698,3.136h-1.149l2.391-10.464h1.32l2.329,10.464h-1.18l-0.7-3.136H294.827z
					 M296.987,839.669l-0.544-2.655c-0.156-0.745-0.296-1.614-0.419-2.389h-0.063c-0.123,0.791-0.279,1.692-0.419,2.389L295,839.669
					H296.987z"/>
			</g>
			<g>
				<path style="fill:#A5A7A9;" d="M303.137,840.632l-0.698,3.136h-1.149l2.391-10.464h1.32l2.329,10.464h-1.18l-0.7-3.136H303.137z
					 M305.297,839.669l-0.544-2.655c-0.155-0.745-0.296-1.614-0.419-2.389h-0.063c-0.123,0.791-0.279,1.692-0.419,2.389
					l-0.542,2.655H305.297z"/>
			</g>
			<g>
				<path style="fill:#A5A7A9;" d="M314.321,835.508v3.696h3.571v0.838h-3.571v3.726h-0.868v-3.726h-3.571v-0.838h3.571v-3.696
					H314.321z"/>
			</g>
			<g>
				<path style="fill:#A5A7A9;" d="M325.134,835.508v3.696h3.571v0.838h-3.571v3.726h-0.868v-3.726h-3.571v-0.838h3.571v-3.696
					H325.134z"/>
			</g>
		</g>
		<g>
			<g>
				<path style="fill:#272525;" d="M285.376,814.188c0.535,0.349,1.466,0.63,2.259,0.63c1.631,0,2.607-1.071,2.607-2.657
					c0-1.443-0.838-2.329-2.073-3.26c-1.233-0.861-2.956-2.329-2.956-4.354c0-2.376,1.654-4.123,4.145-4.123
					c0.979,0,1.84,0.301,2.211,0.582l-0.442,1.536c-0.396-0.279-1.049-0.535-1.862-0.535c-1.538,0-2.26,1.164-2.26,2.236
					c0,1.561,0.815,2.166,2.306,3.237c1.887,1.327,2.725,2.771,2.725,4.519c0,2.7-1.91,4.401-4.401,4.401
					c-1.071,0-2.213-0.351-2.655-0.675L285.376,814.188z"/>
			</g>
			<g>
				<path style="fill:#272525;" d="M298.424,802.008v2.981h2.166v1.373h-2.166v6.685c0,1.468,0.535,1.864,1.187,1.864
					c0.279,0,0.512-0.025,0.723-0.07l0.07,1.373c-0.326,0.118-0.745,0.188-1.327,0.188c-0.7,0-1.329-0.188-1.771-0.675
					c-0.442-0.514-0.675-1.282-0.675-2.843v-6.521h-1.375v-1.373h1.375v-2.469L298.424,802.008z"/>
			</g>
			<g>
				<path style="fill:#272525;" d="M311.261,813.187c0,1.257,0.07,2.236,0.093,3.074h-1.561l-0.116-1.187h-0.047
					c-0.349,0.557-1.212,1.373-2.422,1.373c-1.98,0-2.748-1.536-2.748-4.331v-7.126h1.792v6.87c0,1.769,0.281,3.074,1.515,3.074
					c1.047,0,1.513-0.979,1.606-1.49c0.07-0.303,0.093-0.652,0.093-1.024v-7.43h1.794V813.187z"/>
			</g>
			<g>
				<path style="fill:#272525;" d="M322.887,800.144v13.415c0,0.77,0.07,2.05,0.093,2.702h-1.536l-0.118-1.42h-0.07
					c-0.372,0.815-1.164,1.606-2.351,1.606c-1.91,0-3.284-2.073-3.284-5.776c0-4.005,1.654-5.867,3.4-5.867
					c0.815,0,1.608,0.394,2.05,1.35h0.047v-6.009H322.887z M321.118,809.275c0-0.233,0-0.489-0.025-0.745
					c-0.116-1.164-0.813-2.19-1.676-2.19c-1.49,0-2.002,2.073-2.002,4.331c0,2.376,0.605,4.286,1.91,4.286
					c0.559,0,1.327-0.302,1.724-1.932c0.046-0.211,0.07-0.466,0.07-0.745V809.275z"/>
			</g>
			<g>
				<path style="fill:#272525;" d="M329.672,802.078c0.023,0.698-0.421,1.164-1.096,1.164c-0.582,0-1.024-0.466-1.024-1.164
					c0-0.7,0.466-1.164,1.049-1.164C329.251,800.914,329.672,801.378,329.672,802.078z M327.738,816.261v-11.272h1.794v11.272
					H327.738z"/>
			</g>
			<g>
				<path style="fill:#272525;" d="M341.272,810.625c0,4.356-2.027,5.822-3.751,5.822c-2.025,0-3.656-1.839-3.656-5.799
					c0-4.123,1.841-5.844,3.774-5.844C339.641,804.803,341.272,806.688,341.272,810.625z M335.659,810.625
					c0,1.862,0.326,4.401,1.957,4.401c1.536,0,1.839-2.655,1.839-4.401c0-1.724-0.303-4.379-1.887-4.379
					C335.962,806.246,335.659,808.901,335.659,810.625z"/>
			</g>
			<g>
				<path style="fill:#272525;" d="M355.79,816.261v-4.168h-5.031v-1.212l4.913-9.759h1.747v9.503h1.654v1.468h-1.654v4.168H355.79z
					 M355.79,810.625v-4.286c0-1.047,0.07-1.98,0.138-2.981h-0.093c-0.512,1.212-0.838,1.934-1.28,2.865l-2.095,4.354v0.047H355.79z
					"/>
			</g>
			<g>
				<path style="fill:#272525;" d="M367.441,809.483v1.398h-5.101v-1.398H367.441z"/>
			</g>
			<g>
				<path style="fill:#272525;" d="M376.272,809.483v1.398h-5.101v-1.398H376.272z"/>
			</g>
		</g>
	</g>
	<g>
		<g>
			<g>
				<path style="fill:#A5A7A9;" d="M286.516,924.131l-0.698,3.137h-1.149l2.391-10.464h1.32l2.329,10.464h-1.18l-0.7-3.137H286.516z
					 M288.674,923.168l-0.542-2.655c-0.155-0.745-0.296-1.614-0.419-2.389h-0.063c-0.123,0.791-0.279,1.692-0.419,2.389
					l-0.544,2.655H288.674z"/>
			</g>
			<g>
				<path style="fill:#A5A7A9;" d="M294.827,924.131l-0.698,3.137h-1.149l2.391-10.464h1.32l2.329,10.464h-1.18l-0.7-3.137H294.827z
					 M296.987,923.168l-0.544-2.655c-0.156-0.745-0.296-1.614-0.419-2.389h-0.063c-0.123,0.791-0.279,1.692-0.419,2.389L295,923.168
					H296.987z"/>
			</g>
			<g>
				<path style="fill:#A5A7A9;" d="M303.137,924.131l-0.698,3.137h-1.149l2.391-10.464h1.32l2.329,10.464h-1.18l-0.7-3.137H303.137z
					 M305.297,923.168l-0.544-2.655c-0.155-0.745-0.296-1.614-0.419-2.389h-0.063c-0.123,0.791-0.279,1.692-0.419,2.389
					l-0.542,2.655H305.297z"/>
			</g>
			<g>
				<path style="fill:#A5A7A9;" d="M314.321,919.007v3.696h3.571v0.838h-3.571v3.726h-0.868v-3.726h-3.571v-0.838h3.571v-3.696
					H314.321z"/>
			</g>
			<g>
				<path style="fill:#A5A7A9;" d="M325.134,919.007v3.696h3.571v0.838h-3.571v3.726h-0.868v-3.726h-3.571v-0.838h3.571v-3.696
					H325.134z"/>
			</g>
		</g>
		<g>
			<g>
				<path style="fill:#272525;" d="M285.376,897.687c0.535,0.349,1.466,0.63,2.259,0.63c1.631,0,2.607-1.071,2.607-2.657
					c0-1.443-0.838-2.329-2.073-3.26c-1.233-0.861-2.956-2.329-2.956-4.354c0-2.376,1.654-4.123,4.145-4.123
					c0.979,0,1.84,0.302,2.211,0.582l-0.442,1.536c-0.396-0.279-1.049-0.535-1.862-0.535c-1.538,0-2.26,1.164-2.26,2.236
					c0,1.561,0.815,2.166,2.306,3.237c1.887,1.328,2.725,2.771,2.725,4.519c0,2.7-1.91,4.401-4.401,4.401
					c-1.071,0-2.213-0.351-2.655-0.675L285.376,897.687z"/>
			</g>
			<g>
				<path style="fill:#272525;" d="M298.424,885.507v2.981h2.166v1.373h-2.166v6.685c0,1.468,0.535,1.864,1.187,1.864
					c0.279,0,0.512-0.025,0.723-0.07l0.07,1.373c-0.326,0.118-0.745,0.188-1.327,0.188c-0.7,0-1.329-0.188-1.771-0.675
					c-0.442-0.514-0.675-1.282-0.675-2.842v-6.521h-1.375v-1.373h1.375v-2.469L298.424,885.507z"/>
			</g>
			<g>
				<path style="fill:#272525;" d="M311.261,896.686c0,1.257,0.07,2.236,0.093,3.074h-1.561l-0.116-1.187h-0.047
					c-0.349,0.557-1.212,1.373-2.422,1.373c-1.98,0-2.748-1.536-2.748-4.331v-7.126h1.792v6.87c0,1.769,0.281,3.074,1.515,3.074
					c1.047,0,1.513-0.979,1.606-1.491c0.07-0.303,0.093-0.652,0.093-1.024v-7.43h1.794V896.686z"/>
			</g>
			<g>
				<path style="fill:#272525;" d="M322.887,883.643v13.414c0,0.77,0.07,2.05,0.093,2.702h-1.536l-0.118-1.42h-0.07
					c-0.372,0.815-1.164,1.606-2.351,1.606c-1.91,0-3.284-2.073-3.284-5.776c0-4.005,1.654-5.867,3.4-5.867
					c0.815,0,1.608,0.395,2.05,1.35h0.047v-6.009H322.887z M321.118,892.773c0-0.233,0-0.489-0.025-0.745
					c-0.116-1.164-0.813-2.19-1.676-2.19c-1.49,0-2.002,2.073-2.002,4.331c0,2.376,0.605,4.286,1.91,4.286
					c0.559,0,1.327-0.301,1.724-1.932c0.046-0.211,0.07-0.466,0.07-0.745V892.773z"/>
			</g>
			<g>
				<path style="fill:#272525;" d="M329.672,885.577c0.023,0.698-0.421,1.164-1.096,1.164c-0.582,0-1.024-0.466-1.024-1.164
					c0-0.7,0.466-1.164,1.049-1.164C329.251,884.413,329.672,884.877,329.672,885.577z M327.738,899.76v-11.272h1.794v11.272
					H327.738z"/>
			</g>
			<g>
				<path style="fill:#272525;" d="M341.272,894.124c0,4.356-2.027,5.822-3.751,5.822c-2.025,0-3.656-1.839-3.656-5.799
					c0-4.123,1.841-5.845,3.774-5.845C339.641,888.302,341.272,890.187,341.272,894.124z M335.659,894.124
					c0,1.862,0.326,4.401,1.957,4.401c1.536,0,1.839-2.655,1.839-4.401c0-1.724-0.303-4.379-1.887-4.379
					C335.962,889.745,335.659,892.4,335.659,894.124z"/>
			</g>
			<g>
				<path style="fill:#272525;" d="M358.096,886.205h-4.077l-0.628,4.03c0.186-0.047,0.349-0.047,0.559-0.047
					c0.814,0,2.073,0.351,2.886,1.142c0.793,0.793,1.259,1.91,1.259,3.448c0,3.004-1.887,5.169-4.589,5.169
					c-0.908,0-1.955-0.256-2.562-0.652l0.396-1.443c0.467,0.279,1.282,0.605,2.12,0.605c1.536,0,2.863-1.187,2.863-3.493
					c0-2.399-1.466-3.4-3.423-3.4c-0.559,0-0.908,0.023-1.187,0.07l0.954-7.011h5.427V886.205z"/>
			</g>
			<g>
				<path style="fill:#272525;" d="M367.441,892.982v1.397h-5.101v-1.397H367.441z"/>
			</g>
			<g>
				<path style="fill:#272525;" d="M376.272,892.982v1.397h-5.101v-1.397H376.272z"/>
			</g>
		</g>
	</g>
	<g>
		<g>
			<g>
				<path style="fill:#A5A7A9;" d="M286.516,1007.63l-0.698,3.136h-1.149l2.391-10.464h1.32l2.329,10.464h-1.18l-0.7-3.136H286.516z
					 M288.674,1006.666l-0.542-2.655c-0.155-0.745-0.296-1.614-0.419-2.389h-0.063c-0.123,0.791-0.279,1.692-0.419,2.389
					l-0.544,2.655H288.674z"/>
			</g>
			<g>
				<path style="fill:#A5A7A9;" d="M294.827,1007.63l-0.698,3.136h-1.149l2.391-10.464h1.32l2.329,10.464h-1.18l-0.7-3.136H294.827z
					 M296.987,1006.666l-0.544-2.655c-0.156-0.745-0.296-1.614-0.419-2.389h-0.063c-0.123,0.791-0.279,1.692-0.419,2.389
					l-0.542,2.655H296.987z"/>
			</g>
			<g>
				<path style="fill:#A5A7A9;" d="M303.137,1007.63l-0.698,3.136h-1.149l2.391-10.464h1.32l2.329,10.464h-1.18l-0.7-3.136H303.137z
					 M305.297,1006.666l-0.544-2.655c-0.155-0.745-0.296-1.614-0.419-2.389h-0.063c-0.123,0.791-0.279,1.692-0.419,2.389
					l-0.542,2.655H305.297z"/>
			</g>
			<g>
				<path style="fill:#A5A7A9;" d="M314.321,1002.506v3.696h3.571v0.838h-3.571v3.726h-0.868v-3.726h-3.571v-0.838h3.571v-3.696
					H314.321z"/>
			</g>
			<g>
				<path style="fill:#A5A7A9;" d="M325.134,1002.506v3.696h3.571v0.838h-3.571v3.726h-0.868v-3.726h-3.571v-0.838h3.571v-3.696
					H325.134z"/>
			</g>
		</g>
		<g>
			<g>
				<path style="fill:#272525;" d="M285.376,981.186c0.535,0.349,1.466,0.63,2.259,0.63c1.631,0,2.607-1.071,2.607-2.657
					c0-1.443-0.838-2.329-2.073-3.26c-1.233-0.861-2.956-2.329-2.956-4.354c0-2.376,1.654-4.123,4.145-4.123
					c0.979,0,1.84,0.301,2.211,0.582l-0.442,1.536c-0.396-0.279-1.049-0.535-1.862-0.535c-1.538,0-2.26,1.164-2.26,2.236
					c0,1.561,0.815,2.166,2.306,3.237c1.887,1.327,2.725,2.771,2.725,4.519c0,2.7-1.91,4.401-4.401,4.401
					c-1.071,0-2.213-0.351-2.655-0.675L285.376,981.186z"/>
			</g>
			<g>
				<path style="fill:#272525;" d="M298.424,969.005v2.981h2.166v1.373h-2.166v6.685c0,1.468,0.535,1.864,1.187,1.864
					c0.279,0,0.512-0.025,0.723-0.07l0.07,1.373c-0.326,0.118-0.745,0.188-1.327,0.188c-0.7,0-1.329-0.188-1.771-0.675
					c-0.442-0.514-0.675-1.282-0.675-2.843v-6.521h-1.375v-1.373h1.375v-2.469L298.424,969.005z"/>
			</g>
			<g>
				<path style="fill:#272525;" d="M311.261,980.184c0,1.257,0.07,2.236,0.093,3.074h-1.561l-0.116-1.187h-0.047
					c-0.349,0.557-1.212,1.373-2.422,1.373c-1.98,0-2.748-1.536-2.748-4.331v-7.126h1.792v6.87c0,1.769,0.281,3.074,1.515,3.074
					c1.047,0,1.513-0.979,1.606-1.49c0.07-0.303,0.093-0.652,0.093-1.024v-7.43h1.794V980.184z"/>
			</g>
			<g>
				<path style="fill:#272525;" d="M322.887,967.141v13.415c0,0.77,0.07,2.05,0.093,2.702h-1.536l-0.118-1.42h-0.07
					c-0.372,0.815-1.164,1.606-2.351,1.606c-1.91,0-3.284-2.073-3.284-5.776c0-4.005,1.654-5.867,3.4-5.867
					c0.815,0,1.608,0.394,2.05,1.35h0.047v-6.009H322.887z M321.118,976.272c0-0.233,0-0.489-0.025-0.745
					c-0.116-1.164-0.813-2.19-1.676-2.19c-1.49,0-2.002,2.073-2.002,4.331c0,2.376,0.605,4.286,1.91,4.286
					c0.559,0,1.327-0.302,1.724-1.932c0.046-0.21,0.07-0.466,0.07-0.745V976.272z"/>
			</g>
			<g>
				<path style="fill:#272525;" d="M329.672,969.076c0.023,0.698-0.421,1.164-1.096,1.164c-0.582,0-1.024-0.466-1.024-1.164
					c0-0.7,0.466-1.164,1.049-1.164C329.251,967.911,329.672,968.376,329.672,969.076z M327.738,983.258v-11.272h1.794v11.272
					H327.738z"/>
			</g>
			<g>
				<path style="fill:#272525;" d="M341.272,977.622c0,4.356-2.027,5.822-3.751,5.822c-2.025,0-3.656-1.839-3.656-5.799
					c0-4.123,1.841-5.844,3.774-5.844C339.641,971.801,341.272,973.686,341.272,977.622z M335.659,977.622
					c0,1.862,0.326,4.401,1.957,4.401c1.536,0,1.839-2.655,1.839-4.401c0-1.724-0.303-4.379-1.887-4.379
					C335.962,973.244,335.659,975.899,335.659,977.622z"/>
			</g>
			<g>
				<path style="fill:#272525;" d="M357.77,969.447c-0.303,0.025-0.63,0.07-1.072,0.163c-2.516,0.605-3.518,3.121-3.889,5.45h0.07
					c0.582-0.861,1.42-1.443,2.562-1.443c1.932,0,3.26,1.769,3.26,4.657c0,2.863-1.305,5.169-3.726,5.169
					c-2.632,0-3.96-2.678-3.96-6.148c0-2.934,0.768-5.217,1.957-6.823c0.908-1.282,2.351-2.12,3.656-2.399
					c0.489-0.093,0.886-0.117,1.142-0.14V969.447z M356.907,978.415c0-2.283-0.791-3.425-2.025-3.425
					c-0.745,0-1.513,0.512-1.957,1.631c-0.07,0.163-0.139,0.465-0.139,0.908c0.023,3.097,0.977,4.517,2.188,4.517
					C355.999,982.047,356.907,981.045,356.907,978.415z"/>
			</g>
			<g>
				<path style="fill:#272525;" d="M367.441,976.481v1.398h-5.101v-1.398H367.441z"/>
			</g>
			<g>
				<path style="fill:#272525;" d="M376.272,976.481v1.398h-5.101v-1.398H376.272z"/>
			</g>
		</g>
	</g>
</g>
</svg>
