<?xml version="1.0" encoding="UTF-8" standalone="no"?>
<!-- Created with Inkscape (http://www.inkscape.org/) -->

<svg
   width="780mm"
   height="440mm"
   viewBox="0 0 780 440"
   version="1.1"
   id="svg1"
   xml:space="preserve"
   inkscape:version="1.4.2 (f4327f4, 2025-05-13)"
   sodipodi:docname="post-2_.svg"
   xmlns:inkscape="http://www.inkscape.org/namespaces/inkscape"
   xmlns:sodipodi="http://sodipodi.sourceforge.net/DTD/sodipodi-0.dtd"
   xmlns="http://www.w3.org/2000/svg"
   xmlns:svg="http://www.w3.org/2000/svg"><sodipodi:namedview
     id="namedview1"
     pagecolor="#ffffff"
     bordercolor="#000000"
     borderopacity="0.25"
     inkscape:showpageshadow="2"
     inkscape:pageopacity="0.0"
     inkscape:pagecheckerboard="0"
     inkscape:deskcolor="#d1d1d1"
     inkscape:document-units="mm"
     inkscape:zoom="0.22048611"
     inkscape:cx="1360.6299"
     inkscape:cy="682.58268"
     inkscape:window-width="1366"
     inkscape:window-height="697"
     inkscape:window-x="1358"
     inkscape:window-y="31"
     inkscape:window-maximized="1"
     inkscape:current-layer="layer1" /><defs
     id="defs1" /><g
     inkscape:groupmode="layer"
     id="layer2"
     inkscape:label="Capa 2"
     transform="translate(267.40591,46.961433)"><rect
       style="fill:#f2f2f2;stroke-width:0.944999"
       id="rect1"
       width="780"
       height="440"
       x="-267.40591"
       y="-46.961433" /></g><g
     inkscape:label="Capa 1"
     inkscape:groupmode="layer"
     id="layer1"
     transform="translate(285.22501,71.568749)"><g
       transform="matrix(0.52750702,0,0,0.52750702,-443.09802,-198.5233)"
       id="g10"><path
         d="M 797.411,247.279 A 24.721,24.721 0 0 0 774.8,232.154 H 323.562 A 24.474,24.474 0 0 0 299.1,256.615 v 570.863 a 24.474,24.474 0 0 0 24.461,24.461 H 774.82 a 24.493,24.493 0 0 0 24.461,-24.461 V 256.615 a 24.029,24.029 0 0 0 -1.854,-9.335 z m -3.578,580.2 A 19.052,19.052 0 0 1 774.8,846.506 H 323.562 A 19.031,19.031 0 0 1 304.533,827.484 V 256.618 a 19.055,19.055 0 0 1 19.029,-19.029 H 774.82 a 19.123,19.123 0 0 1 17.663,11.97 21.087,21.087 0 0 1 0.715,2.147 18.869,18.869 0 0 1 0.651,4.912 z"
         transform="translate(489.898,138.561)"
         fill="#3f3d56"
         id="path1" /><path
         d="M 578.54,312.161 H 442.619 a 10.874,10.874 0 0 1 0,-21.748 H 578.54 a 10.874,10.874 0 1 1 0,21.748 z"
         transform="translate(614.601,193.333)"
         fill="#3f3d56"
         id="path2" /><path
         d="M 578.54,341.585 H 442.619 a 10.874,10.874 0 0 1 0,-21.748 H 578.54 a 10.874,10.874 0 1 1 0,21.748 z"
         transform="translate(614.601,220.995)"
         fill="#3f3d56"
         id="path3" /><path
         d="m 455.465,416.457 h -99.33 A 12.247,12.247 0 0 1 343.9,404.223 V 287.006 a 12.247,12.247 0 0 1 12.234,-12.234 h 99.33 a 12.247,12.247 0 0 1 12.236,12.234 v 117.217 a 12.247,12.247 0 0 1 -12.235,12.234 z"
         transform="translate(532.016,178.628)"
         fill="#17b8a6"
         id="path4" /><path
         d="m 661.041,401.835 h -307.18 a 10.874,10.874 0 0 1 0,-21.748 h 307.18 a 10.874,10.874 0 1 1 0,21.748 z"
         transform="translate(531.157,277.638)"
         fill="#cccccc"
         id="path5" /><path
         d="m 661.041,431.258 h -307.18 a 10.874,10.874 0 0 1 0,-21.748 h 307.18 a 10.874,10.874 0 1 1 0,21.748 z"
         transform="translate(531.157,305.3)"
         fill="#cccccc"
         id="path6" /><path
         d="m 661.041,460.682 h -307.18 a 10.874,10.874 0 0 1 0,-21.748 h 307.18 a 10.874,10.874 0 1 1 0,21.748 z"
         transform="translate(531.157,332.962)"
         fill="#cccccc"
         id="path7" /><path
         d="m 661.041,490.106 h -307.18 a 10.874,10.874 0 0 1 0,-21.748 h 307.18 a 10.874,10.874 0 1 1 0,21.748 z"
         transform="translate(531.157,360.625)"
         fill="#cccccc"
         id="path8" /><path
         d="m 661.041,519.53 h -307.18 a 10.874,10.874 0 0 1 0,-21.748 h 307.18 a 10.874,10.874 0 1 1 0,21.748 z"
         transform="translate(531.157,388.287)"
         fill="#cccccc"
         id="path9" /><circle
         cx="104.941"
         cy="104.941"
         r="104.941"
         transform="translate(1185.743,270.5)"
         fill="#17b8a6"
         id="circle9" /><path
         d="m 569.583,293.9 a 10.884,10.884 0 0 1 -6.548,-2.176 l -0.117,-0.088 -24.663,-18.866 a 10.961397,10.961397 0 1 1 13.336,-17.4 l 15.975,12.25 37.748,-49.247 a 10.955,10.955 0 0 1 15.36,-2.029 v 0 l -0.234,0.325 0.241,-0.325 a 10.969,10.969 0 0 1 2.026,15.363 l -44.4,57.9 a 10.962,10.962 0 0 1 -8.717,4.274 z"
         transform="translate(710.7,121.575)"
         fill="#ffffff"
         id="path10" /></g></g></svg>
