<?xml version="1.0" encoding="UTF-8" standalone="no"?>
<!-- Made by La Goleta -->

<svg
   width="439.17392"
   height="253.48853"
   viewBox="0 0 439.17392 253.48853"
   version="1.1"
   id="svg8"
   inkscape:version="1.4.2 (f4327f4, 2025-05-13)"
   sodipodi:docname="post-2_.svg"
   inkscape:export-filename="F:\DNS-la_goleta\under-construc.png"
   inkscape:export-xdpi="200.01187"
   inkscape:export-ydpi="200.01187"
   xmlns:inkscape="http://www.inkscape.org/namespaces/inkscape"
   xmlns:sodipodi="http://sodipodi.sourceforge.net/DTD/sodipodi-0.dtd"
   xmlns:xlink="http://www.w3.org/1999/xlink"
   xmlns="http://www.w3.org/2000/svg"
   xmlns:svg="http://www.w3.org/2000/svg"
   xmlns:rdf="http://www.w3.org/1999/02/22-rdf-syntax-ns#"
   xmlns:cc="http://creativecommons.org/ns#"
   xmlns:dc="http://purl.org/dc/elements/1.1/">
  <defs
     id="defs2">
    <linearGradient
       inkscape:collect="always"
       id="linearGradient4135">
      <stop
         style="stop-color:#ffffff;stop-opacity:0.26171875"
         offset="0"
         id="stop4131" />
      <stop
         style="stop-color:#ffffff;stop-opacity:0"
         offset="1"
         id="stop4133" />
    </linearGradient>
    <color-profile
       name="sRGB-v4-ICC-preference-perceptual-intent-beta-display-class"
       xlink:href="C:\Windows\system32\spool\drivers\color\sRGB_v4_ICC_preference_displayclass.icc"
       id="color-profile3" />
    <style
       id="style887"
       type="text/css">
    .fil18 {fill:none}
    .fil17 {fill:#090909}
    .fil11 {fill:#161616}
    .fil1 {fill:#1A1A1A}
    .fil16 {fill:#1C1C1C}
    .fil10 {fill:#1F1F1F}
    .fil2 {fill:#252525}
    .fil13 {fill:#2B2B2B}
    .fil3 {fill:#2E2828}
    .fil12 {fill:#383737}
    .fil7 {fill:#A8A8A8}
    .fil6 {fill:#B3B3B3}
    .fil20 {fill:#BAB4B4}
    .fil15 {fill:silver}
    .fil9 {fill:#C5C5C5}
    .fil19 {fill:#C9C3C3}
    .fil14 {fill:#D6D3D3}
    .fil8 {fill:#DBDBDB}
    .fil0 {fill:white}
    .fil5 {fill:silver;fill-rule:nonzero}
    .fil4 {fill:#D6D3D3;fill-rule:nonzero}
  </style>
    <linearGradient
       inkscape:collect="always"
       xlink:href="#linearGradient4135"
       id="linearGradient4137"
       x1="235.62698"
       y1="340.88699"
       x2="383.53546"
       y2="205.41553"
       gradientUnits="userSpaceOnUse"
       gradientTransform="matrix(0.71523696,0,0,0.71523696,161.20306,119.91786)" />
    <linearGradient
       inkscape:collect="always"
       xlink:href="#linearGradient4135"
       id="linearGradient4607"
       gradientUnits="userSpaceOnUse"
       gradientTransform="matrix(0.61992294,0,0,0.61992294,82.273359,49.643773)"
       x1="235.62698"
       y1="340.88699"
       x2="383.53546"
       y2="205.41553" />
    <color-profile
       id="color-profile4"
       xlink:href="C:\Windows\system32\spool\drivers\color\sRGB_v4_ICC_preference_displayclass.icc"
       name="sRGB-v4-ICC-preference-perceptual-intent-beta-display-class" />
    <linearGradient
       id="linearGradient841"
       inkscape:collect="always">
      <stop
         id="stop837"
         offset="0"
         style="stop-color:#abff94;stop-opacity:1;" />
      <stop
         style="stop-color:#ffb89f;stop-opacity:1"
         offset="0.50693011"
         id="stop845" />
      <stop
         id="stop839"
         offset="1"
         style="stop-color:#94fff4;stop-opacity:1" />
    </linearGradient>
    <linearGradient
       gradientTransform="translate(324.11455,20.221687)"
       gradientUnits="userSpaceOnUse"
       y2="29.39286"
       x2="-400.65475"
       y1="29.39286"
       x1="-564.69641"
       id="linearGradient871"
       xlink:href="#linearGradient841"
       inkscape:collect="always" />
    <clipPath
       id="clipPath1691"
       clipPathUnits="userSpaceOnUse">
      <circle
         style="opacity:1;fill:#000639;fill-opacity:1;fill-rule:evenodd;stroke:none;stroke-width:0.52700001;stroke-linecap:round;stroke-linejoin:bevel;stroke-miterlimit:4;stroke-dasharray:0.52699999, 12.64799984;stroke-dashoffset:0;stroke-opacity:1;paint-order:fill markers stroke"
         id="circle1693"
         cx="-158.561"
         cy="49.614582"
         r="74.083336" />
    </clipPath>
  </defs>
  <sodipodi:namedview
     id="base"
     pagecolor="#ffffff"
     bordercolor="#666666"
     borderopacity="1.0"
     inkscape:pageopacity="0.0"
     inkscape:pageshadow="2"
     inkscape:zoom="1.4142136"
     inkscape:cx="175.71603"
     inkscape:cy="148.13887"
     inkscape:document-units="px"
     inkscape:current-layer="layer4"
     showgrid="false"
     units="px"
     inkscape:window-width="1366"
     inkscape:window-height="697"
     inkscape:window-x="-8"
     inkscape:window-y="-8"
     inkscape:window-maximized="1"
     showguides="false"
     inkscape:guide-bbox="true"
     inkscape:snap-global="false"
     inkscape:snap-bbox="true"
     inkscape:bbox-paths="true"
     inkscape:bbox-nodes="true"
     inkscape:snap-bbox-edge-midpoints="true"
     inkscape:snap-bbox-midpoints="true"
     fit-margin-top="0"
     fit-margin-left="0"
     fit-margin-right="0"
     fit-margin-bottom="0"
     inkscape:pagecheckerboard="0"
     inkscape:showpageshadow="2"
     inkscape:deskcolor="#d1d1d1">
    <sodipodi:guide
       position="-57.826213,-832.08393"
       orientation="0,1200"
       id="guide817"
       inkscape:locked="false" />
    <sodipodi:guide
       position="1142.1738,-832.08393"
       orientation="-1200,0"
       id="guide819"
       inkscape:locked="false" />
    <sodipodi:guide
       position="1142.1738,367.91608"
       orientation="0,-1200"
       id="guide821"
       inkscape:locked="false" />
    <sodipodi:guide
       position="-57.826213,367.91608"
       orientation="1200,0"
       id="guide823"
       inkscape:locked="false" />
    <sodipodi:guide
       position="363.89246,-515.26801"
       orientation="0,1"
       id="guide2031"
       inkscape:locked="false" />
    <sodipodi:guide
       position="980.47629,-495.92295"
       orientation="1,0"
       id="guide2577"
       inkscape:locked="false" />
    <sodipodi:guide
       position="836.85959,-311.42134"
       orientation="0,1"
       id="guide2674"
       inkscape:locked="false" />
    <sodipodi:guide
       position="767.93093,-656.85477"
       orientation="1,0"
       id="guide2676"
       inkscape:locked="false" />
    <sodipodi:guide
       position="561.57469,-195.66281"
       orientation="0,1"
       id="guide2678"
       inkscape:locked="false" />
    <sodipodi:guide
       position="561.57465,-100.66277"
       orientation="1,0"
       id="guide2680"
       inkscape:locked="false" />
    <sodipodi:guide
       position="28.349628,157.91606"
       orientation="1,0"
       id="guide4224"
       inkscape:locked="false" />
    <sodipodi:guide
       position="693.60237,-511.36965"
       orientation="1,0"
       id="guide4270"
       inkscape:locked="false" />
    <sodipodi:guide
       position="809.31665,-741.98469"
       orientation="0,1"
       id="guide4334"
       inkscape:locked="false" />
    <sodipodi:guide
       position="767.93093,-642.10425"
       orientation="0,1"
       id="guide5913"
       inkscape:locked="false" />
    <sodipodi:guide
       position="661.20137,-533.84825"
       orientation="0,1"
       id="guide5915"
       inkscape:locked="false" />
    <sodipodi:guide
       position="1070.1975,41.263225"
       orientation="1,0"
       id="guide5917"
       inkscape:locked="false" />
    <sodipodi:guide
       position="28.349628,-555.30213"
       orientation="0,1"
       id="guide5927"
       inkscape:locked="false" />
    <sodipodi:guide
       position="132.73261,-477.79821"
       orientation="1,0"
       id="guide5929"
       inkscape:locked="false" />
    <sodipodi:guide
       position="133.29451,-695.14367"
       orientation="0,1"
       id="guide6208"
       inkscape:locked="false" />
    <sodipodi:guide
       position="468.11714,-621.65159"
       orientation="0,1"
       id="guide6210"
       inkscape:locked="false" />
    <sodipodi:guide
       position="661.20137,-501.36965"
       orientation="1,0"
       id="guide6212"
       inkscape:locked="false" />
    <sodipodi:guide
       position="-57.826213,-812.08397"
       orientation="0,1"
       id="guide6214"
       inkscape:locked="false" />
    <sodipodi:guide
       position="733.39865,-163.73541"
       orientation="1,0"
       id="guide1653"
       inkscape:locked="false" />
  </sodipodi:namedview>
  <metadata
     id="metadata5">
    <rdf:RDF>
      <cc:Work
         rdf:about="">
        <dc:format>image/svg+xml</dc:format>
        <dc:type
           rdf:resource="http://purl.org/dc/dcmitype/StillImage" />
        <cc:license
           rdf:resource="http://creativecommons.org/publicdomain/zero/1.0/" />
      </cc:Work>
      <cc:License
         rdf:about="http://creativecommons.org/publicdomain/zero/1.0/">
        <cc:permits
           rdf:resource="http://creativecommons.org/ns#Reproduction" />
        <cc:permits
           rdf:resource="http://creativecommons.org/ns#Distribution" />
        <cc:permits
           rdf:resource="http://creativecommons.org/ns#DerivativeWorks" />
      </cc:License>
    </rdf:RDF>
  </metadata>
  <g
     inkscape:groupmode="layer"
     id="layer2"
     inkscape:label="fondo"
     style="display:inline"
     transform="translate(-28.913106,-57.213771)" />
  <g
     inkscape:label="Capa 1"
     inkscape:groupmode="layer"
     id="layer1"
     transform="translate(-28.913106,-36.713751)"
     style="display:inline">
    <g
       id="g2082"
       transform="matrix(-0.20528735,0,0,-0.20528735,202.45932,373.08874)" />
    <g
       id="g2084"
       transform="matrix(-0.20528735,0,0,-0.20528735,202.45932,373.08874)" />
    <g
       id="g2086"
       transform="matrix(-0.20528735,0,0,-0.20528735,202.45932,373.08874)" />
    <g
       id="g2088"
       transform="matrix(-0.20528735,0,0,-0.20528735,202.45932,373.08874)" />
    <g
       id="g2090"
       transform="matrix(-0.20528735,0,0,-0.20528735,202.45932,373.08874)" />
    <g
       id="g2092"
       transform="matrix(-0.20528735,0,0,-0.20528735,202.45932,373.08874)" />
    <g
       id="g2094"
       transform="matrix(-0.20528735,0,0,-0.20528735,202.45932,373.08874)" />
    <g
       id="g2096"
       transform="matrix(-0.20528735,0,0,-0.20528735,202.45932,373.08874)" />
    <g
       id="g2098"
       transform="matrix(-0.20528735,0,0,-0.20528735,202.45932,373.08874)" />
    <g
       id="g2100"
       transform="matrix(-0.20528735,0,0,-0.20528735,202.45932,373.08874)" />
    <g
       id="g2102"
       transform="matrix(-0.20528735,0,0,-0.20528735,202.45932,373.08874)" />
    <g
       id="g2104"
       transform="matrix(-0.20528735,0,0,-0.20528735,202.45932,373.08874)" />
    <g
       id="g2106"
       transform="matrix(-0.20528735,0,0,-0.20528735,202.45932,373.08874)" />
    <g
       id="g2108"
       transform="matrix(-0.20528735,0,0,-0.20528735,202.45932,373.08874)" />
    <g
       id="g2110"
       transform="matrix(-0.20528735,0,0,-0.20528735,202.45932,373.08874)" />
  </g>
  <g
     inkscape:groupmode="layer"
     id="layer4"
     inkscape:label="dibujo"
     style="display:inline"
     transform="translate(-28.913106,-57.213771)">
    <g
       id="layer4-4"
       inkscape:label="dibujo"
       style="display:inline"
       transform="translate(-0.07473102,0.0496587)">
      <path
         style="opacity:1;fill:#d50000;fill-opacity:1;stroke:none;stroke-width:0.0645445;stroke-linecap:round;stroke-linejoin:round;stroke-miterlimit:4;stroke-dasharray:none;stroke-opacity:1"
         d="m 39.527511,127.04456 h 1.830888 c 0.136809,0 0.246948,0.0942 0.246948,0.21124 v 1.41738 c 0,0.11703 -0.110139,0.21124 -0.246948,0.21124 h -1.830888 c -0.136809,0 -0.246948,-0.0942 -0.246948,-0.21124 v -1.41738 c 0,-0.11703 0.110139,-0.21124 0.246948,-0.21124 z"
         id="luz-3"
         inkscape:connector-curvature="0" />
      <path
         style="opacity:1;fill:#d50000;fill-opacity:1;stroke:none;stroke-width:0.1;stroke-linecap:round;stroke-linejoin:round;stroke-miterlimit:4;stroke-dasharray:none;stroke-opacity:1"
         d="m 278.68768,106.62971 h 2.54544 c 0.13681,0 0.24695,0.0942 0.24695,0.21123 v 2.70931 c 0,0.11702 -0.11014,0.21123 -0.24695,0.21123 h -2.54544 c -0.13681,0 -0.24695,-0.0942 -0.24695,-0.21123 v -2.70931 c 0,-0.11702 0.11014,-0.21123 0.24695,-0.21123 z"
         id="luz-1"
         inkscape:connector-curvature="0" />
      <path
         style="opacity:1;fill:#d50000;fill-opacity:1;stroke:none;stroke-width:0.066655;stroke-linecap:round;stroke-linejoin:round;stroke-miterlimit:4;stroke-dasharray:none;stroke-opacity:1"
         d="m 95.364891,139.09489 h 1.906902 c 0.136809,0 0.246948,0.0942 0.246948,0.21124 v 1.47754 c 0,0.11703 -0.110139,0.21124 -0.246948,0.21124 h -1.906902 c -0.136809,0 -0.246948,-0.0942 -0.246948,-0.21124 v -1.47754 c 0,-0.11702 0.110139,-0.21124 0.246948,-0.21124 z"
         id="luz-4"
         inkscape:connector-curvature="0" />
      <path
         style="opacity:1;fill:#d50000;fill-opacity:1;stroke:none;stroke-width:0.1;stroke-linecap:round;stroke-linejoin:round;stroke-miterlimit:4;stroke-dasharray:none;stroke-opacity:1"
         d="m 110.49944,87.41124 h 2.13566 c 0.13681,0 0.24694,0.09421 0.24694,0.211237 v 2.626924 c 0,0.117026 -0.11013,0.211237 -0.24694,0.211237 h -2.13566 c -0.13681,0 -0.24695,-0.09421 -0.24695,-0.211237 v -2.626924 c 0,-0.117026 0.11014,-0.211237 0.24695,-0.211237 z"
         id="luz-2"
         inkscape:connector-curvature="0" />
    </g>
    <g
       style="clip-rule:evenodd;fill-rule:evenodd;stroke-linejoin:round;stroke-miterlimit:1.41420996"
       id="g1507"
       transform="matrix(0.25047094,0,0,0.25047094,15.268991,-44.311317)">
      <g
         id="g1497">
        <g
           id="g1489">
          <g
             id="g1461"
             transform="matrix(1,0.944743,-0.686738,0.726905,1006.93,71.4979)" />
          <g
             id="g1487">
            <g
               id="g1465"
               transform="translate(88.9497,-0.0314379)" />
            <g
               id="g1469"
               transform="translate(88.9497,-89.672)" />
            <g
               id="g1473"
               transform="translate(88.9497,-179.26)" />
            <g
               id="g1477"
               transform="translate(88.9497,-269.187)" />
            <g
               id="g1481"
               transform="translate(89.0951,-358.817)" />
            <g
               id="g1485"
               transform="translate(88.9497,-448.563)" />
          </g>
        </g>
        <g
           id="g1495"
           transform="translate(88.9497,-584.814)">
          <g
             id="g1493" />
        </g>
      </g>
      <g
         id="g1501"
         transform="matrix(1.17076,0,0,13.4992,110.663,-17271.9)" />
      <g
         id="g1505"
         transform="matrix(1.21279,0,0,13.4992,37.5347,-17271.9)" />
    </g>
    <rect
       style="opacity:1;fill:#000000;fill-opacity:1;stroke:none;stroke-width:0.1;stroke-linecap:round;stroke-linejoin:round;stroke-miterlimit:4;stroke-dasharray:none;stroke-opacity:1"
       id="rect2376"
       width="3.9332814"
       height="1.1048543"
       x="278.02026"
       y="108.6452"
       rx="0.246948"
       ry="0.211237" />
    <rect
       style="opacity:1;fill:#000000;fill-opacity:1;stroke:none;stroke-width:0.1;stroke-linecap:round;stroke-linejoin:round;stroke-miterlimit:4;stroke-dasharray:none;stroke-opacity:1"
       id="rect2380"
       width="1.3589709"
       height="2.8505242"
       x="96.397606"
       y="138.62125"
       rx="0.246948"
       ry="0.211237" />
    <rect
       ry="0.211237"
       rx="0.246948"
       y="89.709869"
       x="109.31905"
       height="1.1517258"
       width="4.3864059"
       id="rect2378"
       style="opacity:1;fill:#000000;fill-opacity:1;stroke:none;stroke-width:0.1;stroke-linecap:round;stroke-linejoin:round;stroke-miterlimit:4;stroke-dasharray:none;stroke-opacity:1" />
    <path
       inkscape:connector-curvature="0"
       style="display:inline;opacity:1;fill:#5c848d;fill-opacity:1;stroke:none;stroke-width:4;stroke-linecap:square;stroke-linejoin:miter;stroke-miterlimit:4;stroke-dasharray:none;stroke-dashoffset:0;stroke-opacity:1;paint-order:markers stroke fill"
       d="m 273.8477,150.39784 h 194.19292 c 0.0257,0 0.0464,0.0207 0.0464,0.0464 v 36.33574 c 0,0.0257 -0.0207,0.0464 -0.0464,0.0464 H 273.8477 c -0.0257,0 -0.0464,-0.0207 -0.0464,-0.0464 v -36.33574 c 0,-0.0257 0.0207,-0.0464 0.0464,-0.0464 z"
       id="rect4192" />
    <g
       style="fill:#999da6;fill-opacity:1;stroke:#99a1a6;stroke-opacity:1"
       id="g3874"
       transform="matrix(0.34441134,0,0,0.34441134,269.56682,33.538247)">
      <path
         style="fill:#999da6;fill-opacity:1;stroke:#99a1a6;stroke-opacity:1"
         inkscape:connector-curvature="0"
         d="m 149.499,569 c -13.808,0 -25,11.193 -25,25 0,13.807 11.192,25 25,25 13.808,0 25,-11.193 25,-25 0,-13.807 -11.192,-25 -25,-25 z m 0,48 c -12.682,0 -23,-10.317 -23,-23 0,-12.683 10.318,-23 23,-23 12.682,0 23,10.317 23,23 0,12.683 -10.318,23 -23,23 z"
         id="path3870" />
      <path
         style="fill:#999da6;fill-opacity:1;stroke:#99a1a6;stroke-opacity:1"
         inkscape:connector-curvature="0"
         d="m 157.278,586.222 c -0.391,-0.391 -1.023,-0.391 -1.414,0 l -6.364,6.364 -6.364,-6.364 c -0.391,-0.391 -1.023,-0.391 -1.414,0 -0.391,0.391 -0.391,1.023 0,1.414 l 6.364,6.364 -6.364,6.364 c -0.391,0.391 -0.391,1.023 0,1.414 0.195,0.195 0.451,0.293 0.707,0.293 0.256,0 0.512,-0.098 0.707,-0.293 l 6.364,-6.364 6.364,6.364 c 0.195,0.195 0.451,0.293 0.707,0.293 0.256,0 0.512,-0.098 0.707,-0.293 0.391,-0.391 0.391,-1.023 0,-1.414 l -6.364,-6.364 6.364,-6.364 c 0.391,-0.391 0.391,-1.024 0,-1.414 z"
         id="path3872" />
    </g>
    <path
       style="clip-rule:evenodd;fill:#1a1a1a;fill-rule:evenodd;stroke-width:0.03006548;image-rendering:optimizeQuality;shape-rendering:geometricPrecision;text-rendering:geometricPrecision"
       inkscape:connector-curvature="0"
       class="fil1"
       d="m 268.73129,135.13606 h 115.36124 c 0.81176,0 1.5634,0.33073 2.10458,0.87191 0.54117,0.54117 0.87189,1.29282 0.87189,2.10458 v 135.92601 c 0,0.81177 -0.33072,1.56341 -0.87189,2.10459 -0.54118,0.54117 -1.29282,0.87189 -2.10458,0.87189 H 277.66074 v 23.60141 h 43.59494 l 2.88628,5.32158 v 2.07452 h -0.24052 l -0.39084,2.67583 H 212.9899 l -0.39085,-2.67583 h -0.24053 v -2.07452 l 2.88629,-5.32158 h 43.59495 V 277.01504 H 152.40797 c -0.81177,0 -1.56341,-0.33072 -2.10458,-0.87189 -0.54118,-0.54118 -0.8719,-1.29282 -0.8719,-2.10459 V 138.11255 c 0,-0.81176 0.33072,-1.56341 0.8719,-2.10458 0.54117,-0.54118 1.29281,-0.87191 2.10458,-0.87191 z"
       id="path893" />
    <path
       style="clip-rule:evenodd;fill:#5c848d;fill-opacity:1;fill-rule:evenodd;stroke-width:0.03006548;image-rendering:optimizeQuality;shape-rendering:geometricPrecision;text-rendering:geometricPrecision"
       inkscape:connector-curvature="0"
       class="fil2"
       d="m 268.25024,135.61711 h 115.81222 c 1.41308,0 2.5255,1.11243 2.5255,2.5255 V 274.0085 c 0,1.38301 -1.11242,2.5255 -2.5255,2.5255 H 152.43803 c -1.41307,0 -2.5255,-1.14249 -2.5255,-2.5255 V 138.14261 c 0,-1.41307 1.11243,-2.5255 2.5255,-2.5255 z"
       id="path895" />
    <path
       style="clip-rule:evenodd;fill:#a3e2c5;fill-opacity:1;fill-rule:evenodd;stroke-width:0.03006548;image-rendering:optimizeQuality;shape-rendering:geometricPrecision;text-rendering:geometricPrecision"
       inkscape:connector-curvature="0"
       class="fil3"
       d="m 268.25024,135.61711 h 115.81222 c 1.41308,0 2.5255,1.11243 2.5255,2.5255 V 274.0085 c 0,1.38301 -1.11242,2.5255 -2.5255,2.5255 H 319.78247 L 186.80287,135.61711 Z"
       id="path897" />
    <path
       style="fill:url(#linearGradient4607);fill-opacity:1;stroke:none;stroke-width:0.30996147px;stroke-linecap:butt;stroke-linejoin:miter;stroke-opacity:1"
       d="m 347.57602,136.16593 -83.58208,132.51099 -54.05458,0.0598 80.78309,-132.72445 z"
       id="path4129"
       inkscape:connector-curvature="0"
       sodipodi:nodetypes="ccccc" />
    <path
       style="clip-rule:evenodd;fill:#d6d3d3;fill-rule:nonzero;stroke-width:0.03006548;image-rendering:optimizeQuality;shape-rendering:geometricPrecision;text-rendering:geometricPrecision"
       inkscape:connector-curvature="0"
       class="fil4"
       d="M 267.28815,136.06809 H 152.40797 c -0.54118,0 -1.05229,0.24053 -1.44315,0.60131 -0.36078,0.39086 -0.6013,0.90196 -0.6013,1.44315 v 135.92601 c 0,0.54118 0.24052,1.0523 0.6013,1.41308 0.39086,0.39085 0.90197,0.60131 1.44315,0.60131 h 114.88018 v -7.36603 h 0.96209 v 8.32812 H 152.40797 c -0.81177,0 -1.56341,-0.33072 -2.10458,-0.87189 -0.54118,-0.54118 -0.8719,-1.29282 -0.8719,-2.10459 V 138.11255 c 0,-0.81176 0.33072,-1.56341 0.8719,-2.10458 0.54117,-0.54118 1.29281,-0.87191 2.10458,-0.87191 h 115.84227 v 0.93203 z"
       id="path899" />
    <path
       style="clip-rule:evenodd;fill:#c0c0c0;fill-rule:nonzero;stroke-width:0.03006548;image-rendering:optimizeQuality;shape-rendering:geometricPrecision;text-rendering:geometricPrecision"
       inkscape:connector-curvature="0"
       class="fil5"
       d="m 269.21234,136.06809 h 114.88019 c 0.54117,0 1.05228,0.24053 1.44314,0.60131 0.36079,0.39086 0.6013,0.90196 0.6013,1.44315 v 135.92601 c 0,0.54118 -0.24051,1.0523 -0.6013,1.41308 -0.39086,0.39085 -0.90197,0.60131 -1.44314,0.60131 H 269.21234 v -7.36603 h -0.9621 v 8.32812 h 115.84229 c 0.81176,0 1.5634,-0.33072 2.10458,-0.87189 0.54117,-0.54118 0.87189,-1.29282 0.87189,-2.10459 V 138.11255 c 0,-0.81176 -0.33072,-1.56341 -0.87189,-2.10458 -0.54118,-0.54118 -1.29282,-0.87191 -2.10458,-0.87191 H 268.25024 v 0.93203 z"
       id="path901" />
    <polygon
       style="clip-rule:evenodd;fill:#b3b3b3;fill-rule:evenodd;image-rendering:optimizeQuality;shape-rendering:geometricPrecision;text-rendering:geometricPrecision"
       points="2737,6136 2641,6313 4500,6313 4500,6136 "
       class="fil6"
       id="polygon903"
       transform="matrix(0.03006547,0,0,0.03006547,132.9556,116.13468)" />
    <polygon
       style="clip-rule:evenodd;fill:#a8a8a8;fill-rule:evenodd;image-rendering:optimizeQuality;shape-rendering:geometricPrecision;text-rendering:geometricPrecision"
       points="4500,6136 6263,6136 6359,6313 4500,6313 "
       class="fil7"
       id="polygon905"
       transform="matrix(0.03006547,0,0,0.03006547,132.9556,116.13468)" />
    <rect
       style="clip-rule:evenodd;fill:#dbdbdb;fill-rule:evenodd;stroke-width:0.03006548;image-rendering:optimizeQuality;shape-rendering:geometricPrecision;text-rendering:geometricPrecision"
       y="305.93805"
       x="212.35852"
       width="55.891724"
       class="fil8"
       height="2.0642958"
       id="rect907" />
    <rect
       style="clip-rule:evenodd;fill:#c5c5c5;fill-rule:evenodd;stroke-width:0.03006548;image-rendering:optimizeQuality;shape-rendering:geometricPrecision;text-rendering:geometricPrecision"
       y="305.93805"
       x="268.25024"
       width="55.891724"
       class="fil9"
       height="2.0642958"
       id="rect909" />
    <polygon
       style="clip-rule:evenodd;fill:#1f1f1f;fill-rule:evenodd;image-rendering:optimizeQuality;shape-rendering:geometricPrecision;text-rendering:geometricPrecision"
       points="4500,6382 4500,6471 2662,6471 2649,6382 "
       class="fil10"
       id="polygon911"
       transform="matrix(0.03006547,0,0,0.03006547,132.9556,116.13468)" />
    <polygon
       style="clip-rule:evenodd;fill:#161616;fill-rule:evenodd;image-rendering:optimizeQuality;shape-rendering:geometricPrecision;text-rendering:geometricPrecision"
       points="6351,6382 4500,6382 4500,6471 6338,6471 "
       class="fil11"
       id="polygon913"
       transform="matrix(0.03006547,0,0,0.03006547,132.9556,116.13468)" />
    <rect
       style="clip-rule:evenodd;fill:#383737;fill-rule:evenodd;stroke-width:0.03006548;image-rendering:optimizeQuality;shape-rendering:geometricPrecision;text-rendering:geometricPrecision"
       y="302.33017"
       x="258.83975"
       width="9.4104939"
       class="fil12"
       height="3.607857"
       id="rect915" />
    <rect
       style="clip-rule:evenodd;fill:#2b2b2b;fill-rule:evenodd;stroke-width:0.03006548;image-rendering:optimizeQuality;shape-rendering:geometricPrecision;text-rendering:geometricPrecision"
       y="302.33017"
       x="268.25024"
       width="9.4104939"
       class="fil13"
       height="3.607857"
       id="rect917" />
    <path
       style="clip-rule:evenodd;fill:#d6d3d3;fill-rule:evenodd;stroke-width:0.03006548;image-rendering:optimizeQuality;shape-rendering:geometricPrecision;text-rendering:geometricPrecision"
       inkscape:connector-curvature="0"
       class="fil14"
       d="m 149.91253,268.68692 v 5.35164 c 0,1.38301 1.11243,2.49544 2.49544,2.49544 H 267.7692 v -7.84708 z"
       id="path919" />
    <path
       style="clip-rule:evenodd;fill:#c0c0c0;fill-rule:evenodd;stroke-width:0.03006548;image-rendering:optimizeQuality;shape-rendering:geometricPrecision;text-rendering:geometricPrecision"
       inkscape:connector-curvature="0"
       class="fil15"
       d="m 386.58796,268.68692 v 5.35164 c 0,1.38301 -1.11242,2.49544 -2.49543,2.49544 H 268.73129 v -7.84708 z"
       id="path921" />
    <rect
       style="clip-rule:evenodd;fill:#1c1c1c;fill-rule:evenodd;stroke-width:0.03006548;image-rendering:optimizeQuality;shape-rendering:geometricPrecision;text-rendering:geometricPrecision"
       y="277.01505"
       x="258.83975"
       width="9.4104939"
       class="fil16"
       height="25.31513"
       id="rect923" />
    <rect
       style="clip-rule:evenodd;fill:#090909;fill-rule:evenodd;stroke-width:0.03006548;image-rendering:optimizeQuality;shape-rendering:geometricPrecision;text-rendering:geometricPrecision"
       y="277.01505"
       x="268.25024"
       width="9.4104939"
       class="fil17"
       height="25.31513"
       id="rect925" />
    <rect
       style="clip-rule:evenodd;fill:none;fill-rule:evenodd;stroke-width:0.03006548;image-rendering:optimizeQuality;shape-rendering:geometricPrecision;text-rendering:geometricPrecision"
       y="278.6987"
       x="258.83975"
       width="18.851053"
       class="fil18"
       height="5.9228983"
       id="rect927" />
    <path
       style="clip-rule:evenodd;fill:#c9c3c3;fill-rule:evenodd;stroke-width:0.03006548;image-rendering:optimizeQuality;shape-rendering:geometricPrecision;text-rendering:geometricPrecision"
       inkscape:connector-curvature="0"
       class="fil19"
       d="m 264.40187,274.33922 c -0.0301,0.12026 -0.1804,0.12026 -0.30066,0.12026 -0.0601,0 -0.0601,0 -0.0902,-0.0301 -0.0301,-0.0301 -0.0301,-0.0301 -0.0301,-0.0902 0,-0.0301 0.0301,-0.12026 0.0602,-0.1804 0.0301,0 0.0301,-0.0301 0.0602,-0.0602 0,-0.0301 0.0301,-0.0301 0.0601,-0.0602 0.0301,-0.0301 0.0602,-0.0902 0.12027,-0.0301 0.0301,0.0602 0.18038,0.21046 0.12025,0.33073 z m 0.90196,-0.39086 c 0.0301,0 0.12026,0.12027 0.12026,0.15034 -0.0301,0 -0.15032,-0.0902 -0.12026,-0.15034 z m 5.7425,0.21046 0.0301,-0.0301 v 0.0601 z m -0.0602,-0.27058 c -0.0301,-0.0301 0,-0.12026 0.0301,-0.15033 0,0.0602 0,0.12026 -0.0301,0.15033 z m -1.20262,-0.27059 c 0,0.0601 -0.0301,0.12026 -0.0602,0.15033 0,0.0301 -0.15032,0.33072 -0.24052,0.24052 -0.0902,-0.0902 0.21046,-0.36078 0.30066,-0.39085 z m 1.95425,0.0601 c 0.0602,0 0.0602,0 0.0902,0.0301 0.0602,0 0.0602,-0.0301 0.0902,0 0,0.0301 -0.0301,0.18039 -0.0301,0.21046 -0.0301,-0.0301 -0.15032,-0.1804 -0.15032,-0.24052 z m -7.36604,0.18039 c 0.12026,-0.12026 0.54119,-0.24052 0.72157,-0.24052 0.0902,0 0.0601,-0.0301 0.21046,-0.0301 0.1804,0.0301 0.48105,0.0602 0.54119,0.27059 0.0301,0.0602 0.0301,0.12026 0,0.18039 0,0.0301 -0.0301,0.12026 -0.0602,0.15033 -0.15032,0.0902 -0.15032,-0.27059 -0.39084,-0.42092 -0.0601,-0.0301 -0.1804,-0.12026 -0.2706,-0.0301 -0.0601,0.0902 -0.0601,0.24052 0,0.33072 0.0602,0.15033 0.1804,0.21046 0.33072,0.27059 0.0601,0.0301 0.0902,0.0301 0.12026,0.0601 0.0301,0.0602 0.0602,0.0902 0.0902,0.12027 0.0602,0.0602 0.0602,0.0902 0.15033,0.0902 0.0301,-0.0301 0.0601,-0.0902 0.0902,-0.12027 0.0301,-0.0602 0.0301,-0.0902 0.12026,-0.0902 0.0602,0 0.0902,0 0.15034,-0.0301 0.12026,0 0.0902,0 0.18038,-0.0301 0.15033,-0.0602 0.12026,-0.0902 0.21047,-0.1804 0.0602,0.0902 0.0301,0.33072 0.21046,0.27059 0.0902,0 0.0602,-0.12025 0.0602,-0.18039 -0.0301,-0.0902 0.0301,-0.33072 0.0601,-0.45098 0.0301,-0.0301 0.0602,-0.0902 0.12026,-0.15032 0.0602,-0.0902 0.27059,-0.15034 0.33072,-0.0301 0.0301,0.0602 -0.0301,0.12026 -0.0601,0.18039 -0.0301,0.0301 -0.0902,0.18039 -0.12025,0.21046 -0.0301,0.15032 0,0.33072 0.15032,0.39085 0.18039,0.0902 0.24053,0.0902 0.45098,0.0602 0.12027,-0.0301 0.18039,-0.0902 0.27059,-0.15031 0,-0.0301 0.0301,-0.0902 0.0602,-0.0902 0.0301,0.0602 0.0602,0.42092 0.21045,0.36079 0.0301,0 0.0601,-0.0301 0.0902,-0.0602 0.0301,-0.0902 -0.0301,-0.12026 -0.0301,-0.18039 -0.0301,-0.0602 -0.0301,-0.27059 -0.0301,-0.33072 v -0.12026 c 0,-0.0902 0.0301,-0.24052 0.0301,-0.30066 0.0602,-0.15033 0.33072,-0.12027 0.39085,0.0602 0,0.0601 0,0.0902 -0.0301,0.12026 -0.0301,0.0602 -0.0301,0.0602 -0.0602,0.0902 -0.0301,0.0301 0,0.0301 -0.0601,0.12026 -0.0902,0.0902 -0.15033,0.18039 -0.15033,0.33073 0,0 0.0301,0.0902 0.0602,0.0902 0.18038,0.21046 0.63137,0.0902 0.84182,0 0.0301,0 0.18041,-0.0902 0.21047,-0.0902 0,0.0601 -0.0301,0.15031 0.0301,0.24051 0.0602,0.0602 0.0602,0.0902 0.12026,0.15033 0.12026,0.12026 0.33072,0.12026 0.48105,0.0902 0.0902,-0.0301 0.24053,-0.0602 0.30065,-0.12026 0.0301,-0.0301 0.0602,-0.0301 0.0902,-0.0601 0.0601,-0.0301 0.30066,-0.27058 0.33073,-0.27058 0.0301,0 0.0602,0.0601 0.0902,0.0902 0.0602,0.0301 0.0902,0.0601 0.15033,0.0601 0.0301,0.0301 0.0902,0 0.12026,-0.0301 0.0902,-0.0902 -0.0301,-0.36078 -0.0301,-0.48104 -0.0301,-0.0601 -0.0301,-0.12026 -0.0301,-0.1804 0,-0.0301 0.0301,-0.12026 0.0301,-0.15032 h 0.21046 c 0.0601,0 0.0902,0.0602 0.0902,0.12026 0.0602,0.0902 0.12027,0.21046 0.1804,0.30065 0.0602,0.0902 0.15032,0.18039 0.18039,0.27059 0,0.0301 0.0602,0.12026 0.0902,0.15032 0.0301,0.0602 0.0602,0.0602 0.15033,0.0301 0.0301,-0.0301 0.0602,-0.12026 0.0301,-0.15032 -0.0301,-0.12027 -0.12026,-0.12027 -0.12026,-0.33073 0.0301,-0.0301 0,-0.0601 0.0301,-0.12025 v -0.0902 c 0.0301,-0.12027 0.12026,-0.2706 -0.0301,-0.33072 -0.0301,-0.0602 -0.12026,-0.0301 -0.1804,-0.0301 -0.0601,0 -0.18039,0 -0.21045,-0.0301 -0.0301,-0.0602 -0.0301,-0.15034 0,-0.18041 0,-0.0602 0.0601,-0.0902 0.0902,-0.15032 0.0602,-0.0301 0.30066,-0.0902 0.36079,-0.12026 0.33071,-0.0602 0.45098,-0.0602 0.7817,-0.0902 0.21046,-0.0301 0.72157,-0.0301 0.90197,0 0.0902,0.0301 0.0602,0.0602 0.15032,0.0902 0.0602,0 0.15033,-0.0301 0.21046,-0.0301 0.0602,0.0301 0.12026,0.0301 0.18039,-0.0301 0.0301,-0.0602 0.0301,-0.15032 0,-0.18039 -0.0602,-0.0902 -0.12026,-0.0601 -0.18039,-0.0301 l -1.02223,-0.0301 h -0.0902 c -0.12027,0 -0.33072,0 -0.45098,0.0301 -0.21046,0 -0.57125,0.0301 -0.75164,0.15033 -0.0301,0 -0.0602,0 -0.0902,0.0301 -0.0602,0.0301 -0.15032,0.0902 -0.21046,0.15032 -0.12026,0.18039 -0.0902,0.33073 -0.0902,0.36079 -0.0301,0.0301 -0.15033,0 -0.21046,0 -0.0301,-0.0301 -0.0902,-0.0902 -0.12026,-0.0602 -0.0301,0 -0.0902,0.0902 -0.12026,0.12026 -0.0301,0.0301 -0.0601,0.0301 -0.0902,0.0902 -0.0902,0.0601 -0.12027,0.1804 -0.15034,0.2706 v 0.21045 c 0.0301,0.0602 0.0602,0.0902 0,0.15033 -0.12026,0.15033 -0.27059,0.27059 -0.45098,0.36079 -0.0902,0 -0.27059,0.0602 -0.36078,0.0301 -0.0902,-0.0301 -0.0602,0 -0.12027,-0.0602 -0.0602,-0.0602 -0.0902,-0.12026 -0.0602,-0.18038 0.0301,-0.0301 0.18039,-0.0602 0.24053,-0.0602 h 0.12026 c 0.0301,-0.0301 0.0602,-0.0902 0.0602,-0.0902 0.0301,-0.0902 -0.0602,-0.15032 -0.15033,-0.15032 -0.0301,0 -0.24053,0.0301 -0.27058,0.0301 0,-0.0301 0.0902,-0.21045 0.12025,-0.24052 0.0301,-0.0602 0.12027,-0.33072 0.0902,-0.39085 0,-0.0902 -0.0902,-0.12026 -0.18041,-0.0902 -0.0301,0 -0.0902,0.0602 -0.12025,0.0602 -0.15032,0.12025 -0.21046,0.12025 -0.33073,0.33071 -0.0602,0.0602 -0.0902,0.12027 -0.12025,0.24052 -0.0301,0.0902 0.0902,0.18039 0.0902,0.21046 -0.0301,0.0301 -0.12026,0.0602 -0.12026,0.0602 -0.0602,0.0301 -0.12026,0.0301 -0.18039,0.0301 -0.0602,0.0301 -0.30065,0.0301 -0.33072,0 -0.0601,-0.21047 0.45098,-0.42092 0.18038,-0.81177 -0.0902,-0.12026 -0.24052,-0.21046 -0.39084,-0.1804 -0.0602,0 -0.1804,0.0301 -0.24052,0.0601 -0.0301,0.0301 -0.0301,0.18039 -0.0602,0.21046 -0.0301,-0.0301 -0.0602,-0.12026 -0.1804,-0.0602 -0.12026,0.0602 0.0601,0.36078 -0.0902,0.63137 -0.0602,0.0902 -0.24053,0.15033 -0.36079,0.15033 -0.15033,-0.0301 -0.27059,-0.12027 -0.15033,-0.30067 0.0602,-0.0902 0.15033,-0.27058 0.15033,-0.36078 0,-0.0601 -0.0301,-0.15032 -0.0902,-0.18039 -0.0301,-0.0602 -0.0902,-0.0902 -0.15032,-0.0902 -0.21046,-0.0902 -0.39085,0.0602 -0.51111,0.24052 -0.0301,0.0301 -0.0602,0.15032 -0.0902,0.18039 -0.0301,-0.0301 -0.0602,-0.24053 -0.18039,-0.18039 -0.12025,0.0301 -0.0601,0.18039 -0.0902,0.27059 0,0.12025 -0.0301,0.21046 -0.12026,0.27059 -0.0602,0.0301 -0.2706,0.0902 -0.30066,0.0602 -0.0301,-0.0902 0.0602,-0.30065 0,-0.45098 -0.0602,-0.0902 -0.15032,-0.18039 -0.27058,-0.24053 -0.30066,-0.15032 -0.90197,-0.12026 -1.20262,0.0301 l -0.1804,0.0902 c -0.15033,0.0602 -0.15033,0.15033 -0.30065,-0.0301 -0.0602,-0.0301 -0.48105,-0.24052 -0.48105,-0.27058 0,-0.0301 0.18039,-0.12026 0.21046,-0.15033 0.0602,-0.0301 0.12026,-0.0902 0.18039,-0.12027 0.12026,-0.12026 0.24052,-0.24052 0.33072,-0.36078 0.1804,-0.27059 0.36078,-0.69151 0.0602,-0.96209 -0.24052,-0.21047 -0.75163,-0.24053 -1.08235,-0.15034 -1.23269,0.24053 -1.35295,1.62355 -0.99217,2.6157 0.0301,0.12026 0.12027,0.39086 0.21047,0.45098 0.0602,0.0601 0.18038,0.0902 0.15032,-0.0301 -0.0301,-0.0301 -0.0902,-0.0602 -0.15032,-0.21046 -0.24053,-0.63138 -0.39085,-1.53334 0,-2.13466 0.18038,-0.27058 0.48104,-0.45098 0.7817,-0.5111 0.30065,-0.0602 0.87189,-0.0902 1.0523,0.21046 0.12026,0.27058 -0.21047,0.6915 -0.39086,0.87189 -0.12026,0.0902 -0.2706,0.1804 -0.39086,0.27059 -0.0602,0.0301 -0.18038,0.0602 -0.21045,0.12026 -0.0902,0.0902 -0.0602,0.15033 0.0301,0.21046 0.0301,0.0301 0.27058,0.15033 0.33071,0.18039 0.0902,0.0301 0.2706,0.15033 0.33072,0.1804 0.0301,0.0602 0.0301,0.0602 -0.0301,0.0902 -0.0902,0.12025 -0.12026,0.18038 -0.18039,0.30064 -0.0602,0.0902 -0.0602,0.21047 -0.0301,0.30066 0.0301,0.0602 0.12026,0.12027 0.1804,0.15033 0.0301,0.0301 0.24052,0.0301 0.30065,0 0.1804,-0.0301 0.33072,-0.15033 0.33072,-0.33072 -0.0301,-0.21046 -0.21046,-0.39085 -0.24052,-0.45098 z"
       id="path929" />
    <path
       style="clip-rule:evenodd;fill:#bab4b4;fill-rule:evenodd;stroke-width:0.03006548;image-rendering:optimizeQuality;shape-rendering:geometricPrecision;text-rendering:geometricPrecision"
       inkscape:connector-curvature="0"
       class="fil20"
       d="m 268.25024,274.57974 v -1.23268 c 0.0602,-0.0301 0.1804,-0.0602 0.24053,-0.0602 0.15033,-0.0301 0.30066,0.0602 0.39085,0.18039 0.27059,0.39085 -0.24052,0.60131 -0.1804,0.81177 0.0301,0.0301 0.2706,0.0301 0.33073,0 0.0602,0 0.12026,0 0.18039,-0.0301 0,0 0.0902,-0.0301 0.12026,-0.0602 0,-0.0301 -0.12026,-0.12026 -0.0902,-0.21047 0.0301,-0.12026 0.0602,-0.18038 0.12026,-0.24052 0.12027,-0.21046 0.1804,-0.21046 0.33072,-0.33072 0.0301,0 0.0902,-0.0602 0.12026,-0.0602 0.0902,-0.0301 0.1804,0 0.1804,0.0902 0.0301,0.0602 -0.0902,0.33073 -0.0902,0.39086 -0.0301,0.0301 -0.12026,0.21045 -0.12026,0.24052 0.0301,0 0.24052,-0.0301 0.27059,-0.0301 0.0902,0 0.18039,0.0602 0.15032,0.15033 0,0 -0.0301,0.0602 -0.0602,0.0902 h -0.12026 c -0.0602,0 -0.21046,0.0301 -0.24052,0.0601 -0.0301,0.0602 0,0.12026 0.0602,0.1804 0.0602,0.0601 0.0301,0.0301 0.12026,0.0601 0.0902,0.0301 0.2706,-0.0301 0.36079,-0.0301 0.18039,-0.0902 0.33072,-0.21046 0.45098,-0.36078 0.0601,-0.0602 0.0301,-0.0902 0,-0.15033 v -0.21045 c 0.0301,-0.0902 0.0601,-0.21047 0.15033,-0.2706 0.0301,-0.0602 0.0601,-0.0602 0.0902,-0.0902 0.0301,-0.0301 0.0902,-0.12025 0.12027,-0.12025 0.0301,-0.0301 0.0902,0.0301 0.12026,0.0602 0.0602,0 0.1804,0.0301 0.21045,0 0,-0.0301 -0.0301,-0.18039 0.0902,-0.36079 0.0602,-0.0602 0.15032,-0.12026 0.21046,-0.15032 0.0301,-0.0301 0.0602,-0.0301 0.0902,-0.0301 0.18039,-0.12027 0.54117,-0.15033 0.75164,-0.15033 0.12026,-0.0301 0.33072,-0.0301 0.45098,-0.0301 h 0.0902 l 1.02222,0.0301 c 0.0601,-0.0301 0.12026,-0.0602 0.18039,0.0301 0.0301,0.0301 0.0301,0.12026 0,0.18039 -0.0602,0.0602 -0.12026,0.0602 -0.18039,0.0301 -0.0602,0 -0.15032,0.0301 -0.21045,0.0301 -0.0902,-0.0301 -0.0602,-0.0602 -0.15033,-0.0902 -0.18039,-0.0301 -0.69151,-0.0301 -0.90197,0 -0.33071,0.0301 -0.45098,0.0301 -0.78169,0.0902 -0.0602,0.0301 -0.30067,0.0902 -0.36079,0.12027 -0.0301,0.0601 -0.0902,0.0902 -0.0902,0.15032 -0.0301,0.0301 -0.0301,0.12027 0,0.1804 0.0301,0.0301 0.15032,0.0301 0.21046,0.0301 0.0602,0 0.15032,-0.0301 0.18039,0.0301 0.15033,0.0602 0.0601,0.21046 0.0301,0.33072 v 0.0902 c -0.0301,0.0602 0,0.0902 -0.0301,0.12026 0,0.21046 0.0902,0.21046 0.12026,0.33072 0.0301,0.0301 0,0.12026 -0.0301,0.15033 -0.0902,0.0301 -0.12026,0.0301 -0.15032,-0.0301 -0.0301,-0.0301 -0.0902,-0.12026 -0.0902,-0.15032 -0.0301,-0.0902 -0.12026,-0.1804 -0.1804,-0.27059 -0.0602,-0.0902 -0.12026,-0.21046 -0.18039,-0.30066 0,-0.0601 -0.0301,-0.12026 -0.0902,-0.12026 h -0.21046 c 0,0.0301 -0.0301,0.12026 -0.0301,0.15033 0,0.0602 0,0.12026 0.0301,0.18039 0,0.12026 0.12026,0.39085 0.0301,0.48104 -0.0301,0.0301 -0.0902,0.0602 -0.12026,0.0301 -0.0601,0 -0.0902,-0.0301 -0.15034,-0.0601 -0.0301,-0.0301 -0.0602,-0.0902 -0.0902,-0.0902 -0.0301,0 -0.27059,0.24052 -0.33072,0.27059 -0.0301,0.0301 -0.0602,0.0301 -0.0902,0.0601 -0.0601,0.0602 -0.21045,0.0902 -0.30065,0.12026 -0.15033,0.0301 -0.36079,0.0301 -0.48105,-0.0902 -0.0601,-0.0602 -0.0601,-0.0902 -0.12026,-0.15033 -0.0602,-0.0902 -0.0301,-0.18039 -0.0301,-0.24053 -0.0301,0 -0.18039,0.0902 -0.21045,0.0902 -0.21046,0.0902 -0.66145,0.21047 -0.84183,0 -0.0301,0 -0.0602,-0.0902 -0.0602,-0.0902 0,-0.15032 0.0602,-0.24052 0.15032,-0.33072 0.0601,-0.0902 0.0301,-0.0902 0.0601,-0.12026 0.0301,-0.0301 0.0301,-0.0301 0.0602,-0.0902 0.0301,-0.0301 0.0301,-0.0602 0.0301,-0.12026 -0.0602,-0.1804 -0.33073,-0.21046 -0.39086,-0.0601 0,0.0601 -0.0301,0.21046 -0.0301,0.30065 v 0.12026 c 0,0.0602 0,0.27059 0.0301,0.33072 0,0.0602 0.0602,0.0902 0.0301,0.1804 -0.0301,0.0301 -0.0602,0.0602 -0.0902,0.0602 -0.0301,0.0301 -0.0301,0.0301 -0.0601,0 z m 2.79609,-0.42092 0.0301,-0.0301 v 0.0601 z m -0.0602,-0.27058 c -0.0301,-0.0301 0,-0.12026 0.0301,-0.15033 0,0.0602 0,0.12026 -0.0301,0.15033 z m -1.20262,-0.27059 c 0,0.0601 -0.0301,0.12026 -0.0602,0.15033 0,0.0301 -0.15032,0.33072 -0.24052,0.24052 -0.0902,-0.0902 0.21046,-0.36078 0.30066,-0.39085 z m 1.95425,0.0601 c 0.0602,0 0.0602,0 0.0902,0.0301 0.0602,0 0.0602,-0.0301 0.0902,0 0,0.0301 -0.0301,0.18039 -0.0301,0.21046 -0.0301,-0.0301 -0.15032,-0.1804 -0.15032,-0.24052 z"
       id="path931" />
    <g
       style="clip-rule:evenodd;fill-rule:evenodd;stroke-linejoin:round;stroke-miterlimit:1.41420996"
       id="g1457"
       transform="matrix(0.25047094,0,0,0.25047094,15.268991,-44.311317)">
      <g
         id="g1451"
         transform="matrix(1.10895,0,0,1.43792,53.7863,-620.589)">
        <path
           id="rect1449"
           d="m 245.05299,1400.84 h 106.506 v 16.428 h -106.506 z"
           style="fill:#1d2943"
           inkscape:connector-curvature="0" />
      </g>
      <g
         id="g1455"
         transform="translate(88.9497,-0.0314379)">
        <path
           id="path1453"
           transform="matrix(1.9962396,0,0,1.9962396,-149.91083,176.94345)"
           d="m 205.26367,282.85938 v 320.76367 h -6.5957 l -5.05469,5.91601 h 59.16602 l -5.05469,-5.91601 h -6.96094 V 282.85938 h -4.27148 v 3.50195 H 209.6875 v -3.50195 z m 7.78906,6.43945 h 23.43946 v 18.24219 z m -3.36523,1.09961 24.41016,19.00586 H 209.6875 Z m 3.36719,21.9414 h 23.4375 v 18.24414 z m -3.36719,1.10157 23.35938,18.18554 h -23.29883 l -0.0606,-0.0469 z m 3.83594,21.125 h 22.96875 v 17.87695 z m -3.83594,0.73242 24.48438,19.0625 H 209.6875 Z m 3.43945,21.99805 h 23.36524 v 18.1875 z m -3.43945,1.04687 23.43359,18.24023 h -23.37304 l -0.0606,-0.0469 z m 3.83789,21.17969 h 22.9668 v 17.875 z m -3.83789,0.73242 24.41016,19.00586 H 209.6875 Z m 3.36719,21.94141 h 23.4375 v 18.24218 z m -3.36719,1.10156 23.35938,18.18359 H 209.6875 Z m 3.64844,21.125 h 23.15625 v 18.02344 z m -3.64844,0.8789 24.41016,19.00586 H 209.6875 Z m 3.36719,21.94141 h 23.4375 v 18.24414 z m -3.36719,1.10156 23.35938,18.18555 h -23.27149 l -0.0879,-0.0684 z m 3.86719,21.12696 h 22.9375 v 17.85351 z m -3.86719,0.70898 24.41016,19.00586 H 209.6875 Z m 3.36719,21.94141 h 23.4375 v 18.24414 z m -3.36719,1.10156 23.35938,18.18555 h -23.30274 l -0.0566,-0.0449 z m 3.83203,21.125 h 22.97266 v 17.88086 z m -3.83203,0.73633 24.41016,19.00586 H 209.6875 Z m 3.36719,21.9414 h 23.4375 v 18.24414 z m -3.36719,1.10157 23.35938,18.18554 H 209.6875 Z m 0.49414,21.125 h 26.31055 v 24.85547 z m -0.49414,3.57421 26.80469,25.32422 v 15.47071 H 209.6875 Z"
           style="fill:#fbd244;stroke-width:0.50094187"
           inkscape:connector-curvature="0" />
      </g>
    </g>
    <g
       style="clip-rule:evenodd;fill-rule:evenodd;stroke-linejoin:round;stroke-miterlimit:1.41420996"
       id="g1681"
       transform="matrix(0.25047094,0,0,0.25047094,15.268991,-44.311317)">
      <g
         id="g1511"
         transform="matrix(0.69635,-0.182119,0.253023,0.96746,-44.8143,239.362)">
        <path
           id="rect1509"
           d="M 58.582001,399.09698 H 448.22101 v 5.067 H 58.582001 Z"
           style="fill:#1d2943"
           inkscape:connector-curvature="0" />
      </g>
      <g
         id="g1515"
         transform="matrix(1.00051,0.176416,-0.173648,0.984808,411.474,141.563)">
        <path
           id="rect1513"
           d="M 58.582001,399.09698 H 448.22101 v 5.067 H 58.582001 Z"
           style="fill:#1d2943"
           inkscape:connector-curvature="0" />
      </g>
      <g
         id="g1523">
        <path
           id="rect1517"
           d="m 101.653,663.60699 h 85.078 V 704.298 h -85.078 z"
           inkscape:connector-curvature="0" />
        <path
           id="rect1519"
           d="m 101.653,683.95203 h 85.078 v 7.948 h -85.078 z"
           style="fill:#fbd244"
           inkscape:connector-curvature="0" />
        <path
           id="path1521"
           d="m 101.653,689.456 5.503,-5.504 h 7.648 l -7.948,7.948 h -5.203 z m 17.014,2.444 h -7.648 l 7.948,-7.948 h 7.648 z m 11.811,0 h -7.648 l 7.948,-7.948 h 7.648 z m 11.811,0 h -7.648 l 7.948,-7.948 h 7.648 z m 11.811,0 h -7.648 l 7.948,-7.948 h 7.648 z m 11.811,0 h -7.648 l 7.948,-7.948 h 7.648 z m 11.811,0 h -7.648 l 7.948,-7.948 h 7.648 z m 9.008,0 h -4.845 l 4.845,-4.845 z"
           inkscape:connector-curvature="0" />
      </g>
      <g
         id="g1539">
        <g
           id="g1527"
           transform="matrix(0.896317,0,0,1,84.0017,0)">
          <path
             id="path1525"
             style="fill:#d0ae39"
             d="m 835.049,893.892 c 0,-1.218 -1.103,-2.208 -2.463,-2.208 h -26.889 c -1.36,0 -2.463,0.99 -2.463,2.208 v 4.416 c 0,1.218 1.103,2.208 2.463,2.208 h 26.889 c 1.36,0 2.463,-0.99 2.463,-2.208 z"
             inkscape:connector-curvature="0" />
        </g>
        <path
           id="rect1529"
           d="m 807.25897,900.51599 h 21.727 v 4.176 h -21.727 z"
           style="fill:#1d2943"
           inkscape:connector-curvature="0" />
        <path
           id="path1531"
           style="fill:#1d2943"
           d="m 814.505,891.684 h -5.135 l -36.421,-221.349 5,-0.823 z"
           inkscape:connector-curvature="0" />
        <path
           id="path1533"
           style="fill:#1d2943"
           d="m 821.662,891.684 36.382,-222.172 5,0.819 -36.248,221.353 z"
           inkscape:connector-curvature="0" />
        <g
           id="g1537"
           transform="rotate(-180,556.7,1028.67)">
          <path
             id="path1535"
             style="fill:#d0ae39"
             d="m 354.698,1393.73 h -118.11 l 10.091,-11.81 h 97.927 z"
             inkscape:connector-curvature="0" />
        </g>
      </g>
      <g
         id="g1557"
         transform="translate(22.3466,0.454021)">
        <g
           id="g1543"
           transform="matrix(0.474653,-0.474653,0.707107,0.707107,-560.295,583.159)">
          <path
             sodipodi:nodetypes="cccccccccccccccccccccccccccccccccccccccccccccccccccccccccccccccccccccccccccccccccccccccccccccccccccccccccccccccccccccccccccccc"
             inkscape:connector-curvature="0"
             id="rect1541"
             transform="matrix(2.102841,1.4115541,-2.102841,1.4115541,930.87823,49.699875)"
             d="m 420.30664,218.79102 h -145.85156 -0.0703 v 0.0703 l -20.78321,20.78125 0.0215,0.0215 h -60.12305 l 0.0215,-0.0215 -20.85351,-20.85156 -0.10352,0.10351 v -0.10351 H 79.078165 78.679728 l -20.853516,20.85156 0.02148,0.0215 h -0.02148 v 4.14063 H 586.57426 v -4.14063 h -0.0195 l 0.0215,-0.0215 -20.83789,-20.83594 v -0.0156 h -60.57422 l -0.19531,-0.19532 -0.19531,0.19532 h -84.07617 z m -247.74219,4.08007 16.79493,16.79297 H 168.7207 l -16.73242,-16.73242 h 20.57617 z m -93.666012,0.0605 H 101.33008 L 84.597656,239.66401 H 62.007812 Z m 30.712892,0 h 33.9414 l -16.73242,16.73242 h -0.47656 z m 164.88672,0 h 13.89648 l -16.73242,16.73242 h -13.89844 z m 18.20703,0 h 0.32422 l 16.73242,16.73242 h -33.78711 z m 4.63672,0 h 33.59765 l -16.73242,16.73242 h -0.13281 z m 37.91015,0 h 0.043 l 16.73047,16.73242 h -33.50586 z m 4.35352,0 h 33.74414 l -16.73047,16.73242 h -0.28125 z m 38.05664,0 h 0.13672 l 16.73437,16.73242 h -33.60351 z m 4.45117,0 h 33.71875 l -16.73242,16.73242 h -0.25391 z m 38.0332,0 h 0.37891 l 16.73242,16.73242 h -33.8457 z m 4.69141,0 h 33.3457 l -16.67187,16.67383 z m 37.65625,0 h 0.043 l 16.73242,16.73242 H 445.7637 Z m 4.35547,0 h 33.50195 l -16.73047,16.73242 h -0.0391 z m 37.81445,0 h 0.32813 l 16.73242,16.73242 h -33.79297 z m 4.64063,0 h 33.66797 l -16.73243,16.73242 h -0.20312 z m 37.98047,0 h 0.28515 l 16.73242,16.73242 h -33.75 z m 4.59765,0 h 13.79688 l 16.73437,16.73242 h -13.79883 z m -404.11328,0.0957 16.63867,16.63672 h -33.27539 z m -42.29883,0.0762 16.56055,16.56054 H 88.910156 Z"
             style="fill:#fbd244;fill-opacity:1;stroke-width:0.41042426" />
        </g>
        <g
           id="g1547"
           transform="matrix(0.474653,-0.474653,0.707107,0.707107,-477.084,584.235)" />
        <g
           id="g1551"
           transform="matrix(0.499681,0.499681,-0.707107,0.707107,186.398,-45.2136)" />
        <g
           id="g1555"
           transform="matrix(0.499681,0.499681,-0.707107,0.707107,270.992,-45.2136)" />
      </g>
      <g
         id="g1615">
        <g
           id="g1561"
           transform="matrix(0.474653,-0.474653,0.707107,0.707107,-165.143,584.235)" />
        <g
           id="g1565"
           transform="matrix(0.474653,-0.474653,0.707107,0.707107,-80.2128,584.235)" />
        <g
           id="g1569"
           transform="matrix(0.474653,-0.474653,0.707107,0.707107,4.44902,584.235)" />
        <g
           id="g1573"
           transform="matrix(0.474653,-0.474653,0.707107,0.707107,90.327,583.159)" />
        <g
           id="g1577"
           transform="matrix(0.474653,-0.474653,0.707107,0.707107,174.871,583.159)" />
        <g
           id="g1581"
           transform="matrix(0.474653,-0.474653,0.707107,0.707107,259.05,583.159)" />
        <g
           id="g1585"
           transform="matrix(0.474653,-0.474653,0.707107,0.707107,343.056,584.235)" />
        <g
           id="g1589"
           transform="matrix(0.499681,0.499681,-0.707107,0.707107,583.044,-45.2136)" />
        <g
           id="g1593"
           transform="matrix(0.499681,0.499681,-0.707107,0.707107,667.415,-45.2136)" />
        <g
           id="g1597"
           transform="matrix(0.499681,0.499681,-0.707107,0.707107,752.27,-45.2136)" />
        <g
           id="g1601"
           transform="matrix(0.499681,0.499681,-0.707107,0.707107,836.481,-46.2896)" />
        <g
           id="g1605"
           transform="matrix(0.499681,0.499681,-0.707107,0.707107,921.424,-45.2136)" />
        <g
           id="g1609"
           transform="matrix(0.499681,0.499681,-0.707107,0.707107,1005.1,-46.2896)" />
        <g
           id="g1613"
           transform="matrix(0.499681,0.499681,-0.707107,0.707107,1091.17,-45.2136)" />
      </g>
      <g
         id="g1645">
        <g
           id="g1619"
           transform="matrix(2.15711,0,0,0.932171,-181.672,58.4121)" />
        <g
           id="g1623"
           transform="matrix(1.18862,0,0,0.932171,356.656,16.7427)" />
        <g
           id="g1627"
           transform="matrix(0.382576,0,0,0.932171,54.4372,16.7427)" />
        <g
           id="g1631"
           transform="matrix(0.707107,0.707107,-0.863173,0.863173,1429.17,-281.653)" />
        <g
           id="g1635"
           transform="matrix(0.707107,-0.707107,0.863173,0.863173,-450.034,294.484)" />
        <g
           id="g1639"
           transform="matrix(0.707107,-0.707107,0.863173,0.863173,-840.848,294.484)" />
        <g
           id="g1643"
           transform="matrix(0.707107,0.707107,-0.863173,0.863173,644.54,-281.653)" />
      </g>
      <g
         id="g1679">
        <path
           id="path1647"
           transform="matrix(1.9962396,0,0,1.9962396,-60.961128,176.91201)"
           d="m 210.82617,181.00977 c -0.72536,0 -1.31445,0.58908 -1.31445,1.31445 v 2.6289 c 0,0.72537 0.58909,1.31446 1.31445,1.31446 h 2.93555 l -22.84766,54.21875 2.9668,1.24805 0.81055,-1.92383 0.24218,0.68164 49.28711,-17.50781 7.88282,18.75 2.96679,-1.2461 -22.79101,-54.2207 h 4.2832 c 0.72536,0 1.31445,-0.58909 1.31445,-1.31446 v -2.6289 c 0,-0.72537 -0.58909,-1.31445 -1.31445,-1.31445 z m 6.42774,5.25781 h 11.5332 l 2.4043,5.71875 h -16.34766 z m -3.66016,8.68554 h 15.9082 l -18.70898,6.64454 z m 19.61328,1.83204 2.98633,7.10351 h -22.98633 z m -24.62891,10.06836 h 20.8418 l -24.50976,8.70703 z m 28.97071,0.25976 4.5332,10.78125 h -34.88281 z m -34.87305,13.74805 h 38.6582 l -45.46289,16.15039 z"
           style="fill:#fbd244;stroke-width:0.50094187"
           inkscape:connector-curvature="0" />
        <g
           id="g1653"
           transform="translate(156.075,100.689)" />
        <g
           id="g1657"
           transform="translate(4.33542,0.453044)" />
        <g
           id="g1661"
           transform="matrix(0.691431,0,0,1,227.018,76.9305)" />
        <g
           id="g1665"
           transform="matrix(1.42947,0,0,1,59.895,128.649)" />
        <g
           id="g1669"
           transform="matrix(1.15582,-0.410571,0.33473,0.942314,-46.5435,234.589)" />
        <g
           id="g1673"
           transform="matrix(1.63558,-0.580992,0.33473,0.942314,-156.978,310.229)" />
        <g
           id="g1677"
           transform="matrix(0.834745,-0.296519,0.33473,0.942314,28.5438,184.216)" />
      </g>
    </g>
    <g
       style="clip-rule:evenodd;fill-rule:evenodd;stroke-linejoin:round;stroke-miterlimit:1.41420996"
       id="g1729"
       transform="matrix(0.25047094,0,0,0.25047094,15.268991,-44.311317)">
      <g
         id="g1711"
         transform="translate(87.9683,-0.184316)">
        <g
           id="g1685"
           transform="matrix(1.01723,0,0,1.32631,3.95942,-237.894)">
          <path
             id="path1683"
             style="fill:#d0ae39"
             d="m 341.875,731.054 c 0,-1.966 -2.082,-3.563 -4.645,-3.563 H 236.354 c -2.563,0 -4.645,1.597 -4.645,3.563 v 7.125 c 0,1.966 2.082,3.562 4.645,3.562 H 337.23 c 2.563,0 4.645,-1.596 4.645,-3.562 z"
             inkscape:connector-curvature="0" />
        </g>
        <g
           id="g1689"
           transform="matrix(1,0,0,1.22015,8.8509,-159.869)">
          <path
             id="path1687"
             style="fill:#fbd244"
             d="m 341.875,731.054 c 0,-1.966 -1.948,-3.563 -4.347,-3.563 H 236.056 c -2.399,0 -4.347,1.597 -4.347,3.563 v 7.125 c 0,1.966 1.948,3.562 4.347,3.562 h 101.472 c 2.399,0 4.347,-1.596 4.347,-3.562 z"
             inkscape:connector-curvature="0" />
        </g>
        <path
           id="path1691"
           d="m 240.56,733.907 6.128,-6.127 h 8.122 l -14.115,14.115 c -0.088,-0.344 -0.135,-0.704 -0.135,-1.075 z"
           inkscape:connector-curvature="0" />
        <path
           id="path1693"
           d="m 261.045,745.167 h -8.122 L 270.31,727.78 h 8.122 z"
           inkscape:connector-curvature="0" />
        <path
           id="path1695"
           d="m 272.856,745.167 h -8.122 l 17.387,-17.387 h 8.122 z"
           inkscape:connector-curvature="0" />
        <path
           id="path1697"
           d="m 284.667,745.167 h -8.122 l 17.387,-17.387 h 8.122 z"
           inkscape:connector-curvature="0" />
        <path
           id="path1699"
           d="m 296.478,745.167 h -8.122 l 17.387,-17.387 h 8.122 z"
           inkscape:connector-curvature="0" />
        <path
           id="path1701"
           d="m 308.289,745.167 h -8.122 l 17.387,-17.387 h 8.122 z"
           inkscape:connector-curvature="0" />
        <path
           id="path1703"
           d="m 320.1,745.167 h -8.122 l 17.387,-17.387 h 8.122 z"
           inkscape:connector-curvature="0" />
        <path
           id="path1705"
           d="m 346.379,727.78 c 0.834,0 1.613,0.235 2.276,0.643 l -16.744,16.744 h -8.122 l 17.387,-17.387 z"
           inkscape:connector-curvature="0" />
        <path
           id="path1707"
           d="m 350.368,730.399 c 0.23,0.53 0.358,1.114 0.358,1.728 v 6.036 l -7.004,7.004 H 335.6 Z"
           inkscape:connector-curvature="0" />
        <path
           id="path1709"
           d="m 242.122,744.156 16.377,-16.376 h 8.122 l -17.387,17.387 h -4.327 c -1.059,0 -2.03,-0.38 -2.785,-1.011 z"
           inkscape:connector-curvature="0" />
      </g>
      <g
         id="g1727"
         transform="translate(88.9497,-0.0314379)">
        <rect
           id="rect1713"
           style="fill:#d0ae39"
           height="86.467003"
           width="41.613998"
           y="640.362"
           x="246.70399" />
        <path
           id="path1715"
           style="fill:#fbd244"
           d="m 288.318,640.362 34.49,10.884 24.865,46.309 -9.04,29.274 -50.315,0.798 z"
           inkscape:connector-curvature="0" />
        <path
           id="path1717"
           style="fill:#cce2a3;fill-opacity:1"
           d="m 294.712,649.232 28.096,12.196 18.038,35.008 -3.517,12.225 h -42.617 z"
           inkscape:connector-curvature="0" />
        <path
           id="path1719"
           style="fill:#a8c69f;fill-opacity:1"
           d="m 294.712,652.354 v -3.122 l 28.096,12.196 18.038,35.008 -3.517,12.225 h -2.92 l 3.043,-10.576 -18.038,-35.007 z"
           inkscape:connector-curvature="0" />
        <g
           id="g1723"
           transform="matrix(1,0,0,1.15308,-0.00511348,-107.722)">
          <rect
             id="rect1721"
             style="fill:#cce2a3;fill-opacity:1"
             height="51.540001"
             width="26.548"
             y="656.46301"
             x="254.242" />
        </g>
        <path
           id="path1725"
           style="fill:#a8c69f;fill-opacity:1"
           d="m 280.785,708.661 h -4.675 v -54.78 h -21.873 v -4.649 h 26.548 z"
           inkscape:connector-curvature="0" />
      </g>
    </g>
    <path
       style="fill:#a8c69f;fill-opacity:1;stroke-width:0.29225668"
       d="m 173.33629,211.38412 -3.13635,5.99699 -7.51014,0.32312 -3.67572,-5.72888 c -2.12253,0.52702 -4.32885,1.19376 -6.36817,2.05569 l 0.24029,6.70015 -0.44326,0.2839 v 14.18943 c 2.73135,-2.64321 6.16777,-4.62781 10.11596,-5.60811 11.95334,-2.96792 24.08502,4.33821 27.05286,16.29127 1.88899,7.608 -0.38854,15.28452 -5.37289,20.62841 h 13.55015 l 1.62064,-3.13634 6.81206,-0.2681 c 0.64546,-2.17635 1.17983,-4.32513 1.46257,-6.53005 l -5.99698,-3.13635 -0.32312,-7.51013 5.75733,-3.56507 c -0.527,-2.12249 -1.19375,-4.32881 -2.05569,-6.36817 l -6.81206,0.2681 -4.06523,-6.34349 3.13634,-5.997 c -1.47703,-1.64931 -3.14964,-3.13141 -4.90622,-4.47434 l -5.72888,3.67571 -6.66663,-3.44428 -0.15618,-6.83988 c -2.17635,-0.64549 -4.32576,-1.17979 -6.53068,-1.46258 z"
       id="path2078"
       inkscape:connector-curvature="0" />
    <rect
       style="opacity:1;fill:#4f676f;fill-opacity:1;stroke:none;stroke-width:2.40375137;stroke-linecap:butt;stroke-linejoin:round;stroke-miterlimit:4;stroke-dasharray:none;stroke-dashoffset:0;stroke-opacity:1;paint-order:markers stroke fill"
       id="rect2642"
       width="108.48652"
       height="29.446339"
       x="165.77724"
       y="182.17673" />
    <path
       style="color:#000000;font-style:normal;font-variant:normal;font-weight:normal;font-stretch:normal;font-size:medium;line-height:normal;font-family:sans-serif;font-variant-ligatures:normal;font-variant-position:normal;font-variant-caps:normal;font-variant-numeric:normal;font-variant-alternates:normal;font-feature-settings:normal;text-indent:0;text-align:start;text-decoration:none;text-decoration-line:none;text-decoration-style:solid;text-decoration-color:#000000;letter-spacing:normal;word-spacing:normal;text-transform:none;writing-mode:lr-tb;direction:ltr;text-orientation:mixed;dominant-baseline:auto;baseline-shift:baseline;text-anchor:start;white-space:normal;shape-padding:0;clip-rule:nonzero;display:inline;overflow:visible;visibility:visible;opacity:1;isolation:auto;mix-blend-mode:normal;color-interpolation:sRGB;color-interpolation-filters:linearRGB;solid-color:#000000;solid-opacity:1;vector-effect:none;fill:#4a4d54;fill-opacity:1;fill-rule:nonzero;stroke:none;stroke-width:1.54980731;stroke-linecap:square;stroke-linejoin:bevel;stroke-miterlimit:4;stroke-dasharray:6.19922948, 6.19922948;stroke-dashoffset:0;stroke-opacity:1;color-rendering:auto;image-rendering:auto;shape-rendering:auto;text-rendering:auto;enable-background:accumulate"
       d="m 342.2793,141.3418 v 0.77539 6.19922 0.77539 h 1.54882 v -0.77539 -6.19922 -0.77539 z m 0,12.39843 v 0.77539 6.19922 0.77539 h 1.54882 v -0.77539 -6.19922 -0.77539 z m 0,12.39844 v 0.77539 6.19922 0.77539 h 1.54882 v -0.77539 -6.19922 -0.77539 z m 0,12.39844 v 0.77539 6.19922 0.77539 h 1.54882 v -0.77539 -6.19922 -0.77539 z m 0,12.39844 v 0.77539 6.19922 0.77539 h 1.54882 v -0.77539 -6.19922 -0.77539 z m 0,12.39843 v 0.7754 6.19921 0.77539 h 1.54882 v -0.77539 -6.19921 -0.7754 z m 0,12.39844 v 0.77539 6.19922 0.77539 h 1.54882 v -0.77539 -6.19922 -0.77539 z m 0,12.39844 v 0.77539 6.19922 0.77539 h 1.54882 v -0.77539 -6.19922 -0.77539 z m 0,12.39844 v 0.77539 6.19922 0.77539 h 1.54882 v -0.77539 -6.19922 -0.77539 z"
       id="path2692"
       inkscape:connector-curvature="0" />
    <path
       style="color:#000000;font-style:normal;font-variant:normal;font-weight:normal;font-stretch:normal;font-size:medium;line-height:normal;font-family:sans-serif;font-variant-ligatures:normal;font-variant-position:normal;font-variant-caps:normal;font-variant-numeric:normal;font-variant-alternates:normal;font-feature-settings:normal;text-indent:0;text-align:start;text-decoration:none;text-decoration-line:none;text-decoration-style:solid;text-decoration-color:#000000;letter-spacing:normal;word-spacing:normal;text-transform:none;writing-mode:lr-tb;direction:ltr;text-orientation:mixed;dominant-baseline:auto;baseline-shift:baseline;text-anchor:start;white-space:normal;shape-padding:0;clip-rule:nonzero;display:inline;overflow:visible;visibility:visible;opacity:1;isolation:auto;mix-blend-mode:normal;color-interpolation:sRGB;color-interpolation-filters:linearRGB;solid-color:#000000;solid-opacity:1;vector-effect:none;fill:#4a4d54;fill-opacity:1;fill-rule:nonzero;stroke:none;stroke-width:2.47969174;stroke-linecap:square;stroke-linejoin:miter;stroke-miterlimit:4;stroke-dasharray:none;stroke-dashoffset:0;stroke-opacity:1;paint-order:markers stroke fill;color-rendering:auto;image-rendering:auto;shape-rendering:auto;text-rendering:auto;enable-background:accumulate"
       d="m 338.71484,147.50391 v 1.23828 7.43945 h 8.67774 v -8.67773 z m 2.47852,2.47851 h 3.7207 v 3.7207 h -3.7207 z"
       id="rect2694"
       inkscape:connector-curvature="0" />
    <path
       style="color:#000000;font-style:normal;font-variant:normal;font-weight:normal;font-stretch:normal;font-size:medium;line-height:normal;font-family:sans-serif;font-variant-ligatures:normal;font-variant-position:normal;font-variant-caps:normal;font-variant-numeric:normal;font-variant-alternates:normal;font-feature-settings:normal;text-indent:0;text-align:start;text-decoration:none;text-decoration-line:none;text-decoration-style:solid;text-decoration-color:#000000;letter-spacing:normal;word-spacing:normal;text-transform:none;writing-mode:lr-tb;direction:ltr;text-orientation:mixed;dominant-baseline:auto;baseline-shift:baseline;text-anchor:start;white-space:normal;shape-padding:0;clip-rule:nonzero;display:inline;overflow:visible;visibility:visible;opacity:1;isolation:auto;mix-blend-mode:normal;color-interpolation:sRGB;color-interpolation-filters:linearRGB;solid-color:#000000;solid-opacity:1;vector-effect:none;fill:#4a4d54;fill-opacity:1;fill-rule:nonzero;stroke:none;stroke-width:2.47969174;stroke-linecap:square;stroke-linejoin:miter;stroke-miterlimit:4;stroke-dasharray:none;stroke-dashoffset:0;stroke-opacity:1;paint-order:markers stroke fill;color-rendering:auto;image-rendering:auto;shape-rendering:auto;text-rendering:auto;enable-background:accumulate"
       d="m 338.71484,197.09766 v 1.23828 7.43945 h 8.67774 v -8.67773 z m 2.47852,2.47851 h 3.7207 v 3.72071 h -3.7207 z"
       id="rect2696"
       inkscape:connector-curvature="0" />
    <path
       style="color:#000000;font-style:normal;font-variant:normal;font-weight:normal;font-stretch:normal;font-size:medium;line-height:normal;font-family:sans-serif;font-variant-ligatures:normal;font-variant-position:normal;font-variant-caps:normal;font-variant-numeric:normal;font-variant-alternates:normal;font-feature-settings:normal;text-indent:0;text-align:start;text-decoration:none;text-decoration-line:none;text-decoration-style:solid;text-decoration-color:#000000;letter-spacing:normal;word-spacing:normal;text-transform:none;writing-mode:lr-tb;direction:ltr;text-orientation:mixed;dominant-baseline:auto;baseline-shift:baseline;text-anchor:start;white-space:normal;shape-padding:0;clip-rule:nonzero;display:inline;overflow:visible;visibility:visible;opacity:1;isolation:auto;mix-blend-mode:normal;color-interpolation:sRGB;color-interpolation-filters:linearRGB;solid-color:#000000;solid-opacity:1;vector-effect:none;fill:#4a4d54;fill-opacity:1;fill-rule:nonzero;stroke:none;stroke-width:1.54980731;stroke-linecap:square;stroke-linejoin:bevel;stroke-miterlimit:4;stroke-dasharray:6.19922948, 6.19922948;stroke-dashoffset:0;stroke-opacity:1;color-rendering:auto;image-rendering:auto;shape-rendering:auto;text-rendering:auto;enable-background:accumulate"
       d="m 212.65234,246.72852 v 1.55078 h 0.77539 5.64258 0.77344 v -1.55078 h -0.77344 -5.64258 z m 11.8418,0 v 1.55078 h 0.77539 6.19922 0.77344 v -1.55078 h -0.77344 -6.19922 z m 12.39844,0 v 1.55078 h 0.77539 6.19922 0.77343 v -1.55078 h -0.77343 -6.19922 z m 12.39844,0 v 1.55078 h 0.77539 6.19921 0.77344 v -1.55078 h -0.77344 -6.19921 z m 12.39843,0 v 1.55078 h 0.77539 6.19922 0.77344 v -1.55078 h -0.77344 -6.19922 z m 12.39844,0 v 1.55078 h 0.77539 6.19922 0.77344 v -1.55078 h -0.77344 -6.19922 z m 12.39844,0 v 1.55078 h 0.77539 6.19922 0.77344 v -1.55078 h -0.77344 -6.19922 z m 12.39844,0 v 1.55078 h 0.77539 6.19922 0.77343 v -1.55078 h -0.77343 -6.19922 z m 12.39843,0 v 1.55078 h 0.77539 6.19922 0.77344 v -1.55078 h -0.77344 -6.19922 z m 12.39844,0 v 1.55078 h 0.77539 6.19922 0.77344 v -1.55078 h -0.77344 -6.19922 z m 12.39844,0 v 1.55078 h 0.77539 6.19922 0.77343 v -1.55078 h -0.77343 -6.19922 z"
       id="path2700"
       inkscape:connector-curvature="0" />
    <path
       style="color:#000000;font-style:normal;font-variant:normal;font-weight:normal;font-stretch:normal;font-size:medium;line-height:normal;font-family:sans-serif;font-variant-ligatures:normal;font-variant-position:normal;font-variant-caps:normal;font-variant-numeric:normal;font-variant-alternates:normal;font-feature-settings:normal;text-indent:0;text-align:start;text-decoration:none;text-decoration-line:none;text-decoration-style:solid;text-decoration-color:#000000;letter-spacing:normal;word-spacing:normal;text-transform:none;writing-mode:lr-tb;direction:ltr;text-orientation:mixed;dominant-baseline:auto;baseline-shift:baseline;text-anchor:start;white-space:normal;shape-padding:0;clip-rule:nonzero;display:inline;overflow:visible;visibility:visible;opacity:1;isolation:auto;mix-blend-mode:normal;color-interpolation:sRGB;color-interpolation-filters:linearRGB;solid-color:#000000;solid-opacity:1;vector-effect:none;fill:#4a4d54;fill-opacity:1;fill-rule:nonzero;stroke:none;stroke-width:2.47969174;stroke-linecap:square;stroke-linejoin:miter;stroke-miterlimit:4;stroke-dasharray:none;stroke-dashoffset:0;stroke-opacity:1;paint-order:markers stroke fill;color-rendering:auto;image-rendering:auto;shape-rendering:auto;text-rendering:auto;enable-background:accumulate"
       d="m 218.01172,243.16406 v 1.24024 7.43945 h 8.67773 v -8.67969 z m 2.47851,2.48047 h 3.72071 v 3.71875 h -3.72071 z"
       id="rect2702"
       inkscape:connector-curvature="0" />
    <path
       style="color:#000000;font-style:normal;font-variant:normal;font-weight:normal;font-stretch:normal;font-size:medium;line-height:normal;font-family:sans-serif;font-variant-ligatures:normal;font-variant-position:normal;font-variant-caps:normal;font-variant-numeric:normal;font-variant-alternates:normal;font-feature-settings:normal;text-indent:0;text-align:start;text-decoration:none;text-decoration-line:none;text-decoration-style:solid;text-decoration-color:#000000;letter-spacing:normal;word-spacing:normal;text-transform:none;writing-mode:lr-tb;direction:ltr;text-orientation:mixed;dominant-baseline:auto;baseline-shift:baseline;text-anchor:start;white-space:normal;shape-padding:0;clip-rule:nonzero;display:inline;overflow:visible;visibility:visible;opacity:1;isolation:auto;mix-blend-mode:normal;color-interpolation:sRGB;color-interpolation-filters:linearRGB;solid-color:#000000;solid-opacity:1;vector-effect:none;fill:#4a4d54;fill-opacity:1;fill-rule:nonzero;stroke:none;stroke-width:2.47969174;stroke-linecap:square;stroke-linejoin:miter;stroke-miterlimit:4;stroke-dasharray:none;stroke-dashoffset:0;stroke-opacity:1;paint-order:markers stroke fill;color-rendering:auto;image-rendering:auto;shape-rendering:auto;text-rendering:auto;enable-background:accumulate"
       d="m 267.60547,243.16406 v 1.24024 7.43945 h 8.67773 v -8.67969 z m 2.47851,2.48047 h 3.72071 v 3.71875 h -3.72071 z"
       id="rect2704"
       inkscape:connector-curvature="0" />
    <circle
       style="display:inline;opacity:1;fill:#4f5d6f;fill-opacity:1;stroke:#4a4d54;stroke-width:2;stroke-linecap:square;stroke-linejoin:miter;stroke-miterlimit:4;stroke-dasharray:none;stroke-dashoffset:0;stroke-opacity:1;paint-order:markers stroke fill"
       id="path5933"
       cx="342.96313"
       cy="250.49518"
       r="15.620872" />
  </g>
</svg>
